<?xml version="1.0" encoding="utf-8" standalone="no"?>
<!DOCTYPE svg PUBLIC "-//W3C//DTD SVG 1.1//EN"
  "http://www.w3.org/Graphics/SVG/1.1/DTD/svg11.dtd">
<!-- Created with matplotlib (http://matplotlib.org/) -->
<svg height="345pt" version="1.1" viewBox="0 0 460 345" width="460pt" xmlns="http://www.w3.org/2000/svg" xmlns:xlink="http://www.w3.org/1999/xlink">
 <defs>
  <style type="text/css">
*{stroke-linecap:butt;stroke-linejoin:round;}
  </style>
 </defs>
 <g id="figure_1">
  <g id="patch_1">
   <path d="M 0 345.6 
L 460.8 345.6 
L 460.8 0 
L 0 0 
z
" style="fill:#ffffff;"/>
  </g>
  <g id="axes_1">
   <g id="patch_2">
    <path d="M 63.47 300.328 
L 376.36 300.328 
L 376.36 26.88 
L 63.47 26.88 
z
" style="fill:#ffffff;"/>
   </g>
   <g id="matplotlib.axis_1">
    <g id="xtick_1">
     <g id="line2d_1">
      <defs>
       <path d="M 0 0 
L 0 3.5 
" id="m23678f1b83" style="stroke:#000000;stroke-width:0.8;"/>
      </defs>
      <g>
       <use style="stroke:#000000;stroke-width:0.8;" x="89.173637" xlink:href="#m23678f1b83" y="300.328"/>
      </g>
     </g>
     <g id="text_1">
      <!-- ${10^{2}}$ -->
      <defs>
       <path d="M 12.40625 8.296875 
L 28.515625 8.296875 
L 28.515625 63.921875 
L 10.984375 60.40625 
L 10.984375 69.390625 
L 28.421875 72.90625 
L 38.28125 72.90625 
L 38.28125 8.296875 
L 54.390625 8.296875 
L 54.390625 0 
L 12.40625 0 
z
" id="DejaVuSans-31"/>
       <path d="M 31.78125 66.40625 
Q 24.171875 66.40625 20.328125 58.90625 
Q 16.5 51.421875 16.5 36.375 
Q 16.5 21.390625 20.328125 13.890625 
Q 24.171875 6.390625 31.78125 6.390625 
Q 39.453125 6.390625 43.28125 13.890625 
Q 47.125 21.390625 47.125 36.375 
Q 47.125 51.421875 43.28125 58.90625 
Q 39.453125 66.40625 31.78125 66.40625 
M 31.78125 74.21875 
Q 44.046875 74.21875 50.515625 64.515625 
Q 56.984375 54.828125 56.984375 36.375 
Q 56.984375 17.96875 50.515625 8.265625 
Q 44.046875 -1.421875 31.78125 -1.421875 
Q 19.53125 -1.421875 13.0625 8.265625 
Q 6.59375 17.96875 6.59375 36.375 
Q 6.59375 54.828125 13.0625 64.515625 
Q 19.53125 74.21875 31.78125 74.21875 
" id="DejaVuSans-30"/>
       <path d="M 19.1875 8.296875 
L 53.609375 8.296875 
L 53.609375 0 
L 7.328125 0 
L 7.328125 8.296875 
Q 12.9375 14.109375 22.625 23.890625 
Q 32.328125 33.6875 34.8125 36.53125 
Q 39.546875 41.84375 41.421875 45.53125 
Q 43.3125 49.21875 43.3125 52.78125 
Q 43.3125 58.59375 39.234375 62.25 
Q 35.15625 65.921875 28.609375 65.921875 
Q 23.96875 65.921875 18.8125 64.3125 
Q 13.671875 62.703125 7.8125 59.421875 
L 7.8125 69.390625 
Q 13.765625 71.78125 18.9375 73 
Q 24.125 74.21875 28.421875 74.21875 
Q 39.75 74.21875 46.484375 68.546875 
Q 53.21875 62.890625 53.21875 53.421875 
Q 53.21875 48.921875 51.53125 44.890625 
Q 49.859375 40.875 45.40625 35.40625 
Q 44.1875 33.984375 37.640625 27.21875 
Q 31.109375 20.453125 19.1875 8.296875 
" id="DejaVuSans-32"/>
      </defs>
      <g transform="translate(80.373637 314.926437)scale(0.1 -0.1)">
       <use transform="translate(0 0.765625)" xlink:href="#DejaVuSans-31"/>
       <use transform="translate(63.623047 0.765625)" xlink:href="#DejaVuSans-30"/>
       <use transform="translate(128.203125 39.046875)scale(0.7)" xlink:href="#DejaVuSans-32"/>
      </g>
     </g>
    </g>
    <g id="xtick_2">
     <g id="line2d_2">
      <g>
       <use style="stroke:#000000;stroke-width:0.8;" x="146.062727" xlink:href="#m23678f1b83" y="300.328"/>
      </g>
     </g>
     <g id="text_2">
      <!-- ${10^{3}}$ -->
      <defs>
       <path d="M 40.578125 39.3125 
Q 47.65625 37.796875 51.625 33 
Q 55.609375 28.21875 55.609375 21.1875 
Q 55.609375 10.40625 48.1875 4.484375 
Q 40.765625 -1.421875 27.09375 -1.421875 
Q 22.515625 -1.421875 17.65625 -0.515625 
Q 12.796875 0.390625 7.625 2.203125 
L 7.625 11.71875 
Q 11.71875 9.328125 16.59375 8.109375 
Q 21.484375 6.890625 26.8125 6.890625 
Q 36.078125 6.890625 40.9375 10.546875 
Q 45.796875 14.203125 45.796875 21.1875 
Q 45.796875 27.640625 41.28125 31.265625 
Q 36.765625 34.90625 28.71875 34.90625 
L 20.21875 34.90625 
L 20.21875 43.015625 
L 29.109375 43.015625 
Q 36.375 43.015625 40.234375 45.921875 
Q 44.09375 48.828125 44.09375 54.296875 
Q 44.09375 59.90625 40.109375 62.90625 
Q 36.140625 65.921875 28.71875 65.921875 
Q 24.65625 65.921875 20.015625 65.03125 
Q 15.375 64.15625 9.8125 62.3125 
L 9.8125 71.09375 
Q 15.4375 72.65625 20.34375 73.4375 
Q 25.25 74.21875 29.59375 74.21875 
Q 40.828125 74.21875 47.359375 69.109375 
Q 53.90625 64.015625 53.90625 55.328125 
Q 53.90625 49.265625 50.4375 45.09375 
Q 46.96875 40.921875 40.578125 39.3125 
" id="DejaVuSans-33"/>
      </defs>
      <g transform="translate(137.262727 314.926437)scale(0.1 -0.1)">
       <use transform="translate(0 0.765625)" xlink:href="#DejaVuSans-31"/>
       <use transform="translate(63.623047 0.765625)" xlink:href="#DejaVuSans-30"/>
       <use transform="translate(128.203125 39.046875)scale(0.7)" xlink:href="#DejaVuSans-33"/>
      </g>
     </g>
    </g>
    <g id="xtick_3">
     <g id="line2d_3">
      <g>
       <use style="stroke:#000000;stroke-width:0.8;" x="202.951818" xlink:href="#m23678f1b83" y="300.328"/>
      </g>
     </g>
     <g id="text_3">
      <!-- ${10^{4}}$ -->
      <defs>
       <path d="M 37.796875 64.3125 
L 12.890625 25.390625 
L 37.796875 25.390625 
z
M 35.203125 72.90625 
L 47.609375 72.90625 
L 47.609375 25.390625 
L 58.015625 25.390625 
L 58.015625 17.1875 
L 47.609375 17.1875 
L 47.609375 0 
L 37.796875 0 
L 37.796875 17.1875 
L 4.890625 17.1875 
L 4.890625 26.703125 
z
" id="DejaVuSans-34"/>
      </defs>
      <g transform="translate(194.151818 314.926437)scale(0.1 -0.1)">
       <use transform="translate(0 0.684375)" xlink:href="#DejaVuSans-31"/>
       <use transform="translate(63.623047 0.684375)" xlink:href="#DejaVuSans-30"/>
       <use transform="translate(128.203125 38.965625)scale(0.7)" xlink:href="#DejaVuSans-34"/>
      </g>
     </g>
    </g>
    <g id="xtick_4">
     <g id="line2d_4">
      <g>
       <use style="stroke:#000000;stroke-width:0.8;" x="259.840909" xlink:href="#m23678f1b83" y="300.328"/>
      </g>
     </g>
     <g id="text_4">
      <!-- ${10^{5}}$ -->
      <defs>
       <path d="M 10.796875 72.90625 
L 49.515625 72.90625 
L 49.515625 64.59375 
L 19.828125 64.59375 
L 19.828125 46.734375 
Q 21.96875 47.46875 24.109375 47.828125 
Q 26.265625 48.1875 28.421875 48.1875 
Q 40.625 48.1875 47.75 41.5 
Q 54.890625 34.8125 54.890625 23.390625 
Q 54.890625 11.625 47.5625 5.09375 
Q 40.234375 -1.421875 26.90625 -1.421875 
Q 22.3125 -1.421875 17.546875 -0.640625 
Q 12.796875 0.140625 7.71875 1.703125 
L 7.71875 11.625 
Q 12.109375 9.234375 16.796875 8.0625 
Q 21.484375 6.890625 26.703125 6.890625 
Q 35.15625 6.890625 40.078125 11.328125 
Q 45.015625 15.765625 45.015625 23.390625 
Q 45.015625 31 40.078125 35.4375 
Q 35.15625 39.890625 26.703125 39.890625 
Q 22.75 39.890625 18.8125 39.015625 
Q 14.890625 38.140625 10.796875 36.28125 
z
" id="DejaVuSans-35"/>
      </defs>
      <g transform="translate(251.040909 314.926437)scale(0.1 -0.1)">
       <use transform="translate(0 0.684375)" xlink:href="#DejaVuSans-31"/>
       <use transform="translate(63.623047 0.684375)" xlink:href="#DejaVuSans-30"/>
       <use transform="translate(128.203125 38.965625)scale(0.7)" xlink:href="#DejaVuSans-35"/>
      </g>
     </g>
    </g>
    <g id="xtick_5">
     <g id="line2d_5">
      <g>
       <use style="stroke:#000000;stroke-width:0.8;" x="316.73" xlink:href="#m23678f1b83" y="300.328"/>
      </g>
     </g>
     <g id="text_5">
      <!-- ${10^{6}}$ -->
      <defs>
       <path d="M 33.015625 40.375 
Q 26.375 40.375 22.484375 35.828125 
Q 18.609375 31.296875 18.609375 23.390625 
Q 18.609375 15.53125 22.484375 10.953125 
Q 26.375 6.390625 33.015625 6.390625 
Q 39.65625 6.390625 43.53125 10.953125 
Q 47.40625 15.53125 47.40625 23.390625 
Q 47.40625 31.296875 43.53125 35.828125 
Q 39.65625 40.375 33.015625 40.375 
M 52.59375 71.296875 
L 52.59375 62.3125 
Q 48.875 64.0625 45.09375 64.984375 
Q 41.3125 65.921875 37.59375 65.921875 
Q 27.828125 65.921875 22.671875 59.328125 
Q 17.53125 52.734375 16.796875 39.40625 
Q 19.671875 43.65625 24.015625 45.921875 
Q 28.375 48.1875 33.59375 48.1875 
Q 44.578125 48.1875 50.953125 41.515625 
Q 57.328125 34.859375 57.328125 23.390625 
Q 57.328125 12.15625 50.6875 5.359375 
Q 44.046875 -1.421875 33.015625 -1.421875 
Q 20.359375 -1.421875 13.671875 8.265625 
Q 6.984375 17.96875 6.984375 36.375 
Q 6.984375 53.65625 15.1875 63.9375 
Q 23.390625 74.21875 37.203125 74.21875 
Q 40.921875 74.21875 44.703125 73.484375 
Q 48.484375 72.75 52.59375 71.296875 
" id="DejaVuSans-36"/>
      </defs>
      <g transform="translate(307.93 314.926437)scale(0.1 -0.1)">
       <use transform="translate(0 0.765625)" xlink:href="#DejaVuSans-31"/>
       <use transform="translate(63.623047 0.765625)" xlink:href="#DejaVuSans-30"/>
       <use transform="translate(128.203125 39.046875)scale(0.7)" xlink:href="#DejaVuSans-36"/>
      </g>
     </g>
    </g>
    <g id="xtick_6">
     <g id="line2d_6">
      <g>
       <use style="stroke:#000000;stroke-width:0.8;" x="373.619091" xlink:href="#m23678f1b83" y="300.328"/>
      </g>
     </g>
     <g id="text_6">
      <!-- ${10^{7}}$ -->
      <defs>
       <path d="M 8.203125 72.90625 
L 55.078125 72.90625 
L 55.078125 68.703125 
L 28.609375 0 
L 18.3125 0 
L 43.21875 64.59375 
L 8.203125 64.59375 
z
" id="DejaVuSans-37"/>
      </defs>
      <g transform="translate(364.819091 314.926437)scale(0.1 -0.1)">
       <use transform="translate(0 0.684375)" xlink:href="#DejaVuSans-31"/>
       <use transform="translate(63.623047 0.684375)" xlink:href="#DejaVuSans-30"/>
       <use transform="translate(128.203125 38.965625)scale(0.7)" xlink:href="#DejaVuSans-37"/>
      </g>
     </g>
    </g>
    <g id="xtick_7">
     <g id="line2d_7">
      <defs>
       <path d="M 0 0 
L 0 2 
" id="mec7e9d5dea" style="stroke:#000000;stroke-width:0.6;"/>
      </defs>
      <g>
       <use style="stroke:#000000;stroke-width:0.6;" x="66.535191" xlink:href="#mec7e9d5dea" y="300.328"/>
      </g>
     </g>
    </g>
    <g id="xtick_8">
     <g id="line2d_8">
      <g>
       <use style="stroke:#000000;stroke-width:0.6;" x="72.048314" xlink:href="#mec7e9d5dea" y="300.328"/>
      </g>
     </g>
    </g>
    <g id="xtick_9">
     <g id="line2d_9">
      <g>
       <use style="stroke:#000000;stroke-width:0.6;" x="76.552863" xlink:href="#mec7e9d5dea" y="300.328"/>
      </g>
     </g>
    </g>
    <g id="xtick_10">
     <g id="line2d_10">
      <g>
       <use style="stroke:#000000;stroke-width:0.6;" x="80.361405" xlink:href="#mec7e9d5dea" y="300.328"/>
      </g>
     </g>
    </g>
    <g id="xtick_11">
     <g id="line2d_11">
      <g>
       <use style="stroke:#000000;stroke-width:0.6;" x="83.660514" xlink:href="#mec7e9d5dea" y="300.328"/>
      </g>
     </g>
    </g>
    <g id="xtick_12">
     <g id="line2d_12">
      <g>
       <use style="stroke:#000000;stroke-width:0.6;" x="86.570534" xlink:href="#mec7e9d5dea" y="300.328"/>
      </g>
     </g>
    </g>
    <g id="xtick_13">
     <g id="line2d_13">
      <g>
       <use style="stroke:#000000;stroke-width:0.6;" x="106.298959" xlink:href="#mec7e9d5dea" y="300.328"/>
      </g>
     </g>
    </g>
    <g id="xtick_14">
     <g id="line2d_14">
      <g>
       <use style="stroke:#000000;stroke-width:0.6;" x="116.316631" xlink:href="#mec7e9d5dea" y="300.328"/>
      </g>
     </g>
    </g>
    <g id="xtick_15">
     <g id="line2d_15">
      <g>
       <use style="stroke:#000000;stroke-width:0.6;" x="123.424282" xlink:href="#mec7e9d5dea" y="300.328"/>
      </g>
     </g>
    </g>
    <g id="xtick_16">
     <g id="line2d_16">
      <g>
       <use style="stroke:#000000;stroke-width:0.6;" x="128.937405" xlink:href="#mec7e9d5dea" y="300.328"/>
      </g>
     </g>
    </g>
    <g id="xtick_17">
     <g id="line2d_17">
      <g>
       <use style="stroke:#000000;stroke-width:0.6;" x="133.441954" xlink:href="#mec7e9d5dea" y="300.328"/>
      </g>
     </g>
    </g>
    <g id="xtick_18">
     <g id="line2d_18">
      <g>
       <use style="stroke:#000000;stroke-width:0.6;" x="137.250496" xlink:href="#mec7e9d5dea" y="300.328"/>
      </g>
     </g>
    </g>
    <g id="xtick_19">
     <g id="line2d_19">
      <g>
       <use style="stroke:#000000;stroke-width:0.6;" x="140.549605" xlink:href="#mec7e9d5dea" y="300.328"/>
      </g>
     </g>
    </g>
    <g id="xtick_20">
     <g id="line2d_20">
      <g>
       <use style="stroke:#000000;stroke-width:0.6;" x="143.459625" xlink:href="#mec7e9d5dea" y="300.328"/>
      </g>
     </g>
    </g>
    <g id="xtick_21">
     <g id="line2d_21">
      <g>
       <use style="stroke:#000000;stroke-width:0.6;" x="163.18805" xlink:href="#mec7e9d5dea" y="300.328"/>
      </g>
     </g>
    </g>
    <g id="xtick_22">
     <g id="line2d_22">
      <g>
       <use style="stroke:#000000;stroke-width:0.6;" x="173.205722" xlink:href="#mec7e9d5dea" y="300.328"/>
      </g>
     </g>
    </g>
    <g id="xtick_23">
     <g id="line2d_23">
      <g>
       <use style="stroke:#000000;stroke-width:0.6;" x="180.313373" xlink:href="#mec7e9d5dea" y="300.328"/>
      </g>
     </g>
    </g>
    <g id="xtick_24">
     <g id="line2d_24">
      <g>
       <use style="stroke:#000000;stroke-width:0.6;" x="185.826496" xlink:href="#mec7e9d5dea" y="300.328"/>
      </g>
     </g>
    </g>
    <g id="xtick_25">
     <g id="line2d_25">
      <g>
       <use style="stroke:#000000;stroke-width:0.6;" x="190.331045" xlink:href="#mec7e9d5dea" y="300.328"/>
      </g>
     </g>
    </g>
    <g id="xtick_26">
     <g id="line2d_26">
      <g>
       <use style="stroke:#000000;stroke-width:0.6;" x="194.139587" xlink:href="#mec7e9d5dea" y="300.328"/>
      </g>
     </g>
    </g>
    <g id="xtick_27">
     <g id="line2d_27">
      <g>
       <use style="stroke:#000000;stroke-width:0.6;" x="197.438696" xlink:href="#mec7e9d5dea" y="300.328"/>
      </g>
     </g>
    </g>
    <g id="xtick_28">
     <g id="line2d_28">
      <g>
       <use style="stroke:#000000;stroke-width:0.6;" x="200.348716" xlink:href="#mec7e9d5dea" y="300.328"/>
      </g>
     </g>
    </g>
    <g id="xtick_29">
     <g id="line2d_29">
      <g>
       <use style="stroke:#000000;stroke-width:0.6;" x="220.077141" xlink:href="#mec7e9d5dea" y="300.328"/>
      </g>
     </g>
    </g>
    <g id="xtick_30">
     <g id="line2d_30">
      <g>
       <use style="stroke:#000000;stroke-width:0.6;" x="230.094813" xlink:href="#mec7e9d5dea" y="300.328"/>
      </g>
     </g>
    </g>
    <g id="xtick_31">
     <g id="line2d_31">
      <g>
       <use style="stroke:#000000;stroke-width:0.6;" x="237.202464" xlink:href="#mec7e9d5dea" y="300.328"/>
      </g>
     </g>
    </g>
    <g id="xtick_32">
     <g id="line2d_32">
      <g>
       <use style="stroke:#000000;stroke-width:0.6;" x="242.715586" xlink:href="#mec7e9d5dea" y="300.328"/>
      </g>
     </g>
    </g>
    <g id="xtick_33">
     <g id="line2d_33">
      <g>
       <use style="stroke:#000000;stroke-width:0.6;" x="247.220136" xlink:href="#mec7e9d5dea" y="300.328"/>
      </g>
     </g>
    </g>
    <g id="xtick_34">
     <g id="line2d_34">
      <g>
       <use style="stroke:#000000;stroke-width:0.6;" x="251.028678" xlink:href="#mec7e9d5dea" y="300.328"/>
      </g>
     </g>
    </g>
    <g id="xtick_35">
     <g id="line2d_35">
      <g>
       <use style="stroke:#000000;stroke-width:0.6;" x="254.327787" xlink:href="#mec7e9d5dea" y="300.328"/>
      </g>
     </g>
    </g>
    <g id="xtick_36">
     <g id="line2d_36">
      <g>
       <use style="stroke:#000000;stroke-width:0.6;" x="257.237807" xlink:href="#mec7e9d5dea" y="300.328"/>
      </g>
     </g>
    </g>
    <g id="xtick_37">
     <g id="line2d_37">
      <g>
       <use style="stroke:#000000;stroke-width:0.6;" x="276.966232" xlink:href="#mec7e9d5dea" y="300.328"/>
      </g>
     </g>
    </g>
    <g id="xtick_38">
     <g id="line2d_38">
      <g>
       <use style="stroke:#000000;stroke-width:0.6;" x="286.983904" xlink:href="#mec7e9d5dea" y="300.328"/>
      </g>
     </g>
    </g>
    <g id="xtick_39">
     <g id="line2d_39">
      <g>
       <use style="stroke:#000000;stroke-width:0.6;" x="294.091555" xlink:href="#mec7e9d5dea" y="300.328"/>
      </g>
     </g>
    </g>
    <g id="xtick_40">
     <g id="line2d_40">
      <g>
       <use style="stroke:#000000;stroke-width:0.6;" x="299.604677" xlink:href="#mec7e9d5dea" y="300.328"/>
      </g>
     </g>
    </g>
    <g id="xtick_41">
     <g id="line2d_41">
      <g>
       <use style="stroke:#000000;stroke-width:0.6;" x="304.109226" xlink:href="#mec7e9d5dea" y="300.328"/>
      </g>
     </g>
    </g>
    <g id="xtick_42">
     <g id="line2d_42">
      <g>
       <use style="stroke:#000000;stroke-width:0.6;" x="307.917768" xlink:href="#mec7e9d5dea" y="300.328"/>
      </g>
     </g>
    </g>
    <g id="xtick_43">
     <g id="line2d_43">
      <g>
       <use style="stroke:#000000;stroke-width:0.6;" x="311.216878" xlink:href="#mec7e9d5dea" y="300.328"/>
      </g>
     </g>
    </g>
    <g id="xtick_44">
     <g id="line2d_44">
      <g>
       <use style="stroke:#000000;stroke-width:0.6;" x="314.126898" xlink:href="#mec7e9d5dea" y="300.328"/>
      </g>
     </g>
    </g>
    <g id="xtick_45">
     <g id="line2d_45">
      <g>
       <use style="stroke:#000000;stroke-width:0.6;" x="333.855323" xlink:href="#mec7e9d5dea" y="300.328"/>
      </g>
     </g>
    </g>
    <g id="xtick_46">
     <g id="line2d_46">
      <g>
       <use style="stroke:#000000;stroke-width:0.6;" x="343.872995" xlink:href="#mec7e9d5dea" y="300.328"/>
      </g>
     </g>
    </g>
    <g id="xtick_47">
     <g id="line2d_47">
      <g>
       <use style="stroke:#000000;stroke-width:0.6;" x="350.980646" xlink:href="#mec7e9d5dea" y="300.328"/>
      </g>
     </g>
    </g>
    <g id="xtick_48">
     <g id="line2d_48">
      <g>
       <use style="stroke:#000000;stroke-width:0.6;" x="356.493768" xlink:href="#mec7e9d5dea" y="300.328"/>
      </g>
     </g>
    </g>
    <g id="xtick_49">
     <g id="line2d_49">
      <g>
       <use style="stroke:#000000;stroke-width:0.6;" x="360.998317" xlink:href="#mec7e9d5dea" y="300.328"/>
      </g>
     </g>
    </g>
    <g id="xtick_50">
     <g id="line2d_50">
      <g>
       <use style="stroke:#000000;stroke-width:0.6;" x="364.806859" xlink:href="#mec7e9d5dea" y="300.328"/>
      </g>
     </g>
    </g>
    <g id="xtick_51">
     <g id="line2d_51">
      <g>
       <use style="stroke:#000000;stroke-width:0.6;" x="368.105969" xlink:href="#mec7e9d5dea" y="300.328"/>
      </g>
     </g>
    </g>
    <g id="xtick_52">
     <g id="line2d_52">
      <g>
       <use style="stroke:#000000;stroke-width:0.6;" x="371.015989" xlink:href="#mec7e9d5dea" y="300.328"/>
      </g>
     </g>
    </g>
    <g id="text_7">
     <!-- Frequency [rad/s] -->
     <defs>
      <path d="M 9.8125 72.90625 
L 51.703125 72.90625 
L 51.703125 64.59375 
L 19.671875 64.59375 
L 19.671875 43.109375 
L 48.578125 43.109375 
L 48.578125 34.8125 
L 19.671875 34.8125 
L 19.671875 0 
L 9.8125 0 
z
" id="DejaVuSans-46"/>
      <path d="M 41.109375 46.296875 
Q 39.59375 47.171875 37.8125 47.578125 
Q 36.03125 48 33.890625 48 
Q 26.265625 48 22.1875 43.046875 
Q 18.109375 38.09375 18.109375 28.8125 
L 18.109375 0 
L 9.078125 0 
L 9.078125 54.6875 
L 18.109375 54.6875 
L 18.109375 46.1875 
Q 20.953125 51.171875 25.484375 53.578125 
Q 30.03125 56 36.53125 56 
Q 37.453125 56 38.578125 55.875 
Q 39.703125 55.765625 41.0625 55.515625 
z
" id="DejaVuSans-72"/>
      <path d="M 56.203125 29.59375 
L 56.203125 25.203125 
L 14.890625 25.203125 
Q 15.484375 15.921875 20.484375 11.0625 
Q 25.484375 6.203125 34.421875 6.203125 
Q 39.59375 6.203125 44.453125 7.46875 
Q 49.3125 8.734375 54.109375 11.28125 
L 54.109375 2.78125 
Q 49.265625 0.734375 44.1875 -0.34375 
Q 39.109375 -1.421875 33.890625 -1.421875 
Q 20.796875 -1.421875 13.15625 6.1875 
Q 5.515625 13.8125 5.515625 26.8125 
Q 5.515625 40.234375 12.765625 48.109375 
Q 20.015625 56 32.328125 56 
Q 43.359375 56 49.78125 48.890625 
Q 56.203125 41.796875 56.203125 29.59375 
M 47.21875 32.234375 
Q 47.125 39.59375 43.09375 43.984375 
Q 39.0625 48.390625 32.421875 48.390625 
Q 24.90625 48.390625 20.390625 44.140625 
Q 15.875 39.890625 15.1875 32.171875 
z
" id="DejaVuSans-65"/>
      <path d="M 14.796875 27.296875 
Q 14.796875 17.390625 18.875 11.75 
Q 22.953125 6.109375 30.078125 6.109375 
Q 37.203125 6.109375 41.296875 11.75 
Q 45.40625 17.390625 45.40625 27.296875 
Q 45.40625 37.203125 41.296875 42.84375 
Q 37.203125 48.484375 30.078125 48.484375 
Q 22.953125 48.484375 18.875 42.84375 
Q 14.796875 37.203125 14.796875 27.296875 
M 45.40625 8.203125 
Q 42.578125 3.328125 38.25 0.953125 
Q 33.9375 -1.421875 27.875 -1.421875 
Q 17.96875 -1.421875 11.734375 6.484375 
Q 5.515625 14.40625 5.515625 27.296875 
Q 5.515625 40.1875 11.734375 48.09375 
Q 17.96875 56 27.875 56 
Q 33.9375 56 38.25 53.625 
Q 42.578125 51.265625 45.40625 46.390625 
L 45.40625 54.6875 
L 54.390625 54.6875 
L 54.390625 -20.796875 
L 45.40625 -20.796875 
z
" id="DejaVuSans-71"/>
      <path d="M 8.5 21.578125 
L 8.5 54.6875 
L 17.484375 54.6875 
L 17.484375 21.921875 
Q 17.484375 14.15625 20.5 10.265625 
Q 23.53125 6.390625 29.59375 6.390625 
Q 36.859375 6.390625 41.078125 11.03125 
Q 45.3125 15.671875 45.3125 23.6875 
L 45.3125 54.6875 
L 54.296875 54.6875 
L 54.296875 0 
L 45.3125 0 
L 45.3125 8.40625 
Q 42.046875 3.421875 37.71875 1 
Q 33.40625 -1.421875 27.6875 -1.421875 
Q 18.265625 -1.421875 13.375 4.4375 
Q 8.5 10.296875 8.5 21.578125 
M 31.109375 56 
z
" id="DejaVuSans-75"/>
      <path d="M 54.890625 33.015625 
L 54.890625 0 
L 45.90625 0 
L 45.90625 32.71875 
Q 45.90625 40.484375 42.875 44.328125 
Q 39.84375 48.1875 33.796875 48.1875 
Q 26.515625 48.1875 22.3125 43.546875 
Q 18.109375 38.921875 18.109375 30.90625 
L 18.109375 0 
L 9.078125 0 
L 9.078125 54.6875 
L 18.109375 54.6875 
L 18.109375 46.1875 
Q 21.34375 51.125 25.703125 53.5625 
Q 30.078125 56 35.796875 56 
Q 45.21875 56 50.046875 50.171875 
Q 54.890625 44.34375 54.890625 33.015625 
" id="DejaVuSans-6e"/>
      <path d="M 48.78125 52.59375 
L 48.78125 44.1875 
Q 44.96875 46.296875 41.140625 47.34375 
Q 37.3125 48.390625 33.40625 48.390625 
Q 24.65625 48.390625 19.8125 42.84375 
Q 14.984375 37.3125 14.984375 27.296875 
Q 14.984375 17.28125 19.8125 11.734375 
Q 24.65625 6.203125 33.40625 6.203125 
Q 37.3125 6.203125 41.140625 7.25 
Q 44.96875 8.296875 48.78125 10.40625 
L 48.78125 2.09375 
Q 45.015625 0.34375 40.984375 -0.53125 
Q 36.96875 -1.421875 32.421875 -1.421875 
Q 20.0625 -1.421875 12.78125 6.34375 
Q 5.515625 14.109375 5.515625 27.296875 
Q 5.515625 40.671875 12.859375 48.328125 
Q 20.21875 56 33.015625 56 
Q 37.15625 56 41.109375 55.140625 
Q 45.0625 54.296875 48.78125 52.59375 
" id="DejaVuSans-63"/>
      <path d="M 32.171875 -5.078125 
Q 28.375 -14.84375 24.75 -17.8125 
Q 21.140625 -20.796875 15.09375 -20.796875 
L 7.90625 -20.796875 
L 7.90625 -13.28125 
L 13.1875 -13.28125 
Q 16.890625 -13.28125 18.9375 -11.515625 
Q 21 -9.765625 23.484375 -3.21875 
L 25.09375 0.875 
L 2.984375 54.6875 
L 12.5 54.6875 
L 29.59375 11.921875 
L 46.6875 54.6875 
L 56.203125 54.6875 
z
" id="DejaVuSans-79"/>
      <path id="DejaVuSans-20"/>
      <path d="M 8.59375 75.984375 
L 29.296875 75.984375 
L 29.296875 69 
L 17.578125 69 
L 17.578125 -6.203125 
L 29.296875 -6.203125 
L 29.296875 -13.1875 
L 8.59375 -13.1875 
z
" id="DejaVuSans-5b"/>
      <path d="M 34.28125 27.484375 
Q 23.390625 27.484375 19.1875 25 
Q 14.984375 22.515625 14.984375 16.5 
Q 14.984375 11.71875 18.140625 8.90625 
Q 21.296875 6.109375 26.703125 6.109375 
Q 34.1875 6.109375 38.703125 11.40625 
Q 43.21875 16.703125 43.21875 25.484375 
L 43.21875 27.484375 
z
M 52.203125 31.203125 
L 52.203125 0 
L 43.21875 0 
L 43.21875 8.296875 
Q 40.140625 3.328125 35.546875 0.953125 
Q 30.953125 -1.421875 24.3125 -1.421875 
Q 15.921875 -1.421875 10.953125 3.296875 
Q 6 8.015625 6 15.921875 
Q 6 25.140625 12.171875 29.828125 
Q 18.359375 34.515625 30.609375 34.515625 
L 43.21875 34.515625 
L 43.21875 35.40625 
Q 43.21875 41.609375 39.140625 45 
Q 35.0625 48.390625 27.6875 48.390625 
Q 23 48.390625 18.546875 47.265625 
Q 14.109375 46.140625 10.015625 43.890625 
L 10.015625 52.203125 
Q 14.9375 54.109375 19.578125 55.046875 
Q 24.21875 56 28.609375 56 
Q 40.484375 56 46.34375 49.84375 
Q 52.203125 43.703125 52.203125 31.203125 
" id="DejaVuSans-61"/>
      <path d="M 45.40625 46.390625 
L 45.40625 75.984375 
L 54.390625 75.984375 
L 54.390625 0 
L 45.40625 0 
L 45.40625 8.203125 
Q 42.578125 3.328125 38.25 0.953125 
Q 33.9375 -1.421875 27.875 -1.421875 
Q 17.96875 -1.421875 11.734375 6.484375 
Q 5.515625 14.40625 5.515625 27.296875 
Q 5.515625 40.1875 11.734375 48.09375 
Q 17.96875 56 27.875 56 
Q 33.9375 56 38.25 53.625 
Q 42.578125 51.265625 45.40625 46.390625 
M 14.796875 27.296875 
Q 14.796875 17.390625 18.875 11.75 
Q 22.953125 6.109375 30.078125 6.109375 
Q 37.203125 6.109375 41.296875 11.75 
Q 45.40625 17.390625 45.40625 27.296875 
Q 45.40625 37.203125 41.296875 42.84375 
Q 37.203125 48.484375 30.078125 48.484375 
Q 22.953125 48.484375 18.875 42.84375 
Q 14.796875 37.203125 14.796875 27.296875 
" id="DejaVuSans-64"/>
      <path d="M 25.390625 72.90625 
L 33.6875 72.90625 
L 8.296875 -9.28125 
L 0 -9.28125 
z
" id="DejaVuSans-2f"/>
      <path d="M 44.28125 53.078125 
L 44.28125 44.578125 
Q 40.484375 46.53125 36.375 47.5 
Q 32.28125 48.484375 27.875 48.484375 
Q 21.1875 48.484375 17.84375 46.4375 
Q 14.5 44.390625 14.5 40.28125 
Q 14.5 37.15625 16.890625 35.375 
Q 19.28125 33.59375 26.515625 31.984375 
L 29.59375 31.296875 
Q 39.15625 29.25 43.1875 25.515625 
Q 47.21875 21.78125 47.21875 15.09375 
Q 47.21875 7.46875 41.1875 3.015625 
Q 35.15625 -1.421875 24.609375 -1.421875 
Q 20.21875 -1.421875 15.453125 -0.5625 
Q 10.6875 0.296875 5.421875 2 
L 5.421875 11.28125 
Q 10.40625 8.6875 15.234375 7.390625 
Q 20.0625 6.109375 24.8125 6.109375 
Q 31.15625 6.109375 34.5625 8.28125 
Q 37.984375 10.453125 37.984375 14.40625 
Q 37.984375 18.0625 35.515625 20.015625 
Q 33.0625 21.96875 24.703125 23.78125 
L 21.578125 24.515625 
Q 13.234375 26.265625 9.515625 29.90625 
Q 5.8125 33.546875 5.8125 39.890625 
Q 5.8125 47.609375 11.28125 51.796875 
Q 16.75 56 26.8125 56 
Q 31.78125 56 36.171875 55.265625 
Q 40.578125 54.546875 44.28125 53.078125 
" id="DejaVuSans-73"/>
      <path d="M 30.421875 75.984375 
L 30.421875 -13.1875 
L 9.71875 -13.1875 
L 9.71875 -6.203125 
L 21.390625 -6.203125 
L 21.390625 69 
L 9.71875 69 
L 9.71875 75.984375 
z
" id="DejaVuSans-5d"/>
     </defs>
     <g transform="translate(175.543906 328.604562)scale(0.1 -0.1)">
      <use xlink:href="#DejaVuSans-46"/>
      <use x="57.410156" xlink:href="#DejaVuSans-72"/>
      <use x="98.492188" xlink:href="#DejaVuSans-65"/>
      <use x="160.015625" xlink:href="#DejaVuSans-71"/>
      <use x="223.492188" xlink:href="#DejaVuSans-75"/>
      <use x="286.871094" xlink:href="#DejaVuSans-65"/>
      <use x="348.394531" xlink:href="#DejaVuSans-6e"/>
      <use x="411.773438" xlink:href="#DejaVuSans-63"/>
      <use x="466.753906" xlink:href="#DejaVuSans-79"/>
      <use x="525.933594" xlink:href="#DejaVuSans-20"/>
      <use x="557.720703" xlink:href="#DejaVuSans-5b"/>
      <use x="596.734375" xlink:href="#DejaVuSans-72"/>
      <use x="637.847656" xlink:href="#DejaVuSans-61"/>
      <use x="699.126953" xlink:href="#DejaVuSans-64"/>
      <use x="762.603516" xlink:href="#DejaVuSans-2f"/>
      <use x="796.294922" xlink:href="#DejaVuSans-73"/>
      <use x="848.394531" xlink:href="#DejaVuSans-5d"/>
     </g>
    </g>
   </g>
   <g id="matplotlib.axis_2">
    <g id="ytick_1">
     <g id="line2d_53">
      <defs>
       <path d="M 0 0 
L -3.5 0 
" id="m3bb814354a" style="stroke:#0000ff;stroke-width:0.8;"/>
      </defs>
      <g>
       <use style="fill:#0000ff;stroke:#0000ff;stroke-width:0.8;" x="63.47" xlink:href="#m3bb814354a" y="284.716978"/>
      </g>
     </g>
     <g id="text_8">
      <!-- 0 -->
      <g style="fill:#0000ff;" transform="translate(50.1075 288.516196)scale(0.1 -0.1)">
       <use xlink:href="#DejaVuSans-30"/>
      </g>
     </g>
    </g>
    <g id="ytick_2">
     <g id="line2d_54">
      <g>
       <use style="fill:#0000ff;stroke:#0000ff;stroke-width:0.8;" x="63.47" xlink:href="#m3bb814354a" y="240.58811"/>
      </g>
     </g>
     <g id="text_9">
      <!-- 10000 -->
      <g style="fill:#0000ff;" transform="translate(24.6575 244.387329)scale(0.1 -0.1)">
       <use xlink:href="#DejaVuSans-31"/>
       <use x="63.623047" xlink:href="#DejaVuSans-30"/>
       <use x="127.246094" xlink:href="#DejaVuSans-30"/>
       <use x="190.869141" xlink:href="#DejaVuSans-30"/>
       <use x="254.492188" xlink:href="#DejaVuSans-30"/>
      </g>
     </g>
    </g>
    <g id="ytick_3">
     <g id="line2d_55">
      <g>
       <use style="fill:#0000ff;stroke:#0000ff;stroke-width:0.8;" x="63.47" xlink:href="#m3bb814354a" y="196.459243"/>
      </g>
     </g>
     <g id="text_10">
      <!-- 20000 -->
      <g style="fill:#0000ff;" transform="translate(24.6575 200.258462)scale(0.1 -0.1)">
       <use xlink:href="#DejaVuSans-32"/>
       <use x="63.623047" xlink:href="#DejaVuSans-30"/>
       <use x="127.246094" xlink:href="#DejaVuSans-30"/>
       <use x="190.869141" xlink:href="#DejaVuSans-30"/>
       <use x="254.492188" xlink:href="#DejaVuSans-30"/>
      </g>
     </g>
    </g>
    <g id="ytick_4">
     <g id="line2d_56">
      <g>
       <use style="fill:#0000ff;stroke:#0000ff;stroke-width:0.8;" x="63.47" xlink:href="#m3bb814354a" y="152.330375"/>
      </g>
     </g>
     <g id="text_11">
      <!-- 30000 -->
      <g style="fill:#0000ff;" transform="translate(24.6575 156.129594)scale(0.1 -0.1)">
       <use xlink:href="#DejaVuSans-33"/>
       <use x="63.623047" xlink:href="#DejaVuSans-30"/>
       <use x="127.246094" xlink:href="#DejaVuSans-30"/>
       <use x="190.869141" xlink:href="#DejaVuSans-30"/>
       <use x="254.492188" xlink:href="#DejaVuSans-30"/>
      </g>
     </g>
    </g>
    <g id="ytick_5">
     <g id="line2d_57">
      <g>
       <use style="fill:#0000ff;stroke:#0000ff;stroke-width:0.8;" x="63.47" xlink:href="#m3bb814354a" y="108.201508"/>
      </g>
     </g>
     <g id="text_12">
      <!-- 40000 -->
      <g style="fill:#0000ff;" transform="translate(24.6575 112.000727)scale(0.1 -0.1)">
       <use xlink:href="#DejaVuSans-34"/>
       <use x="63.623047" xlink:href="#DejaVuSans-30"/>
       <use x="127.246094" xlink:href="#DejaVuSans-30"/>
       <use x="190.869141" xlink:href="#DejaVuSans-30"/>
       <use x="254.492188" xlink:href="#DejaVuSans-30"/>
      </g>
     </g>
    </g>
    <g id="ytick_6">
     <g id="line2d_58">
      <g>
       <use style="fill:#0000ff;stroke:#0000ff;stroke-width:0.8;" x="63.47" xlink:href="#m3bb814354a" y="64.07264"/>
      </g>
     </g>
     <g id="text_13">
      <!-- 50000 -->
      <g style="fill:#0000ff;" transform="translate(24.6575 67.871859)scale(0.1 -0.1)">
       <use xlink:href="#DejaVuSans-35"/>
       <use x="63.623047" xlink:href="#DejaVuSans-30"/>
       <use x="127.246094" xlink:href="#DejaVuSans-30"/>
       <use x="190.869141" xlink:href="#DejaVuSans-30"/>
       <use x="254.492188" xlink:href="#DejaVuSans-30"/>
      </g>
     </g>
    </g>
    <g id="text_14">
     <!-- Real Part -->
     <defs>
      <path d="M 44.390625 34.1875 
Q 47.5625 33.109375 50.5625 29.59375 
Q 53.5625 26.078125 56.59375 19.921875 
L 66.609375 0 
L 56 0 
L 46.6875 18.703125 
Q 43.0625 26.03125 39.671875 28.421875 
Q 36.28125 30.8125 30.421875 30.8125 
L 19.671875 30.8125 
L 19.671875 0 
L 9.8125 0 
L 9.8125 72.90625 
L 32.078125 72.90625 
Q 44.578125 72.90625 50.734375 67.671875 
Q 56.890625 62.453125 56.890625 51.90625 
Q 56.890625 45.015625 53.6875 40.46875 
Q 50.484375 35.9375 44.390625 34.1875 
M 19.671875 64.796875 
L 19.671875 38.921875 
L 32.078125 38.921875 
Q 39.203125 38.921875 42.84375 42.21875 
Q 46.484375 45.515625 46.484375 51.90625 
Q 46.484375 58.296875 42.84375 61.546875 
Q 39.203125 64.796875 32.078125 64.796875 
z
" id="DejaVuSans-52"/>
      <path d="M 9.421875 75.984375 
L 18.40625 75.984375 
L 18.40625 0 
L 9.421875 0 
z
" id="DejaVuSans-6c"/>
      <path d="M 19.671875 64.796875 
L 19.671875 37.40625 
L 32.078125 37.40625 
Q 38.96875 37.40625 42.71875 40.96875 
Q 46.484375 44.53125 46.484375 51.125 
Q 46.484375 57.671875 42.71875 61.234375 
Q 38.96875 64.796875 32.078125 64.796875 
z
M 9.8125 72.90625 
L 32.078125 72.90625 
Q 44.34375 72.90625 50.609375 67.359375 
Q 56.890625 61.8125 56.890625 51.125 
Q 56.890625 40.328125 50.609375 34.8125 
Q 44.34375 29.296875 32.078125 29.296875 
L 19.671875 29.296875 
L 19.671875 0 
L 9.8125 0 
z
" id="DejaVuSans-50"/>
      <path d="M 18.3125 70.21875 
L 18.3125 54.6875 
L 36.8125 54.6875 
L 36.8125 47.703125 
L 18.3125 47.703125 
L 18.3125 18.015625 
Q 18.3125 11.328125 20.140625 9.421875 
Q 21.96875 7.515625 27.59375 7.515625 
L 36.8125 7.515625 
L 36.8125 0 
L 27.59375 0 
Q 17.1875 0 13.234375 3.875 
Q 9.28125 7.765625 9.28125 18.015625 
L 9.28125 47.703125 
L 2.6875 47.703125 
L 2.6875 54.6875 
L 9.28125 54.6875 
L 9.28125 70.21875 
z
" id="DejaVuSans-74"/>
     </defs>
     <g style="fill:#0000ff;" transform="translate(18.577813 186.28525)rotate(-90)scale(0.1 -0.1)">
      <use xlink:href="#DejaVuSans-52"/>
      <use x="69.419922" xlink:href="#DejaVuSans-65"/>
      <use x="130.943359" xlink:href="#DejaVuSans-61"/>
      <use x="192.222656" xlink:href="#DejaVuSans-6c"/>
      <use x="220.005859" xlink:href="#DejaVuSans-20"/>
      <use x="251.792969" xlink:href="#DejaVuSans-50"/>
      <use x="312.033203" xlink:href="#DejaVuSans-61"/>
      <use x="373.3125" xlink:href="#DejaVuSans-72"/>
      <use x="414.425781" xlink:href="#DejaVuSans-74"/>
     </g>
    </g>
   </g>
   <g id="line2d_59">
    <path clip-path="url(#p859430cb9e)" d="M 77.692273 39.309455 
L 89.070197 188.804808 
L 89.070197 188.804808 
L 89.070197 188.804808 
L 100.448043 248.428146 
L 100.448043 248.428146 
L 100.448043 248.428146 
L 111.825903 272.181889 
L 111.825903 272.181889 
L 111.825903 272.181889 
L 123.203649 281.641079 
L 123.203649 281.641079 
L 123.203649 281.641079 
L 134.581364 285.4073 
L 134.581364 285.4073 
L 134.581364 285.4073 
L 145.959288 286.906758 
L 145.959288 286.906758 
L 145.959288 286.906758 
L 157.337133 287.503707 
L 157.337133 287.503707 
L 157.337133 287.503707 
L 168.714994 287.741358 
L 168.714994 287.741358 
L 168.714994 287.741358 
L 180.09274 287.835967 
L 180.09274 287.835967 
L 180.09274 287.835967 
L 191.470455 287.873632 
L 191.470455 287.873632 
L 191.470455 287.873632 
L 202.848379 287.888628 
L 202.848379 287.888628 
L 202.848379 287.888628 
L 214.226224 287.894597 
L 214.226224 287.894597 
L 214.226224 287.894597 
L 225.604085 287.896974 
L 225.604085 287.896974 
L 225.604085 287.896974 
L 236.981831 287.89792 
L 236.981831 287.89792 
L 236.981831 287.89792 
L 248.359545 287.898296 
L 248.359545 287.898296 
L 248.359545 287.898296 
L 259.73747 287.898446 
L 259.73747 287.898446 
L 259.73747 287.898446 
L 271.115315 287.898506 
L 271.115315 287.898506 
L 271.115315 287.898506 
L 282.493176 287.89853 
L 282.493176 287.89853 
L 282.493176 287.89853 
L 293.870922 287.898539 
L 293.870922 287.898539 
L 293.870922 287.898539 
L 305.248636 287.898543 
L 305.248636 287.898543 
L 305.248636 287.898543 
L 316.626561 287.898544 
L 316.626561 287.898544 
L 316.626561 287.898544 
L 328.004406 287.898545 
L 328.004406 287.898545 
L 328.004406 287.898545 
L 339.382266 287.898545 
L 339.382266 287.898545 
L 339.382266 287.898545 
L 350.760013 287.898545 
L 350.760013 287.898545 
L 350.760013 287.898545 
L 362.137727 287.898545 
L 362.137727 287.898545 
L 362.137727 287.898545 
L 362.137727 287.898545 
" style="fill:none;stroke:#0000ff;stroke-linecap:square;stroke-width:1.5;"/>
   </g>
   <g id="line2d_60">
    <defs>
     <path d="M 0 1.5 
C 0.397805 1.5 0.77937 1.341951 1.06066 1.06066 
C 1.341951 0.77937 1.5 0.397805 1.5 0 
C 1.5 -0.397805 1.341951 -0.77937 1.06066 -1.06066 
C 0.77937 -1.341951 0.397805 -1.5 0 -1.5 
C -0.397805 -1.5 -0.77937 -1.341951 -1.06066 -1.06066 
C -1.341951 -0.77937 -1.5 -0.397805 -1.5 0 
C -1.5 0.397805 -1.341951 0.77937 -1.06066 1.06066 
C -0.77937 1.341951 -0.397805 1.5 0 1.5 
z
" id="ma1ff8177ac" style="stroke:#0000ff;"/>
    </defs>
    <g clip-path="url(#p859430cb9e)">
     <use style="fill:#0000ff;stroke:#0000ff;" x="77.692273" xlink:href="#ma1ff8177ac" y="150.222109"/>
     <use style="fill:#0000ff;stroke:#0000ff;" x="77.692273" xlink:href="#ma1ff8177ac" y="153.313214"/>
     <use style="fill:#0000ff;stroke:#0000ff;" x="77.692273" xlink:href="#ma1ff8177ac" y="147.524241"/>
     <use style="fill:#0000ff;stroke:#0000ff;" x="77.692273" xlink:href="#ma1ff8177ac" y="109.738506"/>
     <use style="fill:#0000ff;stroke:#0000ff;" x="77.692273" xlink:href="#ma1ff8177ac" y="153.426847"/>
     <use style="fill:#0000ff;stroke:#0000ff;" x="89.070197" xlink:href="#ma1ff8177ac" y="214.626664"/>
     <use style="fill:#0000ff;stroke:#0000ff;" x="89.070197" xlink:href="#ma1ff8177ac" y="200.074614"/>
     <use style="fill:#0000ff;stroke:#0000ff;" x="89.070197" xlink:href="#ma1ff8177ac" y="215.298443"/>
     <use style="fill:#0000ff;stroke:#0000ff;" x="89.070197" xlink:href="#ma1ff8177ac" y="212.807498"/>
     <use style="fill:#0000ff;stroke:#0000ff;" x="89.070197" xlink:href="#ma1ff8177ac" y="207.137907"/>
     <use style="fill:#0000ff;stroke:#0000ff;" x="100.448043" xlink:href="#ma1ff8177ac" y="243.241986"/>
     <use style="fill:#0000ff;stroke:#0000ff;" x="100.448043" xlink:href="#ma1ff8177ac" y="236.644621"/>
     <use style="fill:#0000ff;stroke:#0000ff;" x="100.448043" xlink:href="#ma1ff8177ac" y="242.099574"/>
     <use style="fill:#0000ff;stroke:#0000ff;" x="100.448043" xlink:href="#ma1ff8177ac" y="243.510231"/>
     <use style="fill:#0000ff;stroke:#0000ff;" x="100.448043" xlink:href="#ma1ff8177ac" y="241.199982"/>
     <use style="fill:#0000ff;stroke:#0000ff;" x="111.825903" xlink:href="#ma1ff8177ac" y="256.716407"/>
     <use style="fill:#0000ff;stroke:#0000ff;" x="111.825903" xlink:href="#ma1ff8177ac" y="261.571489"/>
     <use style="fill:#0000ff;stroke:#0000ff;" x="111.825903" xlink:href="#ma1ff8177ac" y="260.965255"/>
     <use style="fill:#0000ff;stroke:#0000ff;" x="111.825903" xlink:href="#ma1ff8177ac" y="260.093632"/>
     <use style="fill:#0000ff;stroke:#0000ff;" x="111.825903" xlink:href="#ma1ff8177ac" y="261.461838"/>
     <use style="fill:#0000ff;stroke:#0000ff;" x="123.203649" xlink:href="#ma1ff8177ac" y="268.919313"/>
     <use style="fill:#0000ff;stroke:#0000ff;" x="123.203649" xlink:href="#ma1ff8177ac" y="270.031921"/>
     <use style="fill:#0000ff;stroke:#0000ff;" x="123.203649" xlink:href="#ma1ff8177ac" y="269.852748"/>
     <use style="fill:#0000ff;stroke:#0000ff;" x="123.203649" xlink:href="#ma1ff8177ac" y="269.877973"/>
     <use style="fill:#0000ff;stroke:#0000ff;" x="123.203649" xlink:href="#ma1ff8177ac" y="270.199469"/>
     <use style="fill:#0000ff;stroke:#0000ff;" x="134.581364" xlink:href="#ma1ff8177ac" y="275.327121"/>
     <use style="fill:#0000ff;stroke:#0000ff;" x="134.581364" xlink:href="#ma1ff8177ac" y="275.373178"/>
     <use style="fill:#0000ff;stroke:#0000ff;" x="134.581364" xlink:href="#ma1ff8177ac" y="274.988099"/>
     <use style="fill:#0000ff;stroke:#0000ff;" x="134.581364" xlink:href="#ma1ff8177ac" y="275.464767"/>
     <use style="fill:#0000ff;stroke:#0000ff;" x="134.581364" xlink:href="#ma1ff8177ac" y="275.422526"/>
     <use style="fill:#0000ff;stroke:#0000ff;" x="145.959288" xlink:href="#ma1ff8177ac" y="278.588548"/>
     <use style="fill:#0000ff;stroke:#0000ff;" x="145.959288" xlink:href="#ma1ff8177ac" y="278.54556"/>
     <use style="fill:#0000ff;stroke:#0000ff;" x="145.959288" xlink:href="#ma1ff8177ac" y="278.616346"/>
     <use style="fill:#0000ff;stroke:#0000ff;" x="145.959288" xlink:href="#ma1ff8177ac" y="278.368664"/>
     <use style="fill:#0000ff;stroke:#0000ff;" x="145.959288" xlink:href="#ma1ff8177ac" y="278.514186"/>
     <use style="fill:#0000ff;stroke:#0000ff;" x="157.337133" xlink:href="#ma1ff8177ac" y="280.51845"/>
     <use style="fill:#0000ff;stroke:#0000ff;" x="157.337133" xlink:href="#ma1ff8177ac" y="280.441214"/>
     <use style="fill:#0000ff;stroke:#0000ff;" x="157.337133" xlink:href="#ma1ff8177ac" y="280.447582"/>
     <use style="fill:#0000ff;stroke:#0000ff;" x="157.337133" xlink:href="#ma1ff8177ac" y="280.424914"/>
     <use style="fill:#0000ff;stroke:#0000ff;" x="157.337133" xlink:href="#ma1ff8177ac" y="280.513213"/>
     <use style="fill:#0000ff;stroke:#0000ff;" x="168.714994" xlink:href="#ma1ff8177ac" y="281.816229"/>
     <use style="fill:#0000ff;stroke:#0000ff;" x="168.714994" xlink:href="#ma1ff8177ac" y="281.82681"/>
     <use style="fill:#0000ff;stroke:#0000ff;" x="168.714994" xlink:href="#ma1ff8177ac" y="281.825906"/>
     <use style="fill:#0000ff;stroke:#0000ff;" x="168.714994" xlink:href="#ma1ff8177ac" y="281.797328"/>
     <use style="fill:#0000ff;stroke:#0000ff;" x="168.714994" xlink:href="#ma1ff8177ac" y="281.834093"/>
     <use style="fill:#0000ff;stroke:#0000ff;" x="180.09274" xlink:href="#ma1ff8177ac" y="282.722753"/>
     <use style="fill:#0000ff;stroke:#0000ff;" x="180.09274" xlink:href="#ma1ff8177ac" y="282.696323"/>
     <use style="fill:#0000ff;stroke:#0000ff;" x="180.09274" xlink:href="#ma1ff8177ac" y="282.715504"/>
     <use style="fill:#0000ff;stroke:#0000ff;" x="180.09274" xlink:href="#ma1ff8177ac" y="282.719513"/>
     <use style="fill:#0000ff;stroke:#0000ff;" x="180.09274" xlink:href="#ma1ff8177ac" y="282.721273"/>
     <use style="fill:#0000ff;stroke:#0000ff;" x="191.470455" xlink:href="#ma1ff8177ac" y="283.304709"/>
     <use style="fill:#0000ff;stroke:#0000ff;" x="191.470455" xlink:href="#ma1ff8177ac" y="283.316587"/>
     <use style="fill:#0000ff;stroke:#0000ff;" x="191.470455" xlink:href="#ma1ff8177ac" y="283.301922"/>
     <use style="fill:#0000ff;stroke:#0000ff;" x="191.470455" xlink:href="#ma1ff8177ac" y="283.319317"/>
     <use style="fill:#0000ff;stroke:#0000ff;" x="191.470455" xlink:href="#ma1ff8177ac" y="283.317589"/>
     <use style="fill:#0000ff;stroke:#0000ff;" x="202.848379" xlink:href="#ma1ff8177ac" y="283.714286"/>
     <use style="fill:#0000ff;stroke:#0000ff;" x="202.848379" xlink:href="#ma1ff8177ac" y="283.698379"/>
     <use style="fill:#0000ff;stroke:#0000ff;" x="202.848379" xlink:href="#ma1ff8177ac" y="283.707406"/>
     <use style="fill:#0000ff;stroke:#0000ff;" x="202.848379" xlink:href="#ma1ff8177ac" y="283.703366"/>
     <use style="fill:#0000ff;stroke:#0000ff;" x="202.848379" xlink:href="#ma1ff8177ac" y="283.714069"/>
     <use style="fill:#0000ff;stroke:#0000ff;" x="214.226224" xlink:href="#ma1ff8177ac" y="283.977307"/>
     <use style="fill:#0000ff;stroke:#0000ff;" x="214.226224" xlink:href="#ma1ff8177ac" y="283.968342"/>
     <use style="fill:#0000ff;stroke:#0000ff;" x="214.226224" xlink:href="#ma1ff8177ac" y="283.977721"/>
     <use style="fill:#0000ff;stroke:#0000ff;" x="214.226224" xlink:href="#ma1ff8177ac" y="283.977985"/>
     <use style="fill:#0000ff;stroke:#0000ff;" x="214.226224" xlink:href="#ma1ff8177ac" y="283.972527"/>
     <use style="fill:#0000ff;stroke:#0000ff;" x="225.604085" xlink:href="#ma1ff8177ac" y="284.138723"/>
     <use style="fill:#0000ff;stroke:#0000ff;" x="225.604085" xlink:href="#ma1ff8177ac" y="284.142352"/>
     <use style="fill:#0000ff;stroke:#0000ff;" x="225.604085" xlink:href="#ma1ff8177ac" y="284.144035"/>
     <use style="fill:#0000ff;stroke:#0000ff;" x="225.604085" xlink:href="#ma1ff8177ac" y="284.143449"/>
     <use style="fill:#0000ff;stroke:#0000ff;" x="225.604085" xlink:href="#ma1ff8177ac" y="284.133854"/>
     <use style="fill:#0000ff;stroke:#0000ff;" x="236.981831" xlink:href="#ma1ff8177ac" y="284.259782"/>
     <use style="fill:#0000ff;stroke:#0000ff;" x="236.981831" xlink:href="#ma1ff8177ac" y="284.264004"/>
     <use style="fill:#0000ff;stroke:#0000ff;" x="236.981831" xlink:href="#ma1ff8177ac" y="284.264703"/>
     <use style="fill:#0000ff;stroke:#0000ff;" x="236.981831" xlink:href="#ma1ff8177ac" y="284.263706"/>
     <use style="fill:#0000ff;stroke:#0000ff;" x="236.981831" xlink:href="#ma1ff8177ac" y="284.255645"/>
     <use style="fill:#0000ff;stroke:#0000ff;" x="248.359545" xlink:href="#ma1ff8177ac" y="284.346099"/>
     <use style="fill:#0000ff;stroke:#0000ff;" x="248.359545" xlink:href="#ma1ff8177ac" y="284.347214"/>
     <use style="fill:#0000ff;stroke:#0000ff;" x="248.359545" xlink:href="#ma1ff8177ac" y="284.344688"/>
     <use style="fill:#0000ff;stroke:#0000ff;" x="248.359545" xlink:href="#ma1ff8177ac" y="284.34634"/>
     <use style="fill:#0000ff;stroke:#0000ff;" x="248.359545" xlink:href="#ma1ff8177ac" y="284.338014"/>
     <use style="fill:#0000ff;stroke:#0000ff;" x="259.73747" xlink:href="#ma1ff8177ac" y="284.39708"/>
     <use style="fill:#0000ff;stroke:#0000ff;" x="259.73747" xlink:href="#ma1ff8177ac" y="284.405734"/>
     <use style="fill:#0000ff;stroke:#0000ff;" x="259.73747" xlink:href="#ma1ff8177ac" y="284.404903"/>
     <use style="fill:#0000ff;stroke:#0000ff;" x="259.73747" xlink:href="#ma1ff8177ac" y="284.405778"/>
     <use style="fill:#0000ff;stroke:#0000ff;" x="259.73747" xlink:href="#ma1ff8177ac" y="284.404278"/>
     <use style="fill:#0000ff;stroke:#0000ff;" x="271.115315" xlink:href="#ma1ff8177ac" y="284.450843"/>
     <use style="fill:#0000ff;stroke:#0000ff;" x="271.115315" xlink:href="#ma1ff8177ac" y="284.45063"/>
     <use style="fill:#0000ff;stroke:#0000ff;" x="271.115315" xlink:href="#ma1ff8177ac" y="284.450727"/>
     <use style="fill:#0000ff;stroke:#0000ff;" x="271.115315" xlink:href="#ma1ff8177ac" y="284.442623"/>
     <use style="fill:#0000ff;stroke:#0000ff;" x="271.115315" xlink:href="#ma1ff8177ac" y="284.44942"/>
     <use style="fill:#0000ff;stroke:#0000ff;" x="282.493176" xlink:href="#ma1ff8177ac" y="284.469246"/>
     <use style="fill:#0000ff;stroke:#0000ff;" x="282.493176" xlink:href="#ma1ff8177ac" y="284.470929"/>
     <use style="fill:#0000ff;stroke:#0000ff;" x="282.493176" xlink:href="#ma1ff8177ac" y="284.470403"/>
     <use style="fill:#0000ff;stroke:#0000ff;" x="282.493176" xlink:href="#ma1ff8177ac" y="284.470788"/>
     <use style="fill:#0000ff;stroke:#0000ff;" x="282.493176" xlink:href="#ma1ff8177ac" y="284.464001"/>
     <use style="fill:#0000ff;stroke:#0000ff;" x="293.870922" xlink:href="#ma1ff8177ac" y="284.506692"/>
     <use style="fill:#0000ff;stroke:#0000ff;" x="293.870922" xlink:href="#ma1ff8177ac" y="284.507816"/>
     <use style="fill:#0000ff;stroke:#0000ff;" x="293.870922" xlink:href="#ma1ff8177ac" y="284.503343"/>
     <use style="fill:#0000ff;stroke:#0000ff;" x="293.870922" xlink:href="#ma1ff8177ac" y="284.507626"/>
     <use style="fill:#0000ff;stroke:#0000ff;" x="293.870922" xlink:href="#ma1ff8177ac" y="284.507685"/>
     <use style="fill:#0000ff;stroke:#0000ff;" x="305.248636" xlink:href="#ma1ff8177ac" y="284.539823"/>
     <use style="fill:#0000ff;stroke:#0000ff;" x="305.248636" xlink:href="#ma1ff8177ac" y="284.541989"/>
     <use style="fill:#0000ff;stroke:#0000ff;" x="305.248636" xlink:href="#ma1ff8177ac" y="284.541434"/>
     <use style="fill:#0000ff;stroke:#0000ff;" x="305.248636" xlink:href="#ma1ff8177ac" y="284.541989"/>
     <use style="fill:#0000ff;stroke:#0000ff;" x="305.248636" xlink:href="#ma1ff8177ac" y="284.542054"/>
     <use style="fill:#0000ff;stroke:#0000ff;" x="316.626561" xlink:href="#ma1ff8177ac" y="284.571174"/>
     <use style="fill:#0000ff;stroke:#0000ff;" x="316.626561" xlink:href="#ma1ff8177ac" y="284.571215"/>
     <use style="fill:#0000ff;stroke:#0000ff;" x="316.626561" xlink:href="#ma1ff8177ac" y="284.571064"/>
     <use style="fill:#0000ff;stroke:#0000ff;" x="316.626561" xlink:href="#ma1ff8177ac" y="284.570729"/>
     <use style="fill:#0000ff;stroke:#0000ff;" x="316.626561" xlink:href="#ma1ff8177ac" y="284.571054"/>
     <use style="fill:#0000ff;stroke:#0000ff;" x="328.004406" xlink:href="#ma1ff8177ac" y="284.593794"/>
     <use style="fill:#0000ff;stroke:#0000ff;" x="328.004406" xlink:href="#ma1ff8177ac" y="284.593541"/>
     <use style="fill:#0000ff;stroke:#0000ff;" x="328.004406" xlink:href="#ma1ff8177ac" y="284.593773"/>
     <use style="fill:#0000ff;stroke:#0000ff;" x="328.004406" xlink:href="#ma1ff8177ac" y="284.593902"/>
     <use style="fill:#0000ff;stroke:#0000ff;" x="328.004406" xlink:href="#ma1ff8177ac" y="284.59366"/>
     <use style="fill:#0000ff;stroke:#0000ff;" x="339.382266" xlink:href="#ma1ff8177ac" y="284.609093"/>
     <use style="fill:#0000ff;stroke:#0000ff;" x="339.382266" xlink:href="#ma1ff8177ac" y="284.609286"/>
     <use style="fill:#0000ff;stroke:#0000ff;" x="339.382266" xlink:href="#ma1ff8177ac" y="284.608799"/>
     <use style="fill:#0000ff;stroke:#0000ff;" x="339.382266" xlink:href="#ma1ff8177ac" y="284.608925"/>
     <use style="fill:#0000ff;stroke:#0000ff;" x="339.382266" xlink:href="#ma1ff8177ac" y="284.609028"/>
     <use style="fill:#0000ff;stroke:#0000ff;" x="350.760013" xlink:href="#ma1ff8177ac" y="284.61837"/>
     <use style="fill:#0000ff;stroke:#0000ff;" x="350.760013" xlink:href="#ma1ff8177ac" y="284.618659"/>
     <use style="fill:#0000ff;stroke:#0000ff;" x="350.760013" xlink:href="#ma1ff8177ac" y="284.618602"/>
     <use style="fill:#0000ff;stroke:#0000ff;" x="350.760013" xlink:href="#ma1ff8177ac" y="284.618543"/>
     <use style="fill:#0000ff;stroke:#0000ff;" x="350.760013" xlink:href="#ma1ff8177ac" y="284.618659"/>
     <use style="fill:#0000ff;stroke:#0000ff;" x="362.137727" xlink:href="#ma1ff8177ac" y="284.623917"/>
     <use style="fill:#0000ff;stroke:#0000ff;" x="362.137727" xlink:href="#ma1ff8177ac" y="284.623785"/>
     <use style="fill:#0000ff;stroke:#0000ff;" x="362.137727" xlink:href="#ma1ff8177ac" y="284.623597"/>
     <use style="fill:#0000ff;stroke:#0000ff;" x="362.137727" xlink:href="#ma1ff8177ac" y="284.623799"/>
     <use style="fill:#0000ff;stroke:#0000ff;" x="362.137727" xlink:href="#ma1ff8177ac" y="284.623789"/>
    </g>
   </g>
   <g id="patch_3">
    <path d="M 63.47 300.328 
L 63.47 26.88 
" style="fill:none;stroke:#000000;stroke-linecap:square;stroke-linejoin:miter;stroke-width:0.8;"/>
   </g>
   <g id="patch_4">
    <path d="M 376.36 300.328 
L 376.36 26.88 
" style="fill:none;stroke:#000000;stroke-linecap:square;stroke-linejoin:miter;stroke-width:0.8;"/>
   </g>
   <g id="patch_5">
    <path d="M 63.47 300.328 
L 376.36 300.328 
" style="fill:none;stroke:#000000;stroke-linecap:square;stroke-linejoin:miter;stroke-width:0.8;"/>
   </g>
   <g id="patch_6">
    <path d="M 63.47 26.88 
L 376.36 26.88 
" style="fill:none;stroke:#000000;stroke-linecap:square;stroke-linejoin:miter;stroke-width:0.8;"/>
   </g>
   <g id="text_15">
    <!-- dots for data, lines for fits -->
    <defs>
     <path d="M 30.609375 48.390625 
Q 23.390625 48.390625 19.1875 42.75 
Q 14.984375 37.109375 14.984375 27.296875 
Q 14.984375 17.484375 19.15625 11.84375 
Q 23.34375 6.203125 30.609375 6.203125 
Q 37.796875 6.203125 41.984375 11.859375 
Q 46.1875 17.53125 46.1875 27.296875 
Q 46.1875 37.015625 41.984375 42.703125 
Q 37.796875 48.390625 30.609375 48.390625 
M 30.609375 56 
Q 42.328125 56 49.015625 48.375 
Q 55.71875 40.765625 55.71875 27.296875 
Q 55.71875 13.875 49.015625 6.21875 
Q 42.328125 -1.421875 30.609375 -1.421875 
Q 18.84375 -1.421875 12.171875 6.21875 
Q 5.515625 13.875 5.515625 27.296875 
Q 5.515625 40.765625 12.171875 48.375 
Q 18.84375 56 30.609375 56 
" id="DejaVuSans-6f"/>
     <path d="M 37.109375 75.984375 
L 37.109375 68.5 
L 28.515625 68.5 
Q 23.6875 68.5 21.796875 66.546875 
Q 19.921875 64.59375 19.921875 59.515625 
L 19.921875 54.6875 
L 34.71875 54.6875 
L 34.71875 47.703125 
L 19.921875 47.703125 
L 19.921875 0 
L 10.890625 0 
L 10.890625 47.703125 
L 2.296875 47.703125 
L 2.296875 54.6875 
L 10.890625 54.6875 
L 10.890625 58.5 
Q 10.890625 67.625 15.140625 71.796875 
Q 19.390625 75.984375 28.609375 75.984375 
z
" id="DejaVuSans-66"/>
     <path d="M 11.71875 12.40625 
L 22.015625 12.40625 
L 22.015625 4 
L 14.015625 -11.625 
L 7.71875 -11.625 
L 11.71875 4 
z
" id="DejaVuSans-2c"/>
     <path d="M 9.421875 54.6875 
L 18.40625 54.6875 
L 18.40625 0 
L 9.421875 0 
z
M 9.421875 75.984375 
L 18.40625 75.984375 
L 18.40625 64.59375 
L 9.421875 64.59375 
z
" id="DejaVuSans-69"/>
    </defs>
    <g transform="translate(142.29 20.88)scale(0.12 -0.12)">
     <use xlink:href="#DejaVuSans-64"/>
     <use x="63.476562" xlink:href="#DejaVuSans-6f"/>
     <use x="124.658203" xlink:href="#DejaVuSans-74"/>
     <use x="163.867188" xlink:href="#DejaVuSans-73"/>
     <use x="215.966797" xlink:href="#DejaVuSans-20"/>
     <use x="247.753906" xlink:href="#DejaVuSans-66"/>
     <use x="282.958984" xlink:href="#DejaVuSans-6f"/>
     <use x="344.140625" xlink:href="#DejaVuSans-72"/>
     <use x="385.253906" xlink:href="#DejaVuSans-20"/>
     <use x="417.041016" xlink:href="#DejaVuSans-64"/>
     <use x="480.517578" xlink:href="#DejaVuSans-61"/>
     <use x="541.796875" xlink:href="#DejaVuSans-74"/>
     <use x="581.005859" xlink:href="#DejaVuSans-61"/>
     <use x="642.285156" xlink:href="#DejaVuSans-2c"/>
     <use x="674.072266" xlink:href="#DejaVuSans-20"/>
     <use x="705.859375" xlink:href="#DejaVuSans-6c"/>
     <use x="733.642578" xlink:href="#DejaVuSans-69"/>
     <use x="761.425781" xlink:href="#DejaVuSans-6e"/>
     <use x="824.804688" xlink:href="#DejaVuSans-65"/>
     <use x="886.328125" xlink:href="#DejaVuSans-73"/>
     <use x="938.427734" xlink:href="#DejaVuSans-20"/>
     <use x="970.214844" xlink:href="#DejaVuSans-66"/>
     <use x="1005.419922" xlink:href="#DejaVuSans-6f"/>
     <use x="1066.601562" xlink:href="#DejaVuSans-72"/>
     <use x="1107.714844" xlink:href="#DejaVuSans-20"/>
     <use x="1139.501953" xlink:href="#DejaVuSans-66"/>
     <use x="1174.707031" xlink:href="#DejaVuSans-69"/>
     <use x="1202.490234" xlink:href="#DejaVuSans-74"/>
     <use x="1241.699219" xlink:href="#DejaVuSans-73"/>
    </g>
   </g>
  </g>
  <g id="axes_2">
   <g id="matplotlib.axis_3">
    <g id="ytick_7">
     <g id="line2d_61">
      <defs>
       <path d="M 0 0 
L 3.5 0 
" id="ma22b27ae95" style="stroke:#ff0000;stroke-width:0.8;"/>
      </defs>
      <g>
       <use style="fill:#ff0000;stroke:#ff0000;stroke-width:0.8;" x="376.36" xlink:href="#ma22b27ae95" y="286.153342"/>
      </g>
     </g>
     <g id="text_16">
      <!-- 1200000 -->
      <defs>
       <path d="M 10.59375 35.5 
L 73.1875 35.5 
L 73.1875 27.203125 
L 10.59375 27.203125 
z
" id="DejaVuSans-2212"/>
      </defs>
      <g style="fill:#ff0000;" transform="translate(383.36 289.95256)scale(0.1 -0.1)">
       <use xlink:href="#DejaVuSans-2212"/>
       <use x="83.789062" xlink:href="#DejaVuSans-31"/>
       <use x="147.412109" xlink:href="#DejaVuSans-32"/>
       <use x="211.035156" xlink:href="#DejaVuSans-30"/>
       <use x="274.658203" xlink:href="#DejaVuSans-30"/>
       <use x="338.28125" xlink:href="#DejaVuSans-30"/>
       <use x="401.904297" xlink:href="#DejaVuSans-30"/>
       <use x="465.527344" xlink:href="#DejaVuSans-30"/>
      </g>
     </g>
    </g>
    <g id="ytick_8">
     <g id="line2d_62">
      <g>
       <use style="fill:#ff0000;stroke:#ff0000;stroke-width:0.8;" x="376.36" xlink:href="#ma22b27ae95" y="245.012279"/>
      </g>
     </g>
     <g id="text_17">
      <!-- 1000000 -->
      <g style="fill:#ff0000;" transform="translate(383.36 248.811498)scale(0.1 -0.1)">
       <use xlink:href="#DejaVuSans-2212"/>
       <use x="83.789062" xlink:href="#DejaVuSans-31"/>
       <use x="147.412109" xlink:href="#DejaVuSans-30"/>
       <use x="211.035156" xlink:href="#DejaVuSans-30"/>
       <use x="274.658203" xlink:href="#DejaVuSans-30"/>
       <use x="338.28125" xlink:href="#DejaVuSans-30"/>
       <use x="401.904297" xlink:href="#DejaVuSans-30"/>
       <use x="465.527344" xlink:href="#DejaVuSans-30"/>
      </g>
     </g>
    </g>
    <g id="ytick_9">
     <g id="line2d_63">
      <g>
       <use style="fill:#ff0000;stroke:#ff0000;stroke-width:0.8;" x="376.36" xlink:href="#ma22b27ae95" y="203.871216"/>
      </g>
     </g>
     <g id="text_18">
      <!-- 800000 -->
      <defs>
       <path d="M 31.78125 34.625 
Q 24.75 34.625 20.71875 30.859375 
Q 16.703125 27.09375 16.703125 20.515625 
Q 16.703125 13.921875 20.71875 10.15625 
Q 24.75 6.390625 31.78125 6.390625 
Q 38.8125 6.390625 42.859375 10.171875 
Q 46.921875 13.96875 46.921875 20.515625 
Q 46.921875 27.09375 42.890625 30.859375 
Q 38.875 34.625 31.78125 34.625 
M 21.921875 38.8125 
Q 15.578125 40.375 12.03125 44.71875 
Q 8.5 49.078125 8.5 55.328125 
Q 8.5 64.0625 14.71875 69.140625 
Q 20.953125 74.21875 31.78125 74.21875 
Q 42.671875 74.21875 48.875 69.140625 
Q 55.078125 64.0625 55.078125 55.328125 
Q 55.078125 49.078125 51.53125 44.71875 
Q 48 40.375 41.703125 38.8125 
Q 48.828125 37.15625 52.796875 32.3125 
Q 56.78125 27.484375 56.78125 20.515625 
Q 56.78125 9.90625 50.3125 4.234375 
Q 43.84375 -1.421875 31.78125 -1.421875 
Q 19.734375 -1.421875 13.25 4.234375 
Q 6.78125 9.90625 6.78125 20.515625 
Q 6.78125 27.484375 10.78125 32.3125 
Q 14.796875 37.15625 21.921875 38.8125 
M 18.3125 54.390625 
Q 18.3125 48.734375 21.84375 45.5625 
Q 25.390625 42.390625 31.78125 42.390625 
Q 38.140625 42.390625 41.71875 45.5625 
Q 45.3125 48.734375 45.3125 54.390625 
Q 45.3125 60.0625 41.71875 63.234375 
Q 38.140625 66.40625 31.78125 66.40625 
Q 25.390625 66.40625 21.84375 63.234375 
Q 18.3125 60.0625 18.3125 54.390625 
" id="DejaVuSans-38"/>
      </defs>
      <g style="fill:#ff0000;" transform="translate(383.36 207.670435)scale(0.1 -0.1)">
       <use xlink:href="#DejaVuSans-2212"/>
       <use x="83.789062" xlink:href="#DejaVuSans-38"/>
       <use x="147.412109" xlink:href="#DejaVuSans-30"/>
       <use x="211.035156" xlink:href="#DejaVuSans-30"/>
       <use x="274.658203" xlink:href="#DejaVuSans-30"/>
       <use x="338.28125" xlink:href="#DejaVuSans-30"/>
       <use x="401.904297" xlink:href="#DejaVuSans-30"/>
      </g>
     </g>
    </g>
    <g id="ytick_10">
     <g id="line2d_64">
      <g>
       <use style="fill:#ff0000;stroke:#ff0000;stroke-width:0.8;" x="376.36" xlink:href="#ma22b27ae95" y="162.730153"/>
      </g>
     </g>
     <g id="text_19">
      <!-- 600000 -->
      <g style="fill:#ff0000;" transform="translate(383.36 166.529372)scale(0.1 -0.1)">
       <use xlink:href="#DejaVuSans-2212"/>
       <use x="83.789062" xlink:href="#DejaVuSans-36"/>
       <use x="147.412109" xlink:href="#DejaVuSans-30"/>
       <use x="211.035156" xlink:href="#DejaVuSans-30"/>
       <use x="274.658203" xlink:href="#DejaVuSans-30"/>
       <use x="338.28125" xlink:href="#DejaVuSans-30"/>
       <use x="401.904297" xlink:href="#DejaVuSans-30"/>
      </g>
     </g>
    </g>
    <g id="ytick_11">
     <g id="line2d_65">
      <g>
       <use style="fill:#ff0000;stroke:#ff0000;stroke-width:0.8;" x="376.36" xlink:href="#ma22b27ae95" y="121.58909"/>
      </g>
     </g>
     <g id="text_20">
      <!-- 400000 -->
      <g style="fill:#ff0000;" transform="translate(383.36 125.388309)scale(0.1 -0.1)">
       <use xlink:href="#DejaVuSans-2212"/>
       <use x="83.789062" xlink:href="#DejaVuSans-34"/>
       <use x="147.412109" xlink:href="#DejaVuSans-30"/>
       <use x="211.035156" xlink:href="#DejaVuSans-30"/>
       <use x="274.658203" xlink:href="#DejaVuSans-30"/>
       <use x="338.28125" xlink:href="#DejaVuSans-30"/>
       <use x="401.904297" xlink:href="#DejaVuSans-30"/>
      </g>
     </g>
    </g>
    <g id="ytick_12">
     <g id="line2d_66">
      <g>
       <use style="fill:#ff0000;stroke:#ff0000;stroke-width:0.8;" x="376.36" xlink:href="#ma22b27ae95" y="80.448028"/>
      </g>
     </g>
     <g id="text_21">
      <!-- 200000 -->
      <g style="fill:#ff0000;" transform="translate(383.36 84.247246)scale(0.1 -0.1)">
       <use xlink:href="#DejaVuSans-2212"/>
       <use x="83.789062" xlink:href="#DejaVuSans-32"/>
       <use x="147.412109" xlink:href="#DejaVuSans-30"/>
       <use x="211.035156" xlink:href="#DejaVuSans-30"/>
       <use x="274.658203" xlink:href="#DejaVuSans-30"/>
       <use x="338.28125" xlink:href="#DejaVuSans-30"/>
       <use x="401.904297" xlink:href="#DejaVuSans-30"/>
      </g>
     </g>
    </g>
    <g id="ytick_13">
     <g id="line2d_67">
      <g>
       <use style="fill:#ff0000;stroke:#ff0000;stroke-width:0.8;" x="376.36" xlink:href="#ma22b27ae95" y="39.306965"/>
      </g>
     </g>
     <g id="text_22">
      <!-- 0 -->
      <g style="fill:#ff0000;" transform="translate(383.36 43.106184)scale(0.1 -0.1)">
       <use xlink:href="#DejaVuSans-30"/>
      </g>
     </g>
    </g>
    <g id="text_23">
     <!-- Imaginary Part -->
     <defs>
      <path d="M 9.8125 72.90625 
L 19.671875 72.90625 
L 19.671875 0 
L 9.8125 0 
z
" id="DejaVuSans-49"/>
      <path d="M 52 44.1875 
Q 55.375 50.25 60.0625 53.125 
Q 64.75 56 71.09375 56 
Q 79.640625 56 84.28125 50.015625 
Q 88.921875 44.046875 88.921875 33.015625 
L 88.921875 0 
L 79.890625 0 
L 79.890625 32.71875 
Q 79.890625 40.578125 77.09375 44.375 
Q 74.3125 48.1875 68.609375 48.1875 
Q 61.625 48.1875 57.5625 43.546875 
Q 53.515625 38.921875 53.515625 30.90625 
L 53.515625 0 
L 44.484375 0 
L 44.484375 32.71875 
Q 44.484375 40.625 41.703125 44.40625 
Q 38.921875 48.1875 33.109375 48.1875 
Q 26.21875 48.1875 22.15625 43.53125 
Q 18.109375 38.875 18.109375 30.90625 
L 18.109375 0 
L 9.078125 0 
L 9.078125 54.6875 
L 18.109375 54.6875 
L 18.109375 46.1875 
Q 21.1875 51.21875 25.484375 53.609375 
Q 29.78125 56 35.6875 56 
Q 41.65625 56 45.828125 52.96875 
Q 50 49.953125 52 44.1875 
" id="DejaVuSans-6d"/>
      <path d="M 45.40625 27.984375 
Q 45.40625 37.75 41.375 43.109375 
Q 37.359375 48.484375 30.078125 48.484375 
Q 22.859375 48.484375 18.828125 43.109375 
Q 14.796875 37.75 14.796875 27.984375 
Q 14.796875 18.265625 18.828125 12.890625 
Q 22.859375 7.515625 30.078125 7.515625 
Q 37.359375 7.515625 41.375 12.890625 
Q 45.40625 18.265625 45.40625 27.984375 
M 54.390625 6.78125 
Q 54.390625 -7.171875 48.1875 -13.984375 
Q 42 -20.796875 29.203125 -20.796875 
Q 24.46875 -20.796875 20.265625 -20.09375 
Q 16.0625 -19.390625 12.109375 -17.921875 
L 12.109375 -9.1875 
Q 16.0625 -11.328125 19.921875 -12.34375 
Q 23.78125 -13.375 27.78125 -13.375 
Q 36.625 -13.375 41.015625 -8.765625 
Q 45.40625 -4.15625 45.40625 5.171875 
L 45.40625 9.625 
Q 42.625 4.78125 38.28125 2.390625 
Q 33.9375 0 27.875 0 
Q 17.828125 0 11.671875 7.65625 
Q 5.515625 15.328125 5.515625 27.984375 
Q 5.515625 40.671875 11.671875 48.328125 
Q 17.828125 56 27.875 56 
Q 33.9375 56 38.28125 53.609375 
Q 42.625 51.21875 45.40625 46.390625 
L 45.40625 54.6875 
L 54.390625 54.6875 
z
" id="DejaVuSans-67"/>
     </defs>
     <g style="fill:#ff0000;" transform="translate(447.875625 200.504781)rotate(-90)scale(0.1 -0.1)">
      <use xlink:href="#DejaVuSans-49"/>
      <use x="29.492188" xlink:href="#DejaVuSans-6d"/>
      <use x="126.904297" xlink:href="#DejaVuSans-61"/>
      <use x="188.183594" xlink:href="#DejaVuSans-67"/>
      <use x="251.660156" xlink:href="#DejaVuSans-69"/>
      <use x="279.443359" xlink:href="#DejaVuSans-6e"/>
      <use x="342.822266" xlink:href="#DejaVuSans-61"/>
      <use x="404.101562" xlink:href="#DejaVuSans-72"/>
      <use x="445.214844" xlink:href="#DejaVuSans-79"/>
      <use x="504.394531" xlink:href="#DejaVuSans-20"/>
      <use x="536.181641" xlink:href="#DejaVuSans-50"/>
      <use x="596.421875" xlink:href="#DejaVuSans-61"/>
      <use x="657.701172" xlink:href="#DejaVuSans-72"/>
      <use x="698.814453" xlink:href="#DejaVuSans-74"/>
     </g>
    </g>
   </g>
   <g id="line2d_68">
    <path clip-path="url(#p859430cb9e)" d="M 77.692273 287.736086 
L 89.070197 196.259563 
L 89.070197 196.259563 
L 89.070197 196.259563 
L 100.448043 138.38886 
L 100.448043 138.38886 
L 100.448043 138.38886 
L 111.825903 101.836281 
L 111.825903 101.836281 
L 111.825903 101.836281 
L 123.203649 78.76367 
L 123.203649 78.76367 
L 123.203649 78.76367 
L 134.581364 64.203387 
L 134.581364 64.203387 
L 134.581364 64.203387 
L 145.959288 55.015683 
L 145.959288 55.015683 
L 145.959288 55.015683 
L 157.337133 49.218537 
L 157.337133 49.218537 
L 157.337133 49.218537 
L 168.714994 45.560746 
L 168.714994 45.560746 
L 168.714994 45.560746 
L 180.09274 43.252849 
L 180.09274 43.252849 
L 180.09274 43.252849 
L 191.470455 41.796661 
L 191.470455 41.796661 
L 191.470455 41.796661 
L 202.848379 40.87785 
L 202.848379 40.87785 
L 202.848379 40.87785 
L 214.226224 40.298125 
L 214.226224 40.298125 
L 214.226224 40.298125 
L 225.604085 39.932344 
L 225.604085 39.932344 
L 225.604085 39.932344 
L 236.981831 39.701553 
L 236.981831 39.701553 
L 236.981831 39.701553 
L 248.359545 39.555934 
L 248.359545 39.555934 
L 248.359545 39.555934 
L 259.73747 39.464053 
L 259.73747 39.464053 
L 259.73747 39.464053 
L 271.115315 39.406081 
L 271.115315 39.406081 
L 271.115315 39.406081 
L 282.493176 39.369503 
L 282.493176 39.369503 
L 282.493176 39.369503 
L 293.870922 39.346424 
L 293.870922 39.346424 
L 293.870922 39.346424 
L 305.248636 39.331862 
L 305.248636 39.331862 
L 305.248636 39.331862 
L 316.626561 39.322674 
L 316.626561 39.322674 
L 316.626561 39.322674 
L 328.004406 39.316876 
L 328.004406 39.316876 
L 328.004406 39.316876 
L 339.382266 39.313219 
L 339.382266 39.313219 
L 339.382266 39.313219 
L 350.760013 39.310911 
L 350.760013 39.310911 
L 350.760013 39.310911 
L 362.137727 39.309455 
L 362.137727 39.309455 
L 362.137727 39.309455 
L 362.137727 39.309455 
" style="fill:none;stroke:#ff0000;stroke-linecap:square;stroke-width:1.5;"/>
   </g>
   <g id="line2d_69">
    <defs>
     <path d="M 0 1.5 
C 0.397805 1.5 0.77937 1.341951 1.06066 1.06066 
C 1.341951 0.77937 1.5 0.397805 1.5 0 
C 1.5 -0.397805 1.341951 -0.77937 1.06066 -1.06066 
C 0.77937 -1.341951 0.397805 -1.5 0 -1.5 
C -0.397805 -1.5 -0.77937 -1.341951 -1.06066 -1.06066 
C -1.341951 -0.77937 -1.5 -0.397805 -1.5 0 
C -1.5 0.397805 -1.341951 0.77937 -1.06066 1.06066 
C -0.77937 1.341951 -0.397805 1.5 0 1.5 
z
" id="ma131ba0fc5" style="stroke:#ff0000;"/>
    </defs>
    <g clip-path="url(#p859430cb9e)">
     <use style="fill:#ff0000;stroke:#ff0000;" x="77.692273" xlink:href="#ma131ba0fc5" y="287.169166"/>
     <use style="fill:#ff0000;stroke:#ff0000;" x="77.692273" xlink:href="#ma131ba0fc5" y="287.898545"/>
     <use style="fill:#ff0000;stroke:#ff0000;" x="77.692273" xlink:href="#ma131ba0fc5" y="287.825514"/>
     <use style="fill:#ff0000;stroke:#ff0000;" x="77.692273" xlink:href="#ma131ba0fc5" y="287.564392"/>
     <use style="fill:#ff0000;stroke:#ff0000;" x="77.692273" xlink:href="#ma131ba0fc5" y="286.862869"/>
     <use style="fill:#ff0000;stroke:#ff0000;" x="89.070197" xlink:href="#ma131ba0fc5" y="196.457926"/>
     <use style="fill:#ff0000;stroke:#ff0000;" x="89.070197" xlink:href="#ma131ba0fc5" y="196.8372"/>
     <use style="fill:#ff0000;stroke:#ff0000;" x="89.070197" xlink:href="#ma131ba0fc5" y="196.317416"/>
     <use style="fill:#ff0000;stroke:#ff0000;" x="89.070197" xlink:href="#ma131ba0fc5" y="195.900052"/>
     <use style="fill:#ff0000;stroke:#ff0000;" x="89.070197" xlink:href="#ma131ba0fc5" y="196.454977"/>
     <use style="fill:#ff0000;stroke:#ff0000;" x="100.448043" xlink:href="#ma131ba0fc5" y="139.032445"/>
     <use style="fill:#ff0000;stroke:#ff0000;" x="100.448043" xlink:href="#ma131ba0fc5" y="139.177527"/>
     <use style="fill:#ff0000;stroke:#ff0000;" x="100.448043" xlink:href="#ma131ba0fc5" y="139.186235"/>
     <use style="fill:#ff0000;stroke:#ff0000;" x="100.448043" xlink:href="#ma131ba0fc5" y="139.047628"/>
     <use style="fill:#ff0000;stroke:#ff0000;" x="100.448043" xlink:href="#ma131ba0fc5" y="138.89178"/>
     <use style="fill:#ff0000;stroke:#ff0000;" x="111.825903" xlink:href="#ma131ba0fc5" y="102.56424"/>
     <use style="fill:#ff0000;stroke:#ff0000;" x="111.825903" xlink:href="#ma131ba0fc5" y="102.51447"/>
     <use style="fill:#ff0000;stroke:#ff0000;" x="111.825903" xlink:href="#ma131ba0fc5" y="102.560935"/>
     <use style="fill:#ff0000;stroke:#ff0000;" x="111.825903" xlink:href="#ma131ba0fc5" y="102.628975"/>
     <use style="fill:#ff0000;stroke:#ff0000;" x="111.825903" xlink:href="#ma131ba0fc5" y="102.502273"/>
     <use style="fill:#ff0000;stroke:#ff0000;" x="123.203649" xlink:href="#ma131ba0fc5" y="79.431929"/>
     <use style="fill:#ff0000;stroke:#ff0000;" x="123.203649" xlink:href="#ma131ba0fc5" y="79.420227"/>
     <use style="fill:#ff0000;stroke:#ff0000;" x="123.203649" xlink:href="#ma131ba0fc5" y="79.433319"/>
     <use style="fill:#ff0000;stroke:#ff0000;" x="123.203649" xlink:href="#ma131ba0fc5" y="79.350487"/>
     <use style="fill:#ff0000;stroke:#ff0000;" x="123.203649" xlink:href="#ma131ba0fc5" y="79.389822"/>
     <use style="fill:#ff0000;stroke:#ff0000;" x="134.581364" xlink:href="#ma131ba0fc5" y="64.694093"/>
     <use style="fill:#ff0000;stroke:#ff0000;" x="134.581364" xlink:href="#ma131ba0fc5" y="64.736226"/>
     <use style="fill:#ff0000;stroke:#ff0000;" x="134.581364" xlink:href="#ma131ba0fc5" y="64.738391"/>
     <use style="fill:#ff0000;stroke:#ff0000;" x="134.581364" xlink:href="#ma131ba0fc5" y="64.728181"/>
     <use style="fill:#ff0000;stroke:#ff0000;" x="134.581364" xlink:href="#ma131ba0fc5" y="64.716118"/>
     <use style="fill:#ff0000;stroke:#ff0000;" x="145.959288" xlink:href="#ma131ba0fc5" y="55.409791"/>
     <use style="fill:#ff0000;stroke:#ff0000;" x="145.959288" xlink:href="#ma131ba0fc5" y="55.411761"/>
     <use style="fill:#ff0000;stroke:#ff0000;" x="145.959288" xlink:href="#ma131ba0fc5" y="55.368497"/>
     <use style="fill:#ff0000;stroke:#ff0000;" x="145.959288" xlink:href="#ma131ba0fc5" y="55.420436"/>
     <use style="fill:#ff0000;stroke:#ff0000;" x="145.959288" xlink:href="#ma131ba0fc5" y="55.389722"/>
     <use style="fill:#ff0000;stroke:#ff0000;" x="157.337133" xlink:href="#ma131ba0fc5" y="49.50964"/>
     <use style="fill:#ff0000;stroke:#ff0000;" x="157.337133" xlink:href="#ma131ba0fc5" y="49.507279"/>
     <use style="fill:#ff0000;stroke:#ff0000;" x="157.337133" xlink:href="#ma131ba0fc5" y="49.505836"/>
     <use style="fill:#ff0000;stroke:#ff0000;" x="157.337133" xlink:href="#ma131ba0fc5" y="49.506757"/>
     <use style="fill:#ff0000;stroke:#ff0000;" x="157.337133" xlink:href="#ma131ba0fc5" y="49.4985"/>
     <use style="fill:#ff0000;stroke:#ff0000;" x="168.714994" xlink:href="#ma131ba0fc5" y="45.769877"/>
     <use style="fill:#ff0000;stroke:#ff0000;" x="168.714994" xlink:href="#ma131ba0fc5" y="45.778738"/>
     <use style="fill:#ff0000;stroke:#ff0000;" x="168.714994" xlink:href="#ma131ba0fc5" y="45.77811"/>
     <use style="fill:#ff0000;stroke:#ff0000;" x="168.714994" xlink:href="#ma131ba0fc5" y="45.777782"/>
     <use style="fill:#ff0000;stroke:#ff0000;" x="168.714994" xlink:href="#ma131ba0fc5" y="45.774771"/>
     <use style="fill:#ff0000;stroke:#ff0000;" x="180.09274" xlink:href="#ma131ba0fc5" y="43.414235"/>
     <use style="fill:#ff0000;stroke:#ff0000;" x="180.09274" xlink:href="#ma131ba0fc5" y="43.413975"/>
     <use style="fill:#ff0000;stroke:#ff0000;" x="180.09274" xlink:href="#ma131ba0fc5" y="43.407494"/>
     <use style="fill:#ff0000;stroke:#ff0000;" x="180.09274" xlink:href="#ma131ba0fc5" y="43.412593"/>
     <use style="fill:#ff0000;stroke:#ff0000;" x="180.09274" xlink:href="#ma131ba0fc5" y="43.41459"/>
     <use style="fill:#ff0000;stroke:#ff0000;" x="191.470455" xlink:href="#ma131ba0fc5" y="41.910854"/>
     <use style="fill:#ff0000;stroke:#ff0000;" x="191.470455" xlink:href="#ma131ba0fc5" y="41.913753"/>
     <use style="fill:#ff0000;stroke:#ff0000;" x="191.470455" xlink:href="#ma131ba0fc5" y="41.914826"/>
     <use style="fill:#ff0000;stroke:#ff0000;" x="191.470455" xlink:href="#ma131ba0fc5" y="41.915187"/>
     <use style="fill:#ff0000;stroke:#ff0000;" x="191.470455" xlink:href="#ma131ba0fc5" y="41.915116"/>
     <use style="fill:#ff0000;stroke:#ff0000;" x="202.848379" xlink:href="#ma131ba0fc5" y="40.957608"/>
     <use style="fill:#ff0000;stroke:#ff0000;" x="202.848379" xlink:href="#ma131ba0fc5" y="40.963928"/>
     <use style="fill:#ff0000;stroke:#ff0000;" x="202.848379" xlink:href="#ma131ba0fc5" y="40.963602"/>
     <use style="fill:#ff0000;stroke:#ff0000;" x="202.848379" xlink:href="#ma131ba0fc5" y="40.96157"/>
     <use style="fill:#ff0000;stroke:#ff0000;" x="202.848379" xlink:href="#ma131ba0fc5" y="40.958253"/>
     <use style="fill:#ff0000;stroke:#ff0000;" x="214.226224" xlink:href="#ma131ba0fc5" y="40.356159"/>
     <use style="fill:#ff0000;stroke:#ff0000;" x="214.226224" xlink:href="#ma131ba0fc5" y="40.35668"/>
     <use style="fill:#ff0000;stroke:#ff0000;" x="214.226224" xlink:href="#ma131ba0fc5" y="40.356579"/>
     <use style="fill:#ff0000;stroke:#ff0000;" x="214.226224" xlink:href="#ma131ba0fc5" y="40.356551"/>
     <use style="fill:#ff0000;stroke:#ff0000;" x="214.226224" xlink:href="#ma131ba0fc5" y="40.355229"/>
     <use style="fill:#ff0000;stroke:#ff0000;" x="225.604085" xlink:href="#ma131ba0fc5" y="39.975251"/>
     <use style="fill:#ff0000;stroke:#ff0000;" x="225.604085" xlink:href="#ma131ba0fc5" y="39.976147"/>
     <use style="fill:#ff0000;stroke:#ff0000;" x="225.604085" xlink:href="#ma131ba0fc5" y="39.976137"/>
     <use style="fill:#ff0000;stroke:#ff0000;" x="225.604085" xlink:href="#ma131ba0fc5" y="39.976018"/>
     <use style="fill:#ff0000;stroke:#ff0000;" x="225.604085" xlink:href="#ma131ba0fc5" y="39.976399"/>
     <use style="fill:#ff0000;stroke:#ff0000;" x="236.981831" xlink:href="#ma131ba0fc5" y="39.732313"/>
     <use style="fill:#ff0000;stroke:#ff0000;" x="236.981831" xlink:href="#ma131ba0fc5" y="39.732905"/>
     <use style="fill:#ff0000;stroke:#ff0000;" x="236.981831" xlink:href="#ma131ba0fc5" y="39.732649"/>
     <use style="fill:#ff0000;stroke:#ff0000;" x="236.981831" xlink:href="#ma131ba0fc5" y="39.732853"/>
     <use style="fill:#ff0000;stroke:#ff0000;" x="236.981831" xlink:href="#ma131ba0fc5" y="39.733042"/>
     <use style="fill:#ff0000;stroke:#ff0000;" x="248.359545" xlink:href="#ma131ba0fc5" y="39.578376"/>
     <use style="fill:#ff0000;stroke:#ff0000;" x="248.359545" xlink:href="#ma131ba0fc5" y="39.578173"/>
     <use style="fill:#ff0000;stroke:#ff0000;" x="248.359545" xlink:href="#ma131ba0fc5" y="39.57798"/>
     <use style="fill:#ff0000;stroke:#ff0000;" x="248.359545" xlink:href="#ma131ba0fc5" y="39.578288"/>
     <use style="fill:#ff0000;stroke:#ff0000;" x="248.359545" xlink:href="#ma131ba0fc5" y="39.578477"/>
     <use style="fill:#ff0000;stroke:#ff0000;" x="259.73747" xlink:href="#ma131ba0fc5" y="39.480537"/>
     <use style="fill:#ff0000;stroke:#ff0000;" x="259.73747" xlink:href="#ma131ba0fc5" y="39.4803"/>
     <use style="fill:#ff0000;stroke:#ff0000;" x="259.73747" xlink:href="#ma131ba0fc5" y="39.479624"/>
     <use style="fill:#ff0000;stroke:#ff0000;" x="259.73747" xlink:href="#ma131ba0fc5" y="39.480293"/>
     <use style="fill:#ff0000;stroke:#ff0000;" x="259.73747" xlink:href="#ma131ba0fc5" y="39.480321"/>
     <use style="fill:#ff0000;stroke:#ff0000;" x="271.115315" xlink:href="#ma131ba0fc5" y="39.418227"/>
     <use style="fill:#ff0000;stroke:#ff0000;" x="271.115315" xlink:href="#ma131ba0fc5" y="39.417849"/>
     <use style="fill:#ff0000;stroke:#ff0000;" x="271.115315" xlink:href="#ma131ba0fc5" y="39.41823"/>
     <use style="fill:#ff0000;stroke:#ff0000;" x="271.115315" xlink:href="#ma131ba0fc5" y="39.418488"/>
     <use style="fill:#ff0000;stroke:#ff0000;" x="271.115315" xlink:href="#ma131ba0fc5" y="39.418279"/>
     <use style="fill:#ff0000;stroke:#ff0000;" x="282.493176" xlink:href="#ma131ba0fc5" y="39.379012"/>
     <use style="fill:#ff0000;stroke:#ff0000;" x="282.493176" xlink:href="#ma131ba0fc5" y="39.378977"/>
     <use style="fill:#ff0000;stroke:#ff0000;" x="282.493176" xlink:href="#ma131ba0fc5" y="39.378961"/>
     <use style="fill:#ff0000;stroke:#ff0000;" x="282.493176" xlink:href="#ma131ba0fc5" y="39.378957"/>
     <use style="fill:#ff0000;stroke:#ff0000;" x="282.493176" xlink:href="#ma131ba0fc5" y="39.379264"/>
     <use style="fill:#ff0000;stroke:#ff0000;" x="293.870922" xlink:href="#ma131ba0fc5" y="39.354072"/>
     <use style="fill:#ff0000;stroke:#ff0000;" x="293.870922" xlink:href="#ma131ba0fc5" y="39.35402"/>
     <use style="fill:#ff0000;stroke:#ff0000;" x="293.870922" xlink:href="#ma131ba0fc5" y="39.354302"/>
     <use style="fill:#ff0000;stroke:#ff0000;" x="293.870922" xlink:href="#ma131ba0fc5" y="39.354023"/>
     <use style="fill:#ff0000;stroke:#ff0000;" x="293.870922" xlink:href="#ma131ba0fc5" y="39.354008"/>
     <use style="fill:#ff0000;stroke:#ff0000;" x="305.248636" xlink:href="#ma131ba0fc5" y="39.338212"/>
     <use style="fill:#ff0000;stroke:#ff0000;" x="305.248636" xlink:href="#ma131ba0fc5" y="39.337951"/>
     <use style="fill:#ff0000;stroke:#ff0000;" x="305.248636" xlink:href="#ma131ba0fc5" y="39.338022"/>
     <use style="fill:#ff0000;stroke:#ff0000;" x="305.248636" xlink:href="#ma131ba0fc5" y="39.337958"/>
     <use style="fill:#ff0000;stroke:#ff0000;" x="305.248636" xlink:href="#ma131ba0fc5" y="39.337958"/>
     <use style="fill:#ff0000;stroke:#ff0000;" x="316.626561" xlink:href="#ma131ba0fc5" y="39.327434"/>
     <use style="fill:#ff0000;stroke:#ff0000;" x="316.626561" xlink:href="#ma131ba0fc5" y="39.327428"/>
     <use style="fill:#ff0000;stroke:#ff0000;" x="316.626561" xlink:href="#ma131ba0fc5" y="39.327477"/>
     <use style="fill:#ff0000;stroke:#ff0000;" x="316.626561" xlink:href="#ma131ba0fc5" y="39.327605"/>
     <use style="fill:#ff0000;stroke:#ff0000;" x="316.626561" xlink:href="#ma131ba0fc5" y="39.327421"/>
     <use style="fill:#ff0000;stroke:#ff0000;" x="328.004406" xlink:href="#ma131ba0fc5" y="39.320403"/>
     <use style="fill:#ff0000;stroke:#ff0000;" x="328.004406" xlink:href="#ma131ba0fc5" y="39.320365"/>
     <use style="fill:#ff0000;stroke:#ff0000;" x="328.004406" xlink:href="#ma131ba0fc5" y="39.320367"/>
     <use style="fill:#ff0000;stroke:#ff0000;" x="328.004406" xlink:href="#ma131ba0fc5" y="39.320484"/>
     <use style="fill:#ff0000;stroke:#ff0000;" x="328.004406" xlink:href="#ma131ba0fc5" y="39.320381"/>
     <use style="fill:#ff0000;stroke:#ff0000;" x="339.382266" xlink:href="#ma131ba0fc5" y="39.315667"/>
     <use style="fill:#ff0000;stroke:#ff0000;" x="339.382266" xlink:href="#ma131ba0fc5" y="39.315711"/>
     <use style="fill:#ff0000;stroke:#ff0000;" x="339.382266" xlink:href="#ma131ba0fc5" y="39.315642"/>
     <use style="fill:#ff0000;stroke:#ff0000;" x="339.382266" xlink:href="#ma131ba0fc5" y="39.315654"/>
     <use style="fill:#ff0000;stroke:#ff0000;" x="339.382266" xlink:href="#ma131ba0fc5" y="39.315645"/>
     <use style="fill:#ff0000;stroke:#ff0000;" x="350.760013" xlink:href="#ma131ba0fc5" y="39.312384"/>
     <use style="fill:#ff0000;stroke:#ff0000;" x="350.760013" xlink:href="#ma131ba0fc5" y="39.312404"/>
     <use style="fill:#ff0000;stroke:#ff0000;" x="350.760013" xlink:href="#ma131ba0fc5" y="39.312392"/>
     <use style="fill:#ff0000;stroke:#ff0000;" x="350.760013" xlink:href="#ma131ba0fc5" y="39.312392"/>
     <use style="fill:#ff0000;stroke:#ff0000;" x="350.760013" xlink:href="#ma131ba0fc5" y="39.312434"/>
     <use style="fill:#ff0000;stroke:#ff0000;" x="362.137727" xlink:href="#ma131ba0fc5" y="39.310112"/>
     <use style="fill:#ff0000;stroke:#ff0000;" x="362.137727" xlink:href="#ma131ba0fc5" y="39.310102"/>
     <use style="fill:#ff0000;stroke:#ff0000;" x="362.137727" xlink:href="#ma131ba0fc5" y="39.310096"/>
     <use style="fill:#ff0000;stroke:#ff0000;" x="362.137727" xlink:href="#ma131ba0fc5" y="39.310105"/>
     <use style="fill:#ff0000;stroke:#ff0000;" x="362.137727" xlink:href="#ma131ba0fc5" y="39.310121"/>
    </g>
   </g>
   <g id="patch_7">
    <path d="M 63.47 300.328 
L 63.47 26.88 
" style="fill:none;stroke:#000000;stroke-linecap:square;stroke-linejoin:miter;stroke-width:0.8;"/>
   </g>
   <g id="patch_8">
    <path d="M 376.36 300.328 
L 376.36 26.88 
" style="fill:none;stroke:#000000;stroke-linecap:square;stroke-linejoin:miter;stroke-width:0.8;"/>
   </g>
   <g id="patch_9">
    <path d="M 63.47 300.328 
L 376.36 300.328 
" style="fill:none;stroke:#000000;stroke-linecap:square;stroke-linejoin:miter;stroke-width:0.8;"/>
   </g>
   <g id="patch_10">
    <path d="M 63.47 26.88 
L 376.36 26.88 
" style="fill:none;stroke:#000000;stroke-linecap:square;stroke-linejoin:miter;stroke-width:0.8;"/>
   </g>
  </g>
 </g>
 <defs>
  <clipPath id="p859430cb9e">
   <rect height="273.448" width="312.89" x="63.47" y="26.88"/>
  </clipPath>
 </defs>
</svg>
