solid OpenSCAD_Model
  facet normal -1 0 0
    outer loop
      vertex -19.65 2.4 -4.3
      vertex -19.65 -2.4 -4.3
      vertex -19.65 2.4 -1.5
    endloop
  endfacet
  facet normal -1 0 0
    outer loop
      vertex -19.65 2.4 -1.5
      vertex -19.65 19.65 1.5
      vertex -19.65 19.65 -1.5
    endloop
  endfacet
  facet normal -1 0 0
    outer loop
      vertex -19.65 -2.4 -1.5
      vertex -19.65 2.4 -1.5
      vertex -19.65 -2.4 -4.3
    endloop
  endfacet
  facet normal -1 0 0
    outer loop
      vertex -19.65 -2.4 -1.5
      vertex -19.65 19.65 1.5
      vertex -19.65 2.4 -1.5
    endloop
  endfacet
  facet normal -1 0 0
    outer loop
      vertex -19.65 -19.65 1.5
      vertex -19.65 -2.4 -1.5
      vertex -19.65 -19.65 -1.5
    endloop
  endfacet
  facet normal -1 0 0
    outer loop
      vertex -19.65 -2.4 -1.5
      vertex -19.65 -19.65 1.5
      vertex -19.65 19.65 1.5
    endloop
  endfacet
  facet normal 0 0 1
    outer loop
      vertex 27.55 19.65 1.5
      vertex 11 11 1.5
      vertex 27.55 -19.65 1.5
    endloop
  endfacet
  facet normal -0 0 1
    outer loop
      vertex -19.65 19.65 1.5
      vertex 11 11 1.5
      vertex 27.55 19.65 1.5
    endloop
  endfacet
  facet normal 0 0 1
    outer loop
      vertex -11 11 1.5
      vertex -19.65 19.65 1.5
      vertex -11 -11 1.5
    endloop
  endfacet
  facet normal 0 0 1
    outer loop
      vertex 11 11 1.5
      vertex -19.65 19.65 1.5
      vertex -11 11 1.5
    endloop
  endfacet
  facet normal -0 0 1
    outer loop
      vertex 11 -11 1.5
      vertex 27.55 -19.65 1.5
      vertex 11 11 1.5
    endloop
  endfacet
  facet normal 0 0 1
    outer loop
      vertex -19.65 -19.65 1.5
      vertex 11 -11 1.5
      vertex -11 -11 1.5
    endloop
  endfacet
  facet normal 0 0 1
    outer loop
      vertex 11 -11 1.5
      vertex -19.65 -19.65 1.5
      vertex 27.55 -19.65 1.5
    endloop
  endfacet
  facet normal 0 0 1
    outer loop
      vertex -19.65 -19.65 1.5
      vertex -11 -11 1.5
      vertex -19.65 19.65 1.5
    endloop
  endfacet
  facet normal 1 -0 0
    outer loop
      vertex 27.55 -19.65 1.5
      vertex 27.55 19.65 -1.5
      vertex 27.55 19.65 1.5
    endloop
  endfacet
  facet normal 1 0 0
    outer loop
      vertex 27.55 19.65 -1.5
      vertex 27.55 -19.65 1.5
      vertex 27.55 -19.65 -1.5
    endloop
  endfacet
  facet normal 0 1 -0
    outer loop
      vertex 27.55 19.65 -1.5
      vertex -19.65 19.65 1.5
      vertex 27.55 19.65 1.5
    endloop
  endfacet
  facet normal 0 1 0
    outer loop
      vertex -19.65 19.65 1.5
      vertex 27.55 19.65 -1.5
      vertex -19.65 19.65 -1.5
    endloop
  endfacet
  facet normal 0 0 -1
    outer loop
      vertex -18.05 2.4 -1.5
      vertex -19.65 2.4 -1.5
      vertex -18.05 18.05 -1.5
    endloop
  endfacet
  facet normal 0 0 -1
    outer loop
      vertex 18.05 -2.5 -1.5
      vertex 27.55 -19.65 -1.5
      vertex 18.05 -18.05 -1.5
    endloop
  endfacet
  facet normal 0 0 -1
    outer loop
      vertex 27.55 -19.65 -1.5
      vertex 2.5 -18.05 -1.5
      vertex 18.05 -18.05 -1.5
    endloop
  endfacet
  facet normal 0 0 -1
    outer loop
      vertex -19.65 -19.65 -1.5
      vertex 2.5 -18.05 -1.5
      vertex 27.55 -19.65 -1.5
    endloop
  endfacet
  facet normal -0 0 -1
    outer loop
      vertex 2.5 -18.05 -1.5
      vertex -19.65 -19.65 -1.5
      vertex -2.5 -18.05 -1.5
    endloop
  endfacet
  facet normal -0 0 -1
    outer loop
      vertex -2.5 -18.05 -1.5
      vertex -19.65 -19.65 -1.5
      vertex -18.05 -18.05 -1.5
    endloop
  endfacet
  facet normal 0 0 -1
    outer loop
      vertex -19.65 -2.4 -1.5
      vertex -18.05 -18.05 -1.5
      vertex -19.65 -19.65 -1.5
    endloop
  endfacet
  facet normal 0 0 -1
    outer loop
      vertex -18.05 -18.05 -1.5
      vertex -19.65 -2.4 -1.5
      vertex -18.05 -2.4 -1.5
    endloop
  endfacet
  facet normal 0 0 -1
    outer loop
      vertex 27.55 -19.65 -1.5
      vertex 18.05 -2.5 -1.5
      vertex 27.55 19.65 -1.5
    endloop
  endfacet
  facet normal 0 0 -1
    outer loop
      vertex 18.05 2.5 -1.5
      vertex 27.55 19.65 -1.5
      vertex 18.05 -2.5 -1.5
    endloop
  endfacet
  facet normal 0 0 -1
    outer loop
      vertex 18.05 18.05 -1.5
      vertex 27.55 19.65 -1.5
      vertex 18.05 2.5 -1.5
    endloop
  endfacet
  facet normal 0 0 -1
    outer loop
      vertex 2.5 18.05 -1.5
      vertex 27.55 19.65 -1.5
      vertex 18.05 18.05 -1.5
    endloop
  endfacet
  facet normal 0 0 -1
    outer loop
      vertex -19.65 19.65 -1.5
      vertex 2.5 18.05 -1.5
      vertex -2.5 18.05 -1.5
    endloop
  endfacet
  facet normal 0 0 -1
    outer loop
      vertex -19.65 19.65 -1.5
      vertex -2.5 18.05 -1.5
      vertex -18.05 18.05 -1.5
    endloop
  endfacet
  facet normal 0 0 -1
    outer loop
      vertex 2.5 18.05 -1.5
      vertex -19.65 19.65 -1.5
      vertex 27.55 19.65 -1.5
    endloop
  endfacet
  facet normal 0 0 -1
    outer loop
      vertex -19.65 19.65 -1.5
      vertex -18.05 18.05 -1.5
      vertex -19.65 2.4 -1.5
    endloop
  endfacet
  facet normal 0 0 -1
    outer loop
      vertex -2.5 -14 -1.5
      vertex -11 -11 -1.5
      vertex -2.5 -11 -1.5
    endloop
  endfacet
  facet normal 0 0 -1
    outer loop
      vertex -14 -12.0031 -1.5
      vertex -11 -11 -1.5
      vertex -12 -14 -1.5
    endloop
  endfacet
  facet normal 0 0 -1
    outer loop
      vertex -12 -14 -1.5
      vertex -11 -11 -1.5
      vertex -2.5 -14 -1.5
    endloop
  endfacet
  facet normal 0 0 -1
    outer loop
      vertex -11 11 -1.5
      vertex -2.5 15 -1.5
      vertex -2.5 11 -1.5
    endloop
  endfacet
  facet normal 0 0 -1
    outer loop
      vertex -14 -12.0031 -1.5
      vertex -12 -14 -1.5
      vertex -12.0164 -14.2558 -1.5
    endloop
  endfacet
  facet normal 0 0 -1
    outer loop
      vertex -14 -12.0031 -1.5
      vertex -12.0164 -14.2558 -1.5
      vertex -12.0654 -14.5073 -1.5
    endloop
  endfacet
  facet normal 0 0 -1
    outer loop
      vertex -14 -12.0031 -1.5
      vertex -12.0654 -14.5073 -1.5
      vertex -12.1462 -14.7505 -1.5
    endloop
  endfacet
  facet normal 0 0 -1
    outer loop
      vertex -14 -12.0031 -1.5
      vertex -12.1462 -14.7505 -1.5
      vertex -12.2574 -14.9814 -1.5
    endloop
  endfacet
  facet normal 0 0 -1
    outer loop
      vertex -14 -12.0031 -1.5
      vertex -12.2574 -14.9814 -1.5
      vertex -12.3972 -15.1962 -1.5
    endloop
  endfacet
  facet normal 0 0 -1
    outer loop
      vertex -14 -12.0031 -1.5
      vertex -12.3972 -15.1962 -1.5
      vertex -12.5633 -15.3914 -1.5
    endloop
  endfacet
  facet normal 0 0 -1
    outer loop
      vertex -14 -12.0031 -1.5
      vertex -12.5633 -15.3914 -1.5
      vertex -12.753 -15.5637 -1.5
    endloop
  endfacet
  facet normal 0 0 -1
    outer loop
      vertex -14 -12.0031 -1.5
      vertex -12.753 -15.5637 -1.5
      vertex -12.9632 -15.7103 -1.5
    endloop
  endfacet
  facet normal 0 0 -1
    outer loop
      vertex -14 -12.0031 -1.5
      vertex -12.9632 -15.7103 -1.5
      vertex -13.1904 -15.8288 -1.5
    endloop
  endfacet
  facet normal 0 0 -1
    outer loop
      vertex -14 -12.0031 -1.5
      vertex -13.1904 -15.8288 -1.5
      vertex -13.4309 -15.9173 -1.5
    endloop
  endfacet
  facet normal 0 0 -1
    outer loop
      vertex -14 -12.0031 -1.5
      vertex -13.4309 -15.9173 -1.5
      vertex -13.6808 -15.9744 -1.5
    endloop
  endfacet
  facet normal 0 0 -1
    outer loop
      vertex -14 -12.0031 -1.5
      vertex -13.6808 -15.9744 -1.5
      vertex -13.9359 -15.999 -1.5
    endloop
  endfacet
  facet normal -0 0 -1
    outer loop
      vertex -11 -11 -1.5
      vertex -14 -12.0031 -1.5
      vertex -11 11 -1.5
    endloop
  endfacet
  facet normal 0 0 -1
    outer loop
      vertex -11 11 -1.5
      vertex -14 15 -1.5
      vertex -2.5 15 -1.5
    endloop
  endfacet
  facet normal 0 0 -1
    outer loop
      vertex -14 15 -1.5
      vertex -11 11 -1.5
      vertex -14 -12.0031 -1.5
    endloop
  endfacet
  facet normal 0 0 -1
    outer loop
      vertex -14.192 -15.9908 -1.5
      vertex -14 -12.0031 -1.5
      vertex -13.9359 -15.999 -1.5
    endloop
  endfacet
  facet normal 0 0 -1
    outer loop
      vertex -14.445 -15.9499 -1.5
      vertex -14 -12.0031 -1.5
      vertex -14.192 -15.9908 -1.5
    endloop
  endfacet
  facet normal 0 0 -1
    outer loop
      vertex -14.445 -12.0501 -1.5
      vertex -14 -12.0031 -1.5
      vertex -14.445 -15.9499 -1.5
    endloop
  endfacet
  facet normal 0 0 -1
    outer loop
      vertex -14 -12.0031 -1.5
      vertex -14.445 -12.0501 -1.5
      vertex -14.192 -12.0092 -1.5
    endloop
  endfacet
  facet normal 0 0 -1
    outer loop
      vertex -14.6907 -15.8769 -1.5
      vertex -14.445 -12.0501 -1.5
      vertex -14.445 -15.9499 -1.5
    endloop
  endfacet
  facet normal 0 0 -1
    outer loop
      vertex -14.6907 -15.8769 -1.5
      vertex -14.6907 -12.1231 -1.5
      vertex -14.445 -12.0501 -1.5
    endloop
  endfacet
  facet normal 0 0 -1
    outer loop
      vertex -14.9251 -15.7732 -1.5
      vertex -14.6907 -12.1231 -1.5
      vertex -14.6907 -15.8769 -1.5
    endloop
  endfacet
  facet normal 0 0 -1
    outer loop
      vertex -14.9251 -15.7732 -1.5
      vertex -14.9251 -12.2268 -1.5
      vertex -14.6907 -12.1231 -1.5
    endloop
  endfacet
  facet normal 0 0 -1
    outer loop
      vertex -15.1442 -15.6403 -1.5
      vertex -14.9251 -12.2268 -1.5
      vertex -14.9251 -15.7732 -1.5
    endloop
  endfacet
  facet normal 0 0 -1
    outer loop
      vertex -15.1442 -15.6403 -1.5
      vertex -15.1442 -12.3597 -1.5
      vertex -14.9251 -12.2268 -1.5
    endloop
  endfacet
  facet normal 0 0 -1
    outer loop
      vertex -15.3446 -15.4806 -1.5
      vertex -15.1442 -12.3597 -1.5
      vertex -15.1442 -15.6403 -1.5
    endloop
  endfacet
  facet normal 0 0 -1
    outer loop
      vertex -15.3446 -15.4806 -1.5
      vertex -15.3446 -12.5194 -1.5
      vertex -15.1442 -12.3597 -1.5
    endloop
  endfacet
  facet normal 0 0 -1
    outer loop
      vertex -15.5229 -15.2965 -1.5
      vertex -15.3446 -12.5194 -1.5
      vertex -15.3446 -15.4806 -1.5
    endloop
  endfacet
  facet normal 0 0 -1
    outer loop
      vertex -15.5229 -15.2965 -1.5
      vertex -15.5229 -12.7035 -1.5
      vertex -15.3446 -12.5194 -1.5
    endloop
  endfacet
  facet normal 0 0 -1
    outer loop
      vertex -15.6762 -15.0911 -1.5
      vertex -15.5229 -12.7035 -1.5
      vertex -15.5229 -15.2965 -1.5
    endloop
  endfacet
  facet normal 0 0 -1
    outer loop
      vertex -15.6762 -15.0911 -1.5
      vertex -15.6762 -12.9089 -1.5
      vertex -15.5229 -12.7035 -1.5
    endloop
  endfacet
  facet normal 0 0 -1
    outer loop
      vertex -15.8019 -14.8678 -1.5
      vertex -15.6762 -12.9089 -1.5
      vertex -15.6762 -15.0911 -1.5
    endloop
  endfacet
  facet normal 0 0 -1
    outer loop
      vertex -15.8019 -14.8678 -1.5
      vertex -15.8019 -13.1322 -1.5
      vertex -15.6762 -12.9089 -1.5
    endloop
  endfacet
  facet normal 0 0 -1
    outer loop
      vertex -15.8981 -14.6302 -1.5
      vertex -15.8019 -13.1322 -1.5
      vertex -15.8019 -14.8678 -1.5
    endloop
  endfacet
  facet normal 0 0 -1
    outer loop
      vertex -15.8981 -14.6302 -1.5
      vertex -15.8981 -13.3698 -1.5
      vertex -15.8019 -13.1322 -1.5
    endloop
  endfacet
  facet normal 0 0 -1
    outer loop
      vertex -15.9631 -14.3823 -1.5
      vertex -15.8981 -13.3698 -1.5
      vertex -15.8981 -14.6302 -1.5
    endloop
  endfacet
  facet normal 0 0 -1
    outer loop
      vertex -15.9631 -14.3823 -1.5
      vertex -15.9631 -13.6177 -1.5
      vertex -15.8981 -13.3698 -1.5
    endloop
  endfacet
  facet normal 0 0 -1
    outer loop
      vertex -15.9959 -14.1281 -1.5
      vertex -15.9631 -13.6177 -1.5
      vertex -15.9631 -14.3823 -1.5
    endloop
  endfacet
  facet normal 0 0 -1
    outer loop
      vertex -15.9631 -13.6177 -1.5
      vertex -15.9959 -14.1281 -1.5
      vertex -15.9959 -13.8719 -1.5
    endloop
  endfacet
  facet normal 0 0 -1
    outer loop
      vertex 15 -14 -1.5
      vertex 11 -11 -1.5
      vertex 15 -2.5 -1.5
    endloop
  endfacet
  facet normal 0 0 -1
    outer loop
      vertex 2.5 -14 -1.5
      vertex 11 -11 -1.5
      vertex 15 -14 -1.5
    endloop
  endfacet
  facet normal -0 0 -1
    outer loop
      vertex 11 -11 -1.5
      vertex 2.5 -14 -1.5
      vertex 2.5 -11 -1.5
    endloop
  endfacet
  facet normal 0 0 -1
    outer loop
      vertex 15 -2.5 -1.5
      vertex 11 -11 -1.5
      vertex 11 -2.5 -1.5
    endloop
  endfacet
  facet normal 0 0 -1
    outer loop
      vertex 11 11 -1.5
      vertex 15 2.5 -1.5
      vertex 11 2.5 -1.5
    endloop
  endfacet
  facet normal 0 0 -1
    outer loop
      vertex 15 2.5 -1.5
      vertex 11 11 -1.5
      vertex 15 15 -1.5
    endloop
  endfacet
  facet normal 0 0 -1
    outer loop
      vertex 2.5 15 -1.5
      vertex 11 11 -1.5
      vertex 2.5 11 -1.5
    endloop
  endfacet
  facet normal 0 0 -1
    outer loop
      vertex 11 11 -1.5
      vertex 2.5 15 -1.5
      vertex 15 15 -1.5
    endloop
  endfacet
  facet normal 0 -1 0
    outer loop
      vertex -19.65 -19.65 -1.5
      vertex 27.55 -19.65 1.5
      vertex -19.65 -19.65 1.5
    endloop
  endfacet
  facet normal 0 -1 -0
    outer loop
      vertex 27.55 -19.65 1.5
      vertex -19.65 -19.65 -1.5
      vertex 27.55 -19.65 -1.5
    endloop
  endfacet
  facet normal 1 -0 0
    outer loop
      vertex -11 -11 1.5
      vertex -11 11 -1.5
      vertex -11 11 1.5
    endloop
  endfacet
  facet normal 1 0 0
    outer loop
      vertex -11 11 -1.5
      vertex -11 -11 1.5
      vertex -11 -11 -1.5
    endloop
  endfacet
  facet normal -1 0 0
    outer loop
      vertex 11 -2.5 -1.5
      vertex 11 -11 -1.5
      vertex 11 -2.5 -0.5
    endloop
  endfacet
  facet normal -1 0 0
    outer loop
      vertex 11 2.5 -0.5
      vertex 11 11 -1.5
      vertex 11 2.5 -1.5
    endloop
  endfacet
  facet normal -1 0 0
    outer loop
      vertex 11 11 -1.5
      vertex 11 2.5 -0.5
      vertex 11 11 1.5
    endloop
  endfacet
  facet normal -1 0 0
    outer loop
      vertex 11 -2.5 -0.5
      vertex 11 11 1.5
      vertex 11 2.5 -0.5
    endloop
  endfacet
  facet normal -1 0 0
    outer loop
      vertex 11 -11 1.5
      vertex 11 -2.5 -0.5
      vertex 11 -11 -1.5
    endloop
  endfacet
  facet normal -1 0 0
    outer loop
      vertex 11 -2.5 -0.5
      vertex 11 -11 1.5
      vertex 11 11 1.5
    endloop
  endfacet
  facet normal 0 1 0
    outer loop
      vertex 11 -11 1.5
      vertex 2.5 -11 -0.5
      vertex -11 -11 1.5
    endloop
  endfacet
  facet normal 0 1 -0
    outer loop
      vertex 11 -11 -1.5
      vertex 2.5 -11 -0.5
      vertex 11 -11 1.5
    endloop
  endfacet
  facet normal 0 1 0
    outer loop
      vertex 2.5 -11 -0.5
      vertex 11 -11 -1.5
      vertex 2.5 -11 -1.5
    endloop
  endfacet
  facet normal 0 1 -0
    outer loop
      vertex -2.5 -11 -0.5
      vertex -11 -11 1.5
      vertex 2.5 -11 -0.5
    endloop
  endfacet
  facet normal 0 1 0
    outer loop
      vertex -11 -11 -1.5
      vertex -2.5 -11 -0.5
      vertex -2.5 -11 -1.5
    endloop
  endfacet
  facet normal 0 1 0
    outer loop
      vertex -2.5 -11 -0.5
      vertex -11 -11 -1.5
      vertex -11 -11 1.5
    endloop
  endfacet
  facet normal 0 -1 0
    outer loop
      vertex -11 11 1.5
      vertex -2.5 11 -0.5
      vertex 11 11 1.5
    endloop
  endfacet
  facet normal 0 -1 0
    outer loop
      vertex -11 11 -1.5
      vertex -2.5 11 -0.5
      vertex -11 11 1.5
    endloop
  endfacet
  facet normal 0 -1 -0
    outer loop
      vertex -2.5 11 -0.5
      vertex -11 11 -1.5
      vertex -2.5 11 -1.5
    endloop
  endfacet
  facet normal 0 -1 0
    outer loop
      vertex 2.5 11 -0.5
      vertex 11 11 1.5
      vertex -2.5 11 -0.5
    endloop
  endfacet
  facet normal 0 -1 0
    outer loop
      vertex 11 11 -1.5
      vertex 2.5 11 -0.5
      vertex 2.5 11 -1.5
    endloop
  endfacet
  facet normal 0 -1 0
    outer loop
      vertex 2.5 11 -0.5
      vertex 11 11 -1.5
      vertex 11 11 1.5
    endloop
  endfacet
  facet normal -1 0 0
    outer loop
      vertex -18.05 18.05 -7.5
      vertex -18.05 2.4 -4.3
      vertex -18.05 18.05 -1.5
    endloop
  endfacet
  facet normal -1 0 0
    outer loop
      vertex -18.05 18.05 -7.5
      vertex -18.05 -2.4 -4.3
      vertex -18.05 2.4 -4.3
    endloop
  endfacet
  facet normal -1 0 0
    outer loop
      vertex -18.05 -18.05 -7.5
      vertex -18.05 -2.4 -4.3
      vertex -18.05 18.05 -7.5
    endloop
  endfacet
  facet normal -1 0 0
    outer loop
      vertex -18.05 -18.05 -1.5
      vertex -18.05 -2.4 -4.3
      vertex -18.05 -18.05 -7.5
    endloop
  endfacet
  facet normal -1 0 0
    outer loop
      vertex -18.05 -2.4 -4.3
      vertex -18.05 -18.05 -1.5
      vertex -18.05 -2.4 -1.5
    endloop
  endfacet
  facet normal -1 -0 0
    outer loop
      vertex -18.05 18.05 -1.5
      vertex -18.05 2.4 -4.3
      vertex -18.05 2.4 -1.5
    endloop
  endfacet
  facet normal 1 -0 0
    outer loop
      vertex 18.05 -18.05 -1.5
      vertex 18.05 -2.5 -7.5
      vertex 18.05 -2.5 -1.5
    endloop
  endfacet
  facet normal 1 0 0
    outer loop
      vertex 18.05 -2.5 -7.5
      vertex 18.05 -18.05 -1.5
      vertex 18.05 -18.05 -7.5
    endloop
  endfacet
  facet normal 1 -0 0
    outer loop
      vertex 18.05 2.5 -1.5
      vertex 18.05 18.05 -7.5
      vertex 18.05 18.05 -1.5
    endloop
  endfacet
  facet normal 1 0 0
    outer loop
      vertex 18.05 18.05 -7.5
      vertex 18.05 2.5 -1.5
      vertex 18.05 2.5 -7.5
    endloop
  endfacet
  facet normal -1 0 0
    outer loop
      vertex 18.05 -2.5 -1.5
      vertex 18.05 2.5 -0.5
      vertex 18.05 2.5 -1.5
    endloop
  endfacet
  facet normal -1 -0 0
    outer loop
      vertex 18.05 2.5 -0.5
      vertex 18.05 -2.5 -1.5
      vertex 18.05 -2.5 -0.5
    endloop
  endfacet
  facet normal 0 0 -1
    outer loop
      vertex -12.0654 -14.5073 -7.5
      vertex -2.5 -14 -7.5
      vertex -2.5 -18.05 -7.5
    endloop
  endfacet
  facet normal -0 0 -1
    outer loop
      vertex -2.5 -14 -7.5
      vertex -12.0164 -14.2558 -7.5
      vertex -12 -14 -7.5
    endloop
  endfacet
  facet normal 0 0 -1
    outer loop
      vertex -2.5 -14 -7.5
      vertex -12.0654 -14.5073 -7.5
      vertex -12.0164 -14.2558 -7.5
    endloop
  endfacet
  facet normal 0 0 -1
    outer loop
      vertex -2.5 -18.05 -7.5
      vertex -12.1462 -14.7505 -7.5
      vertex -12.0654 -14.5073 -7.5
    endloop
  endfacet
  facet normal 0 0 -1
    outer loop
      vertex -2.5 -18.05 -7.5
      vertex -12.2574 -14.9814 -7.5
      vertex -12.1462 -14.7505 -7.5
    endloop
  endfacet
  facet normal 0 0 -1
    outer loop
      vertex -2.5 -18.05 -7.5
      vertex -12.3972 -15.1962 -7.5
      vertex -12.2574 -14.9814 -7.5
    endloop
  endfacet
  facet normal 0 0 -1
    outer loop
      vertex -2.5 -18.05 -7.5
      vertex -12.5633 -15.3914 -7.5
      vertex -12.3972 -15.1962 -7.5
    endloop
  endfacet
  facet normal 0 0 -1
    outer loop
      vertex -2.5 -18.05 -7.5
      vertex -12.753 -15.5637 -7.5
      vertex -12.5633 -15.3914 -7.5
    endloop
  endfacet
  facet normal 0 0 -1
    outer loop
      vertex -2.5 -18.05 -7.5
      vertex -12.9632 -15.7103 -7.5
      vertex -12.753 -15.5637 -7.5
    endloop
  endfacet
  facet normal 0 0 -1
    outer loop
      vertex -2.5 -18.05 -7.5
      vertex -13.1904 -15.8288 -7.5
      vertex -12.9632 -15.7103 -7.5
    endloop
  endfacet
  facet normal 0 0 -1
    outer loop
      vertex -2.5 -18.05 -7.5
      vertex -13.4309 -15.9173 -7.5
      vertex -13.1904 -15.8288 -7.5
    endloop
  endfacet
  facet normal 0 0 -1
    outer loop
      vertex -18.05 -18.05 -7.5
      vertex -13.4309 -15.9173 -7.5
      vertex -2.5 -18.05 -7.5
    endloop
  endfacet
  facet normal 0 0 -1
    outer loop
      vertex -13.4309 -15.9173 -7.5
      vertex -18.05 -18.05 -7.5
      vertex -13.6808 -15.9744 -7.5
    endloop
  endfacet
  facet normal 0 0 -1
    outer loop
      vertex -13.6808 -15.9744 -7.5
      vertex -18.05 -18.05 -7.5
      vertex -13.9359 -15.999 -7.5
    endloop
  endfacet
  facet normal -0 0 -1
    outer loop
      vertex -13.9359 -15.999 -7.5
      vertex -18.05 -18.05 -7.5
      vertex -14.192 -15.9908 -7.5
    endloop
  endfacet
  facet normal -0 0 -1
    outer loop
      vertex -15.9959 -14.1281 -7.5
      vertex -18.05 -18.05 -7.5
      vertex -15.9959 -13.8719 -7.5
    endloop
  endfacet
  facet normal -0 0 -1
    outer loop
      vertex -15.9631 -14.3823 -7.5
      vertex -18.05 -18.05 -7.5
      vertex -15.9959 -14.1281 -7.5
    endloop
  endfacet
  facet normal -0 0 -1
    outer loop
      vertex -15.8981 -14.6302 -7.5
      vertex -18.05 -18.05 -7.5
      vertex -15.9631 -14.3823 -7.5
    endloop
  endfacet
  facet normal -0 0 -1
    outer loop
      vertex -15.8019 -14.8678 -7.5
      vertex -18.05 -18.05 -7.5
      vertex -15.8981 -14.6302 -7.5
    endloop
  endfacet
  facet normal -0 0 -1
    outer loop
      vertex -15.6762 -15.0911 -7.5
      vertex -18.05 -18.05 -7.5
      vertex -15.8019 -14.8678 -7.5
    endloop
  endfacet
  facet normal -0 0 -1
    outer loop
      vertex -15.5229 -15.2965 -7.5
      vertex -18.05 -18.05 -7.5
      vertex -15.6762 -15.0911 -7.5
    endloop
  endfacet
  facet normal -0 0 -1
    outer loop
      vertex -15.3446 -15.4806 -7.5
      vertex -18.05 -18.05 -7.5
      vertex -15.5229 -15.2965 -7.5
    endloop
  endfacet
  facet normal -0 0 -1
    outer loop
      vertex -15.1442 -15.6403 -7.5
      vertex -18.05 -18.05 -7.5
      vertex -15.3446 -15.4806 -7.5
    endloop
  endfacet
  facet normal -0 0 -1
    outer loop
      vertex -14.9251 -15.7732 -7.5
      vertex -18.05 -18.05 -7.5
      vertex -15.1442 -15.6403 -7.5
    endloop
  endfacet
  facet normal -0 0 -1
    outer loop
      vertex -14.6907 -15.8769 -7.5
      vertex -18.05 -18.05 -7.5
      vertex -14.9251 -15.7732 -7.5
    endloop
  endfacet
  facet normal -0 0 -1
    outer loop
      vertex -14.445 -15.9499 -7.5
      vertex -18.05 -18.05 -7.5
      vertex -14.6907 -15.8769 -7.5
    endloop
  endfacet
  facet normal -0 0 -1
    outer loop
      vertex -14.192 -15.9908 -7.5
      vertex -18.05 -18.05 -7.5
      vertex -14.445 -15.9499 -7.5
    endloop
  endfacet
  facet normal -0 0 -1
    outer loop
      vertex -14 -12.0031 -7.5
      vertex -14.192 -12.0092 -7.5
      vertex -14 15 -7.5
    endloop
  endfacet
  facet normal 0 0 -1
    outer loop
      vertex -14 15 -7.5
      vertex -2.5 18.05 -7.5
      vertex -2.5 15 -7.5
    endloop
  endfacet
  facet normal 0 0 -1
    outer loop
      vertex -14.445 -12.0501 -7.5
      vertex -14 15 -7.5
      vertex -14.192 -12.0092 -7.5
    endloop
  endfacet
  facet normal 0 0 -1
    outer loop
      vertex -14.6907 -12.1231 -7.5
      vertex -14 15 -7.5
      vertex -14.445 -12.0501 -7.5
    endloop
  endfacet
  facet normal 0 0 -1
    outer loop
      vertex -14.9251 -12.2268 -7.5
      vertex -14 15 -7.5
      vertex -14.6907 -12.1231 -7.5
    endloop
  endfacet
  facet normal 0 0 -1
    outer loop
      vertex -15.1442 -12.3597 -7.5
      vertex -14 15 -7.5
      vertex -14.9251 -12.2268 -7.5
    endloop
  endfacet
  facet normal 0 0 -1
    outer loop
      vertex -15.3446 -12.5194 -7.5
      vertex -14 15 -7.5
      vertex -15.1442 -12.3597 -7.5
    endloop
  endfacet
  facet normal 0 0 -1
    outer loop
      vertex -18.05 18.05 -7.5
      vertex -15.3446 -12.5194 -7.5
      vertex -15.5229 -12.7035 -7.5
    endloop
  endfacet
  facet normal 0 0 -1
    outer loop
      vertex -18.05 18.05 -7.5
      vertex -15.5229 -12.7035 -7.5
      vertex -15.6762 -12.9089 -7.5
    endloop
  endfacet
  facet normal 0 0 -1
    outer loop
      vertex -18.05 18.05 -7.5
      vertex -15.6762 -12.9089 -7.5
      vertex -15.8019 -13.1322 -7.5
    endloop
  endfacet
  facet normal 0 0 -1
    outer loop
      vertex -18.05 18.05 -7.5
      vertex -15.8019 -13.1322 -7.5
      vertex -15.8981 -13.3698 -7.5
    endloop
  endfacet
  facet normal 0 0 -1
    outer loop
      vertex -18.05 -18.05 -7.5
      vertex -15.8981 -13.3698 -7.5
      vertex -15.9631 -13.6177 -7.5
    endloop
  endfacet
  facet normal 0 0 -1
    outer loop
      vertex -18.05 -18.05 -7.5
      vertex -15.9631 -13.6177 -7.5
      vertex -15.9959 -13.8719 -7.5
    endloop
  endfacet
  facet normal -0 0 -1
    outer loop
      vertex -15.8981 -13.3698 -7.5
      vertex -18.05 -18.05 -7.5
      vertex -18.05 18.05 -7.5
    endloop
  endfacet
  facet normal 0 0 -1
    outer loop
      vertex -14 15 -7.5
      vertex -18.05 18.05 -7.5
      vertex -2.5 18.05 -7.5
    endloop
  endfacet
  facet normal 0 0 -1
    outer loop
      vertex -15.3446 -12.5194 -7.5
      vertex -18.05 18.05 -7.5
      vertex -14 15 -7.5
    endloop
  endfacet
  facet normal 0 0 -1
    outer loop
      vertex 18.05 -18.05 -7.5
      vertex 15 -14 -7.5
      vertex 18.05 -2.5 -7.5
    endloop
  endfacet
  facet normal 0 0 -1
    outer loop
      vertex 2.5 -18.05 -7.5
      vertex 15 -14 -7.5
      vertex 18.05 -18.05 -7.5
    endloop
  endfacet
  facet normal -0 0 -1
    outer loop
      vertex 15 -14 -7.5
      vertex 2.5 -18.05 -7.5
      vertex 2.5 -14 -7.5
    endloop
  endfacet
  facet normal 0 0 -1
    outer loop
      vertex 18.05 -2.5 -7.5
      vertex 15 -14 -7.5
      vertex 15 -2.5 -7.5
    endloop
  endfacet
  facet normal 0 0 -1
    outer loop
      vertex 15 15 -7.5
      vertex 18.05 2.5 -7.5
      vertex 15 2.5 -7.5
    endloop
  endfacet
  facet normal 0 0 -1
    outer loop
      vertex 18.05 2.5 -7.5
      vertex 15 15 -7.5
      vertex 18.05 18.05 -7.5
    endloop
  endfacet
  facet normal 0 0 -1
    outer loop
      vertex 2.5 18.05 -7.5
      vertex 15 15 -7.5
      vertex 2.5 15 -7.5
    endloop
  endfacet
  facet normal 0 0 -1
    outer loop
      vertex 15 15 -7.5
      vertex 2.5 18.05 -7.5
      vertex 18.05 18.05 -7.5
    endloop
  endfacet
  facet normal 0 -1 0
    outer loop
      vertex -18.05 -18.05 -7.5
      vertex -2.5 -18.05 -1.5
      vertex -18.05 -18.05 -1.5
    endloop
  endfacet
  facet normal 0 -1 -0
    outer loop
      vertex -2.5 -18.05 -1.5
      vertex -18.05 -18.05 -7.5
      vertex -2.5 -18.05 -7.5
    endloop
  endfacet
  facet normal 0 -1 0
    outer loop
      vertex 2.5 -18.05 -7.5
      vertex 18.05 -18.05 -1.5
      vertex 2.5 -18.05 -1.5
    endloop
  endfacet
  facet normal 0 -1 -0
    outer loop
      vertex 18.05 -18.05 -1.5
      vertex 2.5 -18.05 -7.5
      vertex 18.05 -18.05 -7.5
    endloop
  endfacet
  facet normal 0 1 -0
    outer loop
      vertex 2.5 -18.05 -1.5
      vertex -2.5 -18.05 -0.5
      vertex 2.5 -18.05 -0.5
    endloop
  endfacet
  facet normal 0 1 0
    outer loop
      vertex -2.5 -18.05 -0.5
      vertex 2.5 -18.05 -1.5
      vertex -2.5 -18.05 -1.5
    endloop
  endfacet
  facet normal 0 1 -0
    outer loop
      vertex 18.05 18.05 -7.5
      vertex 2.5 18.05 -1.5
      vertex 18.05 18.05 -1.5
    endloop
  endfacet
  facet normal 0 1 0
    outer loop
      vertex 2.5 18.05 -1.5
      vertex 18.05 18.05 -7.5
      vertex 2.5 18.05 -7.5
    endloop
  endfacet
  facet normal 0 1 -0
    outer loop
      vertex -2.5 18.05 -7.5
      vertex -18.05 18.05 -1.5
      vertex -2.5 18.05 -1.5
    endloop
  endfacet
  facet normal 0 1 0
    outer loop
      vertex -18.05 18.05 -1.5
      vertex -2.5 18.05 -7.5
      vertex -18.05 18.05 -7.5
    endloop
  endfacet
  facet normal 0 -1 0
    outer loop
      vertex -2.5 18.05 -1.5
      vertex 2.5 18.05 -0.5
      vertex -2.5 18.05 -0.5
    endloop
  endfacet
  facet normal 0 -1 -0
    outer loop
      vertex 2.5 18.05 -0.5
      vertex -2.5 18.05 -1.5
      vertex 2.5 18.05 -1.5
    endloop
  endfacet
  facet normal 0 1 -0
    outer loop
      vertex -18.05 2.4 -4.3
      vertex -19.65 2.4 -1.5
      vertex -18.05 2.4 -1.5
    endloop
  endfacet
  facet normal 0 1 0
    outer loop
      vertex -19.65 2.4 -1.5
      vertex -18.05 2.4 -4.3
      vertex -19.65 2.4 -4.3
    endloop
  endfacet
  facet normal 0 0 -1
    outer loop
      vertex -19.65 -2.4 -4.3
      vertex -18.05 2.4 -4.3
      vertex -18.05 -2.4 -4.3
    endloop
  endfacet
  facet normal -0 0 -1
    outer loop
      vertex -18.05 2.4 -4.3
      vertex -19.65 -2.4 -4.3
      vertex -19.65 2.4 -4.3
    endloop
  endfacet
  facet normal 0 -1 0
    outer loop
      vertex -19.65 -2.4 -4.3
      vertex -18.05 -2.4 -1.5
      vertex -19.65 -2.4 -1.5
    endloop
  endfacet
  facet normal 0 -1 -0
    outer loop
      vertex -18.05 -2.4 -1.5
      vertex -19.65 -2.4 -4.3
      vertex -18.05 -2.4 -4.3
    endloop
  endfacet
  facet normal 1 -0 0
    outer loop
      vertex -14 -12.0031 -1.5
      vertex -14 15 -7.5
      vertex -14 15 -1.5
    endloop
  endfacet
  facet normal 1 0 0
    outer loop
      vertex -14 15 -7.5
      vertex -14 -12.0031 -1.5
      vertex -14 -12.0031 -7.5
    endloop
  endfacet
  facet normal -1 0 0
    outer loop
      vertex 15 -14 -7.5
      vertex 15 -2.5 -1.5
      vertex 15 -2.5 -7.5
    endloop
  endfacet
  facet normal -1 -0 0
    outer loop
      vertex 15 -2.5 -1.5
      vertex 15 -14 -7.5
      vertex 15 -14 -1.5
    endloop
  endfacet
  facet normal -1 0 0
    outer loop
      vertex 15 2.5 -7.5
      vertex 15 15 -1.5
      vertex 15 15 -7.5
    endloop
  endfacet
  facet normal -1 -0 0
    outer loop
      vertex 15 15 -1.5
      vertex 15 2.5 -7.5
      vertex 15 2.5 -1.5
    endloop
  endfacet
  facet normal 0 1 -0
    outer loop
      vertex -2.5 -14 -7.5
      vertex -12 -14 -1.5
      vertex -2.5 -14 -1.5
    endloop
  endfacet
  facet normal 0 1 0
    outer loop
      vertex -12 -14 -1.5
      vertex -2.5 -14 -7.5
      vertex -12 -14 -7.5
    endloop
  endfacet
  facet normal 0 1 -0
    outer loop
      vertex 15 -14 -7.5
      vertex 2.5 -14 -1.5
      vertex 15 -14 -1.5
    endloop
  endfacet
  facet normal 0 1 0
    outer loop
      vertex 2.5 -14 -1.5
      vertex 15 -14 -7.5
      vertex 2.5 -14 -7.5
    endloop
  endfacet
  facet normal 0 -1 0
    outer loop
      vertex 2.5 15 -7.5
      vertex 15 15 -1.5
      vertex 2.5 15 -1.5
    endloop
  endfacet
  facet normal 0 -1 -0
    outer loop
      vertex 15 15 -1.5
      vertex 2.5 15 -7.5
      vertex 15 15 -7.5
    endloop
  endfacet
  facet normal 0 -1 0
    outer loop
      vertex -14 15 -7.5
      vertex -2.5 15 -1.5
      vertex -14 15 -1.5
    endloop
  endfacet
  facet normal 0 -1 -0
    outer loop
      vertex -2.5 15 -1.5
      vertex -14 15 -7.5
      vertex -2.5 15 -7.5
    endloop
  endfacet
  facet normal 1 -0 0
    outer loop
      vertex -15.9959 -14.1281 -1.5
      vertex -15.9959 -13.8719 -7.5
      vertex -15.9959 -13.8719 -1.5
    endloop
  endfacet
  facet normal 1 0 0
    outer loop
      vertex -15.9959 -13.8719 -7.5
      vertex -15.9959 -14.1281 -1.5
      vertex -15.9959 -14.1281 -7.5
    endloop
  endfacet
  facet normal 0.0320532 -0.999486 0
    outer loop
      vertex -14.192 -12.0092 -7.5
      vertex -14 -12.0031 -1.5
      vertex -14.192 -12.0092 -1.5
    endloop
  endfacet
  facet normal 0.0320532 -0.999486 0
    outer loop
      vertex -14 -12.0031 -1.5
      vertex -14.192 -12.0092 -7.5
      vertex -14 -12.0031 -7.5
    endloop
  endfacet
  facet normal -0.0960221 0.995379 0
    outer loop
      vertex -13.6808 -15.9744 -7.5
      vertex -13.9359 -15.999 -1.5
      vertex -13.6808 -15.9744 -1.5
    endloop
  endfacet
  facet normal -0.0960221 0.995379 0
    outer loop
      vertex -13.9359 -15.999 -1.5
      vertex -13.6808 -15.9744 -7.5
      vertex -13.9359 -15.999 -7.5
    endloop
  endfacet
  facet normal 0.718351 -0.695681 0
    outer loop
      vertex -15.5229 -12.7035 -1.5
      vertex -15.3446 -12.5194 -7.5
      vertex -15.3446 -12.5194 -1.5
    endloop
  endfacet
  facet normal 0.718351 -0.695681 0
    outer loop
      vertex -15.3446 -12.5194 -7.5
      vertex -15.5229 -12.7035 -1.5
      vertex -15.5229 -12.7035 -7.5
    endloop
  endfacet
  facet normal 0.404782 -0.914413 0
    outer loop
      vertex -14.9251 -12.2268 -7.5
      vertex -14.6907 -12.1231 -1.5
      vertex -14.9251 -12.2268 -1.5
    endloop
  endfacet
  facet normal 0.404782 -0.914413 0
    outer loop
      vertex -14.6907 -12.1231 -1.5
      vertex -14.9251 -12.2268 -7.5
      vertex -14.6907 -12.1231 -7.5
    endloop
  endfacet
  facet normal 0.871319 -0.490717 0
    outer loop
      vertex -15.8019 -13.1322 -1.5
      vertex -15.6762 -12.9089 -7.5
      vertex -15.6762 -12.9089 -1.5
    endloop
  endfacet
  facet normal 0.871319 -0.490717 0
    outer loop
      vertex -15.6762 -12.9089 -7.5
      vertex -15.8019 -13.1322 -1.5
      vertex -15.8019 -13.1322 -7.5
    endloop
  endfacet
  facet normal 0.801412 -0.598112 0
    outer loop
      vertex -15.6762 -12.9089 -1.5
      vertex -15.5229 -12.7035 -7.5
      vertex -15.5229 -12.7035 -1.5
    endloop
  endfacet
  facet normal 0.801412 -0.598112 0
    outer loop
      vertex -15.5229 -12.7035 -7.5
      vertex -15.6762 -12.9089 -1.5
      vertex -15.6762 -12.9089 -7.5
    endloop
  endfacet
  facet normal 0.623488 -0.781833 0
    outer loop
      vertex -15.3446 -12.5194 -7.5
      vertex -15.1442 -12.3597 -1.5
      vertex -15.3446 -12.5194 -1.5
    endloop
  endfacet
  facet normal 0.623488 -0.781833 0
    outer loop
      vertex -15.1442 -12.3597 -1.5
      vertex -15.3446 -12.5194 -7.5
      vertex -15.1442 -12.3597 -7.5
    endloop
  endfacet
  facet normal 0.159599 -0.987182 0
    outer loop
      vertex -14.445 -12.0501 -7.5
      vertex -14.192 -12.0092 -1.5
      vertex -14.445 -12.0501 -1.5
    endloop
  endfacet
  facet normal 0.159599 -0.987182 0
    outer loop
      vertex -14.192 -12.0092 -1.5
      vertex -14.445 -12.0501 -7.5
      vertex -14.192 -12.0092 -7.5
    endloop
  endfacet
  facet normal -0.222521 0.974928 0
    outer loop
      vertex -13.4309 -15.9173 -7.5
      vertex -13.6808 -15.9744 -1.5
      vertex -13.4309 -15.9173 -1.5
    endloop
  endfacet
  facet normal -0.222521 0.974928 0
    outer loop
      vertex -13.6808 -15.9744 -1.5
      vertex -13.4309 -15.9173 -7.5
      vertex -13.6808 -15.9744 -7.5
    endloop
  endfacet
  facet normal 0.926916 -0.375268 0
    outer loop
      vertex -15.8981 -13.3698 -1.5
      vertex -15.8019 -13.1322 -7.5
      vertex -15.8019 -13.1322 -1.5
    endloop
  endfacet
  facet normal 0.926916 -0.375268 0
    outer loop
      vertex -15.8019 -13.1322 -7.5
      vertex -15.8981 -13.3698 -1.5
      vertex -15.8981 -13.3698 -7.5
    endloop
  endfacet
  facet normal 0.99179 -0.127879 0
    outer loop
      vertex -15.9959 -13.8719 -1.5
      vertex -15.9631 -13.6177 -7.5
      vertex -15.9631 -13.6177 -1.5
    endloop
  endfacet
  facet normal 0.99179 -0.127879 0
    outer loop
      vertex -15.9631 -13.6177 -7.5
      vertex -15.9959 -13.8719 -1.5
      vertex -15.9959 -13.8719 -7.5
    endloop
  endfacet
  facet normal 0.518394 -0.855142 0
    outer loop
      vertex -15.1442 -12.3597 -7.5
      vertex -14.9251 -12.2268 -1.5
      vertex -15.1442 -12.3597 -1.5
    endloop
  endfacet
  facet normal 0.518394 -0.855142 0
    outer loop
      vertex -14.9251 -12.2268 -1.5
      vertex -15.1442 -12.3597 -7.5
      vertex -14.9251 -12.2268 -7.5
    endloop
  endfacet
  facet normal -0.997946 0.0640682 0
    outer loop
      vertex -12.0164 -14.2558 -7.5
      vertex -12 -14 -1.5
      vertex -12 -14 -7.5
    endloop
  endfacet
  facet normal -0.997946 0.0640682 0
    outer loop
      vertex -12 -14 -1.5
      vertex -12.0164 -14.2558 -7.5
      vertex -12.0164 -14.2558 -1.5
    endloop
  endfacet
  facet normal -0.949056 0.315109 0
    outer loop
      vertex -12.1462 -14.7505 -7.5
      vertex -12.0654 -14.5073 -1.5
      vertex -12.0654 -14.5073 -7.5
    endloop
  endfacet
  facet normal -0.949056 0.315109 0
    outer loop
      vertex -12.0654 -14.5073 -1.5
      vertex -12.1462 -14.7505 -7.5
      vertex -12.1462 -14.7505 -1.5
    endloop
  endfacet
  facet normal 0.28453 0.958667 -0
    outer loop
      vertex -14.445 -15.9499 -7.5
      vertex -14.6907 -15.8769 -1.5
      vertex -14.445 -15.9499 -1.5
    endloop
  endfacet
  facet normal 0.28453 0.958667 0
    outer loop
      vertex -14.6907 -15.8769 -1.5
      vertex -14.445 -15.9499 -7.5
      vertex -14.6907 -15.8769 -7.5
    endloop
  endfacet
  facet normal 0.871319 0.490717 0
    outer loop
      vertex -15.6762 -15.0911 -1.5
      vertex -15.8019 -14.8678 -7.5
      vertex -15.8019 -14.8678 -1.5
    endloop
  endfacet
  facet normal 0.871319 0.490717 0
    outer loop
      vertex -15.8019 -14.8678 -7.5
      vertex -15.6762 -15.0911 -1.5
      vertex -15.6762 -15.0911 -7.5
    endloop
  endfacet
  facet normal -0.6723 0.740279 0
    outer loop
      vertex -12.5633 -15.3914 -7.5
      vertex -12.753 -15.5637 -1.5
      vertex -12.5633 -15.3914 -1.5
    endloop
  endfacet
  facet normal -0.6723 0.740279 0
    outer loop
      vertex -12.753 -15.5637 -1.5
      vertex -12.5633 -15.3914 -7.5
      vertex -12.753 -15.5637 -7.5
    endloop
  endfacet
  facet normal -0.462538 0.886599 0
    outer loop
      vertex -12.9632 -15.7103 -7.5
      vertex -13.1904 -15.8288 -1.5
      vertex -12.9632 -15.7103 -1.5
    endloop
  endfacet
  facet normal -0.462538 0.886599 0
    outer loop
      vertex -13.1904 -15.8288 -1.5
      vertex -12.9632 -15.7103 -7.5
      vertex -13.1904 -15.8288 -7.5
    endloop
  endfacet
  facet normal 0.967295 -0.253653 0
    outer loop
      vertex -15.9631 -13.6177 -1.5
      vertex -15.8981 -13.3698 -7.5
      vertex -15.8981 -13.3698 -1.5
    endloop
  endfacet
  facet normal 0.967295 -0.253653 0
    outer loop
      vertex -15.8981 -13.3698 -7.5
      vertex -15.9631 -13.6177 -1.5
      vertex -15.9631 -13.6177 -7.5
    endloop
  endfacet
  facet normal 0.28453 -0.958667 0
    outer loop
      vertex -14.6907 -12.1231 -7.5
      vertex -14.445 -12.0501 -1.5
      vertex -14.6907 -12.1231 -1.5
    endloop
  endfacet
  facet normal 0.28453 -0.958667 0
    outer loop
      vertex -14.445 -12.0501 -1.5
      vertex -14.6907 -12.1231 -7.5
      vertex -14.445 -12.0501 -7.5
    endloop
  endfacet
  facet normal -0.981559 0.191158 0
    outer loop
      vertex -12.0654 -14.5073 -7.5
      vertex -12.0164 -14.2558 -1.5
      vertex -12.0164 -14.2558 -7.5
    endloop
  endfacet
  facet normal -0.981559 0.191158 0
    outer loop
      vertex -12.0164 -14.2558 -1.5
      vertex -12.0654 -14.5073 -7.5
      vertex -12.0654 -14.5073 -1.5
    endloop
  endfacet
  facet normal -0.838089 0.545534 0
    outer loop
      vertex -12.3972 -15.1962 -7.5
      vertex -12.2574 -14.9814 -1.5
      vertex -12.2574 -14.9814 -7.5
    endloop
  endfacet
  facet normal -0.838089 0.545534 0
    outer loop
      vertex -12.2574 -14.9814 -1.5
      vertex -12.3972 -15.1962 -7.5
      vertex -12.3972 -15.1962 -1.5
    endloop
  endfacet
  facet normal 0.159599 0.987182 -0
    outer loop
      vertex -14.192 -15.9908 -7.5
      vertex -14.445 -15.9499 -1.5
      vertex -14.192 -15.9908 -1.5
    endloop
  endfacet
  facet normal 0.159599 0.987182 0
    outer loop
      vertex -14.445 -15.9499 -1.5
      vertex -14.192 -15.9908 -7.5
      vertex -14.445 -15.9499 -7.5
    endloop
  endfacet
  facet normal 0.926916 0.375268 0
    outer loop
      vertex -15.8019 -14.8678 -1.5
      vertex -15.8981 -14.6302 -7.5
      vertex -15.8981 -14.6302 -1.5
    endloop
  endfacet
  facet normal 0.926916 0.375268 0
    outer loop
      vertex -15.8981 -14.6302 -7.5
      vertex -15.8019 -14.8678 -1.5
      vertex -15.8019 -14.8678 -7.5
    endloop
  endfacet
  facet normal -0.761446 0.648229 0
    outer loop
      vertex -12.5633 -15.3914 -7.5
      vertex -12.3972 -15.1962 -1.5
      vertex -12.3972 -15.1962 -7.5
    endloop
  endfacet
  facet normal -0.761446 0.648229 0
    outer loop
      vertex -12.3972 -15.1962 -1.5
      vertex -12.5633 -15.3914 -7.5
      vertex -12.5633 -15.3914 -1.5
    endloop
  endfacet
  facet normal -0.572118 0.820171 0
    outer loop
      vertex -12.753 -15.5637 -7.5
      vertex -12.9632 -15.7103 -1.5
      vertex -12.753 -15.5637 -1.5
    endloop
  endfacet
  facet normal -0.572118 0.820171 0
    outer loop
      vertex -12.9632 -15.7103 -1.5
      vertex -12.753 -15.5637 -7.5
      vertex -12.9632 -15.7103 -7.5
    endloop
  endfacet
  facet normal -0.345365 0.938469 0
    outer loop
      vertex -13.1904 -15.8288 -7.5
      vertex -13.4309 -15.9173 -1.5
      vertex -13.1904 -15.8288 -1.5
    endloop
  endfacet
  facet normal -0.345365 0.938469 0
    outer loop
      vertex -13.4309 -15.9173 -1.5
      vertex -13.1904 -15.8288 -7.5
      vertex -13.4309 -15.9173 -7.5
    endloop
  endfacet
  facet normal -0.900969 0.433884 0
    outer loop
      vertex -12.2574 -14.9814 -7.5
      vertex -12.1462 -14.7505 -1.5
      vertex -12.1462 -14.7505 -7.5
    endloop
  endfacet
  facet normal -0.900969 0.433884 0
    outer loop
      vertex -12.1462 -14.7505 -1.5
      vertex -12.2574 -14.9814 -7.5
      vertex -12.2574 -14.9814 -1.5
    endloop
  endfacet
  facet normal 0.0320507 0.999486 -0
    outer loop
      vertex -13.9359 -15.999 -7.5
      vertex -14.192 -15.9908 -1.5
      vertex -13.9359 -15.999 -1.5
    endloop
  endfacet
  facet normal 0.0320507 0.999486 0
    outer loop
      vertex -14.192 -15.9908 -1.5
      vertex -13.9359 -15.999 -7.5
      vertex -14.192 -15.9908 -7.5
    endloop
  endfacet
  facet normal 0.404782 0.914413 -0
    outer loop
      vertex -14.6907 -15.8769 -7.5
      vertex -14.9251 -15.7732 -1.5
      vertex -14.6907 -15.8769 -1.5
    endloop
  endfacet
  facet normal 0.404782 0.914413 0
    outer loop
      vertex -14.9251 -15.7732 -1.5
      vertex -14.6907 -15.8769 -7.5
      vertex -14.9251 -15.7732 -7.5
    endloop
  endfacet
  facet normal 0.718351 0.695681 0
    outer loop
      vertex -15.3446 -15.4806 -1.5
      vertex -15.5229 -15.2965 -7.5
      vertex -15.5229 -15.2965 -1.5
    endloop
  endfacet
  facet normal 0.718351 0.695681 0
    outer loop
      vertex -15.5229 -15.2965 -7.5
      vertex -15.3446 -15.4806 -1.5
      vertex -15.3446 -15.4806 -7.5
    endloop
  endfacet
  facet normal 0.801412 0.598112 0
    outer loop
      vertex -15.5229 -15.2965 -1.5
      vertex -15.6762 -15.0911 -7.5
      vertex -15.6762 -15.0911 -1.5
    endloop
  endfacet
  facet normal 0.801412 0.598112 0
    outer loop
      vertex -15.6762 -15.0911 -7.5
      vertex -15.5229 -15.2965 -1.5
      vertex -15.5229 -15.2965 -7.5
    endloop
  endfacet
  facet normal 0.967295 0.253653 0
    outer loop
      vertex -15.8981 -14.6302 -1.5
      vertex -15.9631 -14.3823 -7.5
      vertex -15.9631 -14.3823 -1.5
    endloop
  endfacet
  facet normal 0.967295 0.253653 0
    outer loop
      vertex -15.9631 -14.3823 -7.5
      vertex -15.8981 -14.6302 -1.5
      vertex -15.8981 -14.6302 -7.5
    endloop
  endfacet
  facet normal 0.99179 0.127879 0
    outer loop
      vertex -15.9631 -14.3823 -1.5
      vertex -15.9959 -14.1281 -7.5
      vertex -15.9959 -14.1281 -1.5
    endloop
  endfacet
  facet normal 0.99179 0.127879 0
    outer loop
      vertex -15.9959 -14.1281 -7.5
      vertex -15.9631 -14.3823 -1.5
      vertex -15.9631 -14.3823 -7.5
    endloop
  endfacet
  facet normal 0.623488 0.781833 -0
    outer loop
      vertex -15.1442 -15.6403 -7.5
      vertex -15.3446 -15.4806 -1.5
      vertex -15.1442 -15.6403 -1.5
    endloop
  endfacet
  facet normal 0.623488 0.781833 0
    outer loop
      vertex -15.3446 -15.4806 -1.5
      vertex -15.1442 -15.6403 -7.5
      vertex -15.3446 -15.4806 -7.5
    endloop
  endfacet
  facet normal 0.518394 0.855142 -0
    outer loop
      vertex -14.9251 -15.7732 -7.5
      vertex -15.1442 -15.6403 -1.5
      vertex -14.9251 -15.7732 -1.5
    endloop
  endfacet
  facet normal 0.518394 0.855142 0
    outer loop
      vertex -15.1442 -15.6403 -1.5
      vertex -14.9251 -15.7732 -7.5
      vertex -15.1442 -15.6403 -7.5
    endloop
  endfacet
  facet normal 1 0 0
    outer loop
      vertex -2.5 -11 -0.5
      vertex -2.5 -14 -1.5
      vertex -2.5 -11 -1.5
    endloop
  endfacet
  facet normal 1 -0 0
    outer loop
      vertex -2.5 -18.05 -0.5
      vertex -2.5 -14 -1.5
      vertex -2.5 -11 -0.5
    endloop
  endfacet
  facet normal 1 0 0
    outer loop
      vertex -2.5 -18.05 -1.5
      vertex -2.5 -14 -1.5
      vertex -2.5 -18.05 -0.5
    endloop
  endfacet
  facet normal 1 0 0
    outer loop
      vertex -2.5 -14 -1.5
      vertex -2.5 -18.05 -1.5
      vertex -2.5 -14 -7.5
    endloop
  endfacet
  facet normal 1 0 0
    outer loop
      vertex -2.5 -14 -7.5
      vertex -2.5 -18.05 -1.5
      vertex -2.5 -18.05 -7.5
    endloop
  endfacet
  facet normal 1 0 0
    outer loop
      vertex -2.5 15 -1.5
      vertex -2.5 18.05 -1.5
      vertex -2.5 18.05 -0.5
    endloop
  endfacet
  facet normal 1 0 0
    outer loop
      vertex -2.5 18.05 -1.5
      vertex -2.5 15 -1.5
      vertex -2.5 18.05 -7.5
    endloop
  endfacet
  facet normal 1 -0 0
    outer loop
      vertex -2.5 11 -0.5
      vertex -2.5 15 -1.5
      vertex -2.5 18.05 -0.5
    endloop
  endfacet
  facet normal 1 0 0
    outer loop
      vertex -2.5 15 -1.5
      vertex -2.5 11 -0.5
      vertex -2.5 11 -1.5
    endloop
  endfacet
  facet normal 1 0 0
    outer loop
      vertex -2.5 18.05 -7.5
      vertex -2.5 15 -1.5
      vertex -2.5 15 -7.5
    endloop
  endfacet
  facet normal 0 0 -1
    outer loop
      vertex 11 -2.5 -0.5
      vertex 18.05 2.5 -0.5
      vertex 18.05 -2.5 -0.5
    endloop
  endfacet
  facet normal -0 0 -1
    outer loop
      vertex 18.05 2.5 -0.5
      vertex 11 -2.5 -0.5
      vertex 11 2.5 -0.5
    endloop
  endfacet
  facet normal 0 0 -1
    outer loop
      vertex -2.5 -18.05 -0.5
      vertex 2.5 -11 -0.5
      vertex 2.5 -18.05 -0.5
    endloop
  endfacet
  facet normal -0 0 -1
    outer loop
      vertex 2.5 -11 -0.5
      vertex -2.5 -18.05 -0.5
      vertex -2.5 -11 -0.5
    endloop
  endfacet
  facet normal 0 0 -1
    outer loop
      vertex -2.5 11 -0.5
      vertex 2.5 18.05 -0.5
      vertex 2.5 11 -0.5
    endloop
  endfacet
  facet normal -0 0 -1
    outer loop
      vertex 2.5 18.05 -0.5
      vertex -2.5 11 -0.5
      vertex -2.5 18.05 -0.5
    endloop
  endfacet
  facet normal -1 0 0
    outer loop
      vertex 2.5 -14 -7.5
      vertex 2.5 -18.05 -7.5
      vertex 2.5 -14 -1.5
    endloop
  endfacet
  facet normal -1 0 0
    outer loop
      vertex 2.5 -14 -1.5
      vertex 2.5 -11 -0.5
      vertex 2.5 -11 -1.5
    endloop
  endfacet
  facet normal -1 0 0
    outer loop
      vertex 2.5 -18.05 -1.5
      vertex 2.5 -14 -1.5
      vertex 2.5 -18.05 -7.5
    endloop
  endfacet
  facet normal -1 0 0
    outer loop
      vertex 2.5 -18.05 -0.5
      vertex 2.5 -14 -1.5
      vertex 2.5 -18.05 -1.5
    endloop
  endfacet
  facet normal -1 0 0
    outer loop
      vertex 2.5 -14 -1.5
      vertex 2.5 -18.05 -0.5
      vertex 2.5 -11 -0.5
    endloop
  endfacet
  facet normal -1 0 0
    outer loop
      vertex 2.5 15 -1.5
      vertex 2.5 18.05 -1.5
      vertex 2.5 18.05 -7.5
    endloop
  endfacet
  facet normal -1 0 0
    outer loop
      vertex 2.5 15 -1.5
      vertex 2.5 18.05 -7.5
      vertex 2.5 15 -7.5
    endloop
  endfacet
  facet normal -1 0 0
    outer loop
      vertex 2.5 18.05 -1.5
      vertex 2.5 15 -1.5
      vertex 2.5 18.05 -0.5
    endloop
  endfacet
  facet normal -1 0 0
    outer loop
      vertex 2.5 11 -0.5
      vertex 2.5 15 -1.5
      vertex 2.5 11 -1.5
    endloop
  endfacet
  facet normal -1 0 0
    outer loop
      vertex 2.5 15 -1.5
      vertex 2.5 11 -0.5
      vertex 2.5 18.05 -0.5
    endloop
  endfacet
  facet normal 0 -1 0
    outer loop
      vertex 15 2.5 -1.5
      vertex 11 2.5 -0.5
      vertex 11 2.5 -1.5
    endloop
  endfacet
  facet normal 0 -1 0
    outer loop
      vertex 11 2.5 -0.5
      vertex 15 2.5 -1.5
      vertex 18.05 2.5 -0.5
    endloop
  endfacet
  facet normal 0 -1 0
    outer loop
      vertex 15 2.5 -1.5
      vertex 18.05 2.5 -1.5
      vertex 18.05 2.5 -0.5
    endloop
  endfacet
  facet normal 0 -1 0
    outer loop
      vertex 15 2.5 -7.5
      vertex 18.05 2.5 -1.5
      vertex 15 2.5 -1.5
    endloop
  endfacet
  facet normal 0 -1 -0
    outer loop
      vertex 18.05 2.5 -1.5
      vertex 15 2.5 -7.5
      vertex 18.05 2.5 -7.5
    endloop
  endfacet
  facet normal -7.817e-008 1 0
    outer loop
      vertex 18.05 -2.5 -7.5
      vertex 15 -2.5 -1.5
      vertex 18.05 -2.5 -1.5
    endloop
  endfacet
  facet normal -7.817e-008 1 0
    outer loop
      vertex 15 -2.5 -1.5
      vertex 18.05 -2.5 -7.5
      vertex 15 -2.5 -7.5
    endloop
  endfacet
  facet normal -7.817e-008 1 0
    outer loop
      vertex 15 -2.5 -1.5
      vertex 18.05 -2.5 -0.5
      vertex 18.05 -2.5 -1.5
    endloop
  endfacet
  facet normal -6.76365e-008 1 -3.21274e-008
    outer loop
      vertex 18.05 -2.5 -0.5
      vertex 15 -2.5 -1.5
      vertex 11 -2.5 -0.5
    endloop
  endfacet
  facet normal -5.96046e-008 1 0
    outer loop
      vertex 11 -2.5 -0.5
      vertex 15 -2.5 -1.5
      vertex 11 -2.5 -1.5
    endloop
  endfacet
endsolid OpenSCAD_Model
