<?xml version="1.0" encoding="UTF-8"?>
<!DOCTYPE svg PUBLIC "-//W3C//DTD SVG 1.1//EN" "http://www.w3.org/Graphics/SVG/1.1/DTD/svg11.dtd">
<!-- Creator: CorelDRAW X6 -->
<svg xmlns="http://www.w3.org/2000/svg" xml:space="preserve" width="210mm" height="297mm" version="1.1" style="shape-rendering:geometricPrecision; text-rendering:geometricPrecision; image-rendering:optimizeQuality; fill-rule:evenodd; clip-rule:evenodd"
viewBox="0 0 21000 29700"
 xmlns:xlink="http://www.w3.org/1999/xlink">
 <defs>
  <style type="text/css">
   <![CDATA[
    .str0 {stroke:black;stroke-width:7.62;stroke-linejoin:bevel}
    .fil0 {fill:none}
   ]]>
  </style>
 </defs>
 <g id="Layer_x0020_1">
  <metadata id="CorelCorpID_0Corel-Layer"/>
  <line class="fil0 str0" x1="17769" y1="17170" x2="17769" y2= "12450" />
  <line class="fil0 str0" x1="17769" y1="12450" x2="16054" y2= "12450" />
  <line class="fil0 str0" x1="16054" y1="12450" x2="16054" y2= "12600" />
  <line class="fil0 str0" x1="16054" y1="12600" x2="17619" y2= "12600" />
  <line class="fil0 str0" x1="17619" y1="12600" x2="17619" y2= "16230" />
  <line class="fil0 str0" x1="17619" y1="16230" x2="13989" y2= "16230" />
  <line class="fil0 str0" x1="13989" y1="16230" x2="13989" y2= "14665" />
  <line class="fil0 str0" x1="13989" y1="14665" x2="13839" y2= "14665" />
  <line class="fil0 str0" x1="13839" y1="14665" x2="13839" y2= "17170" />
  <line class="fil0 str0" x1="13839" y1="17170" x2="17769" y2= "17170" />
  <line class="fil0 str0" x1="13989" y1="14165" x2="13989" y2= "12600" />
  <line class="fil0 str0" x1="13989" y1="12600" x2="15554" y2= "12600" />
  <line class="fil0 str0" x1="15554" y1="12600" x2="15554" y2= "12450" />
  <line class="fil0 str0" x1="15554" y1="12450" x2="13839" y2= "12450" />
  <line class="fil0 str0" x1="13839" y1="12450" x2="13839" y2= "14165" />
  <line class="fil0 str0" x1="13839" y1="14165" x2="13989" y2= "14165" />
  <line class="fil0 str0" x1="2994" y1="12490" x2="2994" y2= "17210" />
  <line class="fil0 str0" x1="2994" y1="17210" x2="6924" y2= "17210" />
  <line class="fil0 str0" x1="6924" y1="17210" x2="6924" y2= "12490" />
  <line class="fil0 str0" x1="6924" y1="12490" x2="2994" y2= "12490" />
  <line class="fil0 str0" x1="3859" y1="13355" x2="6059" y2= "13355" />
  <line class="fil0 str0" x1="6059" y1="13355" x2="6059" y2= "15555" />
  <line class="fil0 str0" x1="6059" y1="15555" x2="3859" y2= "15555" />
  <line class="fil0 str0" x1="3859" y1="15555" x2="3859" y2= "13355" />
 </g>
 <g id="_0">
  <metadata id="CorelCorpID_1Corel-Layer"/>
  <line class="fil0 str0" x1="8700" y1="17210" x2="12000" y2= "17210" />
  <line class="fil0 str0" x1="12000" y1="17210" x2="12000" y2= "14705" />
  <line class="fil0 str0" x1="12000" y1="14705" x2="12300" y2= "14705" />
  <line class="fil0 str0" x1="12300" y1="14705" x2="12300" y2= "14205" />
  <line class="fil0 str0" x1="12300" y1="14205" x2="12000" y2= "14205" />
  <line class="fil0 str0" x1="12000" y1="14205" x2="12000" y2= "12490" />
  <line class="fil0 str0" x1="12000" y1="12490" x2="8700" y2= "12490" />
  <line class="fil0 str0" x1="8700" y1="12490" x2="8700" y2= "17210" />
  <line class="fil0 str0" x1="9001" y1="13955" x2="9001" y2= "13885" />
  <line class="fil0 str0" x1="9001" y1="13885" x2="9010" y2= "13815" />
  <line class="fil0 str0" x1="9010" y1="13815" x2="9028" y2= "13747" />
  <line class="fil0 str0" x1="9028" y1="13747" x2="9054" y2= "13681" />
  <line class="fil0 str0" x1="9054" y1="13681" x2="9089" y2= "13620" />
  <line class="fil0 str0" x1="9089" y1="13620" x2="9131" y2= "13563" />
  <line class="fil0 str0" x1="9131" y1="13563" x2="9180" y2= "13513" />
  <line class="fil0 str0" x1="9180" y1="13513" x2="9235" y2= "13469" />
  <line class="fil0 str0" x1="9235" y1="13469" x2="9296" y2= "13432" />
  <line class="fil0 str0" x1="9296" y1="13432" x2="9360" y2= "13404" />
  <line class="fil0 str0" x1="9360" y1="13404" x2="9428" y2= "13384" />
  <line class="fil0 str0" x1="9428" y1="13384" x2="9497" y2= "13373" />
  <line class="fil0 str0" x1="9497" y1="13373" x2="9568" y2= "13370" />
  <line class="fil0 str0" x1="9568" y1="13370" x2="9638" y2= "13377" />
  <line class="fil0 str0" x1="9638" y1="13377" x2="9706" y2= "13393" />
  <line class="fil0 str0" x1="9706" y1="13393" x2="9773" y2= "13417" />
  <line class="fil0 str0" x1="9773" y1="13417" x2="9835" y2= "13450" />
  <line class="fil0 str0" x1="9835" y1="13450" x2="9893" y2= "13490" />
  <line class="fil0 str0" x1="9893" y1="13490" x2="9945" y2= "13537" />
  <line class="fil0 str0" x1="9945" y1="13537" x2="9991" y2= "13591" />
  <line class="fil0 str0" x1="9991" y1="13591" x2="10029" y2= "13650" />
  <line class="fil0 str0" x1="10029" y1="13650" x2="10060" y2= "13714" />
  <line class="fil0 str0" x1="10060" y1="13714" x2="10082" y2= "13780" />
  <line class="fil0 str0" x1="10082" y1="13780" x2="10095" y2= "13850" />
  <line class="fil0 str0" x1="10095" y1="13850" x2="10100" y2= "13920" />
  <line class="fil0 str0" x1="10100" y1="13920" x2="10095" y2= "13990" />
  <line class="fil0 str0" x1="10095" y1="13990" x2="10082" y2= "14060" />
  <line class="fil0 str0" x1="10082" y1="14060" x2="10060" y2= "14126" />
  <line class="fil0 str0" x1="10060" y1="14126" x2="10029" y2= "14190" />
  <line class="fil0 str0" x1="10029" y1="14190" x2="9991" y2= "14249" />
  <line class="fil0 str0" x1="9991" y1="14249" x2="9945" y2= "14303" />
  <line class="fil0 str0" x1="9945" y1="14303" x2="9893" y2= "14350" />
  <line class="fil0 str0" x1="9893" y1="14350" x2="9835" y2= "14390" />
  <line class="fil0 str0" x1="9835" y1="14390" x2="9773" y2= "14423" />
  <line class="fil0 str0" x1="9773" y1="14423" x2="9706" y2= "14447" />
  <line class="fil0 str0" x1="9706" y1="14447" x2="9638" y2= "14463" />
  <line class="fil0 str0" x1="9638" y1="14463" x2="9568" y2= "14470" />
  <line class="fil0 str0" x1="9568" y1="14470" x2="9497" y2= "14467" />
  <line class="fil0 str0" x1="9497" y1="14467" x2="9428" y2= "14456" />
  <line class="fil0 str0" x1="9428" y1="14456" x2="9360" y2= "14436" />
  <line class="fil0 str0" x1="9360" y1="14436" x2="9296" y2= "14408" />
  <line class="fil0 str0" x1="9296" y1="14408" x2="9235" y2= "14371" />
  <line class="fil0 str0" x1="9235" y1="14371" x2="9180" y2= "14327" />
  <line class="fil0 str0" x1="9180" y1="14327" x2="9131" y2= "14277" />
  <line class="fil0 str0" x1="9131" y1="14277" x2="9089" y2= "14220" />
  <line class="fil0 str0" x1="9089" y1="14220" x2="9054" y2= "14159" />
  <line class="fil0 str0" x1="9054" y1="14159" x2="9028" y2= "14093" />
  <line class="fil0 str0" x1="9028" y1="14093" x2="9010" y2= "14025" />
  <line class="fil0 str0" x1="9010" y1="14025" x2="9001" y2= "13955" />
  <line class="fil0 str0" x1="10601" y1="13955" x2="10601" y2= "13885" />
  <line class="fil0 str0" x1="10601" y1="13885" x2="10610" y2= "13815" />
  <line class="fil0 str0" x1="10610" y1="13815" x2="10628" y2= "13747" />
  <line class="fil0 str0" x1="10628" y1="13747" x2="10654" y2= "13681" />
  <line class="fil0 str0" x1="10654" y1="13681" x2="10689" y2= "13620" />
  <line class="fil0 str0" x1="10689" y1="13620" x2="10731" y2= "13563" />
  <line class="fil0 str0" x1="10731" y1="13563" x2="10780" y2= "13513" />
  <line class="fil0 str0" x1="10780" y1="13513" x2="10835" y2= "13469" />
  <line class="fil0 str0" x1="10835" y1="13469" x2="10896" y2= "13432" />
  <line class="fil0 str0" x1="10896" y1="13432" x2="10960" y2= "13404" />
  <line class="fil0 str0" x1="10960" y1="13404" x2="11028" y2= "13384" />
  <line class="fil0 str0" x1="11028" y1="13384" x2="11097" y2= "13373" />
  <line class="fil0 str0" x1="11097" y1="13373" x2="11168" y2= "13370" />
  <line class="fil0 str0" x1="11168" y1="13370" x2="11238" y2= "13377" />
  <line class="fil0 str0" x1="11238" y1="13377" x2="11306" y2= "13393" />
  <line class="fil0 str0" x1="11306" y1="13393" x2="11373" y2= "13417" />
  <line class="fil0 str0" x1="11373" y1="13417" x2="11435" y2= "13450" />
  <line class="fil0 str0" x1="11435" y1="13450" x2="11493" y2= "13490" />
  <line class="fil0 str0" x1="11493" y1="13490" x2="11545" y2= "13537" />
  <line class="fil0 str0" x1="11545" y1="13537" x2="11591" y2= "13591" />
  <line class="fil0 str0" x1="11591" y1="13591" x2="11629" y2= "13650" />
  <line class="fil0 str0" x1="11629" y1="13650" x2="11660" y2= "13714" />
  <line class="fil0 str0" x1="11660" y1="13714" x2="11682" y2= "13780" />
  <line class="fil0 str0" x1="11682" y1="13780" x2="11695" y2= "13850" />
  <line class="fil0 str0" x1="11695" y1="13850" x2="11700" y2= "13920" />
  <line class="fil0 str0" x1="11700" y1="13920" x2="11695" y2= "13990" />
  <line class="fil0 str0" x1="11695" y1="13990" x2="11682" y2= "14060" />
  <line class="fil0 str0" x1="11682" y1="14060" x2="11660" y2= "14126" />
  <line class="fil0 str0" x1="11660" y1="14126" x2="11629" y2= "14190" />
  <line class="fil0 str0" x1="11629" y1="14190" x2="11591" y2= "14249" />
  <line class="fil0 str0" x1="11591" y1="14249" x2="11545" y2= "14303" />
  <line class="fil0 str0" x1="11545" y1="14303" x2="11493" y2= "14350" />
  <line class="fil0 str0" x1="11493" y1="14350" x2="11435" y2= "14390" />
  <line class="fil0 str0" x1="11435" y1="14390" x2="11373" y2= "14423" />
  <line class="fil0 str0" x1="11373" y1="14423" x2="11306" y2= "14447" />
  <line class="fil0 str0" x1="11306" y1="14447" x2="11238" y2= "14463" />
  <line class="fil0 str0" x1="11238" y1="14463" x2="11168" y2= "14470" />
  <line class="fil0 str0" x1="11168" y1="14470" x2="11097" y2= "14467" />
  <line class="fil0 str0" x1="11097" y1="14467" x2="11028" y2= "14456" />
  <line class="fil0 str0" x1="11028" y1="14456" x2="10960" y2= "14436" />
  <line class="fil0 str0" x1="10960" y1="14436" x2="10896" y2= "14408" />
  <line class="fil0 str0" x1="10896" y1="14408" x2="10835" y2= "14371" />
  <line class="fil0 str0" x1="10835" y1="14371" x2="10780" y2= "14327" />
  <line class="fil0 str0" x1="10780" y1="14327" x2="10731" y2= "14277" />
  <line class="fil0 str0" x1="10731" y1="14277" x2="10689" y2= "14220" />
  <line class="fil0 str0" x1="10689" y1="14220" x2="10654" y2= "14159" />
  <line class="fil0 str0" x1="10654" y1="14159" x2="10628" y2= "14093" />
  <line class="fil0 str0" x1="10628" y1="14093" x2="10610" y2= "14025" />
  <line class="fil0 str0" x1="10610" y1="14025" x2="10601" y2= "13955" />
 </g>
</svg>
