<?xml version="1.0" encoding="UTF-8"?>
<!DOCTYPE svg PUBLIC "-//W3C//DTD SVG 1.1//EN" "http://www.w3.org/Graphics/SVG/1.1/DTD/svg11.dtd">
<!-- Creator: CorelDRAW X6 -->
<svg xmlns="http://www.w3.org/2000/svg" xml:space="preserve" width="210mm" height="297mm" version="1.1" style="shape-rendering:geometricPrecision; text-rendering:geometricPrecision; image-rendering:optimizeQuality; fill-rule:evenodd; clip-rule:evenodd"
viewBox="0 0 21000 29700"
 xmlns:xlink="http://www.w3.org/1999/xlink">
 <defs>
  <style type="text/css">
   <![CDATA[
    .str0 {stroke:#2B2A29;stroke-width:20}
    .fil0 {fill:none}
   ]]>
  </style>
 </defs>
 <g id="Layer_x0020_1">
  <metadata id="CorelCorpID_0Corel-Layer"/>
  <rect class="fil0 str0" x="6777" y="1629" width="6600" height="26400"/>
  <circle class="fil0 str0" cx="7177" cy="2029" r="170"/>
  <circle class="fil0 str0" cx="7177" cy="27629" r="170"/>
  <circle class="fil0 str0" cx="12977" cy="2029" r="170"/>
  <circle class="fil0 str0" cx="12977" cy="27629" r="170"/>
  <circle class="fil0 str0" cx="7177" cy="14829" r="170"/>
  <circle class="fil0 str0" cx="12977" cy="14829" r="170"/>
  <rect class="fil0 str0" x="8110" y="2779" width="3933" height="24100" rx="771" ry="771"/>
  <rect class="fil0 str0" x="7577" y="2249" width="5000" height="25160" rx="1287" ry="1287"/>
  <path class="fil0 str0" d="M8856 23179l2442 0c17,-40 45,-74 79,-100 -34,-26 -62,-60 -79,-100l-2442 0c-17,40 -45,74 -79,100 34,26 62,60 79,100zm0 -19800l2442 0c39,-88 127,-150 229,-150 138,0 250,112 250,250 0,103 -62,191 -150,229l0 2442c88,39 150,127 150,229 0,82 -39,154 -100,200 61,46 100,118 100,200 0,103 -62,191 -150,229l0 2442c88,39 150,127 150,229 0,82 -39,154 -100,200 61,46 100,118 100,200 0,103 -62,191 -150,229l0 2442c88,39 150,127 150,229 0,82 -39,154 -100,200 61,46 100,118 100,200 0,103 -62,191 -150,229l0 2442c88,39 150,127 150,229 0,82 -39,154 -100,200 61,46 100,118 100,200 0,103 -62,191 -150,229l0 2442c88,39 150,127 150,229 0,82 -39,154 -100,200 61,46 100,118 100,200 0,103 -62,191 -150,229l0 2442c88,39 150,127 150,229 0,82 -39,154 -100,200 61,46 100,118 100,200 0,103 -62,191 -150,229l0 2442c88,39 150,127 150,229 0,138 -112,250 -250,250 -103,0 -191,-62 -229,-150l-2442 0c-39,88 -127,150 -229,150 -138,0 -250,-112 -250,-250 0,-103 62,-191 150,-229l0 -2442c-88,-39 -150,-127 -150,-229 0,-82 39,-154 100,-200 -61,-46 -100,-118 -100,-200 0,-103 62,-191 150,-229l0 -2442c-88,-39 -150,-127 -150,-229 0,-82 39,-154 100,-200 -61,-46 -100,-118 -100,-200 0,-103 62,-191 150,-229l0 -2442c-88,-39 -150,-127 -150,-229 0,-82 39,-154 100,-200 -61,-46 -100,-118 -100,-200 0,-103 62,-191 150,-229l0 -2442c-88,-39 -150,-127 -150,-229 0,-82 39,-154 100,-200 -61,-46 -100,-118 -100,-200 0,-103 62,-191 150,-229l0 -2442c-88,-39 -150,-127 -150,-229 0,-82 39,-154 100,-200 -61,-46 -100,-118 -100,-200 0,-103 62,-191 150,-229l0 -2442c-88,-39 -150,-127 -150,-229 0,-82 39,-154 100,-200 -61,-46 -100,-118 -100,-200 0,-103 62,-191 150,-229l0 -2442c-88,-39 -150,-127 -150,-229 0,-138 112,-250 250,-250 103,0 191,62 229,150zm2521 3200c-34,-26 -62,-60 -79,-100l-2442 0c-17,40 -45,74 -79,100 34,26 62,60 79,100l2442 0c17,-40 45,-74 79,-100zm0 3300c-34,-26 -62,-60 -79,-100l-2442 0c-17,40 -45,74 -79,100 34,26 62,60 79,100l2442 0c17,-40 45,-74 79,-100zm0 3300c-34,-26 -62,-60 -79,-100l-2442 0c-17,40 -45,74 -79,100 34,26 62,60 79,100l2442 0c17,-40 45,-74 79,-100zm0 3300c-34,-26 -62,-60 -79,-100l-2442 0c-17,40 -45,74 -79,100 34,26 62,60 79,100l2442 0c17,-40 45,-74 79,-100zm0 3300c-34,-26 -62,-60 -79,-100l-2442 0c-17,40 -45,74 -79,100 34,26 62,60 79,100l2442 0c17,-40 45,-74 79,-100z"/>
 </g>
</svg>
