  0
SECTION
  2
BLOCKS
  0
ENDSEC
  0
SECTION
  2
ENTITIES
  0
LINE
  8
0
 10
264
 20
66
 11
0
 21
66
  0
LINE
  8
0
 10
0
 20
66
 11
0
 21
0
  0
LINE
  8
0
 10
0
 20
0
 11
264
 21
0
  0
LINE
  8
0
 10
264
 20
0
 11
264
 21
66
  0
LINE
  8
0
 10
3.14999
 20
60.5278
 11
2.29999
 21
62
  0
LINE
  8
0
 10
2.29999
 20
62
 11
3.14999
 21
63.4722
  0
LINE
  8
0
 10
3.14999
 20
63.4722
 11
4.84999
 21
63.4722
  0
LINE
  8
0
 10
4.84999
 20
63.4722
 11
5.7
 21
62
  0
LINE
  8
0
 10
5.7
 20
62
 11
4.84999
 21
60.5278
  0
LINE
  8
0
 10
4.84999
 20
60.5278
 11
3.14999
 21
60.5278
  0
LINE
  8
0
 10
131.15
 20
60.5278
 11
130.3
 21
62
  0
LINE
  8
0
 10
130.3
 20
62
 11
131.15
 21
63.4722
  0
LINE
  8
0
 10
131.15
 20
63.4722
 11
132.85
 21
63.4722
  0
LINE
  8
0
 10
132.85
 20
63.4722
 11
133.7
 21
62
  0
LINE
  8
0
 10
133.7
 20
62
 11
132.85
 21
60.5278
  0
LINE
  8
0
 10
132.85
 20
60.5278
 11
131.15
 21
60.5278
  0
LINE
  8
0
 10
259.15
 20
60.5278
 11
258.3
 21
62
  0
LINE
  8
0
 10
258.3
 20
62
 11
259.15
 21
63.4722
  0
LINE
  8
0
 10
259.15
 20
63.4722
 11
260.85
 21
63.4722
  0
LINE
  8
0
 10
260.85
 20
63.4722
 11
261.7
 21
62
  0
LINE
  8
0
 10
261.7
 20
62
 11
260.85
 21
60.5278
  0
LINE
  8
0
 10
260.85
 20
60.5278
 11
259.15
 21
60.5278
  0
LINE
  8
0
 10
16.9456
 20
8.06573
 11
14.4918
 21
8.58731
  0
LINE
  8
0
 10
14.4918
 20
8.58731
 11
12.2
 21
9.60768
  0
LINE
  8
0
 10
12.2
 20
9.60768
 11
10.1704
 21
11.0823
  0
LINE
  8
0
 10
10.1704
 20
11.0823
 11
8.49179
 21
12.9466
  0
LINE
  8
0
 10
8.49179
 20
12.9466
 11
7.23744
 21
15.1192
  0
LINE
  8
0
 10
7.23744
 20
15.1192
 11
6.46222
 21
17.5051
  0
LINE
  8
0
 10
6.46222
 20
17.5051
 11
6.2
 21
20
  0
LINE
  8
0
 10
6.2
 20
20
 11
6.2
 21
46
  0
LINE
  8
0
 10
6.2
 20
46
 11
6.46222
 21
48.4949
  0
LINE
  8
0
 10
6.46222
 20
48.4949
 11
7.23744
 21
50.8808
  0
LINE
  8
0
 10
7.23744
 20
50.8808
 11
8.49179
 21
53.0534
  0
LINE
  8
0
 10
8.49179
 20
53.0534
 11
10.1704
 21
54.9177
  0
LINE
  8
0
 10
10.1704
 20
54.9177
 11
12.2
 21
56.3923
  0
LINE
  8
0
 10
12.2
 20
56.3923
 11
14.4918
 21
57.4127
  0
LINE
  8
0
 10
14.4918
 20
57.4127
 11
16.9456
 21
57.9342
  0
LINE
  8
0
 10
16.9456
 20
57.9342
 11
247.054
 21
57.9342
  0
LINE
  8
0
 10
247.054
 20
57.9342
 11
249.508
 21
57.4127
  0
LINE
  8
0
 10
249.508
 20
57.4127
 11
251.8
 21
56.3923
  0
LINE
  8
0
 10
251.8
 20
56.3923
 11
253.83
 21
54.9177
  0
LINE
  8
0
 10
253.83
 20
54.9177
 11
255.508
 21
53.0534
  0
LINE
  8
0
 10
255.508
 20
53.0534
 11
256.763
 21
50.8808
  0
LINE
  8
0
 10
256.763
 20
50.8808
 11
257.538
 21
48.4949
  0
LINE
  8
0
 10
257.538
 20
48.4949
 11
257.8
 21
46
  0
LINE
  8
0
 10
257.8
 20
46
 11
257.8
 21
20
  0
LINE
  8
0
 10
257.8
 20
20
 11
257.538
 21
17.5051
  0
LINE
  8
0
 10
257.538
 20
17.5051
 11
256.763
 21
15.1192
  0
LINE
  8
0
 10
256.763
 20
15.1192
 11
255.508
 21
12.9466
  0
LINE
  8
0
 10
255.508
 20
12.9466
 11
253.83
 21
11.0823
  0
LINE
  8
0
 10
253.83
 20
11.0823
 11
251.8
 21
9.60768
  0
LINE
  8
0
 10
251.8
 20
9.60768
 11
249.508
 21
8.58731
  0
LINE
  8
0
 10
249.508
 20
8.58731
 11
247.054
 21
8.06573
  0
LINE
  8
0
 10
247.054
 20
8.06573
 11
16.9456
 21
8.06573
  0
LINE
  8
0
 10
248.583
 20
13.9055
 11
250.188
 21
14.9365
  0
LINE
  8
0
 10
250.188
 20
14.9365
 11
251.436
 21
16.3777
  0
LINE
  8
0
 10
251.436
 20
16.3777
 11
252.229
 21
18.1124
  0
LINE
  8
0
 10
252.229
 20
18.1124
 11
252.5
 21
20
  0
LINE
  8
0
 10
252.5
 20
20
 11
252.5
 21
46
  0
LINE
  8
0
 10
252.5
 20
46
 11
252.229
 21
47.8876
  0
LINE
  8
0
 10
252.229
 20
47.8876
 11
251.436
 21
49.6223
  0
LINE
  8
0
 10
251.436
 20
49.6223
 11
250.188
 21
51.0635
  0
LINE
  8
0
 10
250.188
 20
51.0635
 11
248.583
 21
52.0945
  0
LINE
  8
0
 10
248.583
 20
52.0945
 11
246.753
 21
52.6318
  0
LINE
  8
0
 10
246.753
 20
52.6318
 11
17.2465
 21
52.6318
  0
LINE
  8
0
 10
17.2465
 20
52.6318
 11
15.4167
 21
52.0945
  0
LINE
  8
0
 10
15.4167
 20
52.0945
 11
13.8124
 21
51.0635
  0
LINE
  8
0
 10
13.8124
 20
51.0635
 11
12.5636
 21
49.6223
  0
LINE
  8
0
 10
12.5636
 20
49.6223
 11
11.7714
 21
47.8876
  0
LINE
  8
0
 10
11.7714
 20
47.8876
 11
11.5
 21
46
  0
LINE
  8
0
 10
11.5
 20
46
 11
11.5
 21
20
  0
LINE
  8
0
 10
11.5
 20
20
 11
11.7714
 21
18.1124
  0
LINE
  8
0
 10
11.7714
 20
18.1124
 11
12.5636
 21
16.3777
  0
LINE
  8
0
 10
12.5636
 20
16.3777
 11
13.8124
 21
14.9365
  0
LINE
  8
0
 10
13.8124
 20
14.9365
 11
15.4167
 21
13.9055
  0
LINE
  8
0
 10
15.4167
 20
13.9055
 11
17.2465
 21
13.3682
  0
LINE
  8
0
 10
17.2465
 20
13.3682
 11
246.753
 21
13.3682
  0
LINE
  8
0
 10
246.753
 20
13.3682
 11
248.583
 21
13.9055
  0
LINE
  8
0
 10
17.5
 20
18
 11
15.7322
 21
18.7322
  0
LINE
  8
0
 10
15.7322
 20
18.7322
 11
15
 21
20.5
  0
LINE
  8
0
 10
15
 20
20.5
 11
15.7322
 21
22.2678
  0
LINE
  8
0
 10
15.7322
 20
22.2678
 11
17.5
 21
23
  0
LINE
  8
0
 10
17.5
 20
23
 11
17.5
 21
44
  0
LINE
  8
0
 10
17.5
 20
44
 11
15.7322
 21
44.7322
  0
LINE
  8
0
 10
15.7322
 20
44.7322
 11
15
 21
46.5
  0
LINE
  8
0
 10
15
 20
46.5
 11
15.7322
 21
48.2678
  0
LINE
  8
0
 10
15.7322
 20
48.2678
 11
17.5
 21
49
  0
LINE
  8
0
 10
17.5
 20
49
 11
246.5
 21
49
  0
LINE
  8
0
 10
246.5
 20
49
 11
248.268
 21
48.2678
  0
LINE
  8
0
 10
248.268
 20
48.2678
 11
249
 21
46.5
  0
LINE
  8
0
 10
249
 20
46.5
 11
248.268
 21
44.7322
  0
LINE
  8
0
 10
248.268
 20
44.7322
 11
246.5
 21
44
  0
LINE
  8
0
 10
246.5
 20
44
 11
246.5
 21
23
  0
LINE
  8
0
 10
246.5
 20
23
 11
248.268
 21
22.2678
  0
LINE
  8
0
 10
248.268
 20
22.2678
 11
249
 21
20.5
  0
LINE
  8
0
 10
249
 20
20.5
 11
248.268
 21
18.7322
  0
LINE
  8
0
 10
248.268
 20
18.7322
 11
246.5
 21
18
  0
LINE
  8
0
 10
246.5
 20
18
 11
17.5
 21
18
  0
LINE
  8
0
 10
215.5
 20
44
 11
213.5
 21
44
  0
LINE
  8
0
 10
213.5
 20
44
 11
213.5
 21
23
  0
LINE
  8
0
 10
213.5
 20
23
 11
215.5
 21
23
  0
LINE
  8
0
 10
215.5
 20
23
 11
215.5
 21
44
  0
LINE
  8
0
 10
182.5
 20
44
 11
180.5
 21
44
  0
LINE
  8
0
 10
180.5
 20
44
 11
180.5
 21
23
  0
LINE
  8
0
 10
180.5
 20
23
 11
182.5
 21
23
  0
LINE
  8
0
 10
182.5
 20
23
 11
182.5
 21
44
  0
LINE
  8
0
 10
50.5
 20
44
 11
48.5
 21
44
  0
LINE
  8
0
 10
48.5
 20
44
 11
48.5
 21
23
  0
LINE
  8
0
 10
48.5
 20
23
 11
50.5
 21
23
  0
LINE
  8
0
 10
50.5
 20
23
 11
50.5
 21
44
  0
LINE
  8
0
 10
83.5
 20
44
 11
81.5
 21
44
  0
LINE
  8
0
 10
81.5
 20
44
 11
81.5
 21
23
  0
LINE
  8
0
 10
81.5
 20
23
 11
83.5
 21
23
  0
LINE
  8
0
 10
83.5
 20
23
 11
83.5
 21
44
  0
LINE
  8
0
 10
116.5
 20
44
 11
114.5
 21
44
  0
LINE
  8
0
 10
114.5
 20
44
 11
114.5
 21
23
  0
LINE
  8
0
 10
114.5
 20
23
 11
116.5
 21
23
  0
LINE
  8
0
 10
116.5
 20
23
 11
116.5
 21
44
  0
LINE
  8
0
 10
149.5
 20
44
 11
147.5
 21
44
  0
LINE
  8
0
 10
147.5
 20
44
 11
147.5
 21
23
  0
LINE
  8
0
 10
147.5
 20
23
 11
149.5
 21
23
  0
LINE
  8
0
 10
149.5
 20
23
 11
149.5
 21
44
  0
LINE
  8
0
 10
3.14999
 20
2.52776
 11
2.29999
 21
4
  0
LINE
  8
0
 10
2.29999
 20
4
 11
3.14999
 21
5.47223
  0
LINE
  8
0
 10
3.14999
 20
5.47223
 11
4.84999
 21
5.47223
  0
LINE
  8
0
 10
4.84999
 20
5.47223
 11
5.7
 21
4
  0
LINE
  8
0
 10
5.7
 20
4
 11
4.84999
 21
2.52776
  0
LINE
  8
0
 10
4.84999
 20
2.52776
 11
3.14999
 21
2.52776
  0
LINE
  8
0
 10
259.15
 20
2.52776
 11
258.3
 21
4
  0
LINE
  8
0
 10
258.3
 20
4
 11
259.15
 21
5.47223
  0
LINE
  8
0
 10
259.15
 20
5.47223
 11
260.85
 21
5.47223
  0
LINE
  8
0
 10
260.85
 20
5.47223
 11
261.7
 21
4
  0
LINE
  8
0
 10
261.7
 20
4
 11
260.85
 21
2.52776
  0
LINE
  8
0
 10
260.85
 20
2.52776
 11
259.15
 21
2.52776
  0
LINE
  8
0
 10
131.15
 20
2.52776
 11
130.3
 21
4
  0
LINE
  8
0
 10
130.3
 20
4
 11
131.15
 21
5.47223
  0
LINE
  8
0
 10
131.15
 20
5.47223
 11
132.85
 21
5.47223
  0
LINE
  8
0
 10
132.85
 20
5.47223
 11
133.7
 21
4
  0
LINE
  8
0
 10
133.7
 20
4
 11
132.85
 21
2.52776
  0
LINE
  8
0
 10
132.85
 20
2.52776
 11
131.15
 21
2.52776
  0
LINE
  8
0
 10
264
 20
-50
 11
0
 21
-50
  0
LINE
  8
0
 10
0
 20
-50
 11
0
 21
-56
  0
LINE
  8
0
 10
0
 20
-56
 11
264
 21
-56
  0
LINE
  8
0
 10
264
 20
-56
 11
264
 21
-50
  0
ENDSEC
  0
SECTION
  2
OBJECTS
  0
DICTIONARY
  0
ENDSEC
  0
EOF
