  0
SECTION
  2
HEADER
  9
$ACADVER
  1
AC1014
  9
$ACADMAINTVER
 70
     9
  9
$DWGCODEPAGE
  3
ANSI_1252
  9
$INSBASE
 10
0.0
 20
0.0
 30
0.0
  9
$EXTMIN
 10
-37.3349
 20
-131.8888
 30
0.0
  9
$EXTMAX
 10
28.8651
 20
132.3111
 30
0.0
  9
$LIMMIN
 10
0.0
 20
0.0
  9
$LIMMAX
 10
12.0
 20
9.0
  9
$ORTHOMODE
 70
     0
  9
$REGENMODE
 70
     1
  9
$FILLMODE
 70
     1
  9
$QTEXTMODE
 70
     0
  9
$MIRRTEXT
 70
     1
  9
$DRAGMODE
 70
     2
  9
$LTSCALE
 40
1.0
  9
$OSMODE
 70
    37
  9
$ATTMODE
 70
     1
  9
$TEXTSIZE
 40
0.2
  9
$TRACEWID
 40
0.05
  9
$TEXTSTYLE
  7
STANDARD
  9
$CLAYER
  8
0
  9
$CELTYPE
  6
BYLAYER
  9
$CECOLOR
 62
   256
  9
$CELTSCALE
 40
1.0
  9
$DELOBJ
 70
     1
  9
$DISPSILH
 70
     0
  9
$DIMSCALE
 40
1.0
  9
$DIMASZ
 40
0.18
  9
$DIMEXO
 40
0.0625
  9
$DIMDLI
 40
0.38
  9
$DIMRND
 40
0.0
  9
$DIMDLE
 40
0.0
  9
$DIMEXE
 40
0.18
  9
$DIMTP
 40
0.0
  9
$DIMTM
 40
0.0
  9
$DIMTXT
 40
0.18
  9
$DIMCEN
 40
0.09
  9
$DIMTSZ
 40
0.0
  9
$DIMTOL
 70
     0
  9
$DIMLIM
 70
     0
  9
$DIMTIH
 70
     1
  9
$DIMTOH
 70
     1
  9
$DIMSE1
 70
     0
  9
$DIMSE2
 70
     0
  9
$DIMTAD
 70
     0
  9
$DIMZIN
 70
     0
  9
$DIMBLK
  1

  9
$DIMASO
 70
     1
  9
$DIMSHO
 70
     1
  9
$DIMPOST
  1

  9
$DIMAPOST
  1

  9
$DIMALT
 70
     0
  9
$DIMALTD
 70
     2
  9
$DIMALTF
 40
25.4
  9
$DIMLFAC
 40
1.0
  9
$DIMTOFL
 70
     0
  9
$DIMTVP
 40
0.0
  9
$DIMTIX
 70
     0
  9
$DIMSOXD
 70
     0
  9
$DIMSAH
 70
     0
  9
$DIMBLK1
  1

  9
$DIMBLK2
  1

  9
$DIMSTYLE
  2
STANDARD
  9
$DIMCLRD
 70
     0
  9
$DIMCLRE
 70
     0
  9
$DIMCLRT
 70
     0
  9
$DIMTFAC
 40
1.0
  9
$DIMGAP
 40
0.09
  9
$DIMJUST
 70
     0
  9
$DIMSD1
 70
     0
  9
$DIMSD2
 70
     0
  9
$DIMTOLJ
 70
     1
  9
$DIMTZIN
 70
     0
  9
$DIMALTZ
 70
     0
  9
$DIMALTTZ
 70
     0
  9
$DIMFIT
 70
     3
  9
$DIMUPT
 70
     0
  9
$DIMUNIT
 70
     2
  9
$DIMDEC
 70
     4
  9
$DIMTDEC
 70
     4
  9
$DIMALTU
 70
     2
  9
$DIMALTTD
 70
     2
  9
$DIMTXSTY
  7
STANDARD
  9
$DIMAUNIT
 70
     0
  9
$LUNITS
 70
     2
  9
$LUPREC
 70
     4
  9
$SKETCHINC
 40
0.1
  9
$FILLETRAD
 40
0.5
  9
$AUNITS
 70
     0
  9
$AUPREC
 70
     0
  9
$MENU
  1
.
  9
$ELEVATION
 40
0.0
  9
$PELEVATION
 40
0.0
  9
$THICKNESS
 40
0.0
  9
$LIMCHECK
 70
     0
  9
$CHAMFERA
 40
0.5
  9
$CHAMFERB
 40
0.5
  9
$CHAMFERC
 40
1.0
  9
$CHAMFERD
 40
0.0
  9
$SKPOLY
 70
     0
  9
$TDCREATE
 40
2457989.430844028
  9
$TDUPDATE
 40
2457989.430844097
  9
$TDINDWG
 40
0.0000000116
  9
$TDUSRTIMER
 40
0.0000000116
  9
$USRTIMER
 70
     1
  9
$ANGBASE
 50
0.0
  9
$ANGDIR
 70
     0
  9
$PDMODE
 70
     0
  9
$PDSIZE
 40
0.0
  9
$PLINEWID
 40
0.0
  9
$COORDS
 70
     1
  9
$SPLFRAME
 70
     0
  9
$SPLINETYPE
 70
     6
  9
$SPLINESEGS
 70
     8
  9
$ATTDIA
 70
     0
  9
$ATTREQ
 70
     1
  9
$HANDLING
 70
     1
  9
$HANDSEED
  5
7C
  9
$SURFTAB1
 70
     6
  9
$SURFTAB2
 70
     6
  9
$SURFTYPE
 70
     6
  9
$SURFU
 70
     6
  9
$SURFV
 70
     6
  9
$UCSNAME
  2

  9
$UCSORG
 10
0.0
 20
0.0
 30
0.0
  9
$UCSXDIR
 10
1.0
 20
0.0
 30
0.0
  9
$UCSYDIR
 10
0.0
 20
1.0
 30
0.0
  9
$PUCSNAME
  2

  9
$PUCSORG
 10
0.0
 20
0.0
 30
0.0
  9
$PUCSXDIR
 10
1.0
 20
0.0
 30
0.0
  9
$PUCSYDIR
 10
0.0
 20
1.0
 30
0.0
  9
$USERI1
 70
     0
  9
$USERI2
 70
     0
  9
$USERI3
 70
     0
  9
$USERI4
 70
     0
  9
$USERI5
 70
     0
  9
$USERR1
 40
0.0
  9
$USERR2
 40
0.0
  9
$USERR3
 40
0.0
  9
$USERR4
 40
0.0
  9
$USERR5
 40
0.0
  9
$WORLDVIEW
 70
     1
  9
$SHADEDGE
 70
     3
  9
$SHADEDIF
 70
    70
  9
$TILEMODE
 70
     1
  9
$MAXACTVP
 70
    64
  9
$PINSBASE
 10
0.0
 20
0.0
 30
0.0
  9
$PLIMCHECK
 70
     0
  9
$PEXTMIN
 10
1.000000000000000E+20
 20
1.000000000000000E+20
 30
1.000000000000000E+20
  9
$PEXTMAX
 10
-1.000000000000000E+20
 20
-1.000000000000000E+20
 30
-1.000000000000000E+20
  9
$PLIMMIN
 10
0.0
 20
0.0
  9
$PLIMMAX
 10
12.0
 20
9.0
  9
$UNITMODE
 70
     0
  9
$VISRETAIN
 70
     1
  9
$PLINEGEN
 70
     0
  9
$PSLTSCALE
 70
     1
  9
$TREEDEPTH
 70
  3020
  9
$PICKSTYLE
 70
     1
  9
$CMLSTYLE
  2
STANDARD
  9
$CMLJUST
 70
     0
  9
$CMLSCALE
 40
1.0
  9
$PROXYGRAPHICS
 70
     1
  9
$MEASUREMENT
 70
     0
  0
ENDSEC
  0
SECTION
  2
CLASSES
  0
CLASS
  1
ACDBDICTIONARYWDFLT
  2
AcDbDictionaryWithDefault
  3
ObjectDBX Classes
 90
        0
280
     0
281
     0
  0
CLASS
  1
VISUALSTYLE
  2
AcDbVisualStyle
  3
ObjectDBX Classes
 90
     4095
280
     0
281
     0
  0
CLASS
  1
MATERIAL
  2
AcDbMaterial
  3
ObjectDBX Classes
 90
     1153
280
     0
281
     0
  0
CLASS
  1
DICTIONARYVAR
  2
AcDbDictionaryVar
  3
ObjectDBX Classes
 90
        0
280
     0
281
     0
  0
CLASS
  1
XRECORD
  2
AcDbXrecord
  3
AutoCAD 2000
 90
        0
280
     0
281
     0
  0
CLASS
  1
LWPOLYLINE
  2
AcDbPolyline
  3
AutoCAD 2000
 90
        0
280
     0
281
     1
  0
CLASS
  1
HATCH
  2
AcDbHatch
  3
AutoCAD 2000
 90
        0
280
     0
281
     1
  0
CLASS
  1
ACDBPLACEHOLDER
  2
AcDbPlaceHolder
  3
ObjectDBX Classes
 90
        0
280
     0
281
     0
  0
CLASS
  1
LAYOUT
  2
AcDbLayout
  3
ObjectDBX Classes
 90
        0
280
     0
281
     0
  0
ENDSEC
  0
SECTION
  2
TABLES
  0
TABLE
  2
VPORT
  5
8
330
0
100
AcDbSymbolTable
 70
     1
  0
VPORT
  5
29
330
8
100
AcDbSymbolTableRecord
100
AcDbViewportTableRecord
  2
*ACTIVE
 70
     0
 10
0.0
 20
0.0
 11
1.0
 21
1.0
 12
10.42990654205607
 22
4.5
 13
0.0
 23
0.0
 14
0.5
 24
0.5
 15
0.5
 25
0.5
 16
0.0
 26
0.0
 36
1.0
 17
0.0
 27
0.0
 37
0.0
 40
9.0
 41
1.972972972850329
 42
50.0
 43
0.0
 44
0.0
 50
0.0
 51
0.0
 71
     0
 72
   100
 73
     1
 74
     3
 75
     0
 76
     0
 77
     0
 78
     0
  0
ENDTAB
  0
TABLE
  2
LTYPE
  5
5
330
0
100
AcDbSymbolTable
 70
     1
  0
LTYPE
  5
14
330
5
100
AcDbSymbolTableRecord
100
AcDbLinetypeTableRecord
  2
BYBLOCK
 70
     0
  3

 72
    65
 73
     0
 40
0.0
  0
LTYPE
  5
15
330
5
100
AcDbSymbolTableRecord
100
AcDbLinetypeTableRecord
  2
BYLAYER
 70
     0
  3

 72
    65
 73
     0
 40
0.0
  0
LTYPE
  5
16
330
5
100
AcDbSymbolTableRecord
100
AcDbLinetypeTableRecord
  2
CONTINUOUS
 70
     0
  3
Solid line
 72
    65
 73
     0
 40
0.0
  0
ENDTAB
  0
TABLE
  2
LAYER
  5
2
330
0
100
AcDbSymbolTable
 70
     2
  0
LAYER
  5
10
330
2
100
AcDbSymbolTableRecord
100
AcDbLayerTableRecord
  2
0
 70
     0
 62
     7
  6
CONTINUOUS
  0
LAYER
  5
40
330
2
100
AcDbSymbolTableRecord
100
AcDbLayerTableRecord
  2
LAYER_1
 70
     0
 62
     7
  6
CONTINUOUS
  0
ENDTAB
  0
TABLE
  2
STYLE
  5
3
330
0
100
AcDbSymbolTable
 70
     1
  0
STYLE
  5
11
330
3
100
AcDbSymbolTableRecord
100
AcDbTextStyleTableRecord
  2
STANDARD
 70
     0
 40
0.0
 41
1.0
 50
0.0
 71
     0
 42
0.2
  3
txt
  4

  0
ENDTAB
  0
TABLE
  2
VIEW
  5
6
330
0
100
AcDbSymbolTable
 70
     0
  0
ENDTAB
  0
TABLE
  2
UCS
  5
7
330
0
100
AcDbSymbolTable
 70
     0
  0
ENDTAB
  0
TABLE
  2
APPID
  5
9
330
0
100
AcDbSymbolTable
 70
     2
  0
APPID
  5
12
330
9
100
AcDbSymbolTableRecord
100
AcDbRegAppTableRecord
  2
ACAD
 70
     0
  0
APPID
  5
3F
330
9
100
AcDbSymbolTableRecord
100
AcDbRegAppTableRecord
  2
ODA
 70
     0
  0
ENDTAB
  0
TABLE
  2
DIMSTYLE
  5
A
330
0
100
AcDbSymbolTable
 70
     1
  0
DIMSTYLE
105
27
330
A
100
AcDbSymbolTableRecord
100
AcDbDimStyleTableRecord
  2
STANDARD
 70
     0
  3

  4

  5

  6

  7

 40
1.0
 41
0.18
 42
0.0625
 43
0.38
 44
0.18
 45
0.0
 46
0.0
 47
0.0
 48
0.0
140
0.18
141
0.09
142
0.0
143
25.4
144
1.0
145
0.0
146
1.0
147
0.09
 71
     0
 72
     0
 73
     1
 74
     1
 75
     0
 76
     0
 77
     0
 78
     0
170
     0
171
     2
172
     0
173
     0
174
     0
175
     0
176
     0
177
     0
178
     0
270
     2
271
     4
272
     4
273
     2
274
     2
340
11
275
     0
280
     0
281
     0
282
     0
283
     1
284
     0
285
     0
286
     0
287
     3
288
     0
  0
ENDTAB
  0
TABLE
  2
BLOCK_RECORD
  5
1
330
0
100
AcDbSymbolTable
 70
     1
  0
BLOCK_RECORD
  5
1F
330
1
100
AcDbSymbolTableRecord
100
AcDbBlockTableRecord
  2
*MODEL_SPACE
  0
BLOCK_RECORD
  5
1B
330
1
100
AcDbSymbolTableRecord
100
AcDbBlockTableRecord
  2
*PAPER_SPACE
  0
ENDTAB
  0
ENDSEC
  0
SECTION
  2
BLOCKS
  0
BLOCK
  5
20
330
1F
100
AcDbEntity
  8
0
100
AcDbBlockBegin
  2
*MODEL_SPACE
 70
     0
 10
0.0
 20
0.0
 30
0.0
  3
*MODEL_SPACE
  1

  0
ENDBLK
  5
21
330
1F
100
AcDbEntity
  8
0
100
AcDbBlockEnd
  0
BLOCK
  5
1C
330
1B
100
AcDbEntity
 67
     1
  8
0
100
AcDbBlockBegin
  2
*PAPER_SPACE
 70
     0
 10
0.0
 20
0.0
 30
0.0
  3
*PAPER_SPACE
  1

  0
ENDBLK
  5
1D
330
1B
100
AcDbEntity
 67
     1
  8
0
100
AcDbBlockEnd
  0
ENDSEC
  0
SECTION
  2
ENTITIES
  0
LWPOLYLINE
  5
41
330
1F
100
AcDbEntity
  8
LAYER_1
 62
   250
100
AcDbPolyline
 90
        5
 70
     1
 43
0.0
 10
-37.2349
 20
-131.7887
 10
28.7651
 20
-131.7887
 10
28.7651
 20
132.2111
 10
-37.2349
 20
132.2111
 10
-37.2349
 20
-131.7887
  0
ELLIPSE
  5
42
330
1F
100
AcDbEntity
  8
LAYER_1
 62
   250
100
AcDbEllipse
 10
-33.2349
 20
128.2111
 30
0.0
 11
0.0
 21
1.7
 31
0.0
210
0.0
220
0.0
230
1.0
 40
1.0
 41
0.0
 42
6.283185307179586
  0
ELLIPSE
  5
43
330
1F
100
AcDbEntity
  8
LAYER_1
 62
   250
100
AcDbEllipse
 10
-33.2349
 20
-127.7888
 30
0.0
 11
0.0
 21
1.7
 31
0.0
210
0.0
220
0.0
230
1.0
 40
1.0
 41
0.0
 42
6.283185307179586
  0
ELLIPSE
  5
44
330
1F
100
AcDbEntity
  8
LAYER_1
 62
   250
100
AcDbEllipse
 10
24.7651
 20
128.2111
 30
0.0
 11
0.0
 21
1.7
 31
0.0
210
0.0
220
0.0
230
1.0
 40
1.0
 41
0.0
 42
6.283185307179586
  0
ELLIPSE
  5
45
330
1F
100
AcDbEntity
  8
LAYER_1
 62
   250
100
AcDbEllipse
 10
24.7651
 20
-127.7888
 30
0.0
 11
0.0
 21
1.7
 31
0.0
210
0.0
220
0.0
230
1.0
 40
1.0
 41
0.0
 42
6.283185307179586
  0
ELLIPSE
  5
46
330
1F
100
AcDbEntity
  8
LAYER_1
 62
   250
100
AcDbEllipse
 10
-33.2349
 20
0.2111
 30
0.0
 11
0.0
 21
1.7
 31
0.0
210
0.0
220
0.0
230
1.0
 40
1.0
 41
0.0
 42
6.283185307179586
  0
ELLIPSE
  5
47
330
1F
100
AcDbEntity
  8
LAYER_1
 62
   250
100
AcDbEllipse
 10
24.7651
 20
0.2111
 30
0.0
 11
0.0
 21
1.7
 31
0.0
210
0.0
220
0.0
230
1.0
 40
1.0
 41
0.0
 42
6.283185307179586
  0
SPLINE
  5
48
330
1F
100
AcDbEntity
  8
LAYER_1
 62
   250
100
AcDbSpline
210
0.0
220
0.0
230
1.0
 70
    11
 71
     3
 72
    36
 73
    32
 74
     0
 42
0.0000000001
 43
0.0000000001
 12
1.0
 22
0.0
 32
0.0
 13
1.0
 23
0.0
 33
0.0
 40
0.0
 40
0.0
 40
0.0
 40
0.0
 40
0.1111111111111111
 40
0.1111111111111111
 40
0.1111111111111111
 40
0.1111111111111111
 40
0.2222222222222222
 40
0.2222222222222222
 40
0.2222222222222222
 40
0.2222222222222222
 40
0.3333333333333333
 40
0.3333333333333333
 40
0.3333333333333333
 40
0.3333333333333333
 40
0.4444444444444444
 40
0.4444444444444444
 40
0.4444444444444444
 40
0.4444444444444444
 40
0.5555555555555556
 40
0.5555555555555556
 40
0.5555555555555556
 40
0.5555555555555556
 40
0.6666666666666666
 40
0.6666666666666666
 40
0.6666666666666666
 40
0.6666666666666666
 40
0.7777777777777778
 40
0.7777777777777778
 40
0.7777777777777778
 40
0.7777777777777778
 40
1.0
 40
1.0
 40
1.0
 40
1.0
 10
-16.188
 20
120.7112
 30
0.0
 10
-16.188
 20
120.7112
 30
0.0
 10
7.7182
 20
120.7112
 30
0.0
 10
7.7182
 20
120.7112
 30
0.0
 10
7.7182
 20
120.7112
 30
0.0
 10
11.9588
 20
120.7112
 30
0.0
 10
15.4283
 20
117.2418
 30
0.0
 10
15.4283
 20
113.0011
 30
0.0
 10
15.4283
 20
113.0011
 30
0.0
 10
15.4283
 20
113.0011
 30
0.0
 10
15.4283
 20
-112.5787
 30
0.0
 10
15.4283
 20
-112.5787
 30
0.0
 10
15.4283
 20
-112.5787
 30
0.0
 10
15.4283
 20
-116.8193
 30
0.0
 10
11.9588
 20
-120.2888
 30
0.0
 10
7.7182
 20
-120.2888
 30
0.0
 10
7.7182
 20
-120.2888
 30
0.0
 10
7.7182
 20
-120.2888
 30
0.0
 10
-16.188
 20
-120.2888
 30
0.0
 10
-16.188
 20
-120.2888
 30
0.0
 10
-16.188
 20
-120.2888
 30
0.0
 10
-20.4286
 20
-120.2888
 30
0.0
 10
-23.8981
 20
-116.8193
 30
0.0
 10
-23.8981
 20
-112.5787
 30
0.0
 10
-23.8981
 20
-112.5787
 30
0.0
 10
-23.8981
 20
-112.5787
 30
0.0
 10
-23.8981
 20
113.0011
 30
0.0
 10
-23.8981
 20
113.0011
 30
0.0
 10
-23.8981
 20
113.0011
 30
0.0
 10
-23.8981
 20
117.2418
 30
0.0
 10
-20.4286
 20
120.7112
 30
0.0
 10
-16.188
 20
120.7112
 30
0.0
  0
SPLINE
  5
49
330
1F
100
AcDbEntity
  8
LAYER_1
 62
   250
100
AcDbSpline
210
0.0
220
0.0
230
1.0
 70
    11
 71
     3
 72
    36
 73
    32
 74
     0
 42
0.0000000001
 43
0.0000000001
 12
1.0
 22
0.0
 32
0.0
 13
1.0
 23
0.0
 33
0.0
 40
0.0
 40
0.0
 40
0.0
 40
0.0
 40
0.1111111111111111
 40
0.1111111111111111
 40
0.1111111111111111
 40
0.1111111111111111
 40
0.2222222222222222
 40
0.2222222222222222
 40
0.2222222222222222
 40
0.2222222222222222
 40
0.3333333333333333
 40
0.3333333333333333
 40
0.3333333333333333
 40
0.3333333333333333
 40
0.4444444444444444
 40
0.4444444444444444
 40
0.4444444444444444
 40
0.4444444444444444
 40
0.5555555555555556
 40
0.5555555555555556
 40
0.5555555555555556
 40
0.5555555555555556
 40
0.6666666666666666
 40
0.6666666666666666
 40
0.6666666666666666
 40
0.6666666666666666
 40
0.7777777777777778
 40
0.7777777777777778
 40
0.7777777777777778
 40
0.7777777777777778
 40
1.0
 40
1.0
 40
1.0
 40
1.0
 10
-16.361
 20
126.0112
 30
0.0
 10
-16.361
 20
126.0112
 30
0.0
 10
7.8912
 20
126.0112
 30
0.0
 10
7.8912
 20
126.0112
 30
0.0
 10
7.8912
 20
126.0112
 30
0.0
 10
14.9712
 20
126.0112
 30
0.0
 10
20.7638
 20
120.2186
 30
0.0
 10
20.7638
 20
113.1386
 30
0.0
 10
20.7638
 20
113.1386
 30
0.0
 10
20.7638
 20
113.1386
 30
0.0
 10
20.7638
 20
-112.7162
 30
0.0
 10
20.7638
 20
-112.7162
 30
0.0
 10
20.7638
 20
-112.7162
 30
0.0
 10
20.7638
 20
-119.7962
 30
0.0
 10
14.9712
 20
-125.5888
 30
0.0
 10
7.8912
 20
-125.5888
 30
0.0
 10
7.8912
 20
-125.5888
 30
0.0
 10
7.8912
 20
-125.5888
 30
0.0
 10
-16.361
 20
-125.5888
 30
0.0
 10
-16.361
 20
-125.5888
 30
0.0
 10
-16.361
 20
-125.5888
 30
0.0
 10
-23.441
 20
-125.5888
 30
0.0
 10
-29.2336
 20
-119.7962
 30
0.0
 10
-29.2336
 20
-112.7162
 30
0.0
 10
-29.2336
 20
-112.7162
 30
0.0
 10
-29.2336
 20
-112.7162
 30
0.0
 10
-29.2336
 20
113.1386
 30
0.0
 10
-29.2336
 20
113.1386
 30
0.0
 10
-29.2336
 20
113.1386
 30
0.0
 10
-29.2336
 20
120.2186
 30
0.0
 10
-23.441
 20
126.0112
 30
0.0
 10
-16.361
 20
126.0112
 30
0.0
  0
SPLINE
  5
4A
330
1F
100
AcDbEntity
  8
LAYER_1
 62
   250
100
AcDbSpline
210
0.0
220
0.0
230
1.0
 70
    11
 71
     3
 72
    28
 73
    24
 74
     0
 42
0.0000000001
 43
0.0000000001
 12
1.0
 22
0.0
 32
0.0
 13
1.0
 23
0.0
 33
0.0
 40
0.0
 40
0.0
 40
0.0
 40
0.0
 40
0.1428571428571428
 40
0.1428571428571428
 40
0.1428571428571428
 40
0.1428571428571428
 40
0.2857142857142857
 40
0.2857142857142857
 40
0.2857142857142857
 40
0.2857142857142857
 40
0.4285714285714285
 40
0.4285714285714285
 40
0.4285714285714285
 40
0.4285714285714285
 40
0.5714285714285714
 40
0.5714285714285714
 40
0.5714285714285714
 40
0.5714285714285714
 40
0.7142857142857143
 40
0.7142857142857143
 40
0.7142857142857143
 40
0.7142857142857143
 40
1.0
 40
1.0
 40
1.0
 40
1.0
 10
-16.4431
 20
-83.2888
 30
0.0
 10
-16.4431
 20
-83.2888
 30
0.0
 10
7.9733
 20
-83.2888
 30
0.0
 10
7.9733
 20
-83.2888
 30
0.0
 10
7.9733
 20
-83.2888
 30
0.0
 10
8.1473
 20
-82.8907
 30
0.0
 10
8.422
 20
-82.5466
 30
0.0
 10
8.7651
 20
-82.2888
 30
0.0
 10
8.7651
 20
-82.2888
 30
0.0
 10
8.422
 20
-82.031
 30
0.0
 10
8.1473
 20
-81.6869
 30
0.0
 10
7.9733
 20
-81.2888
 30
0.0
 10
7.9733
 20
-81.2888
 30
0.0
 10
7.9733
 20
-81.2888
 30
0.0
 10
-16.4431
 20
-81.2888
 30
0.0
 10
-16.4431
 20
-81.2888
 30
0.0
 10
-16.4431
 20
-81.2888
 30
0.0
 10
-16.6171
 20
-81.6869
 30
0.0
 10
-16.8918
 20
-82.031
 30
0.0
 10
-17.2349
 20
-82.2888
 30
0.0
 10
-17.2349
 20
-82.2888
 30
0.0
 10
-16.8918
 20
-82.5466
 30
0.0
 10
-16.6171
 20
-82.8907
 30
0.0
 10
-16.4431
 20
-83.2888
 30
0.0
  0
SPLINE
  5
4B
330
1F
100
AcDbEntity
  8
LAYER_1
 62
   250
100
AcDbSpline
210
0.0
220
0.0
230
1.0
 70
    11
 71
     3
 72
   308
 73
   304
 74
     0
 42
0.0000000001
 43
0.0000000001
 12
1.0
 22
0.0
 32
0.0
 13
1.0
 23
0.0
 33
0.0
 40
0.0
 40
0.0
 40
0.0
 40
0.0
 40
0.012987012987013
 40
0.012987012987013
 40
0.012987012987013
 40
0.012987012987013
 40
0.025974025974026
 40
0.025974025974026
 40
0.025974025974026
 40
0.025974025974026
 40
0.038961038961039
 40
0.038961038961039
 40
0.038961038961039
 40
0.038961038961039
 40
0.051948051948052
 40
0.051948051948052
 40
0.051948051948052
 40
0.051948051948052
 40
0.0649350649350649
 40
0.0649350649350649
 40
0.0649350649350649
 40
0.0649350649350649
 40
0.0779220779220779
 40
0.0779220779220779
 40
0.0779220779220779
 40
0.0779220779220779
 40
0.0909090909090909
 40
0.0909090909090909
 40
0.0909090909090909
 40
0.0909090909090909
 40
0.1038961038961039
 40
0.1038961038961039
 40
0.1038961038961039
 40
0.1038961038961039
 40
0.1168831168831169
 40
0.1168831168831169
 40
0.1168831168831169
 40
0.1168831168831169
 40
0.1298701298701299
 40
0.1298701298701299
 40
0.1298701298701299
 40
0.1298701298701299
 40
0.1428571428571428
 40
0.1428571428571428
 40
0.1428571428571428
 40
0.1428571428571428
 40
0.1558441558441558
 40
0.1558441558441558
 40
0.1558441558441558
 40
0.1558441558441558
 40
0.1688311688311688
 40
0.1688311688311688
 40
0.1688311688311688
 40
0.1688311688311688
 40
0.1818181818181818
 40
0.1818181818181818
 40
0.1818181818181818
 40
0.1818181818181818
 40
0.1948051948051948
 40
0.1948051948051948
 40
0.1948051948051948
 40
0.1948051948051948
 40
0.2077922077922078
 40
0.2077922077922078
 40
0.2077922077922078
 40
0.2077922077922078
 40
0.2207792207792208
 40
0.2207792207792208
 40
0.2207792207792208
 40
0.2207792207792208
 40
0.2337662337662338
 40
0.2337662337662338
 40
0.2337662337662338
 40
0.2337662337662338
 40
0.2467532467532468
 40
0.2467532467532468
 40
0.2467532467532468
 40
0.2467532467532468
 40
0.2597402597402597
 40
0.2597402597402597
 40
0.2597402597402597
 40
0.2597402597402597
 40
0.2727272727272727
 40
0.2727272727272727
 40
0.2727272727272727
 40
0.2727272727272727
 40
0.2857142857142857
 40
0.2857142857142857
 40
0.2857142857142857
 40
0.2857142857142857
 40
0.2987012987012987
 40
0.2987012987012987
 40
0.2987012987012987
 40
0.2987012987012987
 40
0.3116883116883117
 40
0.3116883116883117
 40
0.3116883116883117
 40
0.3116883116883117
 40
0.3246753246753247
 40
0.3246753246753247
 40
0.3246753246753247
 40
0.3246753246753247
 40
0.3376623376623377
 40
0.3376623376623377
 40
0.3376623376623377
 40
0.3376623376623377
 40
0.3506493506493507
 40
0.3506493506493507
 40
0.3506493506493507
 40
0.3506493506493507
 40
0.3636363636363636
 40
0.3636363636363636
 40
0.3636363636363636
 40
0.3636363636363636
 40
0.3766233766233766
 40
0.3766233766233766
 40
0.3766233766233766
 40
0.3766233766233766
 40
0.3896103896103896
 40
0.3896103896103896
 40
0.3896103896103896
 40
0.3896103896103896
 40
0.4025974025974026
 40
0.4025974025974026
 40
0.4025974025974026
 40
0.4025974025974026
 40
0.4155844155844156
 40
0.4155844155844156
 40
0.4155844155844156
 40
0.4155844155844156
 40
0.4285714285714285
 40
0.4285714285714285
 40
0.4285714285714285
 40
0.4285714285714285
 40
0.4415584415584415
 40
0.4415584415584415
 40
0.4415584415584415
 40
0.4415584415584415
 40
0.4545454545454545
 40
0.4545454545454545
 40
0.4545454545454545
 40
0.4545454545454545
 40
0.4675324675324675
 40
0.4675324675324675
 40
0.4675324675324675
 40
0.4675324675324675
 40
0.4805194805194805
 40
0.4805194805194805
 40
0.4805194805194805
 40
0.4805194805194805
 40
0.4935064935064935
 40
0.4935064935064935
 40
0.4935064935064935
 40
0.4935064935064935
 40
0.5064935064935064
 40
0.5064935064935064
 40
0.5064935064935064
 40
0.5064935064935064
 40
0.5194805194805194
 40
0.5194805194805194
 40
0.5194805194805194
 40
0.5194805194805194
 40
0.5324675324675324
 40
0.5324675324675324
 40
0.5324675324675324
 40
0.5324675324675324
 40
0.5454545454545454
 40
0.5454545454545454
 40
0.5454545454545454
 40
0.5454545454545454
 40
0.5584415584415584
 40
0.5584415584415584
 40
0.5584415584415584
 40
0.5584415584415584
 40
0.5714285714285714
 40
0.5714285714285714
 40
0.5714285714285714
 40
0.5714285714285714
 40
0.5844155844155844
 40
0.5844155844155844
 40
0.5844155844155844
 40
0.5844155844155844
 40
0.5974025974025974
 40
0.5974025974025974
 40
0.5974025974025974
 40
0.5974025974025974
 40
0.6103896103896104
 40
0.6103896103896104
 40
0.6103896103896104
 40
0.6103896103896104
 40
0.6233766233766234
 40
0.6233766233766234
 40
0.6233766233766234
 40
0.6233766233766234
 40
0.6363636363636364
 40
0.6363636363636364
 40
0.6363636363636364
 40
0.6363636363636364
 40
0.6493506493506493
 40
0.6493506493506493
 40
0.6493506493506493
 40
0.6493506493506493
 40
0.6623376623376623
 40
0.6623376623376623
 40
0.6623376623376623
 40
0.6623376623376623
 40
0.6753246753246753
 40
0.6753246753246753
 40
0.6753246753246753
 40
0.6753246753246753
 40
0.6883116883116883
 40
0.6883116883116883
 40
0.6883116883116883
 40
0.6883116883116883
 40
0.7012987012987013
 40
0.7012987012987013
 40
0.7012987012987013
 40
0.7012987012987013
 40
0.7142857142857143
 40
0.7142857142857143
 40
0.7142857142857143
 40
0.7142857142857143
 40
0.7272727272727273
 40
0.7272727272727273
 40
0.7272727272727273
 40
0.7272727272727273
 40
0.7402597402597403
 40
0.7402597402597403
 40
0.7402597402597403
 40
0.7402597402597403
 40
0.7532467532467533
 40
0.7532467532467533
 40
0.7532467532467533
 40
0.7532467532467533
 40
0.7662337662337663
 40
0.7662337662337663
 40
0.7662337662337663
 40
0.7662337662337663
 40
0.7792207792207793
 40
0.7792207792207793
 40
0.7792207792207793
 40
0.7792207792207793
 40
0.7922077922077922
 40
0.7922077922077922
 40
0.7922077922077922
 40
0.7922077922077922
 40
0.8051948051948052
 40
0.8051948051948052
 40
0.8051948051948052
 40
0.8051948051948052
 40
0.8181818181818182
 40
0.8181818181818182
 40
0.8181818181818182
 40
0.8181818181818182
 40
0.8311688311688312
 40
0.8311688311688312
 40
0.8311688311688312
 40
0.8311688311688312
 40
0.8441558441558441
 40
0.8441558441558441
 40
0.8441558441558441
 40
0.8441558441558441
 40
0.8571428571428571
 40
0.8571428571428571
 40
0.8571428571428571
 40
0.8571428571428571
 40
0.8701298701298701
 40
0.8701298701298701
 40
0.8701298701298701
 40
0.8701298701298701
 40
0.8831168831168831
 40
0.8831168831168831
 40
0.8831168831168831
 40
0.8831168831168831
 40
0.8961038961038961
 40
0.8961038961038961
 40
0.8961038961038961
 40
0.8961038961038961
 40
0.9090909090909091
 40
0.9090909090909091
 40
0.9090909090909091
 40
0.9090909090909091
 40
0.922077922077922
 40
0.922077922077922
 40
0.922077922077922
 40
0.922077922077922
 40
0.935064935064935
 40
0.935064935064935
 40
0.935064935064935
 40
0.935064935064935
 40
0.948051948051948
 40
0.948051948051948
 40
0.948051948051948
 40
0.948051948051948
 40
0.961038961038961
 40
0.961038961038961
 40
0.961038961038961
 40
0.961038961038961
 40
0.974025974025974
 40
0.974025974025974
 40
0.974025974025974
 40
0.974025974025974
 40
1.0
 40
1.0
 40
1.0
 40
1.0
 10
-16.4431
 20
114.7112
 30
0.0
 10
-16.4431
 20
114.7112
 30
0.0
 10
7.9733
 20
114.7112
 30
0.0
 10
7.9733
 20
114.7112
 30
0.0
 10
7.9733
 20
114.7112
 30
0.0
 10
8.3591
 20
115.5941
 30
0.0
 10
9.24
 20
116.2112
 30
0.0
 10
10.2651
 20
116.2112
 30
0.0
 10
10.2651
 20
116.2112
 30
0.0
 10
11.6458
 20
116.2112
 30
0.0
 10
12.7651
 20
115.0919
 30
0.0
 10
12.7651
 20
113.7112
 30
0.0
 10
12.7651
 20
113.7112
 30
0.0
 10
12.7651
 20
112.6861
 30
0.0
 10
12.148
 20
111.8052
 30
0.0
 10
11.2651
 20
111.4194
 30
0.0
 10
11.2651
 20
111.4194
 30
0.0
 10
11.2651
 20
111.4194
 30
0.0
 10
11.2651
 20
87.003
 30
0.0
 10
11.2651
 20
87.003
 30
0.0
 10
11.2651
 20
87.003
 30
0.0
 10
12.148
 20
86.6172
 30
0.0
 10
12.7651
 20
85.7363
 30
0.0
 10
12.7651
 20
84.7112
 30
0.0
 10
12.7651
 20
84.7112
 30
0.0
 10
12.7651
 20
83.8934
 30
0.0
 10
12.3724
 20
83.1673
 30
0.0
 10
11.7652
 20
82.7112
 30
0.0
 10
11.7652
 20
82.7112
 30
0.0
 10
12.3724
 20
82.2551
 30
0.0
 10
12.7651
 20
81.529
 30
0.0
 10
12.7651
 20
80.7112
 30
0.0
 10
12.7651
 20
80.7112
 30
0.0
 10
12.7651
 20
79.6861
 30
0.0
 10
12.148
 20
78.8052
 30
0.0
 10
11.2651
 20
78.4194
 30
0.0
 10
11.2651
 20
78.4194
 30
0.0
 10
11.2651
 20
78.4194
 30
0.0
 10
11.2651
 20
54.003
 30
0.0
 10
11.2651
 20
54.003
 30
0.0
 10
11.2651
 20
54.003
 30
0.0
 10
12.148
 20
53.6172
 30
0.0
 10
12.7651
 20
52.7363
 30
0.0
 10
12.7651
 20
51.7112
 30
0.0
 10
12.7651
 20
51.7112
 30
0.0
 10
12.7651
 20
50.8934
 30
0.0
 10
12.3724
 20
50.1673
 30
0.0
 10
11.7652
 20
49.7112
 30
0.0
 10
11.7652
 20
49.7112
 30
0.0
 10
12.3724
 20
49.2551
 30
0.0
 10
12.7651
 20
48.529
 30
0.0
 10
12.7651
 20
47.7112
 30
0.0
 10
12.7651
 20
47.7112
 30
0.0
 10
12.7651
 20
46.6861
 30
0.0
 10
12.148
 20
45.8052
 30
0.0
 10
11.2651
 20
45.4194
 30
0.0
 10
11.2651
 20
45.4194
 30
0.0
 10
11.2651
 20
45.4194
 30
0.0
 10
11.2651
 20
21.003
 30
0.0
 10
11.2651
 20
21.003
 30
0.0
 10
11.2651
 20
21.003
 30
0.0
 10
12.148
 20
20.6172
 30
0.0
 10
12.7651
 20
19.7363
 30
0.0
 10
12.7651
 20
18.7112
 30
0.0
 10
12.7651
 20
18.7112
 30
0.0
 10
12.7651
 20
17.8934
 30
0.0
 10
12.3724
 20
17.1673
 30
0.0
 10
11.7652
 20
16.7112
 30
0.0
 10
11.7652
 20
16.7112
 30
0.0
 10
12.3724
 20
16.2551
 30
0.0
 10
12.7651
 20
15.529
 30
0.0
 10
12.7651
 20
14.7112
 30
0.0
 10
12.7651
 20
14.7112
 30
0.0
 10
12.7651
 20
13.6861
 30
0.0
 10
12.148
 20
12.8052
 30
0.0
 10
11.2651
 20
12.4194
 30
0.0
 10
11.2651
 20
12.4194
 30
0.0
 10
11.2651
 20
12.4194
 30
0.0
 10
11.2651
 20
-11.997
 30
0.0
 10
11.2651
 20
-11.997
 30
0.0
 10
11.2651
 20
-11.997
 30
0.0
 10
12.148
 20
-12.3828
 30
0.0
 10
12.7651
 20
-13.2637
 30
0.0
 10
12.7651
 20
-14.2888
 30
0.0
 10
12.7651
 20
-14.2888
 30
0.0
 10
12.7651
 20
-15.1066
 30
0.0
 10
12.3724
 20
-15.8327
 30
0.0
 10
11.7652
 20
-16.2888
 30
0.0
 10
11.7652
 20
-16.2888
 30
0.0
 10
12.3724
 20
-16.7449
 30
0.0
 10
12.7651
 20
-17.471
 30
0.0
 10
12.7651
 20
-18.2888
 30
0.0
 10
12.7651
 20
-18.2888
 30
0.0
 10
12.7651
 20
-19.3139
 30
0.0
 10
12.148
 20
-20.1948
 30
0.0
 10
11.2651
 20
-20.5806
 30
0.0
 10
11.2651
 20
-20.5806
 30
0.0
 10
11.2651
 20
-20.5806
 30
0.0
 10
11.2651
 20
-44.997
 30
0.0
 10
11.2651
 20
-44.997
 30
0.0
 10
11.2651
 20
-44.997
 30
0.0
 10
12.148
 20
-45.3828
 30
0.0
 10
12.7651
 20
-46.2637
 30
0.0
 10
12.7651
 20
-47.2888
 30
0.0
 10
12.7651
 20
-47.2888
 30
0.0
 10
12.7651
 20
-48.1066
 30
0.0
 10
12.3724
 20
-48.8327
 30
0.0
 10
11.7652
 20
-49.2888
 30
0.0
 10
11.7652
 20
-49.2888
 30
0.0
 10
12.3724
 20
-49.7449
 30
0.0
 10
12.7651
 20
-50.471
 30
0.0
 10
12.7651
 20
-51.2888
 30
0.0
 10
12.7651
 20
-51.2888
 30
0.0
 10
12.7651
 20
-52.3139
 30
0.0
 10
12.148
 20
-53.1948
 30
0.0
 10
11.2651
 20
-53.5806
 30
0.0
 10
11.2651
 20
-53.5806
 30
0.0
 10
11.2651
 20
-53.5806
 30
0.0
 10
11.2651
 20
-77.997
 30
0.0
 10
11.2651
 20
-77.997
 30
0.0
 10
11.2651
 20
-77.997
 30
0.0
 10
12.148
 20
-78.3828
 30
0.0
 10
12.7651
 20
-79.2637
 30
0.0
 10
12.7651
 20
-80.2888
 30
0.0
 10
12.7651
 20
-80.2888
 30
0.0
 10
12.7651
 20
-81.1066
 30
0.0
 10
12.3724
 20
-81.8327
 30
0.0
 10
11.7652
 20
-82.2888
 30
0.0
 10
11.7652
 20
-82.2888
 30
0.0
 10
12.3724
 20
-82.7449
 30
0.0
 10
12.7651
 20
-83.471
 30
0.0
 10
12.7651
 20
-84.2888
 30
0.0
 10
12.7651
 20
-84.2888
 30
0.0
 10
12.7651
 20
-85.3139
 30
0.0
 10
12.148
 20
-86.1948
 30
0.0
 10
11.2651
 20
-86.5806
 30
0.0
 10
11.2651
 20
-86.5806
 30
0.0
 10
11.2651
 20
-86.5806
 30
0.0
 10
11.2651
 20
-110.997
 30
0.0
 10
11.2651
 20
-110.997
 30
0.0
 10
11.2651
 20
-110.997
 30
0.0
 10
12.148
 20
-111.3828
 30
0.0
 10
12.7651
 20
-112.2637
 30
0.0
 10
12.7651
 20
-113.2888
 30
0.0
 10
12.7651
 20
-113.2888
 30
0.0
 10
12.7651
 20
-114.6695
 30
0.0
 10
11.6458
 20
-115.7888
 30
0.0
 10
10.2651
 20
-115.7888
 30
0.0
 10
10.2651
 20
-115.7888
 30
0.0
 10
9.24
 20
-115.7888
 30
0.0
 10
8.3591
 20
-115.1717
 30
0.0
 10
7.9733
 20
-114.2888
 30
0.0
 10
7.9733
 20
-114.2888
 30
0.0
 10
7.9733
 20
-114.2888
 30
0.0
 10
-16.4431
 20
-114.2888
 30
0.0
 10
-16.4431
 20
-114.2888
 30
0.0
 10
-16.4431
 20
-114.2888
 30
0.0
 10
-16.8289
 20
-115.1717
 30
0.0
 10
-17.7098
 20
-115.7888
 30
0.0
 10
-18.7349
 20
-115.7888
 30
0.0
 10
-18.7349
 20
-115.7888
 30
0.0
 10
-20.1156
 20
-115.7888
 30
0.0
 10
-21.2349
 20
-114.6695
 30
0.0
 10
-21.2349
 20
-113.2888
 30
0.0
 10
-21.2349
 20
-113.2888
 30
0.0
 10
-21.2349
 20
-112.2637
 30
0.0
 10
-20.6178
 20
-111.3828
 30
0.0
 10
-19.7349
 20
-110.997
 30
0.0
 10
-19.7349
 20
-110.997
 30
0.0
 10
-19.7349
 20
-110.997
 30
0.0
 10
-19.7349
 20
-86.5806
 30
0.0
 10
-19.7349
 20
-86.5806
 30
0.0
 10
-19.7349
 20
-86.5806
 30
0.0
 10
-20.6178
 20
-86.1948
 30
0.0
 10
-21.2349
 20
-85.3139
 30
0.0
 10
-21.2349
 20
-84.2888
 30
0.0
 10
-21.2349
 20
-84.2888
 30
0.0
 10
-21.2349
 20
-83.471
 30
0.0
 10
-20.8422
 20
-82.7449
 30
0.0
 10
-20.235
 20
-82.2888
 30
0.0
 10
-20.235
 20
-82.2888
 30
0.0
 10
-20.8422
 20
-81.8327
 30
0.0
 10
-21.2349
 20
-81.1066
 30
0.0
 10
-21.2349
 20
-80.2888
 30
0.0
 10
-21.2349
 20
-80.2888
 30
0.0
 10
-21.2349
 20
-79.2637
 30
0.0
 10
-20.6178
 20
-78.3828
 30
0.0
 10
-19.7349
 20
-77.997
 30
0.0
 10
-19.7349
 20
-77.997
 30
0.0
 10
-19.7349
 20
-77.997
 30
0.0
 10
-19.7349
 20
-53.5806
 30
0.0
 10
-19.7349
 20
-53.5806
 30
0.0
 10
-19.7349
 20
-53.5806
 30
0.0
 10
-20.6178
 20
-53.1948
 30
0.0
 10
-21.2349
 20
-52.3139
 30
0.0
 10
-21.2349
 20
-51.2888
 30
0.0
 10
-21.2349
 20
-51.2888
 30
0.0
 10
-21.2349
 20
-50.471
 30
0.0
 10
-20.8422
 20
-49.7449
 30
0.0
 10
-20.235
 20
-49.2888
 30
0.0
 10
-20.235
 20
-49.2888
 30
0.0
 10
-20.8422
 20
-48.8327
 30
0.0
 10
-21.2349
 20
-48.1066
 30
0.0
 10
-21.2349
 20
-47.2888
 30
0.0
 10
-21.2349
 20
-47.2888
 30
0.0
 10
-21.2349
 20
-46.2637
 30
0.0
 10
-20.6178
 20
-45.3828
 30
0.0
 10
-19.7349
 20
-44.997
 30
0.0
 10
-19.7349
 20
-44.997
 30
0.0
 10
-19.7349
 20
-44.997
 30
0.0
 10
-19.7349
 20
-20.5806
 30
0.0
 10
-19.7349
 20
-20.5806
 30
0.0
 10
-19.7349
 20
-20.5806
 30
0.0
 10
-20.6178
 20
-20.1948
 30
0.0
 10
-21.2349
 20
-19.3139
 30
0.0
 10
-21.2349
 20
-18.2888
 30
0.0
 10
-21.2349
 20
-18.2888
 30
0.0
 10
-21.2349
 20
-17.471
 30
0.0
 10
-20.8422
 20
-16.7449
 30
0.0
 10
-20.235
 20
-16.2888
 30
0.0
 10
-20.235
 20
-16.2888
 30
0.0
 10
-20.8422
 20
-15.8327
 30
0.0
 10
-21.2349
 20
-15.1066
 30
0.0
 10
-21.2349
 20
-14.2888
 30
0.0
 10
-21.2349
 20
-14.2888
 30
0.0
 10
-21.2349
 20
-13.2637
 30
0.0
 10
-20.6178
 20
-12.3828
 30
0.0
 10
-19.7349
 20
-11.997
 30
0.0
 10
-19.7349
 20
-11.997
 30
0.0
 10
-19.7349
 20
-11.997
 30
0.0
 10
-19.7349
 20
12.4194
 30
0.0
 10
-19.7349
 20
12.4194
 30
0.0
 10
-19.7349
 20
12.4194
 30
0.0
 10
-20.6178
 20
12.8052
 30
0.0
 10
-21.2349
 20
13.6861
 30
0.0
 10
-21.2349
 20
14.7112
 30
0.0
 10
-21.2349
 20
14.7112
 30
0.0
 10
-21.2349
 20
15.529
 30
0.0
 10
-20.8422
 20
16.2551
 30
0.0
 10
-20.235
 20
16.7112
 30
0.0
 10
-20.235
 20
16.7112
 30
0.0
 10
-20.8422
 20
17.1673
 30
0.0
 10
-21.2349
 20
17.8934
 30
0.0
 10
-21.2349
 20
18.7112
 30
0.0
 10
-21.2349
 20
18.7112
 30
0.0
 10
-21.2349
 20
19.7363
 30
0.0
 10
-20.6178
 20
20.6172
 30
0.0
 10
-19.7349
 20
21.003
 30
0.0
 10
-19.7349
 20
21.003
 30
0.0
 10
-19.7349
 20
21.003
 30
0.0
 10
-19.7349
 20
45.4194
 30
0.0
 10
-19.7349
 20
45.4194
 30
0.0
 10
-19.7349
 20
45.4194
 30
0.0
 10
-20.6178
 20
45.8052
 30
0.0
 10
-21.2349
 20
46.6861
 30
0.0
 10
-21.2349
 20
47.7112
 30
0.0
 10
-21.2349
 20
47.7112
 30
0.0
 10
-21.2349
 20
48.529
 30
0.0
 10
-20.8422
 20
49.2551
 30
0.0
 10
-20.235
 20
49.7112
 30
0.0
 10
-20.235
 20
49.7112
 30
0.0
 10
-20.8422
 20
50.1673
 30
0.0
 10
-21.2349
 20
50.8934
 30
0.0
 10
-21.2349
 20
51.7112
 30
0.0
 10
-21.2349
 20
51.7112
 30
0.0
 10
-21.2349
 20
52.7363
 30
0.0
 10
-20.6178
 20
53.6172
 30
0.0
 10
-19.7349
 20
54.003
 30
0.0
 10
-19.7349
 20
54.003
 30
0.0
 10
-19.7349
 20
54.003
 30
0.0
 10
-19.7349
 20
78.4194
 30
0.0
 10
-19.7349
 20
78.4194
 30
0.0
 10
-19.7349
 20
78.4194
 30
0.0
 10
-20.6178
 20
78.8052
 30
0.0
 10
-21.2349
 20
79.6861
 30
0.0
 10
-21.2349
 20
80.7112
 30
0.0
 10
-21.2349
 20
80.7112
 30
0.0
 10
-21.2349
 20
81.529
 30
0.0
 10
-20.8422
 20
82.2551
 30
0.0
 10
-20.235
 20
82.7112
 30
0.0
 10
-20.235
 20
82.7112
 30
0.0
 10
-20.8422
 20
83.1673
 30
0.0
 10
-21.2349
 20
83.8934
 30
0.0
 10
-21.2349
 20
84.7112
 30
0.0
 10
-21.2349
 20
84.7112
 30
0.0
 10
-21.2349
 20
85.7363
 30
0.0
 10
-20.6178
 20
86.6172
 30
0.0
 10
-19.7349
 20
87.003
 30
0.0
 10
-19.7349
 20
87.003
 30
0.0
 10
-19.7349
 20
87.003
 30
0.0
 10
-19.7349
 20
111.4194
 30
0.0
 10
-19.7349
 20
111.4194
 30
0.0
 10
-19.7349
 20
111.4194
 30
0.0
 10
-20.6178
 20
111.8052
 30
0.0
 10
-21.2349
 20
112.6861
 30
0.0
 10
-21.2349
 20
113.7112
 30
0.0
 10
-21.2349
 20
113.7112
 30
0.0
 10
-21.2349
 20
115.0919
 30
0.0
 10
-20.1156
 20
116.2112
 30
0.0
 10
-18.7349
 20
116.2112
 30
0.0
 10
-18.7349
 20
116.2112
 30
0.0
 10
-17.7098
 20
116.2112
 30
0.0
 10
-16.8289
 20
115.5941
 30
0.0
 10
-16.4431
 20
114.7112
 30
0.0
  0
SPLINE
  5
4C
330
1F
100
AcDbEntity
  8
LAYER_1
 62
   250
100
AcDbSpline
210
0.0
220
0.0
230
1.0
 70
    11
 71
     3
 72
    28
 73
    24
 74
     0
 42
0.0000000001
 43
0.0000000001
 12
1.0
 22
0.0
 32
0.0
 13
1.0
 23
0.0
 33
0.0
 40
0.0
 40
0.0
 40
0.0
 40
0.0
 40
0.1428571428571428
 40
0.1428571428571428
 40
0.1428571428571428
 40
0.1428571428571428
 40
0.2857142857142857
 40
0.2857142857142857
 40
0.2857142857142857
 40
0.2857142857142857
 40
0.4285714285714285
 40
0.4285714285714285
 40
0.4285714285714285
 40
0.4285714285714285
 40
0.5714285714285714
 40
0.5714285714285714
 40
0.5714285714285714
 40
0.5714285714285714
 40
0.7142857142857143
 40
0.7142857142857143
 40
0.7142857142857143
 40
0.7142857142857143
 40
1.0
 40
1.0
 40
1.0
 40
1.0
 10
8.7651
 20
82.7112
 30
0.0
 10
8.422
 20
82.969
 30
0.0
 10
8.1473
 20
83.3131
 30
0.0
 10
7.9733
 20
83.7112
 30
0.0
 10
7.9733
 20
83.7112
 30
0.0
 10
7.9733
 20
83.7112
 30
0.0
 10
-16.4431
 20
83.7112
 30
0.0
 10
-16.4431
 20
83.7112
 30
0.0
 10
-16.4431
 20
83.7112
 30
0.0
 10
-16.6171
 20
83.3131
 30
0.0
 10
-16.8918
 20
82.969
 30
0.0
 10
-17.2349
 20
82.7112
 30
0.0
 10
-17.2349
 20
82.7112
 30
0.0
 10
-16.8918
 20
82.4534
 30
0.0
 10
-16.6171
 20
82.1093
 30
0.0
 10
-16.4431
 20
81.7112
 30
0.0
 10
-16.4431
 20
81.7112
 30
0.0
 10
-16.4431
 20
81.7112
 30
0.0
 10
7.9733
 20
81.7112
 30
0.0
 10
7.9733
 20
81.7112
 30
0.0
 10
7.9733
 20
81.7112
 30
0.0
 10
8.1473
 20
82.1093
 30
0.0
 10
8.422
 20
82.4534
 30
0.0
 10
8.7651
 20
82.7112
 30
0.0
  0
SPLINE
  5
4D
330
1F
100
AcDbEntity
  8
LAYER_1
 62
   250
100
AcDbSpline
210
0.0
220
0.0
230
1.0
 70
    11
 71
     3
 72
    28
 73
    24
 74
     0
 42
0.0000000001
 43
0.0000000001
 12
1.0
 22
0.0
 32
0.0
 13
1.0
 23
0.0
 33
0.0
 40
0.0
 40
0.0
 40
0.0
 40
0.0
 40
0.1428571428571428
 40
0.1428571428571428
 40
0.1428571428571428
 40
0.1428571428571428
 40
0.2857142857142857
 40
0.2857142857142857
 40
0.2857142857142857
 40
0.2857142857142857
 40
0.4285714285714285
 40
0.4285714285714285
 40
0.4285714285714285
 40
0.4285714285714285
 40
0.5714285714285714
 40
0.5714285714285714
 40
0.5714285714285714
 40
0.5714285714285714
 40
0.7142857142857143
 40
0.7142857142857143
 40
0.7142857142857143
 40
0.7142857142857143
 40
1.0
 40
1.0
 40
1.0
 40
1.0
 10
8.7651
 20
49.7112
 30
0.0
 10
8.422
 20
49.969
 30
0.0
 10
8.1473
 20
50.3131
 30
0.0
 10
7.9733
 20
50.7112
 30
0.0
 10
7.9733
 20
50.7112
 30
0.0
 10
7.9733
 20
50.7112
 30
0.0
 10
-16.4431
 20
50.7112
 30
0.0
 10
-16.4431
 20
50.7112
 30
0.0
 10
-16.4431
 20
50.7112
 30
0.0
 10
-16.6171
 20
50.3131
 30
0.0
 10
-16.8918
 20
49.969
 30
0.0
 10
-17.2349
 20
49.7112
 30
0.0
 10
-17.2349
 20
49.7112
 30
0.0
 10
-16.8918
 20
49.4534
 30
0.0
 10
-16.6171
 20
49.1093
 30
0.0
 10
-16.4431
 20
48.7112
 30
0.0
 10
-16.4431
 20
48.7112
 30
0.0
 10
-16.4431
 20
48.7112
 30
0.0
 10
7.9733
 20
48.7112
 30
0.0
 10
7.9733
 20
48.7112
 30
0.0
 10
7.9733
 20
48.7112
 30
0.0
 10
8.1473
 20
49.1093
 30
0.0
 10
8.422
 20
49.4534
 30
0.0
 10
8.7651
 20
49.7112
 30
0.0
  0
SPLINE
  5
4E
330
1F
100
AcDbEntity
  8
LAYER_1
 62
   250
100
AcDbSpline
210
0.0
220
0.0
230
1.0
 70
    11
 71
     3
 72
    28
 73
    24
 74
     0
 42
0.0000000001
 43
0.0000000001
 12
1.0
 22
0.0
 32
0.0
 13
1.0
 23
0.0
 33
0.0
 40
0.0
 40
0.0
 40
0.0
 40
0.0
 40
0.1428571428571428
 40
0.1428571428571428
 40
0.1428571428571428
 40
0.1428571428571428
 40
0.2857142857142857
 40
0.2857142857142857
 40
0.2857142857142857
 40
0.2857142857142857
 40
0.4285714285714285
 40
0.4285714285714285
 40
0.4285714285714285
 40
0.4285714285714285
 40
0.5714285714285714
 40
0.5714285714285714
 40
0.5714285714285714
 40
0.5714285714285714
 40
0.7142857142857143
 40
0.7142857142857143
 40
0.7142857142857143
 40
0.7142857142857143
 40
1.0
 40
1.0
 40
1.0
 40
1.0
 10
8.7651
 20
16.7112
 30
0.0
 10
8.422
 20
16.969
 30
0.0
 10
8.1473
 20
17.3131
 30
0.0
 10
7.9733
 20
17.7112
 30
0.0
 10
7.9733
 20
17.7112
 30
0.0
 10
7.9733
 20
17.7112
 30
0.0
 10
-16.4431
 20
17.7112
 30
0.0
 10
-16.4431
 20
17.7112
 30
0.0
 10
-16.4431
 20
17.7112
 30
0.0
 10
-16.6171
 20
17.3131
 30
0.0
 10
-16.8918
 20
16.969
 30
0.0
 10
-17.2349
 20
16.7112
 30
0.0
 10
-17.2349
 20
16.7112
 30
0.0
 10
-16.8918
 20
16.4534
 30
0.0
 10
-16.6171
 20
16.1093
 30
0.0
 10
-16.4431
 20
15.7112
 30
0.0
 10
-16.4431
 20
15.7112
 30
0.0
 10
-16.4431
 20
15.7112
 30
0.0
 10
7.9733
 20
15.7112
 30
0.0
 10
7.9733
 20
15.7112
 30
0.0
 10
7.9733
 20
15.7112
 30
0.0
 10
8.1473
 20
16.1093
 30
0.0
 10
8.422
 20
16.4534
 30
0.0
 10
8.7651
 20
16.7112
 30
0.0
  0
SPLINE
  5
4F
330
1F
100
AcDbEntity
  8
LAYER_1
 62
   250
100
AcDbSpline
210
0.0
220
0.0
230
1.0
 70
    11
 71
     3
 72
    28
 73
    24
 74
     0
 42
0.0000000001
 43
0.0000000001
 12
1.0
 22
0.0
 32
0.0
 13
1.0
 23
0.0
 33
0.0
 40
0.0
 40
0.0
 40
0.0
 40
0.0
 40
0.1428571428571428
 40
0.1428571428571428
 40
0.1428571428571428
 40
0.1428571428571428
 40
0.2857142857142857
 40
0.2857142857142857
 40
0.2857142857142857
 40
0.2857142857142857
 40
0.4285714285714285
 40
0.4285714285714285
 40
0.4285714285714285
 40
0.4285714285714285
 40
0.5714285714285714
 40
0.5714285714285714
 40
0.5714285714285714
 40
0.5714285714285714
 40
0.7142857142857143
 40
0.7142857142857143
 40
0.7142857142857143
 40
0.7142857142857143
 40
1.0
 40
1.0
 40
1.0
 40
1.0
 10
8.7651
 20
-16.2888
 30
0.0
 10
8.422
 20
-16.031
 30
0.0
 10
8.1473
 20
-15.6869
 30
0.0
 10
7.9733
 20
-15.2888
 30
0.0
 10
7.9733
 20
-15.2888
 30
0.0
 10
7.9733
 20
-15.2888
 30
0.0
 10
-16.4431
 20
-15.2888
 30
0.0
 10
-16.4431
 20
-15.2888
 30
0.0
 10
-16.4431
 20
-15.2888
 30
0.0
 10
-16.6171
 20
-15.6869
 30
0.0
 10
-16.8918
 20
-16.031
 30
0.0
 10
-17.2349
 20
-16.2888
 30
0.0
 10
-17.2349
 20
-16.2888
 30
0.0
 10
-16.8918
 20
-16.5466
 30
0.0
 10
-16.6171
 20
-16.8907
 30
0.0
 10
-16.4431
 20
-17.2888
 30
0.0
 10
-16.4431
 20
-17.2888
 30
0.0
 10
-16.4431
 20
-17.2888
 30
0.0
 10
7.9733
 20
-17.2888
 30
0.0
 10
7.9733
 20
-17.2888
 30
0.0
 10
7.9733
 20
-17.2888
 30
0.0
 10
8.1473
 20
-16.8907
 30
0.0
 10
8.422
 20
-16.5466
 30
0.0
 10
8.7651
 20
-16.2888
 30
0.0
  0
SPLINE
  5
50
330
1F
100
AcDbEntity
  8
LAYER_1
 62
   250
100
AcDbSpline
210
0.0
220
0.0
230
1.0
 70
    11
 71
     3
 72
    28
 73
    24
 74
     0
 42
0.0000000001
 43
0.0000000001
 12
1.0
 22
0.0
 32
0.0
 13
1.0
 23
0.0
 33
0.0
 40
0.0
 40
0.0
 40
0.0
 40
0.0
 40
0.1428571428571428
 40
0.1428571428571428
 40
0.1428571428571428
 40
0.1428571428571428
 40
0.2857142857142857
 40
0.2857142857142857
 40
0.2857142857142857
 40
0.2857142857142857
 40
0.4285714285714285
 40
0.4285714285714285
 40
0.4285714285714285
 40
0.4285714285714285
 40
0.5714285714285714
 40
0.5714285714285714
 40
0.5714285714285714
 40
0.5714285714285714
 40
0.7142857142857143
 40
0.7142857142857143
 40
0.7142857142857143
 40
0.7142857142857143
 40
1.0
 40
1.0
 40
1.0
 40
1.0
 10
8.7651
 20
-49.2888
 30
0.0
 10
8.422
 20
-49.031
 30
0.0
 10
8.1473
 20
-48.6869
 30
0.0
 10
7.9733
 20
-48.2888
 30
0.0
 10
7.9733
 20
-48.2888
 30
0.0
 10
7.9733
 20
-48.2888
 30
0.0
 10
-16.4431
 20
-48.2888
 30
0.0
 10
-16.4431
 20
-48.2888
 30
0.0
 10
-16.4431
 20
-48.2888
 30
0.0
 10
-16.6171
 20
-48.6869
 30
0.0
 10
-16.8918
 20
-49.031
 30
0.0
 10
-17.2349
 20
-49.2888
 30
0.0
 10
-17.2349
 20
-49.2888
 30
0.0
 10
-16.8918
 20
-49.5466
 30
0.0
 10
-16.6171
 20
-49.8907
 30
0.0
 10
-16.4431
 20
-50.2888
 30
0.0
 10
-16.4431
 20
-50.2888
 30
0.0
 10
-16.4431
 20
-50.2888
 30
0.0
 10
7.9733
 20
-50.2888
 30
0.0
 10
7.9733
 20
-50.2888
 30
0.0
 10
7.9733
 20
-50.2888
 30
0.0
 10
8.1473
 20
-49.8907
 30
0.0
 10
8.422
 20
-49.5466
 30
0.0
 10
8.7651
 20
-49.2888
 30
0.0
  0
ENDSEC
  0
SECTION
  2
OBJECTS
  0
DICTIONARY
  5
C
330
0
100
AcDbDictionary
  3
ACAD_GROUP
350
D
  3
ACAD_LAYOUT
350
1A
  3
ACAD_MATERIAL
350
3B
  3
ACAD_MLEADERSTYLE
350
73
  3
ACAD_MLINESTYLE
350
17
  3
ACAD_PLOTSETTINGS
350
19
  3
ACAD_VISUALSTYLE
350
2A
  3
ACDBHEADERROUNDTRIPXREC
350
51
  3
ACDBVARIABLEDICTIONARY
350
71
  0
DICTIONARY
  5
D
102
{ACAD_REACTORS
330
C
102
}
330
C
100
AcDbDictionary
  0
DICTIONARY
  5
1A
102
{ACAD_REACTORS
330
C
102
}
330
C
100
AcDbDictionary
  0
DICTIONARY
  5
3B
102
{ACAD_REACTORS
330
C
102
}
330
C
100
AcDbDictionary
  3
BYBLOCK
350
3D
  3
BYLAYER
350
3C
  3
GLOBAL
350
3E
  0
DICTIONARY
  5
73
102
{ACAD_REACTORS
330
C
102
}
330
C
100
AcDbDictionary
  0
DICTIONARY
  5
17
102
{ACAD_REACTORS
330
C
102
}
330
C
100
AcDbDictionary
  3
STANDARD
350
18
  0
DICTIONARY
  5
19
102
{ACAD_REACTORS
330
C
102
}
330
C
100
AcDbDictionary
  0
DICTIONARY
  5
2A
102
{ACAD_REACTORS
330
C
102
}
330
C
100
AcDbDictionary
  3
2DWIREFRAME
350
2F
  3
3D_HIDDEN
350
31
  3
3DWIREFRAME
350
30
  3
BASIC
350
32
  3
BRIGHTEN
350
36
  3
COLORCHANGE
350
3A
  3
CONCEPTUAL
350
34
  3
DIM
350
35
  3
FACEPATTERN
350
39
  3
FLAT
350
2B
  3
FLATWITHEDGES
350
2C
  3
GOURAUD
350
2D
  3
GOURAUDWITHEDGES
350
2E
  3
LINEPATTERN
350
38
  3
REALISTIC
350
33
  3
THICKEN
350
37
  0
DICTIONARY
  5
51
102
{ACAD_REACTORS
330
C
102
}
330
C
100
AcDbDictionary
  3
CEPSNTYPE
350
5A
  3
DIMSTYLEDATA
350
70
  3
FINGERPRINTGUID
350
5B
  3
HYPERLINKBASE
350
54
  3
INSUNITS
350
59
  3
LAYOUTDICT
350
56
  3
LWETCUNION
350
58
  3
PLOTSETDICT
350
57
  3
PSVPSCALE
350
5D
  3
PUCSBASE
350
60
  3
PUCSORGBACK
350
66
  3
PUCSORGBOTTOM
350
62
  3
PUCSORGFRONT
350
65
  3
PUCSORGLEFT
350
63
  3
PUCSORGRIGHT
350
64
  3
PUCSORGTOP
350
61
  3
PUCSORTHOREF
350
5E
  3
PUCSORTHOVIEW
350
5F
  3
STYLESHEET
350
55
  3
TSTACKALIGN
350
52
  3
TSTACKSIZE
350
53
  3
UCSBASE
350
69
  3
UCSORGBACK
350
6F
  3
UCSORGBOTTOM
350
6B
  3
UCSORGFRONT
350
6E
  3
UCSORGLEFT
350
6C
  3
UCSORGRIGHT
350
6D
  3
UCSORGTOP
350
6A
  3
UCSORTHOREF
350
67
  3
UCSORTHOVIEW
350
68
  3
VERSIONGUID
350
5C
  0
DICTIONARY
  5
71
102
{ACAD_REACTORS
330
C
102
}
330
C
100
AcDbDictionary
  3
DIMASSOC
350
74
  3
HIDETEXT
350
75
  0
MATERIAL
  5
3D
102
{ACAD_REACTORS
330
3B
102
}
102
{ACAD_XDICTIONARY
360
78
102
}
330
3B
100
AcDbMaterial
  1
ByBlock
  0
MATERIAL
  5
3C
102
{ACAD_REACTORS
330
3B
102
}
102
{ACAD_XDICTIONARY
360
76
102
}
330
3B
100
AcDbMaterial
  1
ByLayer
  0
MATERIAL
  5
3E
102
{ACAD_REACTORS
330
3B
102
}
102
{ACAD_XDICTIONARY
360
7A
102
}
330
3B
100
AcDbMaterial
  1
Global
  0
MLINESTYLE
  5
18
102
{ACAD_REACTORS
330
17
102
}
330
17
100
AcDbMlineStyle
  2
Standard
 70
     0
  3

 62
   256
 51
90.0
 52
90.0
 71
     2
 49
0.5
 62
   256
  6
BYLAYER
 49
-0.5
 62
   256
  6
BYLAYER
  0
ACAD_PROXY_OBJECT
  5
2F
102
{ACAD_REACTORS
330
2A
102
}
330
2A
100
AcDbProxyObject
 90
      499
 91
      501
 93
      436
310
42CC9915DA5C99599C985B595049028333333333333E3BF0000000000000FB0107901411070040501600405405064090741402480A0340
1001
ACAD
1000
AcDbSavedByObjectVersion
1070
     0
  0
ACAD_PROXY_OBJECT
  5
31
102
{ACAD_REACTORS
330
2A
102
}
330
2A
100
AcDbProxyObject
 90
      499
 91
      501
 93
      500
310
424CD108121A5919195B90640502408333333333333E3BF0000000000000FB01079024090700405020000000000001110200405405064090740C02480A0340
1001
ACAD
1000
AcDbSavedByObjectVersion
1070
     0
  0
ACAD_PROXY_OBJECT
  5
30
102
{ACAD_REACTORS
330
2A
102
}
330
2A
100
AcDbProxyObject
 90
      499
 91
      501
 93
      436
310
42CCD915DA5C99599C985B595059028333333333333E3BF0000000000000FB0107901411070040501600405405064090741402480A0340
1001
ACAD
1000
AcDbSavedByObjectVersion
1070
     0
  0
ACAD_PROXY_OBJECT
  5
32
102
{ACAD_REACTORS
330
2A
102
}
330
2A
100
AcDbProxyObject
 90
      499
 91
      501
 93
      388
310
4150985CDA58D07406404333333333333E3BF0000000000000FB0107A41107004050150841D405064090741402480A0350
1001
ACAD
1000
AcDbSavedByObjectVersion
1070
     0
  0
ACAD_PROXY_OBJECT
  5
36
102
{ACAD_REACTORS
330
2A
102
}
330
2A
100
AcDbProxyObject
 90
      499
 91
      501
 93
      428
310
42109C9A59DA1D195B90C409028333333333333E3BF0000000000000FB010790141107004050150841D405064090741402480A029950
1001
ACAD
1000
AcDbSavedByObjectVersion
1070
     0
  0
ACAD_PROXY_OBJECT
  5
3A
102
{ACAD_REACTORS
330
2A
102
}
330
2A
100
AcDbProxyObject
 90
      499
 91
      501
 93
      452
310
42D0DBDB1BDC90DA185B99D95104090240C333333333333E3BF0000000000000FB0108901411070040501508421405064090741402480A0350
1001
ACAD
1000
AcDbSavedByObjectVersion
1070
     0
  0
ACAD_PROXY_OBJECT
  5
34
102
{ACAD_REACTORS
330
2A
102
}
330
2A
100
AcDbProxyObject
 90
      499
 91
      501
 93
      500
310
4290DBDB98D95C1D1D585B10940D028333333333333E3BF0000000000000FB0107902409070040501000000000000111010841D405064090740C02480A0340
1001
ACAD
1000
AcDbSavedByObjectVersion
1070
     0
  0
ACAD_PROXY_OBJECT
  5
35
102
{ACAD_REACTORS
330
2A
102
}
330
2A
100
AcDbProxyObject
 90
      499
 91
      501
 93
      412
310
40D11A5B50B409028333333333333E3BF0000000000000FB010790141107004050150841D405064090741402480A02677FFFFFD0
1001
ACAD
1000
AcDbSavedByObjectVersion
1070
     0
  0
ACAD_PROXY_OBJECT
  5
39
102
{ACAD_REACTORS
330
2A
102
}
330
2A
100
AcDbProxyObject
 90
      499
 91
      501
 93
      444
310
42D19858D95C185D1D195C9B90F409028333333333333E3BF0000000000000FB010790141107004050150841D405064090741402480A0350
1001
ACAD
1000
AcDbSavedByObjectVersion
1070
     0
  0
ACAD_PROXY_OBJECT
  5
2B
102
{ACAD_REACTORS
330
2A
102
}
330
2A
100
AcDbProxyObject
 90
      499
 91
      501
 93
      388
310
41119B185D240901404333333333333E3BF0000000000000F9010740A41107004050150841D405064090741402480A1B50
1001
ACAD
1000
AcDbSavedByObjectVersion
1070
     0
  0
ACAD_PROXY_OBJECT
  5
2C
102
{ACAD_REACTORS
330
2A
102
}
330
2A
100
AcDbProxyObject
 90
      499
 91
      501
 93
      476
310
43519B185D15DA5D1A115919D95CD0140901404333333333333E3BF0000000000000F9010740901411070040501600405405064090741402480A1B50
1001
ACAD
1000
AcDbSavedByObjectVersion
1070
     0
  0
ACAD_PROXY_OBJECT
  5
2D
102
{ACAD_REACTORS
330
2A
102
}
330
2A
100
AcDbProxyObject
 90
      499
 91
      501
 93
      412
310
41D1DBDD5C985D5910240902404333333333333E3BF0000000000000F9010740A411070040501641D405064090741402480A1B50
1001
ACAD
1000
AcDbSavedByObjectVersion
1070
     0
  0
ACAD_PROXY_OBJECT
  5
2E
102
{ACAD_REACTORS
330
2A
102
}
330
2A
100
AcDbProxyObject
 90
      499
 91
      501
 93
      500
310
4411DBDD5C985D5915DA5D1A115919D95CD0340902404333333333333E3BF0000000000000F9010740901411070040501600405405064090741402480A1B50
1001
ACAD
1000
AcDbSavedByObjectVersion
1070
     0
  0
ACAD_PROXY_OBJECT
  5
38
102
{ACAD_REACTORS
330
2A
102
}
330
2A
100
AcDbProxyObject
 90
      499
 91
      501
 93
      444
310
42D31A5B995C185D1D195C9B90E409028333333333333E3BF0000000000000FB010790141107004050750841D405064090741402483A0350
1001
ACAD
1000
AcDbSavedByObjectVersion
1070
     0
  0
ACAD_PROXY_OBJECT
  5
33
102
{ACAD_REACTORS
330
2A
102
}
330
2A
100
AcDbProxyObject
 90
      499
 91
      501
 93
      420
310
425499585B1A5CDD1A58D08409028333333333333E3BF0000000000000FB01079019070040501508421405064090741402480A1B40
1001
ACAD
1000
AcDbSavedByObjectVersion
1070
     0
  0
ACAD_PROXY_OBJECT
  5
37
102
{ACAD_REACTORS
330
2A
102
}
330
2A
100
AcDbProxyObject
 90
      499
 91
      501
 93
      412
310
41D51A1A58DAD95B90D409028333333333333E3BF0000000000000FB010790141107004050150C41D405064090741402480A0350
1001
ACAD
1000
AcDbSavedByObjectVersion
1070
     0
  0
XRECORD
  5
5A
102
{ACAD_REACTORS
330
51
102
}
330
51
100
AcDbXrecord
 90
        0
  0
XRECORD
  5
70
102
{ACAD_REACTORS
330
51
102
}
330
51
100
AcDbXrecord
1000
DSTYLE
1002
{
1070
   340
340
11
1002
}
  0
XRECORD
  5
5B
102
{ACAD_REACTORS
330
51
102
}
330
51
100
AcDbXrecord
  1
{3E06757E-0FF0-459E-B3C0-5E19AA106EF3}
  0
XRECORD
  5
54
102
{ACAD_REACTORS
330
51
102
}
330
51
100
AcDbXrecord
  1

  0
XRECORD
  5
59
102
{ACAD_REACTORS
330
51
102
}
330
51
100
AcDbXrecord
 90
        4
  0
XRECORD
  5
56
102
{ACAD_REACTORS
330
51
102
}
330
51
100
AcDbXrecord
340
1A
  0
XRECORD
  5
58
102
{ACAD_REACTORS
330
51
102
}
330
51
100
AcDbXrecord
 90
    10781
  0
XRECORD
  5
57
102
{ACAD_REACTORS
330
51
102
}
330
51
100
AcDbXrecord
340
19
  0
XRECORD
  5
5D
102
{ACAD_REACTORS
330
51
102
}
330
51
100
AcDbXrecord
 40
0.0
  0
XRECORD
  5
60
102
{ACAD_REACTORS
330
51
102
}
330
51
100
AcDbXrecord
340
0
  0
XRECORD
  5
66
102
{ACAD_REACTORS
330
51
102
}
330
51
100
AcDbXrecord
 10
0.0
 20
0.0
 30
0.0
  0
XRECORD
  5
62
102
{ACAD_REACTORS
330
51
102
}
330
51
100
AcDbXrecord
 10
0.0
 20
0.0
 30
0.0
  0
XRECORD
  5
65
102
{ACAD_REACTORS
330
51
102
}
330
51
100
AcDbXrecord
 10
0.0
 20
0.0
 30
0.0
  0
XRECORD
  5
63
102
{ACAD_REACTORS
330
51
102
}
330
51
100
AcDbXrecord
 10
0.0
 20
0.0
 30
0.0
  0
XRECORD
  5
64
102
{ACAD_REACTORS
330
51
102
}
330
51
100
AcDbXrecord
 10
0.0
 20
0.0
 30
0.0
  0
XRECORD
  5
61
102
{ACAD_REACTORS
330
51
102
}
330
51
100
AcDbXrecord
 10
0.0
 20
0.0
 30
0.0
  0
XRECORD
  5
5E
102
{ACAD_REACTORS
330
51
102
}
330
51
100
AcDbXrecord
340
0
  0
XRECORD
  5
5F
102
{ACAD_REACTORS
330
51
102
}
330
51
100
AcDbXrecord
 70
     0
  0
XRECORD
  5
55
102
{ACAD_REACTORS
330
51
102
}
330
51
100
AcDbXrecord
  1

  0
XRECORD
  5
52
102
{ACAD_REACTORS
330
51
102
}
330
51
100
AcDbXrecord
 90
        1
  0
XRECORD
  5
53
102
{ACAD_REACTORS
330
51
102
}
330
51
100
AcDbXrecord
 90
       70
  0
XRECORD
  5
69
102
{ACAD_REACTORS
330
51
102
}
330
51
100
AcDbXrecord
340
0
  0
XRECORD
  5
6F
102
{ACAD_REACTORS
330
51
102
}
330
51
100
AcDbXrecord
 10
0.0
 20
0.0
 30
0.0
  0
XRECORD
  5
6B
102
{ACAD_REACTORS
330
51
102
}
330
51
100
AcDbXrecord
 10
0.0
 20
0.0
 30
0.0
  0
XRECORD
  5
6E
102
{ACAD_REACTORS
330
51
102
}
330
51
100
AcDbXrecord
 10
0.0
 20
0.0
 30
0.0
  0
XRECORD
  5
6C
102
{ACAD_REACTORS
330
51
102
}
330
51
100
AcDbXrecord
 10
0.0
 20
0.0
 30
0.0
  0
XRECORD
  5
6D
102
{ACAD_REACTORS
330
51
102
}
330
51
100
AcDbXrecord
 10
0.0
 20
0.0
 30
0.0
  0
XRECORD
  5
6A
102
{ACAD_REACTORS
330
51
102
}
330
51
100
AcDbXrecord
 10
0.0
 20
0.0
 30
0.0
  0
XRECORD
  5
67
102
{ACAD_REACTORS
330
51
102
}
330
51
100
AcDbXrecord
340
0
  0
XRECORD
  5
68
102
{ACAD_REACTORS
330
51
102
}
330
51
100
AcDbXrecord
 70
     0
  0
XRECORD
  5
5C
102
{ACAD_REACTORS
330
51
102
}
330
51
100
AcDbXrecord
  1
{FAEB1C32-E019-11D5-929B-00C0DF256EC4}
  0
DICTIONARYVAR
  5
74
102
{ACAD_REACTORS
330
71
102
}
330
71
100
DictionaryVariables
280
     0
  1
2
  0
DICTIONARYVAR
  5
75
102
{ACAD_REACTORS
330
71
102
}
330
71
100
DictionaryVariables
280
     0
  1
1
  0
DICTIONARY
  5
78
330
3D
100
AcDbDictionary
280
     1
  3
ACAD_XREC_ROUNDTRIP
360
79
  0
DICTIONARY
  5
76
330
3C
100
AcDbDictionary
280
     1
  3
ACAD_XREC_ROUNDTRIP
360
77
  0
DICTIONARY
  5
7A
330
3E
100
AcDbDictionary
280
     1
  3
ACAD_XREC_ROUNDTRIP
360
7B
  0
XRECORD
  5
79
102
{ACAD_REACTORS
330
78
102
}
330
78
100
AcDbXrecord
102
MATERIAL
148
0.0
149
0.0
149
0.0
 93
        0
 94
      127
282
     0
 72
     1
 77
     1
171
     1
175
     1
179
     1
273
     0
  0
XRECORD
  5
77
102
{ACAD_REACTORS
330
76
102
}
330
76
100
AcDbXrecord
102
MATERIAL
148
0.0
149
0.0
149
0.0
 93
        0
 94
      127
282
     0
 72
     1
 77
     1
171
     1
175
     1
179
     1
273
     0
  0
XRECORD
  5
7B
102
{ACAD_REACTORS
330
7A
102
}
330
7A
100
AcDbXrecord
102
MATERIAL
148
0.0
149
0.0
149
0.0
 93
        0
 94
      127
282
     0
 72
     1
 77
     1
171
     1
175
     1
179
     1
273
     0
  0
ENDSEC
  0
EOF
