solid OpenSCAD_Model
  facet normal -1 0 0
    outer loop
      vertex -15.75 15.75 -8.9
      vertex -15.75 8.6625 5.4
      vertex -15.75 15.75 8.9
    endloop
  endfacet
  facet normal -1 0 0
    outer loop
      vertex -15.75 15.75 -8.9
      vertex -15.75 -8.6625 5.4
      vertex -15.75 8.6625 5.4
    endloop
  endfacet
  facet normal -1 0 0
    outer loop
      vertex -15.75 -15.75 -8.9
      vertex -15.75 -8.6625 5.4
      vertex -15.75 15.75 -8.9
    endloop
  endfacet
  facet normal -1 0 0
    outer loop
      vertex -15.75 -15.75 8.9
      vertex -15.75 -8.6625 5.4
      vertex -15.75 -15.75 -8.9
    endloop
  endfacet
  facet normal -1 0 0
    outer loop
      vertex -15.75 -8.6625 5.4
      vertex -15.75 -15.75 8.9
      vertex -15.75 -8.6625 8.9
    endloop
  endfacet
  facet normal -1 -0 0
    outer loop
      vertex -15.75 15.75 8.9
      vertex -15.75 8.6625 5.4
      vertex -15.75 8.6625 8.9
    endloop
  endfacet
  facet normal 0 0 1
    outer loop
      vertex 12.75 -12.75 8.9
      vertex 15.75 -8.6625 8.9
      vertex 12.75 -8.6625 8.9
    endloop
  endfacet
  facet normal 0 0 1
    outer loop
      vertex 15.75 -8.6625 8.9
      vertex 12.75 -12.75 8.9
      vertex 15.75 -15.75 8.9
    endloop
  endfacet
  facet normal 0 0 1
    outer loop
      vertex 8.6625 -15.75 8.9
      vertex 12.75 -12.75 8.9
      vertex 8.6625 -12.75 8.9
    endloop
  endfacet
  facet normal 0 0 1
    outer loop
      vertex 12.75 -12.75 8.9
      vertex 8.6625 -15.75 8.9
      vertex 15.75 -15.75 8.9
    endloop
  endfacet
  facet normal 0 0 1
    outer loop
      vertex -12.75 -8.6625 8.9
      vertex -15.75 -8.6625 8.9
      vertex -12.75 -12.75 8.9
    endloop
  endfacet
  facet normal -0 0 1
    outer loop
      vertex -12.75 -12.75 8.9
      vertex -8.6625 -15.75 8.9
      vertex -8.6625 -12.75 8.9
    endloop
  endfacet
  facet normal 0 0 1
    outer loop
      vertex -12.75 -12.75 8.9
      vertex -15.75 -15.75 8.9
      vertex -8.6625 -15.75 8.9
    endloop
  endfacet
  facet normal 0 0 1
    outer loop
      vertex -15.75 -15.75 8.9
      vertex -12.75 -12.75 8.9
      vertex -15.75 -8.6625 8.9
    endloop
  endfacet
  facet normal 0 0 1
    outer loop
      vertex 15.75 15.75 8.9
      vertex 12.75 12.75 8.9
      vertex 15.75 8.6625 8.9
    endloop
  endfacet
  facet normal -0 0 1
    outer loop
      vertex 8.6625 15.75 8.9
      vertex 12.75 12.75 8.9
      vertex 15.75 15.75 8.9
    endloop
  endfacet
  facet normal 0 0 1
    outer loop
      vertex 12.75 12.75 8.9
      vertex 8.6625 15.75 8.9
      vertex 8.6625 12.75 8.9
    endloop
  endfacet
  facet normal 0 0 1
    outer loop
      vertex 15.75 8.6625 8.9
      vertex 12.75 12.75 8.9
      vertex 12.75 8.6625 8.9
    endloop
  endfacet
  facet normal 0 0 1
    outer loop
      vertex -8.6625 15.75 8.9
      vertex -12.75 12.75 8.9
      vertex -8.6625 12.75 8.9
    endloop
  endfacet
  facet normal -0 0 1
    outer loop
      vertex -15.75 15.75 8.9
      vertex -12.75 12.75 8.9
      vertex -8.6625 15.75 8.9
    endloop
  endfacet
  facet normal 0 0 1
    outer loop
      vertex -15.75 8.6625 8.9
      vertex -12.75 12.75 8.9
      vertex -15.75 15.75 8.9
    endloop
  endfacet
  facet normal 0 0 1
    outer loop
      vertex -12.75 12.75 8.9
      vertex -15.75 8.6625 8.9
      vertex -12.75 8.6625 8.9
    endloop
  endfacet
  facet normal 1 0 0
    outer loop
      vertex 15.75 -8.6625 8.9
      vertex 15.75 -15.75 8.9
      vertex 15.75 -8.6625 5.4
    endloop
  endfacet
  facet normal 1 0 0
    outer loop
      vertex 15.75 8.6625 5.4
      vertex 15.75 15.75 8.9
      vertex 15.75 8.6625 8.9
    endloop
  endfacet
  facet normal 1 0 0
    outer loop
      vertex 15.75 15.75 8.9
      vertex 15.75 8.6625 5.4
      vertex 15.75 15.75 -8.9
    endloop
  endfacet
  facet normal 1 -0 0
    outer loop
      vertex 15.75 -8.6625 5.4
      vertex 15.75 15.75 -8.9
      vertex 15.75 8.6625 5.4
    endloop
  endfacet
  facet normal 1 0 0
    outer loop
      vertex 15.75 -15.75 -8.9
      vertex 15.75 -8.6625 5.4
      vertex 15.75 -15.75 8.9
    endloop
  endfacet
  facet normal 1 0 0
    outer loop
      vertex 15.75 -8.6625 5.4
      vertex 15.75 -15.75 -8.9
      vertex 15.75 15.75 -8.9
    endloop
  endfacet
  facet normal 0 1 0
    outer loop
      vertex 15.75 15.75 8.9
      vertex 8.6625 15.75 5.4
      vertex 8.6625 15.75 8.9
    endloop
  endfacet
  facet normal 0 1 0
    outer loop
      vertex 8.6625 15.75 5.4
      vertex 15.75 15.75 -8.9
      vertex -8.6625 15.75 5.4
    endloop
  endfacet
  facet normal 0 1 -0
    outer loop
      vertex 15.75 15.75 -8.9
      vertex 8.6625 15.75 5.4
      vertex 15.75 15.75 8.9
    endloop
  endfacet
  facet normal 0 1 -0
    outer loop
      vertex -8.6625 15.75 5.4
      vertex -15.75 15.75 8.9
      vertex -8.6625 15.75 8.9
    endloop
  endfacet
  facet normal 0 1 0
    outer loop
      vertex -15.75 15.75 -8.9
      vertex -8.6625 15.75 5.4
      vertex 15.75 15.75 -8.9
    endloop
  endfacet
  facet normal 0 1 0
    outer loop
      vertex -8.6625 15.75 5.4
      vertex -15.75 15.75 -8.9
      vertex -15.75 15.75 8.9
    endloop
  endfacet
  facet normal 0 0 -1
    outer loop
      vertex 15.75 -15.75 -8.9
      vertex 12.15 -12.15 -8.9
      vertex 15.75 15.75 -8.9
    endloop
  endfacet
  facet normal 0 0 -1
    outer loop
      vertex 15.75 -15.75 -8.9
      vertex -12.15 -12.15 -8.9
      vertex 12.15 -12.15 -8.9
    endloop
  endfacet
  facet normal -0 0 -1
    outer loop
      vertex -12.15 -12.15 -8.9
      vertex -15.75 -15.75 -8.9
      vertex -12.15 12.15 -8.9
    endloop
  endfacet
  facet normal 0 0 -1
    outer loop
      vertex -15.75 -15.75 -8.9
      vertex -12.15 -12.15 -8.9
      vertex 15.75 -15.75 -8.9
    endloop
  endfacet
  facet normal 0 0 -1
    outer loop
      vertex 12.15 12.15 -8.9
      vertex 15.75 15.75 -8.9
      vertex 12.15 -12.15 -8.9
    endloop
  endfacet
  facet normal 0 0 -1
    outer loop
      vertex -12.15 12.15 -8.9
      vertex 15.75 15.75 -8.9
      vertex 12.15 12.15 -8.9
    endloop
  endfacet
  facet normal 0 0 -1
    outer loop
      vertex -12.15 12.15 -8.9
      vertex -15.75 15.75 -8.9
      vertex 15.75 15.75 -8.9
    endloop
  endfacet
  facet normal 0 0 -1
    outer loop
      vertex -15.75 15.75 -8.9
      vertex -12.15 12.15 -8.9
      vertex -15.75 -15.75 -8.9
    endloop
  endfacet
  facet normal 0 -1 0
    outer loop
      vertex -15.75 -15.75 8.9
      vertex -8.6625 -15.75 5.4
      vertex -8.6625 -15.75 8.9
    endloop
  endfacet
  facet normal 0 -1 -0
    outer loop
      vertex -8.6625 -15.75 5.4
      vertex -15.75 -15.75 -8.9
      vertex 8.6625 -15.75 5.4
    endloop
  endfacet
  facet normal 0 -1 0
    outer loop
      vertex -15.75 -15.75 -8.9
      vertex -8.6625 -15.75 5.4
      vertex -15.75 -15.75 8.9
    endloop
  endfacet
  facet normal 0 -1 0
    outer loop
      vertex 8.6625 -15.75 5.4
      vertex 15.75 -15.75 8.9
      vertex 8.6625 -15.75 8.9
    endloop
  endfacet
  facet normal 0 -1 0
    outer loop
      vertex 15.75 -15.75 -8.9
      vertex 8.6625 -15.75 5.4
      vertex -15.75 -15.75 -8.9
    endloop
  endfacet
  facet normal 0 -1 0
    outer loop
      vertex 8.6625 -15.75 5.4
      vertex 15.75 -15.75 -8.9
      vertex 15.75 -15.75 8.9
    endloop
  endfacet
  facet normal 1 0 0
    outer loop
      vertex -12.75 -8.6625 8.9
      vertex -12.75 -12.75 8.9
      vertex -12.75 -8.6625 -0.799996
    endloop
  endfacet
  facet normal 1 0 0
    outer loop
      vertex -12.75 8.6625 -0.799994
      vertex -12.75 12.75 8.9
      vertex -12.75 8.6625 8.9
    endloop
  endfacet
  facet normal 1 0 0
    outer loop
      vertex -12.75 12.75 8.9
      vertex -12.75 8.6625 -0.799994
      vertex -12.75 12.75 -7.9
    endloop
  endfacet
  facet normal 1 -0 0
    outer loop
      vertex -12.75 -8.6625 -0.799996
      vertex -12.75 12.75 -7.9
      vertex -12.75 8.6625 -0.799994
    endloop
  endfacet
  facet normal 1 0 0
    outer loop
      vertex -12.75 -8.6625 -0.799996
      vertex -12.75 -12.75 -7.9
      vertex -12.75 12.75 -7.9
    endloop
  endfacet
  facet normal 1 0 0
    outer loop
      vertex -12.75 -12.75 -7.9
      vertex -12.75 -8.6625 -0.799996
      vertex -12.75 -12.75 8.9
    endloop
  endfacet
  facet normal -1 0 0
    outer loop
      vertex 12.75 12.75 -7.9
      vertex 12.75 8.6625 -0.799996
      vertex 12.75 12.75 8.9
    endloop
  endfacet
  facet normal -1 0 0
    outer loop
      vertex 12.75 12.75 -7.9
      vertex 12.75 -8.6625 -0.799994
      vertex 12.75 8.6625 -0.799996
    endloop
  endfacet
  facet normal -1 0 0
    outer loop
      vertex 12.75 -12.75 -7.9
      vertex 12.75 -8.6625 -0.799994
      vertex 12.75 12.75 -7.9
    endloop
  endfacet
  facet normal -1 0 0
    outer loop
      vertex 12.75 -12.75 8.9
      vertex 12.75 -8.6625 -0.799994
      vertex 12.75 -12.75 -7.9
    endloop
  endfacet
  facet normal -1 0 0
    outer loop
      vertex 12.75 -8.6625 -0.799994
      vertex 12.75 -12.75 8.9
      vertex 12.75 -8.6625 8.9
    endloop
  endfacet
  facet normal -1 -0 0
    outer loop
      vertex 12.75 12.75 8.9
      vertex 12.75 8.6625 -0.799996
      vertex 12.75 8.6625 8.9
    endloop
  endfacet
  facet normal 0 0 1
    outer loop
      vertex 12.75 12.75 -7.9
      vertex 12.15 12.15 -7.9
      vertex 12.75 -12.75 -7.9
    endloop
  endfacet
  facet normal 0 0 1
    outer loop
      vertex 12.75 12.75 -7.9
      vertex -12.15 12.15 -7.9
      vertex 12.15 12.15 -7.9
    endloop
  endfacet
  facet normal 0 0 1
    outer loop
      vertex -12.15 12.15 -7.9
      vertex -12.75 12.75 -7.9
      vertex -12.15 -12.15 -7.9
    endloop
  endfacet
  facet normal -0 0 1
    outer loop
      vertex -12.75 12.75 -7.9
      vertex -12.15 12.15 -7.9
      vertex 12.75 12.75 -7.9
    endloop
  endfacet
  facet normal -0 0 1
    outer loop
      vertex 12.15 -12.15 -7.9
      vertex 12.75 -12.75 -7.9
      vertex 12.15 12.15 -7.9
    endloop
  endfacet
  facet normal -0 0 1
    outer loop
      vertex -12.15 -12.15 -7.9
      vertex 12.75 -12.75 -7.9
      vertex 12.15 -12.15 -7.9
    endloop
  endfacet
  facet normal 0 0 1
    outer loop
      vertex -12.15 -12.15 -7.9
      vertex -12.75 -12.75 -7.9
      vertex 12.75 -12.75 -7.9
    endloop
  endfacet
  facet normal 0 0 1
    outer loop
      vertex -12.75 -12.75 -7.9
      vertex -12.15 -12.15 -7.9
      vertex -12.75 12.75 -7.9
    endloop
  endfacet
  facet normal 0 1 0
    outer loop
      vertex 12.75 -12.75 8.9
      vertex 8.6625 -12.75 -0.799996
      vertex 8.6625 -12.75 8.9
    endloop
  endfacet
  facet normal 0 1 0
    outer loop
      vertex 8.6625 -12.75 -0.799996
      vertex 12.75 -12.75 -7.9
      vertex -8.6625 -12.75 -0.799996
    endloop
  endfacet
  facet normal 0 1 -0
    outer loop
      vertex 12.75 -12.75 -7.9
      vertex 8.6625 -12.75 -0.799996
      vertex 12.75 -12.75 8.9
    endloop
  endfacet
  facet normal 0 1 -0
    outer loop
      vertex -8.6625 -12.75 -0.799996
      vertex -12.75 -12.75 8.9
      vertex -8.6625 -12.75 8.9
    endloop
  endfacet
  facet normal 0 1 0
    outer loop
      vertex -8.6625 -12.75 -0.799996
      vertex -12.75 -12.75 -7.9
      vertex -12.75 -12.75 8.9
    endloop
  endfacet
  facet normal 0 1 0
    outer loop
      vertex -12.75 -12.75 -7.9
      vertex -8.6625 -12.75 -0.799996
      vertex 12.75 -12.75 -7.9
    endloop
  endfacet
  facet normal 0 -1 0
    outer loop
      vertex -12.75 12.75 8.9
      vertex -8.6625 12.75 -0.799996
      vertex -8.6625 12.75 8.9
    endloop
  endfacet
  facet normal -0 -1 0
    outer loop
      vertex -8.6625 12.75 -0.799996
      vertex -12.75 12.75 8.9
      vertex -12.75 12.75 -7.9
    endloop
  endfacet
  facet normal 0 -1 0
    outer loop
      vertex 8.6625 12.75 -0.799994
      vertex 12.75 12.75 8.9
      vertex 8.6625 12.75 8.9
    endloop
  endfacet
  facet normal 0 -1 0
    outer loop
      vertex -12.75 12.75 -7.9
      vertex 8.6625 12.75 -0.799994
      vertex -8.6625 12.75 -0.799996
    endloop
  endfacet
  facet normal 0 -1 0
    outer loop
      vertex 8.6625 12.75 -0.799994
      vertex 12.75 12.75 -7.9
      vertex 12.75 12.75 8.9
    endloop
  endfacet
  facet normal 0 -1 0
    outer loop
      vertex 12.75 12.75 -7.9
      vertex 8.6625 12.75 -0.799994
      vertex -12.75 12.75 -7.9
    endloop
  endfacet
  facet normal 1 -0 0
    outer loop
      vertex -12.15 -12.15 -7.9
      vertex -12.15 12.15 -8.9
      vertex -12.15 12.15 -7.9
    endloop
  endfacet
  facet normal 1 0 0
    outer loop
      vertex -12.15 12.15 -8.9
      vertex -12.15 -12.15 -7.9
      vertex -12.15 -12.15 -8.9
    endloop
  endfacet
  facet normal -1 0 0
    outer loop
      vertex 12.15 -12.15 -8.9
      vertex 12.15 12.15 -7.9
      vertex 12.15 12.15 -8.9
    endloop
  endfacet
  facet normal -1 -0 0
    outer loop
      vertex 12.15 12.15 -7.9
      vertex 12.15 -12.15 -8.9
      vertex 12.15 -12.15 -7.9
    endloop
  endfacet
  facet normal 0 1 -0
    outer loop
      vertex 12.15 -12.15 -8.9
      vertex -12.15 -12.15 -7.9
      vertex 12.15 -12.15 -7.9
    endloop
  endfacet
  facet normal 0 1 0
    outer loop
      vertex -12.15 -12.15 -7.9
      vertex 12.15 -12.15 -8.9
      vertex -12.15 -12.15 -8.9
    endloop
  endfacet
  facet normal 0 -1 0
    outer loop
      vertex -12.15 12.15 -8.9
      vertex 12.15 12.15 -7.9
      vertex -12.15 12.15 -7.9
    endloop
  endfacet
  facet normal 0 -1 -0
    outer loop
      vertex 12.15 12.15 -7.9
      vertex -12.15 12.15 -8.9
      vertex 12.15 12.15 -8.9
    endloop
  endfacet
  facet normal 1 -0 0
    outer loop
      vertex -8.6625 12.75 8.9
      vertex -8.6625 15.75 5.4
      vertex -8.6625 15.75 8.9
    endloop
  endfacet
  facet normal 1 0 0
    outer loop
      vertex -8.6625 15.75 5.4
      vertex -8.6625 12.75 8.9
      vertex -8.6625 12.75 -0.799996
    endloop
  endfacet
  facet normal -1 0 0
    outer loop
      vertex 8.6625 12.75 8.9
      vertex 8.6625 15.75 5.4
      vertex 8.6625 12.75 -0.799994
    endloop
  endfacet
  facet normal -1 0 0
    outer loop
      vertex 8.6625 15.75 5.4
      vertex 8.6625 12.75 8.9
      vertex 8.6625 15.75 8.9
    endloop
  endfacet
  facet normal -4.95503e-08 -0.900159 0.435561
    outer loop
      vertex -8.6625 15.75 5.4
      vertex 8.6625 12.75 -0.799994
      vertex 8.6625 15.75 5.4
    endloop
  endfacet
  facet normal -4.94504e-08 -0.900159 0.435561
    outer loop
      vertex 8.6625 12.75 -0.799994
      vertex -8.6625 15.75 5.4
      vertex -8.6625 12.75 -0.799996
    endloop
  endfacet
  facet normal 0 -1 0
    outer loop
      vertex -15.75 8.6625 8.9
      vertex -15.75 8.6625 5.4
      vertex -12.75 8.6625 8.9
    endloop
  endfacet
  facet normal 0 -1 -0
    outer loop
      vertex -12.75 8.6625 8.9
      vertex -15.75 8.6625 5.4
      vertex -12.75 8.6625 -0.799994
    endloop
  endfacet
  facet normal 0 1 0
    outer loop
      vertex -12.75 -8.6625 8.9
      vertex -15.75 -8.6625 5.4
      vertex -15.75 -8.6625 8.9
    endloop
  endfacet
  facet normal -0 1 0
    outer loop
      vertex -15.75 -8.6625 5.4
      vertex -12.75 -8.6625 8.9
      vertex -12.75 -8.6625 -0.799996
    endloop
  endfacet
  facet normal 0.900159 -4.95503e-08 0.435561
    outer loop
      vertex -15.75 -8.6625 5.4
      vertex -12.75 8.6625 -0.799994
      vertex -15.75 8.6625 5.4
    endloop
  endfacet
  facet normal 0.900159 -4.94504e-08 0.435561
    outer loop
      vertex -12.75 8.6625 -0.799994
      vertex -15.75 -8.6625 5.4
      vertex -12.75 -8.6625 -0.799996
    endloop
  endfacet
  facet normal 1 0 0
    outer loop
      vertex -8.6625 -15.75 5.4
      vertex -8.6625 -12.75 8.9
      vertex -8.6625 -15.75 8.9
    endloop
  endfacet
  facet normal 1 0 0
    outer loop
      vertex -8.6625 -12.75 8.9
      vertex -8.6625 -15.75 5.4
      vertex -8.6625 -12.75 -0.799996
    endloop
  endfacet
  facet normal -1 0 0
    outer loop
      vertex 8.6625 -15.75 5.4
      vertex 8.6625 -12.75 8.9
      vertex 8.6625 -12.75 -0.799996
    endloop
  endfacet
  facet normal -1 -0 0
    outer loop
      vertex 8.6625 -12.75 8.9
      vertex 8.6625 -15.75 5.4
      vertex 8.6625 -15.75 8.9
    endloop
  endfacet
  facet normal 0 0.900159 0.435561
    outer loop
      vertex 8.6625 -12.75 -0.799996
      vertex -8.6625 -15.75 5.4
      vertex 8.6625 -15.75 5.4
    endloop
  endfacet
  facet normal 0 0.900159 0.435561
    outer loop
      vertex -8.6625 -15.75 5.4
      vertex 8.6625 -12.75 -0.799996
      vertex -8.6625 -12.75 -0.799996
    endloop
  endfacet
  facet normal 0 -1 0
    outer loop
      vertex 12.75 8.6625 8.9
      vertex 15.75 8.6625 5.4
      vertex 15.75 8.6625 8.9
    endloop
  endfacet
  facet normal -0 -1 0
    outer loop
      vertex 15.75 8.6625 5.4
      vertex 12.75 8.6625 8.9
      vertex 12.75 8.6625 -0.799996
    endloop
  endfacet
  facet normal 0 1 0
    outer loop
      vertex 15.75 -8.6625 8.9
      vertex 15.75 -8.6625 5.4
      vertex 12.75 -8.6625 8.9
    endloop
  endfacet
  facet normal 0 1 0
    outer loop
      vertex 12.75 -8.6625 8.9
      vertex 15.75 -8.6625 5.4
      vertex 12.75 -8.6625 -0.799994
    endloop
  endfacet
  facet normal -0.900159 4.94504e-08 0.435561
    outer loop
      vertex 12.75 -8.6625 -0.799994
      vertex 15.75 8.6625 5.4
      vertex 12.75 8.6625 -0.799996
    endloop
  endfacet
  facet normal -0.900159 4.95503e-08 0.435561
    outer loop
      vertex 15.75 8.6625 5.4
      vertex 12.75 -8.6625 -0.799994
      vertex 15.75 -8.6625 5.4
    endloop
  endfacet
endsolid OpenSCAD_Model
