solid OpenSCAD_Model
  facet normal 0 0 -1
    outer loop
      vertex 9.08749 14.25 0
      vertex -9.08749 14.25 0
      vertex 9.08749 17.25 0
    endloop
  endfacet
  facet normal 0 0 -1
    outer loop
      vertex 9.09065 14.1999 0
      vertex -9.08749 14.25 0
      vertex 9.08749 14.25 0
    endloop
  endfacet
  facet normal 0 0 -1
    outer loop
      vertex -9.09065 14.1999 0
      vertex 9.09065 14.1999 0
      vertex 9.10007 14.1505 0
    endloop
  endfacet
  facet normal 0 0 -1
    outer loop
      vertex -9.10007 14.1505 0
      vertex 9.10007 14.1505 0
      vertex 9.11559 14.1028 0
    endloop
  endfacet
  facet normal 0 0 -1
    outer loop
      vertex -9.11559 14.1028 0
      vertex 9.11559 14.1028 0
      vertex 9.13698 14.0573 0
    endloop
  endfacet
  facet normal 0 0 -1
    outer loop
      vertex -9.13698 14.0573 0
      vertex 9.13698 14.0573 0
      vertex 9.16389 14.0149 0
    endloop
  endfacet
  facet normal 0 0 -1
    outer loop
      vertex -9.16389 14.0149 0
      vertex 9.16389 14.0149 0
      vertex 9.17622 14 0
    endloop
  endfacet
  facet normal 0 0 -1
    outer loop
      vertex 9.09065 14.1999 0
      vertex -9.09065 14.1999 0
      vertex -9.08749 14.25 0
    endloop
  endfacet
  facet normal 0 0 -1
    outer loop
      vertex 9.10007 14.1505 0
      vertex -9.10007 14.1505 0
      vertex -9.09065 14.1999 0
    endloop
  endfacet
  facet normal 0 0 -1
    outer loop
      vertex 9.11559 14.1028 0
      vertex -9.11559 14.1028 0
      vertex -9.10007 14.1505 0
    endloop
  endfacet
  facet normal 0 0 -1
    outer loop
      vertex 9.13698 14.0573 0
      vertex -9.13698 14.0573 0
      vertex -9.11559 14.1028 0
    endloop
  endfacet
  facet normal 0 0 -1
    outer loop
      vertex 9.16389 14.0149 0
      vertex -9.16389 14.0149 0
      vertex -9.13698 14.0573 0
    endloop
  endfacet
  facet normal 0 -0 -1
    outer loop
      vertex -9.16389 14.0149 0
      vertex 9.17622 14 0
      vertex -9.17622 14 0
    endloop
  endfacet
  facet normal -0 0 -1
    outer loop
      vertex 9.08749 17.25 0
      vertex -9.08749 14.25 0
      vertex -9.08749 17.25 0
    endloop
  endfacet
  facet normal 0 0 -1
    outer loop
      vertex 14.2249 -9.08829 0
      vertex 17.25 9.08829 0
      vertex 17.25 -9.08829 0
    endloop
  endfacet
  facet normal 0 0 -1
    outer loop
      vertex 14.2249 -9.08829 0
      vertex 14.2249 9.08829 0
      vertex 17.25 9.08829 0
    endloop
  endfacet
  facet normal 0 0 -1
    outer loop
      vertex 14.175 -9.09457 0
      vertex 14.2249 9.08829 0
      vertex 14.2249 -9.08829 0
    endloop
  endfacet
  facet normal 0 0 -1
    outer loop
      vertex 14.175 -9.09457 0
      vertex 14.175 9.09457 0
      vertex 14.2249 9.08829 0
    endloop
  endfacet
  facet normal 0 0 -1
    outer loop
      vertex 14.1264 -9.10707 0
      vertex 14.175 9.09457 0
      vertex 14.175 -9.09457 0
    endloop
  endfacet
  facet normal 0 0 -1
    outer loop
      vertex 14.1264 -9.10707 0
      vertex 14.1264 9.10707 0
      vertex 14.175 9.09457 0
    endloop
  endfacet
  facet normal 0 0 -1
    outer loop
      vertex 14.0797 -9.12556 0
      vertex 14.1264 9.10707 0
      vertex 14.1264 -9.10707 0
    endloop
  endfacet
  facet normal 0 0 -1
    outer loop
      vertex 14.0797 -9.12556 0
      vertex 14.0797 9.12556 0
      vertex 14.1264 9.10707 0
    endloop
  endfacet
  facet normal 0 0 -1
    outer loop
      vertex 14.0357 -9.14977 0
      vertex 14.0797 9.12556 0
      vertex 14.0797 -9.12556 0
    endloop
  endfacet
  facet normal 0 0 -1
    outer loop
      vertex 14.0357 -9.14977 0
      vertex 14.0357 9.14977 0
      vertex 14.0797 9.12556 0
    endloop
  endfacet
  facet normal 0 0 -1
    outer loop
      vertex 14 -9.17569 0
      vertex 14.0357 9.14977 0
      vertex 14.0357 -9.14977 0
    endloop
  endfacet
  facet normal -0 0 -1
    outer loop
      vertex 14.0357 9.14977 0
      vertex 14 -9.17569 0
      vertex 14 9.17569 0
    endloop
  endfacet
  facet normal 0 0 -1
    outer loop
      vertex -14.0357 -9.14977 0
      vertex -14 9.17569 0
      vertex -14 -9.17569 0
    endloop
  endfacet
  facet normal 0 0 -1
    outer loop
      vertex -14.0357 -9.14977 0
      vertex -14.0357 9.14977 0
      vertex -14 9.17569 0
    endloop
  endfacet
  facet normal 0 0 -1
    outer loop
      vertex -14.0797 -9.12556 0
      vertex -14.0357 9.14977 0
      vertex -14.0357 -9.14977 0
    endloop
  endfacet
  facet normal 0 0 -1
    outer loop
      vertex -14.0797 -9.12556 0
      vertex -14.0797 9.12556 0
      vertex -14.0357 9.14977 0
    endloop
  endfacet
  facet normal 0 0 -1
    outer loop
      vertex -14.1264 -9.10707 0
      vertex -14.0797 9.12556 0
      vertex -14.0797 -9.12556 0
    endloop
  endfacet
  facet normal 0 0 -1
    outer loop
      vertex -14.1264 -9.10707 0
      vertex -14.1264 9.10707 0
      vertex -14.0797 9.12556 0
    endloop
  endfacet
  facet normal 0 0 -1
    outer loop
      vertex -14.175 -9.09457 0
      vertex -14.1264 9.10707 0
      vertex -14.1264 -9.10707 0
    endloop
  endfacet
  facet normal 0 0 -1
    outer loop
      vertex -14.175 -9.09457 0
      vertex -14.175 9.09457 0
      vertex -14.1264 9.10707 0
    endloop
  endfacet
  facet normal 0 0 -1
    outer loop
      vertex -14.2249 -9.08829 0
      vertex -14.175 9.09457 0
      vertex -14.175 -9.09457 0
    endloop
  endfacet
  facet normal 0 0 -1
    outer loop
      vertex -14.2249 -9.08829 0
      vertex -14.2249 9.08829 0
      vertex -14.175 9.09457 0
    endloop
  endfacet
  facet normal 0 0 -1
    outer loop
      vertex -17.25 -9.08829 0
      vertex -14.2249 9.08829 0
      vertex -14.2249 -9.08829 0
    endloop
  endfacet
  facet normal -0 0 -1
    outer loop
      vertex -14.2249 9.08829 0
      vertex -17.25 -9.08829 0
      vertex -17.25 9.08829 0
    endloop
  endfacet
  facet normal 0 0 -1
    outer loop
      vertex 9.08749 -17.25 0
      vertex -9.08749 -17.25 0
      vertex 9.08749 -14.25 0
    endloop
  endfacet
  facet normal 0 0 -1
    outer loop
      vertex -9.08749 -14.25 0
      vertex 9.08749 -14.25 0
      vertex -9.08749 -17.25 0
    endloop
  endfacet
  facet normal 0 0 -1
    outer loop
      vertex 9.08749 -14.25 0
      vertex -9.08749 -14.25 0
      vertex 9.09065 -14.1999 0
    endloop
  endfacet
  facet normal 0 0 -1
    outer loop
      vertex -9.09065 -14.1999 0
      vertex 9.09065 -14.1999 0
      vertex -9.08749 -14.25 0
    endloop
  endfacet
  facet normal 0 0 -1
    outer loop
      vertex 9.09065 -14.1999 0
      vertex -9.09065 -14.1999 0
      vertex 9.10007 -14.1505 0
    endloop
  endfacet
  facet normal 0 0 -1
    outer loop
      vertex -9.10007 -14.1505 0
      vertex 9.10007 -14.1505 0
      vertex -9.09065 -14.1999 0
    endloop
  endfacet
  facet normal 0 0 -1
    outer loop
      vertex 9.10007 -14.1505 0
      vertex -9.10007 -14.1505 0
      vertex 9.11559 -14.1028 0
    endloop
  endfacet
  facet normal 0 0 -1
    outer loop
      vertex -9.11559 -14.1028 0
      vertex 9.11559 -14.1028 0
      vertex -9.10007 -14.1505 0
    endloop
  endfacet
  facet normal 0 0 -1
    outer loop
      vertex 9.11559 -14.1028 0
      vertex -9.11559 -14.1028 0
      vertex 9.13698 -14.0573 0
    endloop
  endfacet
  facet normal 0 0 -1
    outer loop
      vertex -9.13698 -14.0573 0
      vertex 9.13698 -14.0573 0
      vertex -9.11559 -14.1028 0
    endloop
  endfacet
  facet normal 0 0 -1
    outer loop
      vertex 9.13698 -14.0573 0
      vertex -9.13698 -14.0573 0
      vertex 9.16389 -14.0149 0
    endloop
  endfacet
  facet normal 0 0 -1
    outer loop
      vertex -9.16389 -14.0149 0
      vertex 9.16389 -14.0149 0
      vertex -9.13698 -14.0573 0
    endloop
  endfacet
  facet normal 0 0 -1
    outer loop
      vertex 9.16389 -14.0149 0
      vertex -9.16389 -14.0149 0
      vertex 9.17622 -14 0
    endloop
  endfacet
  facet normal -0 0 -1
    outer loop
      vertex 9.17622 -14 0
      vertex -9.16389 -14.0149 0
      vertex -9.17622 -14 0
    endloop
  endfacet
  facet normal 0 0 1
    outer loop
      vertex 9.08749 17.25 5
      vertex -9.08749 17.25 5
      vertex 9.08749 14.25 5
    endloop
  endfacet
  facet normal -0 0 1
    outer loop
      vertex 10 10 5
      vertex 13.85 9.48749 5
      vertex 13.85 13.8508 5
    endloop
  endfacet
  facet normal 0 0 1
    outer loop
      vertex 13.85 9.48749 5
      vertex 10 10 5
      vertex 13.85 -9.48749 5
    endloop
  endfacet
  facet normal 0 0 1
    outer loop
      vertex 10 -10 5
      vertex 13.85 -9.48749 5
      vertex 10 10 5
    endloop
  endfacet
  facet normal -0 0 1
    outer loop
      vertex 9.46237 13.8508 5
      vertex 10 10 5
      vertex 13.85 13.8508 5
    endloop
  endfacet
  facet normal 0 0 1
    outer loop
      vertex 9.41254 13.8571 5
      vertex 10 10 5
      vertex 9.46237 13.8508 5
    endloop
  endfacet
  facet normal 0 0 1
    outer loop
      vertex 9.36389 13.8696 5
      vertex 10 10 5
      vertex 9.41254 13.8571 5
    endloop
  endfacet
  facet normal 0 0 1
    outer loop
      vertex 9.31718 13.8881 5
      vertex 10 10 5
      vertex 9.36389 13.8696 5
    endloop
  endfacet
  facet normal 0 0 1
    outer loop
      vertex 9.27316 13.9123 5
      vertex 10 10 5
      vertex 9.31718 13.8881 5
    endloop
  endfacet
  facet normal 0 0 1
    outer loop
      vertex 9.23253 13.9418 5
      vertex 10 10 5
      vertex 9.27316 13.9123 5
    endloop
  endfacet
  facet normal 0 0 1
    outer loop
      vertex 9.19591 13.9762 5
      vertex 10 10 5
      vertex 9.23253 13.9418 5
    endloop
  endfacet
  facet normal 0 0 1
    outer loop
      vertex 9.16389 14.0149 5
      vertex 10 10 5
      vertex 9.19591 13.9762 5
    endloop
  endfacet
  facet normal 0 0 1
    outer loop
      vertex 9.13698 14.0573 5
      vertex 10 10 5
      vertex 9.16389 14.0149 5
    endloop
  endfacet
  facet normal 0 0 1
    outer loop
      vertex 9.11559 14.1028 5
      vertex 10 10 5
      vertex 9.13698 14.0573 5
    endloop
  endfacet
  facet normal 0 0 1
    outer loop
      vertex -9.11559 14.1028 5
      vertex 9.11559 14.1028 5
      vertex 9.10007 14.1505 5
    endloop
  endfacet
  facet normal 0 0 1
    outer loop
      vertex -9.08749 14.25 5
      vertex 9.08749 14.25 5
      vertex -9.08749 17.25 5
    endloop
  endfacet
  facet normal 0 0 1
    outer loop
      vertex 9.08749 14.25 5
      vertex -9.08749 14.25 5
      vertex 9.09065 14.1999 5
    endloop
  endfacet
  facet normal 0 0 1
    outer loop
      vertex -9.09065 14.1999 5
      vertex 9.09065 14.1999 5
      vertex -9.08749 14.25 5
    endloop
  endfacet
  facet normal 0 0 1
    outer loop
      vertex 9.09065 14.1999 5
      vertex -9.09065 14.1999 5
      vertex 9.10007 14.1505 5
    endloop
  endfacet
  facet normal 0 0 1
    outer loop
      vertex -9.10007 14.1505 5
      vertex 9.10007 14.1505 5
      vertex -9.09065 14.1999 5
    endloop
  endfacet
  facet normal 0 0 1
    outer loop
      vertex -9.11559 14.1028 5
      vertex 9.10007 14.1505 5
      vertex -9.10007 14.1505 5
    endloop
  endfacet
  facet normal 0 0 1
    outer loop
      vertex 9.11559 14.1028 5
      vertex -9.11559 14.1028 5
      vertex 10 10 5
    endloop
  endfacet
  facet normal 0 0 1
    outer loop
      vertex -10 10 5
      vertex -9.11559 14.1028 5
      vertex -9.13698 14.0573 5
    endloop
  endfacet
  facet normal 0 0 1
    outer loop
      vertex -10 10 5
      vertex -9.13698 14.0573 5
      vertex -9.16389 14.0149 5
    endloop
  endfacet
  facet normal 0 0 1
    outer loop
      vertex -10 10 5
      vertex -9.16389 14.0149 5
      vertex -9.19591 13.9762 5
    endloop
  endfacet
  facet normal 0 0 1
    outer loop
      vertex -10 10 5
      vertex -9.19591 13.9762 5
      vertex -9.23253 13.9418 5
    endloop
  endfacet
  facet normal 0 0 1
    outer loop
      vertex -10 10 5
      vertex -9.23253 13.9418 5
      vertex -9.27316 13.9123 5
    endloop
  endfacet
  facet normal 0 0 1
    outer loop
      vertex -10 10 5
      vertex -9.27316 13.9123 5
      vertex -9.31718 13.8881 5
    endloop
  endfacet
  facet normal 0 0 1
    outer loop
      vertex -10 10 5
      vertex -9.31718 13.8881 5
      vertex -9.36389 13.8696 5
    endloop
  endfacet
  facet normal 0 0 1
    outer loop
      vertex -10 10 5
      vertex -9.36389 13.8696 5
      vertex -9.41254 13.8571 5
    endloop
  endfacet
  facet normal 0 0 1
    outer loop
      vertex -10 10 5
      vertex -9.41254 13.8571 5
      vertex -9.46237 13.8508 5
    endloop
  endfacet
  facet normal 0 0 1
    outer loop
      vertex -9.11559 14.1028 5
      vertex -10 10 5
      vertex 10 10 5
    endloop
  endfacet
  facet normal 0 0 1
    outer loop
      vertex -13.85 9.48749 5
      vertex -10 10 5
      vertex -13.85 13.8508 5
    endloop
  endfacet
  facet normal -0 0 1
    outer loop
      vertex -13.85 13.8508 5
      vertex -10 10 5
      vertex -9.46237 13.8508 5
    endloop
  endfacet
  facet normal -0 0 1
    outer loop
      vertex 14.2249 9.08829 5
      vertex 17.25 -9.08829 5
      vertex 17.25 9.08829 5
    endloop
  endfacet
  facet normal 0 0 1
    outer loop
      vertex 14.2249 9.08829 5
      vertex 14.2249 -9.08829 5
      vertex 17.25 -9.08829 5
    endloop
  endfacet
  facet normal 0 0 1
    outer loop
      vertex 14.175 9.09457 5
      vertex 14.2249 -9.08829 5
      vertex 14.2249 9.08829 5
    endloop
  endfacet
  facet normal 0 0 1
    outer loop
      vertex 14.175 9.09457 5
      vertex 14.175 -9.09457 5
      vertex 14.2249 -9.08829 5
    endloop
  endfacet
  facet normal 0 0 1
    outer loop
      vertex 14.1264 9.10707 5
      vertex 14.175 -9.09457 5
      vertex 14.175 9.09457 5
    endloop
  endfacet
  facet normal 0 0 1
    outer loop
      vertex 14.1264 9.10707 5
      vertex 14.1264 -9.10707 5
      vertex 14.175 -9.09457 5
    endloop
  endfacet
  facet normal 0 0 1
    outer loop
      vertex 14.0797 9.12556 5
      vertex 14.1264 -9.10707 5
      vertex 14.1264 9.10707 5
    endloop
  endfacet
  facet normal 0 0 1
    outer loop
      vertex 14.0797 9.12556 5
      vertex 14.0797 -9.12556 5
      vertex 14.1264 -9.10707 5
    endloop
  endfacet
  facet normal 0 0 1
    outer loop
      vertex 14.0357 9.14977 5
      vertex 14.0797 -9.12556 5
      vertex 14.0797 9.12556 5
    endloop
  endfacet
  facet normal 0 0 1
    outer loop
      vertex 14.0357 9.14977 5
      vertex 14.0357 -9.14977 5
      vertex 14.0797 -9.12556 5
    endloop
  endfacet
  facet normal 0 0 1
    outer loop
      vertex 13.995 9.17929 5
      vertex 14.0357 -9.14977 5
      vertex 14.0357 9.14977 5
    endloop
  endfacet
  facet normal 0 0 1
    outer loop
      vertex 13.995 9.17929 5
      vertex 13.995 -9.17929 5
      vertex 14.0357 -9.14977 5
    endloop
  endfacet
  facet normal 0 0 1
    outer loop
      vertex 13.9584 9.21368 5
      vertex 13.995 -9.17929 5
      vertex 13.995 9.17929 5
    endloop
  endfacet
  facet normal 0 0 1
    outer loop
      vertex 13.9584 9.21368 5
      vertex 13.9584 -9.21368 5
      vertex 13.995 -9.17929 5
    endloop
  endfacet
  facet normal 0 0 1
    outer loop
      vertex 13.9264 9.25238 5
      vertex 13.9584 -9.21368 5
      vertex 13.9584 9.21368 5
    endloop
  endfacet
  facet normal 0 0 1
    outer loop
      vertex 13.9264 9.25238 5
      vertex 13.9264 -9.25238 5
      vertex 13.9584 -9.21368 5
    endloop
  endfacet
  facet normal 0 0 1
    outer loop
      vertex 13.8995 9.2948 5
      vertex 13.9264 -9.25238 5
      vertex 13.9264 9.25238 5
    endloop
  endfacet
  facet normal 0 0 1
    outer loop
      vertex 13.8995 9.2948 5
      vertex 13.8995 -9.2948 5
      vertex 13.9264 -9.25238 5
    endloop
  endfacet
  facet normal 0 0 1
    outer loop
      vertex 13.8781 9.34024 5
      vertex 13.8995 -9.2948 5
      vertex 13.8995 9.2948 5
    endloop
  endfacet
  facet normal 0 0 1
    outer loop
      vertex 13.8781 9.34024 5
      vertex 13.8781 -9.34024 5
      vertex 13.8995 -9.2948 5
    endloop
  endfacet
  facet normal 0 0 1
    outer loop
      vertex 13.8626 9.38802 5
      vertex 13.8781 -9.34024 5
      vertex 13.8781 9.34024 5
    endloop
  endfacet
  facet normal 0 0 1
    outer loop
      vertex 13.8626 9.38802 5
      vertex 13.8626 -9.38802 5
      vertex 13.8781 -9.34024 5
    endloop
  endfacet
  facet normal 0 0 1
    outer loop
      vertex 13.8532 9.43736 5
      vertex 13.8626 -9.38802 5
      vertex 13.8626 9.38802 5
    endloop
  endfacet
  facet normal 0 0 1
    outer loop
      vertex 13.8532 9.43736 5
      vertex 13.8532 -9.43736 5
      vertex 13.8626 -9.38802 5
    endloop
  endfacet
  facet normal 0 0 1
    outer loop
      vertex 13.85 9.48749 5
      vertex 13.8532 -9.43736 5
      vertex 13.8532 9.43736 5
    endloop
  endfacet
  facet normal 0 0 1
    outer loop
      vertex 13.8532 -9.43736 5
      vertex 13.85 9.48749 5
      vertex 13.85 -9.48749 5
    endloop
  endfacet
  facet normal 0 0 1
    outer loop
      vertex 13.85 -9.48749 5
      vertex 10 -10 5
      vertex 13.85 -13.8508 5
    endloop
  endfacet
  facet normal 0 0 1
    outer loop
      vertex 10 -10 5
      vertex 9.46237 -13.8508 5
      vertex 13.85 -13.8508 5
    endloop
  endfacet
  facet normal 0 0 1
    outer loop
      vertex 10 -10 5
      vertex 9.41254 -13.8571 5
      vertex 9.46237 -13.8508 5
    endloop
  endfacet
  facet normal 0 0 1
    outer loop
      vertex 10 -10 5
      vertex 9.36389 -13.8696 5
      vertex 9.41254 -13.8571 5
    endloop
  endfacet
  facet normal 0 0 1
    outer loop
      vertex 10 -10 5
      vertex 9.31718 -13.8881 5
      vertex 9.36389 -13.8696 5
    endloop
  endfacet
  facet normal 0 0 1
    outer loop
      vertex 10 -10 5
      vertex 9.27316 -13.9123 5
      vertex 9.31718 -13.8881 5
    endloop
  endfacet
  facet normal 0 0 1
    outer loop
      vertex 10 -10 5
      vertex 9.23253 -13.9418 5
      vertex 9.27316 -13.9123 5
    endloop
  endfacet
  facet normal 0 0 1
    outer loop
      vertex 10 -10 5
      vertex 9.19591 -13.9762 5
      vertex 9.23253 -13.9418 5
    endloop
  endfacet
  facet normal 0 0 1
    outer loop
      vertex 10 -10 5
      vertex 9.16389 -14.0149 5
      vertex 9.19591 -13.9762 5
    endloop
  endfacet
  facet normal 0 0 1
    outer loop
      vertex 10 -10 5
      vertex 9.13698 -14.0573 5
      vertex 9.16389 -14.0149 5
    endloop
  endfacet
  facet normal 0 0 1
    outer loop
      vertex 10 -10 5
      vertex 9.11559 -14.1028 5
      vertex 9.13698 -14.0573 5
    endloop
  endfacet
  facet normal 0 0 1
    outer loop
      vertex -9.11559 -14.1028 5
      vertex 9.11559 -14.1028 5
      vertex 10 -10 5
    endloop
  endfacet
  facet normal 0 0 1
    outer loop
      vertex 9.08749 -14.25 5
      vertex -9.08749 -14.25 5
      vertex 9.08749 -17.25 5
    endloop
  endfacet
  facet normal 0 0 1
    outer loop
      vertex 9.09065 -14.1999 5
      vertex -9.08749 -14.25 5
      vertex 9.08749 -14.25 5
    endloop
  endfacet
  facet normal 0 0 1
    outer loop
      vertex -9.09065 -14.1999 5
      vertex 9.09065 -14.1999 5
      vertex 9.10007 -14.1505 5
    endloop
  endfacet
  facet normal 0 0 1
    outer loop
      vertex 9.11559 -14.1028 5
      vertex -9.11559 -14.1028 5
      vertex 9.10007 -14.1505 5
    endloop
  endfacet
  facet normal 0 0 1
    outer loop
      vertex 9.09065 -14.1999 5
      vertex -9.09065 -14.1999 5
      vertex -9.08749 -14.25 5
    endloop
  endfacet
  facet normal 0 0 1
    outer loop
      vertex 9.10007 -14.1505 5
      vertex -9.10007 -14.1505 5
      vertex -9.09065 -14.1999 5
    endloop
  endfacet
  facet normal 0 0 1
    outer loop
      vertex 9.10007 -14.1505 5
      vertex -9.11559 -14.1028 5
      vertex -9.10007 -14.1505 5
    endloop
  endfacet
  facet normal -0 0 1
    outer loop
      vertex -10 -10 5
      vertex -9.11559 -14.1028 5
      vertex 10 -10 5
    endloop
  endfacet
  facet normal 0 0 1
    outer loop
      vertex -9.11559 -14.1028 5
      vertex -10 -10 5
      vertex -9.13698 -14.0573 5
    endloop
  endfacet
  facet normal 0 0 1
    outer loop
      vertex -9.13698 -14.0573 5
      vertex -10 -10 5
      vertex -9.16389 -14.0149 5
    endloop
  endfacet
  facet normal 0 0 1
    outer loop
      vertex -9.16389 -14.0149 5
      vertex -10 -10 5
      vertex -9.19591 -13.9762 5
    endloop
  endfacet
  facet normal 0 0 1
    outer loop
      vertex -9.19591 -13.9762 5
      vertex -10 -10 5
      vertex -9.23253 -13.9418 5
    endloop
  endfacet
  facet normal 0 0 1
    outer loop
      vertex -9.23253 -13.9418 5
      vertex -10 -10 5
      vertex -9.27316 -13.9123 5
    endloop
  endfacet
  facet normal 0 0 1
    outer loop
      vertex -9.27316 -13.9123 5
      vertex -10 -10 5
      vertex -9.31718 -13.8881 5
    endloop
  endfacet
  facet normal 0 0 1
    outer loop
      vertex -9.31718 -13.8881 5
      vertex -10 -10 5
      vertex -9.36389 -13.8696 5
    endloop
  endfacet
  facet normal 0 0 1
    outer loop
      vertex -9.36389 -13.8696 5
      vertex -10 -10 5
      vertex -9.41254 -13.8571 5
    endloop
  endfacet
  facet normal 0 0 1
    outer loop
      vertex -9.41254 -13.8571 5
      vertex -10 -10 5
      vertex -9.46237 -13.8508 5
    endloop
  endfacet
  facet normal 0 0 1
    outer loop
      vertex -13.8532 9.43736 5
      vertex -10 10 5
      vertex -13.85 9.48749 5
    endloop
  endfacet
  facet normal 0 0 1
    outer loop
      vertex -13.8626 9.38802 5
      vertex -10 10 5
      vertex -13.8532 9.43736 5
    endloop
  endfacet
  facet normal 0 0 1
    outer loop
      vertex -13.8781 9.34024 5
      vertex -10 10 5
      vertex -13.8626 9.38802 5
    endloop
  endfacet
  facet normal 0 0 1
    outer loop
      vertex -10 -10 5
      vertex -13.85 -13.8508 5
      vertex -9.46237 -13.8508 5
    endloop
  endfacet
  facet normal 0 0 1
    outer loop
      vertex -13.8995 9.2948 5
      vertex -10 10 5
      vertex -13.8781 9.34024 5
    endloop
  endfacet
  facet normal 0 0 1
    outer loop
      vertex -13.85 -13.8508 5
      vertex -10 -10 5
      vertex -13.85 -9.48749 5
    endloop
  endfacet
  facet normal 0 0 1
    outer loop
      vertex -13.9264 9.25238 5
      vertex -10 10 5
      vertex -13.8995 9.2948 5
    endloop
  endfacet
  facet normal -0 -0 1
    outer loop
      vertex -13.85 -9.48749 5
      vertex -10 -10 5
      vertex -13.8532 -9.43736 5
    endloop
  endfacet
  facet normal 0 0 1
    outer loop
      vertex -13.9584 9.21368 5
      vertex -10 10 5
      vertex -13.9264 9.25238 5
    endloop
  endfacet
  facet normal -0 -0 1
    outer loop
      vertex -13.8532 -9.43736 5
      vertex -10 -10 5
      vertex -13.8626 -9.38802 5
    endloop
  endfacet
  facet normal 0 0 1
    outer loop
      vertex -13.995 9.17929 5
      vertex -10 10 5
      vertex -13.9584 9.21368 5
    endloop
  endfacet
  facet normal -0 -0 1
    outer loop
      vertex -13.8626 -9.38802 5
      vertex -10 -10 5
      vertex -13.8781 -9.34024 5
    endloop
  endfacet
  facet normal -0 -0 1
    outer loop
      vertex -13.8995 -9.2948 5
      vertex -10 -10 5
      vertex -13.9264 -9.25238 5
    endloop
  endfacet
  facet normal -0 -0 1
    outer loop
      vertex -13.8781 -9.34024 5
      vertex -10 -10 5
      vertex -13.8995 -9.2948 5
    endloop
  endfacet
  facet normal 0 0 1
    outer loop
      vertex -14.0357 9.14977 5
      vertex -10 10 5
      vertex -13.995 9.17929 5
    endloop
  endfacet
  facet normal 0 0 1
    outer loop
      vertex -10 -10 5
      vertex -13.9584 -9.21368 5
      vertex -13.9264 -9.25238 5
    endloop
  endfacet
  facet normal 0 0 1
    outer loop
      vertex -14.0797 9.12556 5
      vertex -10 10 5
      vertex -14.0357 9.14977 5
    endloop
  endfacet
  facet normal 0 0 1
    outer loop
      vertex -10 -10 5
      vertex -13.995 -9.17929 5
      vertex -13.9584 -9.21368 5
    endloop
  endfacet
  facet normal 0 0 1
    outer loop
      vertex -10 10 5
      vertex -14.0797 9.12556 5
      vertex -10 -10 5
    endloop
  endfacet
  facet normal 0 0 1
    outer loop
      vertex -10 -10 5
      vertex -14.0357 -9.14977 5
      vertex -13.995 -9.17929 5
    endloop
  endfacet
  facet normal -0 0 1
    outer loop
      vertex -14.0797 -9.12556 5
      vertex -10 -10 5
      vertex -14.0797 9.12556 5
    endloop
  endfacet
  facet normal 0 0 1
    outer loop
      vertex -10 -10 5
      vertex -14.0797 -9.12556 5
      vertex -14.0357 -9.14977 5
    endloop
  endfacet
  facet normal -0 0 1
    outer loop
      vertex -14.1264 9.10707 5
      vertex -14.0797 -9.12556 5
      vertex -14.0797 9.12556 5
    endloop
  endfacet
  facet normal 0 0 1
    outer loop
      vertex -14.1264 9.10707 5
      vertex -14.1264 -9.10707 5
      vertex -14.0797 -9.12556 5
    endloop
  endfacet
  facet normal -0 0 1
    outer loop
      vertex -14.175 9.09457 5
      vertex -14.1264 -9.10707 5
      vertex -14.1264 9.10707 5
    endloop
  endfacet
  facet normal 0 0 1
    outer loop
      vertex -14.175 9.09457 5
      vertex -14.175 -9.09457 5
      vertex -14.1264 -9.10707 5
    endloop
  endfacet
  facet normal -0 0 1
    outer loop
      vertex -14.2249 9.08829 5
      vertex -14.175 -9.09457 5
      vertex -14.175 9.09457 5
    endloop
  endfacet
  facet normal 0 0 1
    outer loop
      vertex -14.2249 9.08829 5
      vertex -14.2249 -9.08829 5
      vertex -14.175 -9.09457 5
    endloop
  endfacet
  facet normal -0 0 1
    outer loop
      vertex -17.25 9.08829 5
      vertex -14.2249 -9.08829 5
      vertex -14.2249 9.08829 5
    endloop
  endfacet
  facet normal 0 0 1
    outer loop
      vertex -14.2249 -9.08829 5
      vertex -17.25 9.08829 5
      vertex -17.25 -9.08829 5
    endloop
  endfacet
  facet normal 0 0 1
    outer loop
      vertex 9.08749 -17.25 5
      vertex -9.08749 -14.25 5
      vertex -9.08749 -17.25 5
    endloop
  endfacet
  facet normal 0.998021 -0.062889 0
    outer loop
      vertex 9.08749 -14.25 5
      vertex 9.09065 -14.1999 0
      vertex 9.09065 -14.1999 5
    endloop
  endfacet
  facet normal 0.998021 -0.062889 0
    outer loop
      vertex 9.09065 -14.1999 0
      vertex 9.08749 -14.25 5
      vertex 9.08749 -14.25 0
    endloop
  endfacet
  facet normal 0.982283 -0.187405 0
    outer loop
      vertex 9.09065 -14.1999 5
      vertex 9.10007 -14.1505 0
      vertex 9.10007 -14.1505 5
    endloop
  endfacet
  facet normal 0.982283 -0.187405 0
    outer loop
      vertex 9.10007 -14.1505 0
      vertex 9.09065 -14.1999 5
      vertex 9.09065 -14.1999 0
    endloop
  endfacet
  facet normal 0.951085 -0.308928 0
    outer loop
      vertex 9.10007 -14.1505 5
      vertex 9.11559 -14.1028 0
      vertex 9.11559 -14.1028 5
    endloop
  endfacet
  facet normal 0.951085 -0.308928 0
    outer loop
      vertex 9.11559 -14.1028 0
      vertex 9.10007 -14.1505 5
      vertex 9.10007 -14.1505 0
    endloop
  endfacet
  facet normal 0.90475 -0.425943 0
    outer loop
      vertex 9.11559 -14.1028 5
      vertex 9.13698 -14.0573 0
      vertex 9.13698 -14.0573 5
    endloop
  endfacet
  facet normal 0.90475 -0.425943 0
    outer loop
      vertex 9.13698 -14.0573 0
      vertex 9.11559 -14.1028 5
      vertex 9.11559 -14.1028 0
    endloop
  endfacet
  facet normal 0.844361 -0.535774 0
    outer loop
      vertex 9.13698 -14.0573 5
      vertex 9.16389 -14.0149 0
      vertex 9.16389 -14.0149 5
    endloop
  endfacet
  facet normal 0.844361 -0.535774 0
    outer loop
      vertex 9.16389 -14.0149 0
      vertex 9.13698 -14.0573 5
      vertex 9.13698 -14.0573 0
    endloop
  endfacet
  facet normal 0.770508 -0.637431 0
    outer loop
      vertex 9.16389 -14.0149 5
      vertex 9.19591 -13.9762 0.0297546
      vertex 9.19591 -13.9762 5
    endloop
  endfacet
  facet normal 0.770508 -0.637431 0
    outer loop
      vertex 9.16389 -14.0149 0
      vertex 9.19591 -13.9762 0.0297546
      vertex 9.16389 -14.0149 5
    endloop
  endfacet
  facet normal 0.770505 -0.637433 5.46544e-06
    outer loop
      vertex 9.19591 -13.9762 0.0297546
      vertex 9.16389 -14.0149 0
      vertex 9.17622 -14 0
    endloop
  endfacet
  facet normal 0.684587 -0.728931 0
    outer loop
      vertex 9.19591 -13.9762 5
      vertex 9.23253 -13.9418 0.0727463
      vertex 9.23253 -13.9418 5
    endloop
  endfacet
  facet normal 0.684587 -0.728931 0
    outer loop
      vertex 9.23253 -13.9418 0.0727463
      vertex 9.19591 -13.9762 5
      vertex 9.19591 -13.9762 0.0297546
    endloop
  endfacet
  facet normal 0.587828 -0.808986 0
    outer loop
      vertex 9.23253 -13.9418 5
      vertex 9.27316 -13.9123 0.109653
      vertex 9.27316 -13.9123 5
    endloop
  endfacet
  facet normal 0.587828 -0.808986 0
    outer loop
      vertex 9.27316 -13.9123 0.109653
      vertex 9.23253 -13.9418 5
      vertex 9.23253 -13.9418 0.0727463
    endloop
  endfacet
  facet normal 0.481744 -0.876312 0
    outer loop
      vertex 9.27316 -13.9123 5
      vertex 9.31718 -13.8881 0.139904
      vertex 9.31718 -13.8881 5
    endloop
  endfacet
  facet normal 0.481744 -0.876312 0
    outer loop
      vertex 9.31718 -13.8881 0.139904
      vertex 9.27316 -13.9123 5
      vertex 9.27316 -13.9123 0.109653
    endloop
  endfacet
  facet normal 0.368141 -0.92977 0
    outer loop
      vertex 9.31718 -13.8881 5
      vertex 9.36389 -13.8696 0.163021
      vertex 9.36389 -13.8696 5
    endloop
  endfacet
  facet normal 0.368141 -0.92977 0
    outer loop
      vertex 9.36389 -13.8696 0.163021
      vertex 9.31718 -13.8881 5
      vertex 9.31718 -13.8881 0.139904
    endloop
  endfacet
  facet normal 0.248821 -0.968549 0
    outer loop
      vertex 9.36389 -13.8696 5
      vertex 9.41254 -13.8571 0.178642
      vertex 9.41254 -13.8571 5
    endloop
  endfacet
  facet normal 0.248821 -0.968549 0
    outer loop
      vertex 9.41254 -13.8571 0.178642
      vertex 9.36389 -13.8696 5
      vertex 9.36389 -13.8696 0.163021
    endloop
  endfacet
  facet normal 0.125156 -0.992137 0
    outer loop
      vertex 9.41254 -13.8571 5
      vertex 9.46237 -13.8508 0.186501
      vertex 9.46237 -13.8508 5
    endloop
  endfacet
  facet normal 0.125156 -0.992137 0
    outer loop
      vertex 9.46237 -13.8508 0.186501
      vertex 9.41254 -13.8571 5
      vertex 9.41254 -13.8571 0.178642
    endloop
  endfacet
  facet normal 0 -1 0
    outer loop
      vertex 9.46237 -13.8508 0.186501
      vertex 13.85 -13.8508 5
      vertex 9.46237 -13.8508 5
    endloop
  endfacet
  facet normal 0 -1 -0
    outer loop
      vertex 13.85 -13.8508 5
      vertex 9.46237 -13.8508 0.186501
      vertex 13.85 -13.8508 0.186501
    endloop
  endfacet
  facet normal 1 0 0
    outer loop
      vertex 13.85 -9.48749 5
      vertex 13.85 -13.85 0.187492
      vertex 13.85 -9.48749 0.187492
    endloop
  endfacet
  facet normal 1 -0 0
    outer loop
      vertex 13.85 -13.8508 5
      vertex 13.85 -13.85 0.187492
      vertex 13.85 -9.48749 5
    endloop
  endfacet
  facet normal 1 0 0
    outer loop
      vertex 13.85 -13.85 0.187492
      vertex 13.85 -13.8508 5
      vertex 13.85 -13.8508 0.186501
    endloop
  endfacet
  facet normal 0.998021 -0.062889 0
    outer loop
      vertex 13.85 -9.48749 0.187492
      vertex 13.8532 -9.43736 5
      vertex 13.85 -9.48749 5
    endloop
  endfacet
  facet normal 0.998021 -0.062889 0
    outer loop
      vertex 13.8532 -9.43736 5
      vertex 13.85 -9.48749 0.187492
      vertex 13.8532 -9.43736 0.183544
    endloop
  endfacet
  facet normal 0.982283 -0.187405 0
    outer loop
      vertex 13.8532 -9.43736 0.183544
      vertex 13.8626 -9.38802 5
      vertex 13.8532 -9.43736 5
    endloop
  endfacet
  facet normal 0.982283 -0.187405 0
    outer loop
      vertex 13.8626 -9.38802 5
      vertex 13.8532 -9.43736 0.183544
      vertex 13.8626 -9.38802 0.171776
    endloop
  endfacet
  facet normal 0.951085 -0.308928 0
    outer loop
      vertex 13.8626 -9.38802 0.171776
      vertex 13.8781 -9.34024 5
      vertex 13.8626 -9.38802 5
    endloop
  endfacet
  facet normal 0.951085 -0.308928 0
    outer loop
      vertex 13.8781 -9.34024 5
      vertex 13.8626 -9.38802 0.171776
      vertex 13.8781 -9.34024 0.152378
    endloop
  endfacet
  facet normal 0.90475 -0.425943 0
    outer loop
      vertex 13.8781 -9.34024 0.152378
      vertex 13.8995 -9.2948 5
      vertex 13.8781 -9.34024 5
    endloop
  endfacet
  facet normal 0.90475 -0.425943 0
    outer loop
      vertex 13.8995 -9.2948 5
      vertex 13.8781 -9.34024 0.152378
      vertex 13.8995 -9.2948 0.125637
    endloop
  endfacet
  facet normal 0.844361 -0.535774 0
    outer loop
      vertex 13.8995 -9.2948 0.125637
      vertex 13.9264 -9.25238 5
      vertex 13.8995 -9.2948 5
    endloop
  endfacet
  facet normal 0.844361 -0.535774 0
    outer loop
      vertex 13.9264 -9.25238 5
      vertex 13.8995 -9.2948 0.125637
      vertex 13.9264 -9.25238 0.0919914
    endloop
  endfacet
  facet normal 0.770508 -0.637431 0
    outer loop
      vertex 13.9264 -9.25238 0.0919914
      vertex 13.9584 -9.21368 5
      vertex 13.9264 -9.25238 5
    endloop
  endfacet
  facet normal 0.770508 -0.637431 0
    outer loop
      vertex 13.9584 -9.21368 5
      vertex 13.9264 -9.25238 0.0919914
      vertex 13.9584 -9.21368 0.0519753
    endloop
  endfacet
  facet normal 0.684587 -0.728931 0
    outer loop
      vertex 13.9584 -9.21368 0.0519753
      vertex 13.995 -9.17929 5
      vertex 13.9584 -9.21368 5
    endloop
  endfacet
  facet normal 0.684587 -0.728931 0
    outer loop
      vertex 13.995 -9.17929 5
      vertex 13.9584 -9.21368 0.0519753
      vertex 13.995 -9.17929 0.00619888
    endloop
  endfacet
  facet normal 0.587828 -0.808986 0
    outer loop
      vertex 13.995 -9.17929 0.00619888
      vertex 14.0357 -9.14977 5
      vertex 13.995 -9.17929 5
    endloop
  endfacet
  facet normal 0.587835 -0.808981 6.31343e-05
    outer loop
      vertex 14.0357 -9.14977 0
      vertex 13.995 -9.17929 0.00619888
      vertex 14 -9.17569 0
    endloop
  endfacet
  facet normal 0.587828 -0.808986 0
    outer loop
      vertex 13.995 -9.17929 0.00619888
      vertex 14.0357 -9.14977 0
      vertex 14.0357 -9.14977 5
    endloop
  endfacet
  facet normal 0.481744 -0.876312 0
    outer loop
      vertex 14.0357 -9.14977 0
      vertex 14.0797 -9.12556 5
      vertex 14.0357 -9.14977 5
    endloop
  endfacet
  facet normal 0.481744 -0.876312 0
    outer loop
      vertex 14.0797 -9.12556 5
      vertex 14.0357 -9.14977 0
      vertex 14.0797 -9.12556 0
    endloop
  endfacet
  facet normal 0.368141 -0.92977 0
    outer loop
      vertex 14.0797 -9.12556 0
      vertex 14.1264 -9.10707 5
      vertex 14.0797 -9.12556 5
    endloop
  endfacet
  facet normal 0.368141 -0.92977 0
    outer loop
      vertex 14.1264 -9.10707 5
      vertex 14.0797 -9.12556 0
      vertex 14.1264 -9.10707 0
    endloop
  endfacet
  facet normal 0.248821 -0.968549 0
    outer loop
      vertex 14.1264 -9.10707 0
      vertex 14.175 -9.09457 5
      vertex 14.1264 -9.10707 5
    endloop
  endfacet
  facet normal 0.248821 -0.968549 0
    outer loop
      vertex 14.175 -9.09457 5
      vertex 14.1264 -9.10707 0
      vertex 14.175 -9.09457 0
    endloop
  endfacet
  facet normal 0.125156 -0.992137 0
    outer loop
      vertex 14.175 -9.09457 0
      vertex 14.2249 -9.08829 5
      vertex 14.175 -9.09457 5
    endloop
  endfacet
  facet normal 0.125156 -0.992137 0
    outer loop
      vertex 14.2249 -9.08829 5
      vertex 14.175 -9.09457 0
      vertex 14.2249 -9.08829 0
    endloop
  endfacet
  facet normal 0 -1 0
    outer loop
      vertex 14.2249 -9.08829 0
      vertex 17.25 -9.08829 5
      vertex 14.2249 -9.08829 5
    endloop
  endfacet
  facet normal 0 -1 -0
    outer loop
      vertex 17.25 -9.08829 5
      vertex 14.2249 -9.08829 0
      vertex 17.25 -9.08829 0
    endloop
  endfacet
  facet normal 1 -0 0
    outer loop
      vertex 17.25 -9.08829 5
      vertex 17.25 9.08829 0
      vertex 17.25 9.08829 5
    endloop
  endfacet
  facet normal 1 0 0
    outer loop
      vertex 17.25 9.08829 0
      vertex 17.25 -9.08829 5
      vertex 17.25 -9.08829 0
    endloop
  endfacet
  facet normal 0 1 -0
    outer loop
      vertex 17.25 9.08829 0
      vertex 14.2249 9.08829 5
      vertex 17.25 9.08829 5
    endloop
  endfacet
  facet normal 0 1 0
    outer loop
      vertex 14.2249 9.08829 5
      vertex 17.25 9.08829 0
      vertex 14.2249 9.08829 0
    endloop
  endfacet
  facet normal 0.125156 0.992137 -0
    outer loop
      vertex 14.2249 9.08829 0
      vertex 14.175 9.09457 5
      vertex 14.2249 9.08829 5
    endloop
  endfacet
  facet normal 0.125156 0.992137 0
    outer loop
      vertex 14.175 9.09457 5
      vertex 14.2249 9.08829 0
      vertex 14.175 9.09457 0
    endloop
  endfacet
  facet normal 0.248821 0.968549 -0
    outer loop
      vertex 14.175 9.09457 0
      vertex 14.1264 9.10707 5
      vertex 14.175 9.09457 5
    endloop
  endfacet
  facet normal 0.248821 0.968549 0
    outer loop
      vertex 14.1264 9.10707 5
      vertex 14.175 9.09457 0
      vertex 14.1264 9.10707 0
    endloop
  endfacet
  facet normal 0.368141 0.92977 -0
    outer loop
      vertex 14.1264 9.10707 0
      vertex 14.0797 9.12556 5
      vertex 14.1264 9.10707 5
    endloop
  endfacet
  facet normal 0.368141 0.92977 0
    outer loop
      vertex 14.0797 9.12556 5
      vertex 14.1264 9.10707 0
      vertex 14.0797 9.12556 0
    endloop
  endfacet
  facet normal 0.481744 0.876312 -0
    outer loop
      vertex 14.0797 9.12556 0
      vertex 14.0357 9.14977 5
      vertex 14.0797 9.12556 5
    endloop
  endfacet
  facet normal 0.481744 0.876312 0
    outer loop
      vertex 14.0357 9.14977 5
      vertex 14.0797 9.12556 0
      vertex 14.0357 9.14977 0
    endloop
  endfacet
  facet normal 0.587828 0.808986 0
    outer loop
      vertex 14.0357 9.14977 5
      vertex 13.995 9.17929 0.00619888
      vertex 13.995 9.17929 5
    endloop
  endfacet
  facet normal 0.587828 0.808986 -0
    outer loop
      vertex 14.0357 9.14977 0
      vertex 13.995 9.17929 0.00619888
      vertex 14.0357 9.14977 5
    endloop
  endfacet
  facet normal 0.587835 0.808981 6.31343e-05
    outer loop
      vertex 13.995 9.17929 0.00619888
      vertex 14.0357 9.14977 0
      vertex 14 9.17569 0
    endloop
  endfacet
  facet normal 0.684587 0.728931 0
    outer loop
      vertex 13.995 9.17929 5
      vertex 13.9584 9.21368 0.0519753
      vertex 13.9584 9.21368 5
    endloop
  endfacet
  facet normal 0.684587 0.728931 0
    outer loop
      vertex 13.9584 9.21368 0.0519753
      vertex 13.995 9.17929 5
      vertex 13.995 9.17929 0.00619888
    endloop
  endfacet
  facet normal 0.770508 0.637431 0
    outer loop
      vertex 13.9584 9.21368 5
      vertex 13.9264 9.25238 0.0919914
      vertex 13.9264 9.25238 5
    endloop
  endfacet
  facet normal 0.770508 0.637431 0
    outer loop
      vertex 13.9264 9.25238 0.0919914
      vertex 13.9584 9.21368 5
      vertex 13.9584 9.21368 0.0519753
    endloop
  endfacet
  facet normal 0.844361 0.535774 0
    outer loop
      vertex 13.9264 9.25238 5
      vertex 13.8995 9.2948 0.125637
      vertex 13.8995 9.2948 5
    endloop
  endfacet
  facet normal 0.844361 0.535774 0
    outer loop
      vertex 13.8995 9.2948 0.125637
      vertex 13.9264 9.25238 5
      vertex 13.9264 9.25238 0.0919914
    endloop
  endfacet
  facet normal 0.90475 0.425943 0
    outer loop
      vertex 13.8995 9.2948 5
      vertex 13.8781 9.34024 0.152378
      vertex 13.8781 9.34024 5
    endloop
  endfacet
  facet normal 0.90475 0.425943 0
    outer loop
      vertex 13.8781 9.34024 0.152378
      vertex 13.8995 9.2948 5
      vertex 13.8995 9.2948 0.125637
    endloop
  endfacet
  facet normal 0.951085 0.308928 0
    outer loop
      vertex 13.8781 9.34024 5
      vertex 13.8626 9.38802 0.171776
      vertex 13.8626 9.38802 5
    endloop
  endfacet
  facet normal 0.951085 0.308928 0
    outer loop
      vertex 13.8626 9.38802 0.171776
      vertex 13.8781 9.34024 5
      vertex 13.8781 9.34024 0.152378
    endloop
  endfacet
  facet normal 0.982283 0.187405 0
    outer loop
      vertex 13.8626 9.38802 5
      vertex 13.8532 9.43736 0.183544
      vertex 13.8532 9.43736 5
    endloop
  endfacet
  facet normal 0.982283 0.187405 0
    outer loop
      vertex 13.8532 9.43736 0.183544
      vertex 13.8626 9.38802 5
      vertex 13.8626 9.38802 0.171776
    endloop
  endfacet
  facet normal 0.998021 0.062889 0
    outer loop
      vertex 13.8532 9.43736 5
      vertex 13.85 9.48749 0.187492
      vertex 13.85 9.48749 5
    endloop
  endfacet
  facet normal 0.998021 0.062889 0
    outer loop
      vertex 13.85 9.48749 0.187492
      vertex 13.8532 9.43736 5
      vertex 13.8532 9.43736 0.183544
    endloop
  endfacet
  facet normal 1 0 0
    outer loop
      vertex 13.85 13.8508 5
      vertex 13.85 13.85 0.187492
      vertex 13.85 13.8508 0.186501
    endloop
  endfacet
  facet normal 1 -0 0
    outer loop
      vertex 13.85 9.48749 5
      vertex 13.85 13.85 0.187492
      vertex 13.85 13.8508 5
    endloop
  endfacet
  facet normal 1 0 0
    outer loop
      vertex 13.85 13.85 0.187492
      vertex 13.85 9.48749 5
      vertex 13.85 9.48749 0.187492
    endloop
  endfacet
  facet normal 0 1 -0
    outer loop
      vertex 13.85 13.8508 0.186501
      vertex 9.46237 13.8508 5
      vertex 13.85 13.8508 5
    endloop
  endfacet
  facet normal 0 1 0
    outer loop
      vertex 9.46237 13.8508 5
      vertex 13.85 13.8508 0.186501
      vertex 9.46237 13.8508 0.186501
    endloop
  endfacet
  facet normal 0.125156 0.992137 -0
    outer loop
      vertex 9.46237 13.8508 0.186501
      vertex 9.41254 13.8571 5
      vertex 9.46237 13.8508 5
    endloop
  endfacet
  facet normal 0.125156 0.992137 0
    outer loop
      vertex 9.41254 13.8571 5
      vertex 9.46237 13.8508 0.186501
      vertex 9.41254 13.8571 0.178642
    endloop
  endfacet
  facet normal 0.248821 0.968549 -0
    outer loop
      vertex 9.41254 13.8571 0.178642
      vertex 9.36389 13.8696 5
      vertex 9.41254 13.8571 5
    endloop
  endfacet
  facet normal 0.248821 0.968549 0
    outer loop
      vertex 9.36389 13.8696 5
      vertex 9.41254 13.8571 0.178642
      vertex 9.36389 13.8696 0.163021
    endloop
  endfacet
  facet normal 0.368141 0.92977 -0
    outer loop
      vertex 9.36389 13.8696 0.163021
      vertex 9.31718 13.8881 5
      vertex 9.36389 13.8696 5
    endloop
  endfacet
  facet normal 0.368141 0.92977 0
    outer loop
      vertex 9.31718 13.8881 5
      vertex 9.36389 13.8696 0.163021
      vertex 9.31718 13.8881 0.139904
    endloop
  endfacet
  facet normal 0.481744 0.876312 -0
    outer loop
      vertex 9.31718 13.8881 0.139904
      vertex 9.27316 13.9123 5
      vertex 9.31718 13.8881 5
    endloop
  endfacet
  facet normal 0.481744 0.876312 0
    outer loop
      vertex 9.27316 13.9123 5
      vertex 9.31718 13.8881 0.139904
      vertex 9.27316 13.9123 0.109653
    endloop
  endfacet
  facet normal 0.587828 0.808986 -0
    outer loop
      vertex 9.27316 13.9123 0.109653
      vertex 9.23253 13.9418 5
      vertex 9.27316 13.9123 5
    endloop
  endfacet
  facet normal 0.587828 0.808986 0
    outer loop
      vertex 9.23253 13.9418 5
      vertex 9.27316 13.9123 0.109653
      vertex 9.23253 13.9418 0.0727463
    endloop
  endfacet
  facet normal 0.684587 0.728931 -0
    outer loop
      vertex 9.23253 13.9418 0.0727463
      vertex 9.19591 13.9762 5
      vertex 9.23253 13.9418 5
    endloop
  endfacet
  facet normal 0.684587 0.728931 0
    outer loop
      vertex 9.19591 13.9762 5
      vertex 9.23253 13.9418 0.0727463
      vertex 9.19591 13.9762 0.0297546
    endloop
  endfacet
  facet normal 0.770508 0.637431 0
    outer loop
      vertex 9.19591 13.9762 0.0297546
      vertex 9.16389 14.0149 0
      vertex 9.16389 14.0149 5
    endloop
  endfacet
  facet normal 0.770508 0.637431 -0
    outer loop
      vertex 9.19591 13.9762 0.0297546
      vertex 9.16389 14.0149 5
      vertex 9.19591 13.9762 5
    endloop
  endfacet
  facet normal 0.770505 0.637433 5.46544e-06
    outer loop
      vertex 9.16389 14.0149 0
      vertex 9.19591 13.9762 0.0297546
      vertex 9.17622 14 0
    endloop
  endfacet
  facet normal 0.844361 0.535774 0
    outer loop
      vertex 9.16389 14.0149 5
      vertex 9.13698 14.0573 0
      vertex 9.13698 14.0573 5
    endloop
  endfacet
  facet normal 0.844361 0.535774 0
    outer loop
      vertex 9.13698 14.0573 0
      vertex 9.16389 14.0149 5
      vertex 9.16389 14.0149 0
    endloop
  endfacet
  facet normal 0.90475 0.425943 0
    outer loop
      vertex 9.13698 14.0573 5
      vertex 9.11559 14.1028 0
      vertex 9.11559 14.1028 5
    endloop
  endfacet
  facet normal 0.90475 0.425943 0
    outer loop
      vertex 9.11559 14.1028 0
      vertex 9.13698 14.0573 5
      vertex 9.13698 14.0573 0
    endloop
  endfacet
  facet normal 0.951085 0.308928 0
    outer loop
      vertex 9.11559 14.1028 5
      vertex 9.10007 14.1505 0
      vertex 9.10007 14.1505 5
    endloop
  endfacet
  facet normal 0.951085 0.308928 0
    outer loop
      vertex 9.10007 14.1505 0
      vertex 9.11559 14.1028 5
      vertex 9.11559 14.1028 0
    endloop
  endfacet
  facet normal 0.982283 0.187405 0
    outer loop
      vertex 9.10007 14.1505 5
      vertex 9.09065 14.1999 0
      vertex 9.09065 14.1999 5
    endloop
  endfacet
  facet normal 0.982283 0.187405 0
    outer loop
      vertex 9.09065 14.1999 0
      vertex 9.10007 14.1505 5
      vertex 9.10007 14.1505 0
    endloop
  endfacet
  facet normal 0.998021 0.062889 0
    outer loop
      vertex 9.09065 14.1999 5
      vertex 9.08749 14.25 0
      vertex 9.08749 14.25 5
    endloop
  endfacet
  facet normal 0.998021 0.062889 0
    outer loop
      vertex 9.08749 14.25 0
      vertex 9.09065 14.1999 5
      vertex 9.09065 14.1999 0
    endloop
  endfacet
  facet normal 1 -0 0
    outer loop
      vertex 9.08749 14.25 5
      vertex 9.08749 17.25 0
      vertex 9.08749 17.25 5
    endloop
  endfacet
  facet normal 1 0 0
    outer loop
      vertex 9.08749 17.25 0
      vertex 9.08749 14.25 5
      vertex 9.08749 14.25 0
    endloop
  endfacet
  facet normal 0 1 -0
    outer loop
      vertex 9.08749 17.25 0
      vertex -9.08749 17.25 5
      vertex 9.08749 17.25 5
    endloop
  endfacet
  facet normal 0 1 0
    outer loop
      vertex -9.08749 17.25 5
      vertex 9.08749 17.25 0
      vertex -9.08749 17.25 0
    endloop
  endfacet
  facet normal -1 0 0
    outer loop
      vertex -9.08749 14.25 0
      vertex -9.08749 17.25 5
      vertex -9.08749 17.25 0
    endloop
  endfacet
  facet normal -1 -0 0
    outer loop
      vertex -9.08749 17.25 5
      vertex -9.08749 14.25 0
      vertex -9.08749 14.25 5
    endloop
  endfacet
  facet normal -0.998021 0.062889 0
    outer loop
      vertex -9.09065 14.1999 0
      vertex -9.08749 14.25 5
      vertex -9.08749 14.25 0
    endloop
  endfacet
  facet normal -0.998021 0.062889 0
    outer loop
      vertex -9.08749 14.25 5
      vertex -9.09065 14.1999 0
      vertex -9.09065 14.1999 5
    endloop
  endfacet
  facet normal -0.982283 0.187405 0
    outer loop
      vertex -9.10007 14.1505 0
      vertex -9.09065 14.1999 5
      vertex -9.09065 14.1999 0
    endloop
  endfacet
  facet normal -0.982283 0.187405 0
    outer loop
      vertex -9.09065 14.1999 5
      vertex -9.10007 14.1505 0
      vertex -9.10007 14.1505 5
    endloop
  endfacet
  facet normal -0.951085 0.308928 0
    outer loop
      vertex -9.11559 14.1028 0
      vertex -9.10007 14.1505 5
      vertex -9.10007 14.1505 0
    endloop
  endfacet
  facet normal -0.951085 0.308928 0
    outer loop
      vertex -9.10007 14.1505 5
      vertex -9.11559 14.1028 0
      vertex -9.11559 14.1028 5
    endloop
  endfacet
  facet normal -0.90475 0.425943 0
    outer loop
      vertex -9.13698 14.0573 0
      vertex -9.11559 14.1028 5
      vertex -9.11559 14.1028 0
    endloop
  endfacet
  facet normal -0.90475 0.425943 0
    outer loop
      vertex -9.11559 14.1028 5
      vertex -9.13698 14.0573 0
      vertex -9.13698 14.0573 5
    endloop
  endfacet
  facet normal -0.844361 0.535774 0
    outer loop
      vertex -9.16389 14.0149 0
      vertex -9.13698 14.0573 5
      vertex -9.13698 14.0573 0
    endloop
  endfacet
  facet normal -0.844361 0.535774 0
    outer loop
      vertex -9.13698 14.0573 5
      vertex -9.16389 14.0149 0
      vertex -9.16389 14.0149 5
    endloop
  endfacet
  facet normal -0.770505 0.637433 5.46544e-06
    outer loop
      vertex -9.19591 13.9762 0.0297546
      vertex -9.16389 14.0149 0
      vertex -9.17622 14 0
    endloop
  endfacet
  facet normal -0.770508 0.637431 0
    outer loop
      vertex -9.16389 14.0149 0
      vertex -9.19591 13.9762 0.0297546
      vertex -9.16389 14.0149 5
    endloop
  endfacet
  facet normal -0.770508 0.637431 0
    outer loop
      vertex -9.16389 14.0149 5
      vertex -9.19591 13.9762 0.0297546
      vertex -9.19591 13.9762 5
    endloop
  endfacet
  facet normal -0.684587 0.728931 0
    outer loop
      vertex -9.19591 13.9762 5
      vertex -9.23253 13.9418 0.0727463
      vertex -9.23253 13.9418 5
    endloop
  endfacet
  facet normal -0.684587 0.728931 0
    outer loop
      vertex -9.23253 13.9418 0.0727463
      vertex -9.19591 13.9762 5
      vertex -9.19591 13.9762 0.0297546
    endloop
  endfacet
  facet normal -0.587828 0.808986 0
    outer loop
      vertex -9.23253 13.9418 5
      vertex -9.27316 13.9123 0.109653
      vertex -9.27316 13.9123 5
    endloop
  endfacet
  facet normal -0.587828 0.808986 0
    outer loop
      vertex -9.27316 13.9123 0.109653
      vertex -9.23253 13.9418 5
      vertex -9.23253 13.9418 0.0727463
    endloop
  endfacet
  facet normal -0.481744 0.876312 0
    outer loop
      vertex -9.27316 13.9123 5
      vertex -9.31718 13.8881 0.139904
      vertex -9.31718 13.8881 5
    endloop
  endfacet
  facet normal -0.481744 0.876312 0
    outer loop
      vertex -9.31718 13.8881 0.139904
      vertex -9.27316 13.9123 5
      vertex -9.27316 13.9123 0.109653
    endloop
  endfacet
  facet normal -0.368141 0.92977 0
    outer loop
      vertex -9.31718 13.8881 5
      vertex -9.36389 13.8696 0.163021
      vertex -9.36389 13.8696 5
    endloop
  endfacet
  facet normal -0.368141 0.92977 0
    outer loop
      vertex -9.36389 13.8696 0.163021
      vertex -9.31718 13.8881 5
      vertex -9.31718 13.8881 0.139904
    endloop
  endfacet
  facet normal -0.248821 0.968549 0
    outer loop
      vertex -9.36389 13.8696 5
      vertex -9.41254 13.8571 0.178642
      vertex -9.41254 13.8571 5
    endloop
  endfacet
  facet normal -0.248821 0.968549 0
    outer loop
      vertex -9.41254 13.8571 0.178642
      vertex -9.36389 13.8696 5
      vertex -9.36389 13.8696 0.163021
    endloop
  endfacet
  facet normal -0.125156 0.992137 0
    outer loop
      vertex -9.41254 13.8571 5
      vertex -9.46237 13.8508 0.186501
      vertex -9.46237 13.8508 5
    endloop
  endfacet
  facet normal -0.125156 0.992137 0
    outer loop
      vertex -9.46237 13.8508 0.186501
      vertex -9.41254 13.8571 5
      vertex -9.41254 13.8571 0.178642
    endloop
  endfacet
  facet normal 0 1 -0
    outer loop
      vertex -9.46237 13.8508 0.186501
      vertex -13.85 13.8508 5
      vertex -9.46237 13.8508 5
    endloop
  endfacet
  facet normal 0 1 0
    outer loop
      vertex -13.85 13.8508 5
      vertex -9.46237 13.8508 0.186501
      vertex -13.85 13.8508 0.186501
    endloop
  endfacet
  facet normal -1 0 0
    outer loop
      vertex -13.85 13.85 0.187492
      vertex -13.85 13.8508 5
      vertex -13.85 13.8508 0.186501
    endloop
  endfacet
  facet normal -1 0 0
    outer loop
      vertex -13.85 9.48749 0.187492
      vertex -13.85 13.8508 5
      vertex -13.85 13.85 0.187492
    endloop
  endfacet
  facet normal -1 -0 0
    outer loop
      vertex -13.85 13.8508 5
      vertex -13.85 9.48749 0.187492
      vertex -13.85 9.48749 5
    endloop
  endfacet
  facet normal -0.998021 0.062889 0
    outer loop
      vertex -13.8532 9.43736 5
      vertex -13.85 9.48749 0.187492
      vertex -13.8532 9.43736 0.183544
    endloop
  endfacet
  facet normal -0.998021 0.062889 0
    outer loop
      vertex -13.85 9.48749 0.187492
      vertex -13.8532 9.43736 5
      vertex -13.85 9.48749 5
    endloop
  endfacet
  facet normal -0.982283 0.187405 0
    outer loop
      vertex -13.8626 9.38802 5
      vertex -13.8532 9.43736 0.183544
      vertex -13.8626 9.38802 0.171776
    endloop
  endfacet
  facet normal -0.982283 0.187405 0
    outer loop
      vertex -13.8532 9.43736 0.183544
      vertex -13.8626 9.38802 5
      vertex -13.8532 9.43736 5
    endloop
  endfacet
  facet normal -0.951085 0.308928 0
    outer loop
      vertex -13.8781 9.34024 5
      vertex -13.8626 9.38802 0.171776
      vertex -13.8781 9.34024 0.152378
    endloop
  endfacet
  facet normal -0.951085 0.308928 0
    outer loop
      vertex -13.8626 9.38802 0.171776
      vertex -13.8781 9.34024 5
      vertex -13.8626 9.38802 5
    endloop
  endfacet
  facet normal -0.90475 0.425943 0
    outer loop
      vertex -13.8995 9.2948 5
      vertex -13.8781 9.34024 0.152378
      vertex -13.8995 9.2948 0.125637
    endloop
  endfacet
  facet normal -0.90475 0.425943 0
    outer loop
      vertex -13.8781 9.34024 0.152378
      vertex -13.8995 9.2948 5
      vertex -13.8781 9.34024 5
    endloop
  endfacet
  facet normal -0.844361 0.535774 0
    outer loop
      vertex -13.9264 9.25238 5
      vertex -13.8995 9.2948 0.125637
      vertex -13.9264 9.25238 0.0919914
    endloop
  endfacet
  facet normal -0.844361 0.535774 0
    outer loop
      vertex -13.8995 9.2948 0.125637
      vertex -13.9264 9.25238 5
      vertex -13.8995 9.2948 5
    endloop
  endfacet
  facet normal -0.770508 0.637431 0
    outer loop
      vertex -13.9584 9.21368 5
      vertex -13.9264 9.25238 0.0919914
      vertex -13.9584 9.21368 0.0519753
    endloop
  endfacet
  facet normal -0.770508 0.637431 0
    outer loop
      vertex -13.9264 9.25238 0.0919914
      vertex -13.9584 9.21368 5
      vertex -13.9264 9.25238 5
    endloop
  endfacet
  facet normal -0.684587 0.728931 0
    outer loop
      vertex -13.9584 9.21368 0.0519753
      vertex -13.995 9.17929 5
      vertex -13.9584 9.21368 5
    endloop
  endfacet
  facet normal -0.684587 0.728931 0
    outer loop
      vertex -13.995 9.17929 5
      vertex -13.9584 9.21368 0.0519753
      vertex -13.995 9.17929 0.00619888
    endloop
  endfacet
  facet normal -0.587828 0.808986 0
    outer loop
      vertex -13.995 9.17929 0.00619888
      vertex -14.0357 9.14977 5
      vertex -13.995 9.17929 5
    endloop
  endfacet
  facet normal -0.587835 0.808981 6.31343e-05
    outer loop
      vertex -14.0357 9.14977 0
      vertex -13.995 9.17929 0.00619888
      vertex -14 9.17569 0
    endloop
  endfacet
  facet normal -0.587828 0.808986 0
    outer loop
      vertex -13.995 9.17929 0.00619888
      vertex -14.0357 9.14977 0
      vertex -14.0357 9.14977 5
    endloop
  endfacet
  facet normal -0.481744 0.876312 0
    outer loop
      vertex -14.0357 9.14977 0
      vertex -14.0797 9.12556 5
      vertex -14.0357 9.14977 5
    endloop
  endfacet
  facet normal -0.481744 0.876312 0
    outer loop
      vertex -14.0797 9.12556 5
      vertex -14.0357 9.14977 0
      vertex -14.0797 9.12556 0
    endloop
  endfacet
  facet normal -0.368141 0.92977 0
    outer loop
      vertex -14.0797 9.12556 0
      vertex -14.1264 9.10707 5
      vertex -14.0797 9.12556 5
    endloop
  endfacet
  facet normal -0.368141 0.92977 0
    outer loop
      vertex -14.1264 9.10707 5
      vertex -14.0797 9.12556 0
      vertex -14.1264 9.10707 0
    endloop
  endfacet
  facet normal -0.248821 0.968549 0
    outer loop
      vertex -14.1264 9.10707 0
      vertex -14.175 9.09457 5
      vertex -14.1264 9.10707 5
    endloop
  endfacet
  facet normal -0.248821 0.968549 0
    outer loop
      vertex -14.175 9.09457 5
      vertex -14.1264 9.10707 0
      vertex -14.175 9.09457 0
    endloop
  endfacet
  facet normal -0.125156 0.992137 0
    outer loop
      vertex -14.175 9.09457 0
      vertex -14.2249 9.08829 5
      vertex -14.175 9.09457 5
    endloop
  endfacet
  facet normal -0.125156 0.992137 0
    outer loop
      vertex -14.2249 9.08829 5
      vertex -14.175 9.09457 0
      vertex -14.2249 9.08829 0
    endloop
  endfacet
  facet normal 0 1 -0
    outer loop
      vertex -14.2249 9.08829 0
      vertex -17.25 9.08829 5
      vertex -14.2249 9.08829 5
    endloop
  endfacet
  facet normal 0 1 0
    outer loop
      vertex -17.25 9.08829 5
      vertex -14.2249 9.08829 0
      vertex -17.25 9.08829 0
    endloop
  endfacet
  facet normal -1 0 0
    outer loop
      vertex -17.25 -9.08829 0
      vertex -17.25 9.08829 5
      vertex -17.25 9.08829 0
    endloop
  endfacet
  facet normal -1 -0 0
    outer loop
      vertex -17.25 9.08829 5
      vertex -17.25 -9.08829 0
      vertex -17.25 -9.08829 5
    endloop
  endfacet
  facet normal 0 -1 0
    outer loop
      vertex -17.25 -9.08829 0
      vertex -14.2249 -9.08829 5
      vertex -17.25 -9.08829 5
    endloop
  endfacet
  facet normal 0 -1 -0
    outer loop
      vertex -14.2249 -9.08829 5
      vertex -17.25 -9.08829 0
      vertex -14.2249 -9.08829 0
    endloop
  endfacet
  facet normal -0.125156 -0.992137 0
    outer loop
      vertex -14.2249 -9.08829 0
      vertex -14.175 -9.09457 5
      vertex -14.2249 -9.08829 5
    endloop
  endfacet
  facet normal -0.125156 -0.992137 -0
    outer loop
      vertex -14.175 -9.09457 5
      vertex -14.2249 -9.08829 0
      vertex -14.175 -9.09457 0
    endloop
  endfacet
  facet normal -0.248821 -0.968549 0
    outer loop
      vertex -14.175 -9.09457 0
      vertex -14.1264 -9.10707 5
      vertex -14.175 -9.09457 5
    endloop
  endfacet
  facet normal -0.248821 -0.968549 -0
    outer loop
      vertex -14.1264 -9.10707 5
      vertex -14.175 -9.09457 0
      vertex -14.1264 -9.10707 0
    endloop
  endfacet
  facet normal -0.368141 -0.92977 0
    outer loop
      vertex -14.1264 -9.10707 0
      vertex -14.0797 -9.12556 5
      vertex -14.1264 -9.10707 5
    endloop
  endfacet
  facet normal -0.368141 -0.92977 -0
    outer loop
      vertex -14.0797 -9.12556 5
      vertex -14.1264 -9.10707 0
      vertex -14.0797 -9.12556 0
    endloop
  endfacet
  facet normal -0.481744 -0.876312 0
    outer loop
      vertex -14.0797 -9.12556 0
      vertex -14.0357 -9.14977 5
      vertex -14.0797 -9.12556 5
    endloop
  endfacet
  facet normal -0.481744 -0.876312 -0
    outer loop
      vertex -14.0357 -9.14977 5
      vertex -14.0797 -9.12556 0
      vertex -14.0357 -9.14977 0
    endloop
  endfacet
  facet normal -0.587828 -0.808986 0
    outer loop
      vertex -14.0357 -9.14977 5
      vertex -13.995 -9.17929 0.00619888
      vertex -13.995 -9.17929 5
    endloop
  endfacet
  facet normal -0.587828 -0.808986 0
    outer loop
      vertex -14.0357 -9.14977 0
      vertex -13.995 -9.17929 0.00619888
      vertex -14.0357 -9.14977 5
    endloop
  endfacet
  facet normal -0.587835 -0.808981 6.31343e-05
    outer loop
      vertex -13.995 -9.17929 0.00619888
      vertex -14.0357 -9.14977 0
      vertex -14 -9.17569 0
    endloop
  endfacet
  facet normal -0.684587 -0.728931 0
    outer loop
      vertex -13.995 -9.17929 5
      vertex -13.9584 -9.21368 0.0519753
      vertex -13.9584 -9.21368 5
    endloop
  endfacet
  facet normal -0.684587 -0.728931 0
    outer loop
      vertex -13.9584 -9.21368 0.0519753
      vertex -13.995 -9.17929 5
      vertex -13.995 -9.17929 0.00619888
    endloop
  endfacet
  facet normal -0.770508 -0.637431 0
    outer loop
      vertex -13.9264 -9.25238 0.0919914
      vertex -13.9584 -9.21368 5
      vertex -13.9584 -9.21368 0.0519753
    endloop
  endfacet
  facet normal -0.770508 -0.637431 0
    outer loop
      vertex -13.9584 -9.21368 5
      vertex -13.9264 -9.25238 0.0919914
      vertex -13.9264 -9.25238 5
    endloop
  endfacet
  facet normal -0.844361 -0.535774 0
    outer loop
      vertex -13.8995 -9.2948 0.125637
      vertex -13.9264 -9.25238 5
      vertex -13.9264 -9.25238 0.0919914
    endloop
  endfacet
  facet normal -0.844361 -0.535774 0
    outer loop
      vertex -13.9264 -9.25238 5
      vertex -13.8995 -9.2948 0.125637
      vertex -13.8995 -9.2948 5
    endloop
  endfacet
  facet normal -0.90475 -0.425943 0
    outer loop
      vertex -13.8781 -9.34024 0.152378
      vertex -13.8995 -9.2948 5
      vertex -13.8995 -9.2948 0.125637
    endloop
  endfacet
  facet normal -0.90475 -0.425943 0
    outer loop
      vertex -13.8995 -9.2948 5
      vertex -13.8781 -9.34024 0.152378
      vertex -13.8781 -9.34024 5
    endloop
  endfacet
  facet normal -0.951085 -0.308928 0
    outer loop
      vertex -13.8626 -9.38802 0.171776
      vertex -13.8781 -9.34024 5
      vertex -13.8781 -9.34024 0.152378
    endloop
  endfacet
  facet normal -0.951085 -0.308928 0
    outer loop
      vertex -13.8781 -9.34024 5
      vertex -13.8626 -9.38802 0.171776
      vertex -13.8626 -9.38802 5
    endloop
  endfacet
  facet normal -0.982283 -0.187405 0
    outer loop
      vertex -13.8532 -9.43736 0.183544
      vertex -13.8626 -9.38802 5
      vertex -13.8626 -9.38802 0.171776
    endloop
  endfacet
  facet normal -0.982283 -0.187405 0
    outer loop
      vertex -13.8626 -9.38802 5
      vertex -13.8532 -9.43736 0.183544
      vertex -13.8532 -9.43736 5
    endloop
  endfacet
  facet normal -0.998021 -0.062889 0
    outer loop
      vertex -13.85 -9.48749 0.187492
      vertex -13.8532 -9.43736 5
      vertex -13.8532 -9.43736 0.183544
    endloop
  endfacet
  facet normal -0.998021 -0.062889 0
    outer loop
      vertex -13.8532 -9.43736 5
      vertex -13.85 -9.48749 0.187492
      vertex -13.85 -9.48749 5
    endloop
  endfacet
  facet normal -1 0 0
    outer loop
      vertex -13.85 -13.85 0.187492
      vertex -13.85 -9.48749 5
      vertex -13.85 -9.48749 0.187492
    endloop
  endfacet
  facet normal -1 0 0
    outer loop
      vertex -13.85 -13.85 0.187492
      vertex -13.85 -13.8508 5
      vertex -13.85 -9.48749 5
    endloop
  endfacet
  facet normal -1 0 0
    outer loop
      vertex -13.85 -13.8508 5
      vertex -13.85 -13.85 0.187492
      vertex -13.85 -13.8508 0.186501
    endloop
  endfacet
  facet normal 0 -1 0
    outer loop
      vertex -13.85 -13.8508 0.186501
      vertex -9.46237 -13.8508 5
      vertex -13.85 -13.8508 5
    endloop
  endfacet
  facet normal 0 -1 -0
    outer loop
      vertex -9.46237 -13.8508 5
      vertex -13.85 -13.8508 0.186501
      vertex -9.46237 -13.8508 0.186501
    endloop
  endfacet
  facet normal -0.125156 -0.992137 0
    outer loop
      vertex -9.46237 -13.8508 0.186501
      vertex -9.41254 -13.8571 5
      vertex -9.46237 -13.8508 5
    endloop
  endfacet
  facet normal -0.125156 -0.992137 -0
    outer loop
      vertex -9.41254 -13.8571 5
      vertex -9.46237 -13.8508 0.186501
      vertex -9.41254 -13.8571 0.178642
    endloop
  endfacet
  facet normal -0.248821 -0.968549 0
    outer loop
      vertex -9.41254 -13.8571 0.178642
      vertex -9.36389 -13.8696 5
      vertex -9.41254 -13.8571 5
    endloop
  endfacet
  facet normal -0.248821 -0.968549 -0
    outer loop
      vertex -9.36389 -13.8696 5
      vertex -9.41254 -13.8571 0.178642
      vertex -9.36389 -13.8696 0.163021
    endloop
  endfacet
  facet normal -0.368141 -0.92977 0
    outer loop
      vertex -9.36389 -13.8696 0.163021
      vertex -9.31718 -13.8881 5
      vertex -9.36389 -13.8696 5
    endloop
  endfacet
  facet normal -0.368141 -0.92977 -0
    outer loop
      vertex -9.31718 -13.8881 5
      vertex -9.36389 -13.8696 0.163021
      vertex -9.31718 -13.8881 0.139904
    endloop
  endfacet
  facet normal -0.481744 -0.876312 0
    outer loop
      vertex -9.31718 -13.8881 0.139904
      vertex -9.27316 -13.9123 5
      vertex -9.31718 -13.8881 5
    endloop
  endfacet
  facet normal -0.481744 -0.876312 -0
    outer loop
      vertex -9.27316 -13.9123 5
      vertex -9.31718 -13.8881 0.139904
      vertex -9.27316 -13.9123 0.109653
    endloop
  endfacet
  facet normal -0.587828 -0.808986 0
    outer loop
      vertex -9.27316 -13.9123 0.109653
      vertex -9.23253 -13.9418 5
      vertex -9.27316 -13.9123 5
    endloop
  endfacet
  facet normal -0.587828 -0.808986 -0
    outer loop
      vertex -9.23253 -13.9418 5
      vertex -9.27316 -13.9123 0.109653
      vertex -9.23253 -13.9418 0.0727463
    endloop
  endfacet
  facet normal -0.684587 -0.728931 0
    outer loop
      vertex -9.23253 -13.9418 0.0727463
      vertex -9.19591 -13.9762 5
      vertex -9.23253 -13.9418 5
    endloop
  endfacet
  facet normal -0.684587 -0.728931 -0
    outer loop
      vertex -9.19591 -13.9762 5
      vertex -9.23253 -13.9418 0.0727463
      vertex -9.19591 -13.9762 0.0297546
    endloop
  endfacet
  facet normal -0.770505 -0.637433 5.46544e-06
    outer loop
      vertex -9.16389 -14.0149 0
      vertex -9.19591 -13.9762 0.0297546
      vertex -9.17622 -14 0
    endloop
  endfacet
  facet normal -0.770508 -0.637431 -0
    outer loop
      vertex -9.16389 -14.0149 5
      vertex -9.19591 -13.9762 0.0297546
      vertex -9.16389 -14.0149 0
    endloop
  endfacet
  facet normal -0.770508 -0.637431 0
    outer loop
      vertex -9.19591 -13.9762 0.0297546
      vertex -9.16389 -14.0149 5
      vertex -9.19591 -13.9762 5
    endloop
  endfacet
  facet normal -0.844361 -0.535774 0
    outer loop
      vertex -9.13698 -14.0573 0
      vertex -9.16389 -14.0149 5
      vertex -9.16389 -14.0149 0
    endloop
  endfacet
  facet normal -0.844361 -0.535774 0
    outer loop
      vertex -9.16389 -14.0149 5
      vertex -9.13698 -14.0573 0
      vertex -9.13698 -14.0573 5
    endloop
  endfacet
  facet normal -0.90475 -0.425943 0
    outer loop
      vertex -9.11559 -14.1028 0
      vertex -9.13698 -14.0573 5
      vertex -9.13698 -14.0573 0
    endloop
  endfacet
  facet normal -0.90475 -0.425943 0
    outer loop
      vertex -9.13698 -14.0573 5
      vertex -9.11559 -14.1028 0
      vertex -9.11559 -14.1028 5
    endloop
  endfacet
  facet normal -0.951085 -0.308928 0
    outer loop
      vertex -9.10007 -14.1505 0
      vertex -9.11559 -14.1028 5
      vertex -9.11559 -14.1028 0
    endloop
  endfacet
  facet normal -0.951085 -0.308928 0
    outer loop
      vertex -9.11559 -14.1028 5
      vertex -9.10007 -14.1505 0
      vertex -9.10007 -14.1505 5
    endloop
  endfacet
  facet normal -0.982283 -0.187405 0
    outer loop
      vertex -9.09065 -14.1999 0
      vertex -9.10007 -14.1505 5
      vertex -9.10007 -14.1505 0
    endloop
  endfacet
  facet normal -0.982283 -0.187405 0
    outer loop
      vertex -9.10007 -14.1505 5
      vertex -9.09065 -14.1999 0
      vertex -9.09065 -14.1999 5
    endloop
  endfacet
  facet normal -0.998021 -0.062889 0
    outer loop
      vertex -9.08749 -14.25 0
      vertex -9.09065 -14.1999 5
      vertex -9.09065 -14.1999 0
    endloop
  endfacet
  facet normal -0.998021 -0.062889 0
    outer loop
      vertex -9.09065 -14.1999 5
      vertex -9.08749 -14.25 0
      vertex -9.08749 -14.25 5
    endloop
  endfacet
  facet normal -1 0 0
    outer loop
      vertex -9.08749 -17.25 0
      vertex -9.08749 -14.25 5
      vertex -9.08749 -14.25 0
    endloop
  endfacet
  facet normal -1 -0 0
    outer loop
      vertex -9.08749 -14.25 5
      vertex -9.08749 -17.25 0
      vertex -9.08749 -17.25 5
    endloop
  endfacet
  facet normal 0 -1 0
    outer loop
      vertex -9.08749 -17.25 0
      vertex 9.08749 -17.25 5
      vertex -9.08749 -17.25 5
    endloop
  endfacet
  facet normal 0 -1 -0
    outer loop
      vertex 9.08749 -17.25 5
      vertex -9.08749 -17.25 0
      vertex 9.08749 -17.25 0
    endloop
  endfacet
  facet normal 1 -0 0
    outer loop
      vertex 9.08749 -17.25 5
      vertex 9.08749 -14.25 0
      vertex 9.08749 -14.25 5
    endloop
  endfacet
  facet normal 1 0 0
    outer loop
      vertex 9.08749 -14.25 0
      vertex 9.08749 -17.25 5
      vertex 9.08749 -17.25 0
    endloop
  endfacet
  facet normal 0.780869 0 -0.624695
    outer loop
      vertex -10 10 5
      vertex -13.85 9.48749 0.187492
      vertex -13.85 13.85 0.187492
    endloop
  endfacet
  facet normal 0.780869 0 -0.624695
    outer loop
      vertex -10 10 5
      vertex -13.8532 9.43736 0.183544
      vertex -13.85 9.48749 0.187492
    endloop
  endfacet
  facet normal 0.780869 0 -0.624695
    outer loop
      vertex -10 10 5
      vertex -13.8626 9.38802 0.171776
      vertex -13.8532 9.43736 0.183544
    endloop
  endfacet
  facet normal 0.780869 0 -0.624695
    outer loop
      vertex -10 10 5
      vertex -13.8781 9.34024 0.152378
      vertex -13.8626 9.38802 0.171776
    endloop
  endfacet
  facet normal 0.780869 0 -0.624695
    outer loop
      vertex -10 10 5
      vertex -13.8995 9.2948 0.125637
      vertex -13.8781 9.34024 0.152378
    endloop
  endfacet
  facet normal 0.780869 0 -0.624695
    outer loop
      vertex -10 10 5
      vertex -13.9264 9.25238 0.0919914
      vertex -13.8995 9.2948 0.125637
    endloop
  endfacet
  facet normal 0.780869 0 -0.624695
    outer loop
      vertex -10 10 5
      vertex -13.9584 9.21368 0.0519753
      vertex -13.9264 9.25238 0.0919914
    endloop
  endfacet
  facet normal 0.780869 0 -0.624695
    outer loop
      vertex -10 10 5
      vertex -13.995 9.17929 0.00619888
      vertex -13.9584 9.21368 0.0519753
    endloop
  endfacet
  facet normal 0.780869 0 -0.624695
    outer loop
      vertex -10 10 5
      vertex -14 9.17569 0
      vertex -13.995 9.17929 0.00619888
    endloop
  endfacet
  facet normal 0.780869 0 -0.624695
    outer loop
      vertex -10 10 5
      vertex -14 -9.17569 0
      vertex -14 9.17569 0
    endloop
  endfacet
  facet normal 0.780869 0 -0.624695
    outer loop
      vertex -10 -10 5
      vertex -14 -9.17569 0
      vertex -10 10 5
    endloop
  endfacet
  facet normal 0.780869 0 -0.624695
    outer loop
      vertex -14 -9.17569 0
      vertex -10 -10 5
      vertex -13.995 -9.17929 0.00619888
    endloop
  endfacet
  facet normal 0.780869 0 -0.624695
    outer loop
      vertex -13.995 -9.17929 0.00619888
      vertex -10 -10 5
      vertex -13.9584 -9.21368 0.0519753
    endloop
  endfacet
  facet normal 0.780869 0 -0.624695
    outer loop
      vertex -13.9584 -9.21368 0.0519753
      vertex -10 -10 5
      vertex -13.9264 -9.25238 0.0919914
    endloop
  endfacet
  facet normal 0.780869 0 -0.624695
    outer loop
      vertex -13.9264 -9.25238 0.0919914
      vertex -10 -10 5
      vertex -13.8995 -9.2948 0.125637
    endloop
  endfacet
  facet normal 0.780869 0 -0.624695
    outer loop
      vertex -13.8995 -9.2948 0.125637
      vertex -10 -10 5
      vertex -13.8781 -9.34024 0.152378
    endloop
  endfacet
  facet normal 0.780869 0 -0.624695
    outer loop
      vertex -13.8781 -9.34024 0.152378
      vertex -10 -10 5
      vertex -13.8626 -9.38802 0.171776
    endloop
  endfacet
  facet normal 0.780869 0 -0.624695
    outer loop
      vertex -13.8626 -9.38802 0.171776
      vertex -10 -10 5
      vertex -13.8532 -9.43736 0.183544
    endloop
  endfacet
  facet normal 0.780869 0 -0.624695
    outer loop
      vertex -13.8532 -9.43736 0.183544
      vertex -10 -10 5
      vertex -13.85 -9.48749 0.187492
    endloop
  endfacet
  facet normal 0.780869 0 -0.624695
    outer loop
      vertex -13.85 -9.48749 0.187492
      vertex -10 -10 5
      vertex -13.85 -13.85 0.187492
    endloop
  endfacet
  facet normal 0 0.780869 -0.624695
    outer loop
      vertex 9.31718 -13.8881 0.139904
      vertex 10 -10 5
      vertex 9.36389 -13.8696 0.163021
    endloop
  endfacet
  facet normal 0 0.780869 -0.624695
    outer loop
      vertex -10 -10 5
      vertex -9.41254 -13.8571 0.178642
      vertex -9.46237 -13.8508 0.186501
    endloop
  endfacet
  facet normal 0 0.780869 -0.624695
    outer loop
      vertex 9.27316 -13.9123 0.109653
      vertex 10 -10 5
      vertex 9.31718 -13.8881 0.139904
    endloop
  endfacet
  facet normal 0 0.780869 -0.624695
    outer loop
      vertex -10 -10 5
      vertex -9.36389 -13.8696 0.163021
      vertex -9.41254 -13.8571 0.178642
    endloop
  endfacet
  facet normal 0 0.780869 -0.624695
    outer loop
      vertex 9.23253 -13.9418 0.0727463
      vertex 10 -10 5
      vertex 9.27316 -13.9123 0.109653
    endloop
  endfacet
  facet normal 0 0.780869 -0.624695
    outer loop
      vertex -10 -10 5
      vertex -9.31718 -13.8881 0.139904
      vertex -9.36389 -13.8696 0.163021
    endloop
  endfacet
  facet normal 0 0.780869 -0.624695
    outer loop
      vertex 9.19591 -13.9762 0.0297546
      vertex 10 -10 5
      vertex 9.23253 -13.9418 0.0727463
    endloop
  endfacet
  facet normal 0 0.780869 -0.624695
    outer loop
      vertex -10 -10 5
      vertex -9.27316 -13.9123 0.109653
      vertex -9.31718 -13.8881 0.139904
    endloop
  endfacet
  facet normal 0 0.780869 -0.624695
    outer loop
      vertex 9.17622 -14 0
      vertex 10 -10 5
      vertex 9.19591 -13.9762 0.0297546
    endloop
  endfacet
  facet normal 0 0.780869 -0.624695
    outer loop
      vertex -10 -10 5
      vertex -9.23253 -13.9418 0.0727463
      vertex -9.27316 -13.9123 0.109653
    endloop
  endfacet
  facet normal 0 0.780869 -0.624695
    outer loop
      vertex 10 -10 5
      vertex 9.17622 -14 0
      vertex -10 -10 5
    endloop
  endfacet
  facet normal 0 0.780869 -0.624695
    outer loop
      vertex -10 -10 5
      vertex -9.19591 -13.9762 0.0297546
      vertex -9.23253 -13.9418 0.0727463
    endloop
  endfacet
  facet normal 0 0.780869 -0.624695
    outer loop
      vertex -9.17622 -14 0
      vertex -10 -10 5
      vertex 9.17622 -14 0
    endloop
  endfacet
  facet normal 0 0.780869 -0.624695
    outer loop
      vertex -10 -10 5
      vertex -9.17622 -14 0
      vertex -9.19591 -13.9762 0.0297546
    endloop
  endfacet
  facet normal 0 0.780869 -0.624695
    outer loop
      vertex 9.46237 -13.8508 0.186501
      vertex 10 -10 5
      vertex 13.85 -13.85 0.187492
    endloop
  endfacet
  facet normal 0 0.780869 -0.624695
    outer loop
      vertex 9.41254 -13.8571 0.178642
      vertex 10 -10 5
      vertex 9.46237 -13.8508 0.186501
    endloop
  endfacet
  facet normal 0 0.780869 -0.624695
    outer loop
      vertex 9.46237 -13.8508 0.186501
      vertex 13.85 -13.85 0.187492
      vertex 13.85 -13.8508 0.186501
    endloop
  endfacet
  facet normal 0 0.780869 -0.624695
    outer loop
      vertex 9.36389 -13.8696 0.163021
      vertex 10 -10 5
      vertex 9.41254 -13.8571 0.178642
    endloop
  endfacet
  facet normal 0 0.780869 -0.624695
    outer loop
      vertex -10 -10 5
      vertex -9.46237 -13.8508 0.186501
      vertex -13.85 -13.85 0.187492
    endloop
  endfacet
  facet normal 0 0.780869 -0.624695
    outer loop
      vertex -13.85 -13.85 0.187492
      vertex -9.46237 -13.8508 0.186501
      vertex -13.85 -13.8508 0.186501
    endloop
  endfacet
  facet normal 0 -0.780869 -0.624695
    outer loop
      vertex -9.31718 13.8881 0.139904
      vertex -10 10 5
      vertex -9.36389 13.8696 0.163021
    endloop
  endfacet
  facet normal 0 -0.780869 -0.624695
    outer loop
      vertex 10 10 5
      vertex 9.41254 13.8571 0.178642
      vertex 9.46237 13.8508 0.186501
    endloop
  endfacet
  facet normal 0 -0.780869 -0.624695
    outer loop
      vertex -9.27316 13.9123 0.109653
      vertex -10 10 5
      vertex -9.31718 13.8881 0.139904
    endloop
  endfacet
  facet normal 0 -0.780869 -0.624695
    outer loop
      vertex 10 10 5
      vertex 9.36389 13.8696 0.163021
      vertex 9.41254 13.8571 0.178642
    endloop
  endfacet
  facet normal 0 -0.780869 -0.624695
    outer loop
      vertex -9.23253 13.9418 0.0727463
      vertex -10 10 5
      vertex -9.27316 13.9123 0.109653
    endloop
  endfacet
  facet normal 0 -0.780869 -0.624695
    outer loop
      vertex 10 10 5
      vertex 9.31718 13.8881 0.139904
      vertex 9.36389 13.8696 0.163021
    endloop
  endfacet
  facet normal 0 -0.780869 -0.624695
    outer loop
      vertex -9.19591 13.9762 0.0297546
      vertex -10 10 5
      vertex -9.23253 13.9418 0.0727463
    endloop
  endfacet
  facet normal 0 -0.780869 -0.624695
    outer loop
      vertex 10 10 5
      vertex 9.27316 13.9123 0.109653
      vertex 9.31718 13.8881 0.139904
    endloop
  endfacet
  facet normal 0 -0.780869 -0.624695
    outer loop
      vertex -9.17622 14 0
      vertex -10 10 5
      vertex -9.19591 13.9762 0.0297546
    endloop
  endfacet
  facet normal 0 -0.780869 -0.624695
    outer loop
      vertex 10 10 5
      vertex 9.23253 13.9418 0.0727463
      vertex 9.27316 13.9123 0.109653
    endloop
  endfacet
  facet normal 0 -0.780869 -0.624695
    outer loop
      vertex -10 10 5
      vertex -9.17622 14 0
      vertex 10 10 5
    endloop
  endfacet
  facet normal 0 -0.780869 -0.624695
    outer loop
      vertex 10 10 5
      vertex 9.19591 13.9762 0.0297546
      vertex 9.23253 13.9418 0.0727463
    endloop
  endfacet
  facet normal -0 -0.780869 -0.624695
    outer loop
      vertex 9.17622 14 0
      vertex 10 10 5
      vertex -9.17622 14 0
    endloop
  endfacet
  facet normal 0 -0.780869 -0.624695
    outer loop
      vertex 10 10 5
      vertex 9.17622 14 0
      vertex 9.19591 13.9762 0.0297546
    endloop
  endfacet
  facet normal 0 -0.780869 -0.624695
    outer loop
      vertex -9.46237 13.8508 0.186501
      vertex -10 10 5
      vertex -13.85 13.85 0.187492
    endloop
  endfacet
  facet normal 0 -0.780869 -0.624695
    outer loop
      vertex -9.41254 13.8571 0.178642
      vertex -10 10 5
      vertex -9.46237 13.8508 0.186501
    endloop
  endfacet
  facet normal -0 -0.780869 -0.624695
    outer loop
      vertex -9.46237 13.8508 0.186501
      vertex -13.85 13.85 0.187492
      vertex -13.85 13.8508 0.186501
    endloop
  endfacet
  facet normal 0 -0.780869 -0.624695
    outer loop
      vertex -9.36389 13.8696 0.163021
      vertex -10 10 5
      vertex -9.41254 13.8571 0.178642
    endloop
  endfacet
  facet normal 0 -0.780869 -0.624695
    outer loop
      vertex 10 10 5
      vertex 9.46237 13.8508 0.186501
      vertex 13.85 13.85 0.187492
    endloop
  endfacet
  facet normal 0 -0.780869 -0.624695
    outer loop
      vertex 13.85 13.85 0.187492
      vertex 9.46237 13.8508 0.186501
      vertex 13.85 13.8508 0.186501
    endloop
  endfacet
  facet normal -0.780869 0 -0.624695
    outer loop
      vertex 13.85 9.48749 0.187492
      vertex 10 10 5
      vertex 13.85 13.85 0.187492
    endloop
  endfacet
  facet normal -0.780869 0 -0.624695
    outer loop
      vertex 13.8532 9.43736 0.183544
      vertex 10 10 5
      vertex 13.85 9.48749 0.187492
    endloop
  endfacet
  facet normal -0.780869 0 -0.624695
    outer loop
      vertex 13.8626 9.38802 0.171776
      vertex 10 10 5
      vertex 13.8532 9.43736 0.183544
    endloop
  endfacet
  facet normal -0.780869 0 -0.624695
    outer loop
      vertex 13.8781 9.34024 0.152378
      vertex 10 10 5
      vertex 13.8626 9.38802 0.171776
    endloop
  endfacet
  facet normal -0.780869 0 -0.624695
    outer loop
      vertex 13.8995 9.2948 0.125637
      vertex 10 10 5
      vertex 13.8781 9.34024 0.152378
    endloop
  endfacet
  facet normal -0.780869 0 -0.624695
    outer loop
      vertex 13.9264 9.25238 0.0919914
      vertex 10 10 5
      vertex 13.8995 9.2948 0.125637
    endloop
  endfacet
  facet normal -0.780869 0 -0.624695
    outer loop
      vertex 13.9584 9.21368 0.0519753
      vertex 10 10 5
      vertex 13.9264 9.25238 0.0919914
    endloop
  endfacet
  facet normal -0.780869 0 -0.624695
    outer loop
      vertex 13.995 9.17929 0.00619888
      vertex 10 10 5
      vertex 13.9584 9.21368 0.0519753
    endloop
  endfacet
  facet normal -0.780869 0 -0.624695
    outer loop
      vertex 14 9.17569 0
      vertex 10 10 5
      vertex 13.995 9.17929 0.00619888
    endloop
  endfacet
  facet normal -0.780869 0 -0.624695
    outer loop
      vertex 14 -9.17569 0
      vertex 10 10 5
      vertex 14 9.17569 0
    endloop
  endfacet
  facet normal -0.780869 0 -0.624695
    outer loop
      vertex 10 -10 5
      vertex 14 -9.17569 0
      vertex 13.995 -9.17929 0.00619888
    endloop
  endfacet
  facet normal -0.780869 0 -0.624695
    outer loop
      vertex 10 -10 5
      vertex 13.995 -9.17929 0.00619888
      vertex 13.9584 -9.21368 0.0519753
    endloop
  endfacet
  facet normal -0.780869 0 -0.624695
    outer loop
      vertex 10 -10 5
      vertex 13.9584 -9.21368 0.0519753
      vertex 13.9264 -9.25238 0.0919914
    endloop
  endfacet
  facet normal -0.780869 0 -0.624695
    outer loop
      vertex 10 -10 5
      vertex 13.9264 -9.25238 0.0919914
      vertex 13.8995 -9.2948 0.125637
    endloop
  endfacet
  facet normal -0.780869 0 -0.624695
    outer loop
      vertex 10 -10 5
      vertex 13.8995 -9.2948 0.125637
      vertex 13.8781 -9.34024 0.152378
    endloop
  endfacet
  facet normal -0.780869 0 -0.624695
    outer loop
      vertex 10 -10 5
      vertex 13.8781 -9.34024 0.152378
      vertex 13.8626 -9.38802 0.171776
    endloop
  endfacet
  facet normal -0.780869 0 -0.624695
    outer loop
      vertex 10 -10 5
      vertex 13.8626 -9.38802 0.171776
      vertex 13.8532 -9.43736 0.183544
    endloop
  endfacet
  facet normal -0.780869 0 -0.624695
    outer loop
      vertex 10 -10 5
      vertex 13.8532 -9.43736 0.183544
      vertex 13.85 -9.48749 0.187492
    endloop
  endfacet
  facet normal -0.780869 0 -0.624695
    outer loop
      vertex 14 -9.17569 0
      vertex 10 -10 5
      vertex 10 10 5
    endloop
  endfacet
  facet normal -0.780869 0 -0.624695
    outer loop
      vertex 10 -10 5
      vertex 13.85 -9.48749 0.187492
      vertex 13.85 -13.85 0.187492
    endloop
  endfacet
endsolid OpenSCAD_Model
