solid OpenSCAD_Model
  facet normal -1 0 0
    outer loop
      vertex -20 -20 -1.5
      vertex -20 -5 1.5
      vertex -20 -5 -1.5
    endloop
  endfacet
  facet normal -1 -0 0
    outer loop
      vertex -20 -5 1.5
      vertex -20 -20 -1.5
      vertex -20 -20 1.5
    endloop
  endfacet
  facet normal -1 0 0
    outer loop
      vertex -20 5 -1.5
      vertex -20 20 1.5
      vertex -20 20 -1.5
    endloop
  endfacet
  facet normal -1 -0 0
    outer loop
      vertex -20 20 1.5
      vertex -20 5 -1.5
      vertex -20 5 1.5
    endloop
  endfacet
  facet normal 1 -0 0
    outer loop
      vertex -20 -5 -1.5
      vertex -20 5 -4.5
      vertex -20 5 -1.5
    endloop
  endfacet
  facet normal 1 0 0
    outer loop
      vertex -20 5 -4.5
      vertex -20 -5 -1.5
      vertex -20 -5 -4.5
    endloop
  endfacet
  facet normal -0 0 1
    outer loop
      vertex -30 5 1.5
      vertex -20 -5 1.5
      vertex -20 5 1.5
    endloop
  endfacet
  facet normal 0 0 1
    outer loop
      vertex -20 -5 1.5
      vertex -30 5 1.5
      vertex -30 -5 1.5
    endloop
  endfacet
  facet normal -0 0 1
    outer loop
      vertex 11.5 11.5 1.5
      vertex 20 5 1.5
      vertex 20 20 1.5
    endloop
  endfacet
  facet normal 0 0 1
    outer loop
      vertex 20 5 1.5
      vertex 11.5 11.5 1.5
      vertex 20 -5 1.5
    endloop
  endfacet
  facet normal 0 0 1
    outer loop
      vertex 11.5 -11.5 1.5
      vertex 20 -5 1.5
      vertex 11.5 11.5 1.5
    endloop
  endfacet
  facet normal 0 0 1
    outer loop
      vertex 20 20 1.5
      vertex -11.5 11.5 1.5
      vertex 11.5 11.5 1.5
    endloop
  endfacet
  facet normal 0 0 1
    outer loop
      vertex -20 5 1.5
      vertex -11.5 11.5 1.5
      vertex -20 20 1.5
    endloop
  endfacet
  facet normal -0 0 1
    outer loop
      vertex -20 20 1.5
      vertex -11.5 11.5 1.5
      vertex 20 20 1.5
    endloop
  endfacet
  facet normal -0 0 1
    outer loop
      vertex 20 5 1.5
      vertex 30 -5 1.5
      vertex 30 5 1.5
    endloop
  endfacet
  facet normal 0 0 1
    outer loop
      vertex 30 -5 1.5
      vertex 20 5 1.5
      vertex 20 -5 1.5
    endloop
  endfacet
  facet normal 0 0 1
    outer loop
      vertex 20 -5 1.5
      vertex 11.5 -11.5 1.5
      vertex 20 -20 1.5
    endloop
  endfacet
  facet normal -0 0 1
    outer loop
      vertex -11.5 -11.5 1.5
      vertex 20 -20 1.5
      vertex 11.5 -11.5 1.5
    endloop
  endfacet
  facet normal 0 0 1
    outer loop
      vertex -11.5 11.5 1.5
      vertex -20 5 1.5
      vertex -11.5 -11.5 1.5
    endloop
  endfacet
  facet normal -0 0 1
    outer loop
      vertex -20 -5 1.5
      vertex -11.5 -11.5 1.5
      vertex -20 5 1.5
    endloop
  endfacet
  facet normal 0 0 1
    outer loop
      vertex -11.5 -11.5 1.5
      vertex -20 -20 1.5
      vertex 20 -20 1.5
    endloop
  endfacet
  facet normal 0 0 1
    outer loop
      vertex -20 -20 1.5
      vertex -11.5 -11.5 1.5
      vertex -20 -5 1.5
    endloop
  endfacet
  facet normal 1 -0 0
    outer loop
      vertex 20 -20 1.5
      vertex 20 -5 -1.5
      vertex 20 -5 1.5
    endloop
  endfacet
  facet normal 1 0 0
    outer loop
      vertex 20 -5 -1.5
      vertex 20 -20 1.5
      vertex 20 -20 -1.5
    endloop
  endfacet
  facet normal 1 -0 0
    outer loop
      vertex 20 5 1.5
      vertex 20 20 -1.5
      vertex 20 20 1.5
    endloop
  endfacet
  facet normal 1 0 0
    outer loop
      vertex 20 20 -1.5
      vertex 20 5 1.5
      vertex 20 5 -1.5
    endloop
  endfacet
  facet normal -1 0 0
    outer loop
      vertex 20 -5 -4.5
      vertex 20 5 -1.5
      vertex 20 5 -4.5
    endloop
  endfacet
  facet normal -1 -0 0
    outer loop
      vertex 20 5 -1.5
      vertex 20 -5 -4.5
      vertex 20 -5 -1.5
    endloop
  endfacet
  facet normal 0 0 -1
    outer loop
      vertex 13 -13 -1.5
      vertex 11.5 -11.5 -1.5
      vertex 13 13 -1.5
    endloop
  endfacet
  facet normal 0 0 -1
    outer loop
      vertex 13 -13 -1.5
      vertex -11.5 -11.5 -1.5
      vertex 11.5 -11.5 -1.5
    endloop
  endfacet
  facet normal -0 0 -1
    outer loop
      vertex -11.5 -11.5 -1.5
      vertex -13 -13 -1.5
      vertex -11.5 11.5 -1.5
    endloop
  endfacet
  facet normal 0 0 -1
    outer loop
      vertex -13 -13 -1.5
      vertex -11.5 -11.5 -1.5
      vertex 13 -13 -1.5
    endloop
  endfacet
  facet normal 0 0 -1
    outer loop
      vertex 11.5 11.5 -1.5
      vertex 13 13 -1.5
      vertex 11.5 -11.5 -1.5
    endloop
  endfacet
  facet normal 0 0 -1
    outer loop
      vertex -11.5 11.5 -1.5
      vertex 13 13 -1.5
      vertex 11.5 11.5 -1.5
    endloop
  endfacet
  facet normal 0 0 -1
    outer loop
      vertex -11.5 11.5 -1.5
      vertex -13 13 -1.5
      vertex 13 13 -1.5
    endloop
  endfacet
  facet normal 0 0 -1
    outer loop
      vertex -13 13 -1.5
      vertex -11.5 11.5 -1.5
      vertex -13 -13 -1.5
    endloop
  endfacet
  facet normal 0 0 -1
    outer loop
      vertex 18.5 -18.5 -1.5
      vertex 20 -5 -1.5
      vertex 20 -20 -1.5
    endloop
  endfacet
  facet normal -0 0 -1
    outer loop
      vertex 20 -5 -1.5
      vertex 18.5 -18.5 -1.5
      vertex 20 5 -1.5
    endloop
  endfacet
  facet normal 0 0 -1
    outer loop
      vertex 18.5 18.5 -1.5
      vertex 20 5 -1.5
      vertex 18.5 -18.5 -1.5
    endloop
  endfacet
  facet normal 0 0 -1
    outer loop
      vertex 20 -20 -1.5
      vertex -18.5 -18.5 -1.5
      vertex 18.5 -18.5 -1.5
    endloop
  endfacet
  facet normal 0 0 -1
    outer loop
      vertex -20 -5 -1.5
      vertex -18.5 -18.5 -1.5
      vertex -20 -20 -1.5
    endloop
  endfacet
  facet normal 0 0 -1
    outer loop
      vertex -20 -20 -1.5
      vertex -18.5 -18.5 -1.5
      vertex 20 -20 -1.5
    endloop
  endfacet
  facet normal 0 0 -1
    outer loop
      vertex 20 5 -1.5
      vertex 18.5 18.5 -1.5
      vertex 20 20 -1.5
    endloop
  endfacet
  facet normal 0 0 -1
    outer loop
      vertex -18.5 18.5 -1.5
      vertex 20 20 -1.5
      vertex 18.5 18.5 -1.5
    endloop
  endfacet
  facet normal 0 0 -1
    outer loop
      vertex -18.5 -18.5 -1.5
      vertex -20 -5 -1.5
      vertex -18.5 18.5 -1.5
    endloop
  endfacet
  facet normal 0 0 -1
    outer loop
      vertex -20 5 -1.5
      vertex -18.5 18.5 -1.5
      vertex -20 -5 -1.5
    endloop
  endfacet
  facet normal 0 0 -1
    outer loop
      vertex -18.5 18.5 -1.5
      vertex -20 20 -1.5
      vertex 20 20 -1.5
    endloop
  endfacet
  facet normal 0 0 -1
    outer loop
      vertex -20 20 -1.5
      vertex -18.5 18.5 -1.5
      vertex -20 5 -1.5
    endloop
  endfacet
  facet normal 0 -1 0
    outer loop
      vertex -20 -20 -1.5
      vertex 20 -20 1.5
      vertex -20 -20 1.5
    endloop
  endfacet
  facet normal 0 -1 -0
    outer loop
      vertex 20 -20 1.5
      vertex -20 -20 -1.5
      vertex 20 -20 -1.5
    endloop
  endfacet
  facet normal 0 1 -0
    outer loop
      vertex 20 20 -1.5
      vertex -20 20 1.5
      vertex 20 20 1.5
    endloop
  endfacet
  facet normal 0 1 0
    outer loop
      vertex -20 20 1.5
      vertex 20 20 -1.5
      vertex -20 20 -1.5
    endloop
  endfacet
  facet normal 1 -0 0
    outer loop
      vertex -11.5 -11.5 1.5
      vertex -11.5 11.5 -1.5
      vertex -11.5 11.5 1.5
    endloop
  endfacet
  facet normal 1 0 0
    outer loop
      vertex -11.5 11.5 -1.5
      vertex -11.5 -11.5 1.5
      vertex -11.5 -11.5 -1.5
    endloop
  endfacet
  facet normal -1 0 0
    outer loop
      vertex 11.5 -11.5 -1.5
      vertex 11.5 11.5 1.5
      vertex 11.5 11.5 -1.5
    endloop
  endfacet
  facet normal -1 -0 0
    outer loop
      vertex 11.5 11.5 1.5
      vertex 11.5 -11.5 -1.5
      vertex 11.5 -11.5 1.5
    endloop
  endfacet
  facet normal 0 -1 0
    outer loop
      vertex -11.5 11.5 -1.5
      vertex 11.5 11.5 1.5
      vertex -11.5 11.5 1.5
    endloop
  endfacet
  facet normal 0 -1 -0
    outer loop
      vertex 11.5 11.5 1.5
      vertex -11.5 11.5 -1.5
      vertex 11.5 11.5 -1.5
    endloop
  endfacet
  facet normal 0 1 -0
    outer loop
      vertex 11.5 -11.5 -1.5
      vertex -11.5 -11.5 1.5
      vertex 11.5 -11.5 1.5
    endloop
  endfacet
  facet normal 0 1 0
    outer loop
      vertex -11.5 -11.5 1.5
      vertex 11.5 -11.5 -1.5
      vertex -11.5 -11.5 -1.5
    endloop
  endfacet
  facet normal -1 0 0
    outer loop
      vertex -18.5 -18.5 -4.5
      vertex -18.5 18.5 -1.5
      vertex -18.5 18.5 -4.5
    endloop
  endfacet
  facet normal -1 -0 0
    outer loop
      vertex -18.5 18.5 -1.5
      vertex -18.5 -18.5 -4.5
      vertex -18.5 -18.5 -1.5
    endloop
  endfacet
  facet normal 1 -0 0
    outer loop
      vertex 18.5 -18.5 -1.5
      vertex 18.5 18.5 -4.5
      vertex 18.5 18.5 -1.5
    endloop
  endfacet
  facet normal 1 0 0
    outer loop
      vertex 18.5 18.5 -4.5
      vertex 18.5 -18.5 -1.5
      vertex 18.5 -18.5 -4.5
    endloop
  endfacet
  facet normal 0 1 -0
    outer loop
      vertex 18.5 18.5 -4.5
      vertex -18.5 18.5 -1.5
      vertex 18.5 18.5 -1.5
    endloop
  endfacet
  facet normal 0 1 0
    outer loop
      vertex -18.5 18.5 -1.5
      vertex 18.5 18.5 -4.5
      vertex -18.5 18.5 -4.5
    endloop
  endfacet
  facet normal 0 0 -1
    outer loop
      vertex 18.5 -18.5 -4.5
      vertex 13 -13 -4.5
      vertex 18.5 18.5 -4.5
    endloop
  endfacet
  facet normal 0 0 -1
    outer loop
      vertex 18.5 -18.5 -4.5
      vertex -13 -13 -4.5
      vertex 13 -13 -4.5
    endloop
  endfacet
  facet normal -0 0 -1
    outer loop
      vertex -13 -13 -4.5
      vertex -18.5 -18.5 -4.5
      vertex -13 13 -4.5
    endloop
  endfacet
  facet normal 0 0 -1
    outer loop
      vertex -18.5 -18.5 -4.5
      vertex -13 -13 -4.5
      vertex 18.5 -18.5 -4.5
    endloop
  endfacet
  facet normal 0 0 -1
    outer loop
      vertex 13 13 -4.5
      vertex 18.5 18.5 -4.5
      vertex 13 -13 -4.5
    endloop
  endfacet
  facet normal 0 0 -1
    outer loop
      vertex -13 13 -4.5
      vertex 18.5 18.5 -4.5
      vertex 13 13 -4.5
    endloop
  endfacet
  facet normal 0 0 -1
    outer loop
      vertex -13 13 -4.5
      vertex -18.5 18.5 -4.5
      vertex 18.5 18.5 -4.5
    endloop
  endfacet
  facet normal 0 0 -1
    outer loop
      vertex -18.5 18.5 -4.5
      vertex -13 13 -4.5
      vertex -18.5 -18.5 -4.5
    endloop
  endfacet
  facet normal 0 -1 0
    outer loop
      vertex -18.5 -18.5 -4.5
      vertex 18.5 -18.5 -1.5
      vertex -18.5 -18.5 -1.5
    endloop
  endfacet
  facet normal 0 -1 -0
    outer loop
      vertex 18.5 -18.5 -1.5
      vertex -18.5 -18.5 -4.5
      vertex 18.5 -18.5 -4.5
    endloop
  endfacet
  facet normal 1 -0 0
    outer loop
      vertex -13 -13 -1.5
      vertex -13 13 -4.5
      vertex -13 13 -1.5
    endloop
  endfacet
  facet normal 1 0 0
    outer loop
      vertex -13 13 -4.5
      vertex -13 -13 -1.5
      vertex -13 -13 -4.5
    endloop
  endfacet
  facet normal -1 0 0
    outer loop
      vertex 13 -13 -4.5
      vertex 13 13 -1.5
      vertex 13 13 -4.5
    endloop
  endfacet
  facet normal -1 -0 0
    outer loop
      vertex 13 13 -1.5
      vertex 13 -13 -4.5
      vertex 13 -13 -1.5
    endloop
  endfacet
  facet normal 0 1 -0
    outer loop
      vertex 13 -13 -4.5
      vertex -13 -13 -1.5
      vertex 13 -13 -1.5
    endloop
  endfacet
  facet normal 0 1 0
    outer loop
      vertex -13 -13 -1.5
      vertex 13 -13 -4.5
      vertex -13 -13 -4.5
    endloop
  endfacet
  facet normal 0 -1 0
    outer loop
      vertex -13 13 -4.5
      vertex 13 13 -1.5
      vertex -13 13 -1.5
    endloop
  endfacet
  facet normal 0 -1 -0
    outer loop
      vertex 13 13 -1.5
      vertex -13 13 -4.5
      vertex 13 13 -4.5
    endloop
  endfacet
  facet normal 1 -0 0
    outer loop
      vertex 30 -5 1.5
      vertex 30 5 -4.5
      vertex 30 5 1.5
    endloop
  endfacet
  facet normal 1 0 0
    outer loop
      vertex 30 5 -4.5
      vertex 30 -5 1.5
      vertex 30 -5 -4.5
    endloop
  endfacet
  facet normal 0 1 0
    outer loop
      vertex 30 5 1.5
      vertex 20 5 -1.5
      vertex 20 5 1.5
    endloop
  endfacet
  facet normal 0 1 -0
    outer loop
      vertex 30 5 -4.5
      vertex 20 5 -1.5
      vertex 30 5 1.5
    endloop
  endfacet
  facet normal 0 1 0
    outer loop
      vertex 20 5 -1.5
      vertex 30 5 -4.5
      vertex 20 5 -4.5
    endloop
  endfacet
  facet normal 0 0 -1
    outer loop
      vertex 20 -5 -4.5
      vertex 30 5 -4.5
      vertex 30 -5 -4.5
    endloop
  endfacet
  facet normal -0 0 -1
    outer loop
      vertex 30 5 -4.5
      vertex 20 -5 -4.5
      vertex 20 5 -4.5
    endloop
  endfacet
  facet normal 0 -1 0
    outer loop
      vertex 20 -5 -1.5
      vertex 30 -5 1.5
      vertex 20 -5 1.5
    endloop
  endfacet
  facet normal 0 -1 0
    outer loop
      vertex 30 -5 -4.5
      vertex 20 -5 -1.5
      vertex 20 -5 -4.5
    endloop
  endfacet
  facet normal 0 -1 0
    outer loop
      vertex 20 -5 -1.5
      vertex 30 -5 -4.5
      vertex 30 -5 1.5
    endloop
  endfacet
  facet normal -1 0 0
    outer loop
      vertex -30 -5 -4.5
      vertex -30 5 1.5
      vertex -30 5 -4.5
    endloop
  endfacet
  facet normal -1 -0 0
    outer loop
      vertex -30 5 1.5
      vertex -30 -5 -4.5
      vertex -30 -5 1.5
    endloop
  endfacet
  facet normal 0 1 -0
    outer loop
      vertex -20 5 -1.5
      vertex -30 5 1.5
      vertex -20 5 1.5
    endloop
  endfacet
  facet normal 0 1 0
    outer loop
      vertex -30 5 -4.5
      vertex -20 5 -1.5
      vertex -20 5 -4.5
    endloop
  endfacet
  facet normal 0 1 0
    outer loop
      vertex -20 5 -1.5
      vertex -30 5 -4.5
      vertex -30 5 1.5
    endloop
  endfacet
  facet normal 0 0 -1
    outer loop
      vertex -30 -5 -4.5
      vertex -20 5 -4.5
      vertex -20 -5 -4.5
    endloop
  endfacet
  facet normal -0 0 -1
    outer loop
      vertex -20 5 -4.5
      vertex -30 -5 -4.5
      vertex -30 5 -4.5
    endloop
  endfacet
  facet normal 0 -1 0
    outer loop
      vertex -30 -5 1.5
      vertex -20 -5 -1.5
      vertex -20 -5 1.5
    endloop
  endfacet
  facet normal 0 -1 0
    outer loop
      vertex -30 -5 -4.5
      vertex -20 -5 -1.5
      vertex -30 -5 1.5
    endloop
  endfacet
  facet normal 0 -1 -0
    outer loop
      vertex -20 -5 -1.5
      vertex -30 -5 -4.5
      vertex -20 -5 -4.5
    endloop
  endfacet
endsolid OpenSCAD_Model
