solid OpenSCAD_Model
  facet normal -1 0 0
    outer loop
      vertex -19.65 -19.65 -16.175
      vertex -19.65 19.65 16.175
      vertex -19.65 19.65 -16.175
    endloop
  endfacet
  facet normal -1 -0 0
    outer loop
      vertex -19.65 19.65 16.175
      vertex -19.65 -19.65 -16.175
      vertex -19.65 -19.65 16.175
    endloop
  endfacet
  facet normal 0 0 1
    outer loop
      vertex 19.65 19.65 16.175
      vertex 18.15 18.15 16.175
      vertex 19.65 -19.65 16.175
    endloop
  endfacet
  facet normal 0 0 1
    outer loop
      vertex 19.65 19.65 16.175
      vertex -18.15 18.15 16.175
      vertex 18.15 18.15 16.175
    endloop
  endfacet
  facet normal 0 0 1
    outer loop
      vertex -18.15 18.15 16.175
      vertex -19.65 19.65 16.175
      vertex -18.15 -18.15 16.175
    endloop
  endfacet
  facet normal -0 0 1
    outer loop
      vertex -19.65 19.65 16.175
      vertex -18.15 18.15 16.175
      vertex 19.65 19.65 16.175
    endloop
  endfacet
  facet normal -0 0 1
    outer loop
      vertex 18.15 -18.15 16.175
      vertex 19.65 -19.65 16.175
      vertex 18.15 18.15 16.175
    endloop
  endfacet
  facet normal -0 0 1
    outer loop
      vertex -18.15 -18.15 16.175
      vertex 19.65 -19.65 16.175
      vertex 18.15 -18.15 16.175
    endloop
  endfacet
  facet normal 0 0 1
    outer loop
      vertex -18.15 -18.15 16.175
      vertex -19.65 -19.65 16.175
      vertex 19.65 -19.65 16.175
    endloop
  endfacet
  facet normal 0 0 1
    outer loop
      vertex -19.65 -19.65 16.175
      vertex -18.15 -18.15 16.175
      vertex -19.65 19.65 16.175
    endloop
  endfacet
  facet normal 1 -0 0
    outer loop
      vertex 19.65 -19.65 16.175
      vertex 19.65 19.65 -16.175
      vertex 19.65 19.65 16.175
    endloop
  endfacet
  facet normal 1 0 0
    outer loop
      vertex 19.65 19.65 -16.175
      vertex 19.65 -19.65 16.175
      vertex 19.65 -19.65 -16.175
    endloop
  endfacet
  facet normal 0 1 -0
    outer loop
      vertex 19.65 19.65 -16.175
      vertex -19.65 19.65 16.175
      vertex 19.65 19.65 16.175
    endloop
  endfacet
  facet normal 0 1 0
    outer loop
      vertex -19.65 19.65 16.175
      vertex 19.65 19.65 -16.175
      vertex -19.65 19.65 -16.175
    endloop
  endfacet
  facet normal 0 0 -1
    outer loop
      vertex -12.5 12.5 -16.175
      vertex -16.65 12.5 -16.175
      vertex -12.5 16.65 -16.175
    endloop
  endfacet
  facet normal 0 0 -1
    outer loop
      vertex 19.65 -19.65 -16.175
      vertex 16.65 -12.5 -16.175
      vertex 19.65 19.65 -16.175
    endloop
  endfacet
  facet normal 0 0 -1
    outer loop
      vertex 19.65 -19.65 -16.175
      vertex 12.5 -16.65 -16.175
      vertex 16.65 -12.5 -16.175
    endloop
  endfacet
  facet normal 0 0 -1
    outer loop
      vertex 19.65 -19.65 -16.175
      vertex -12.5 -16.65 -16.175
      vertex 12.5 -16.65 -16.175
    endloop
  endfacet
  facet normal 0 0 -1
    outer loop
      vertex -12.5 -16.65 -16.175
      vertex -16.65 -12.5 -16.175
      vertex -12.5 -12.5 -16.175
    endloop
  endfacet
  facet normal -0 0 -1
    outer loop
      vertex -16.65 -12.5 -16.175
      vertex -19.65 -19.65 -16.175
      vertex -16.65 12.5 -16.175
    endloop
  endfacet
  facet normal -0 0 -1
    outer loop
      vertex -12.5 -16.65 -16.175
      vertex -19.65 -19.65 -16.175
      vertex -16.65 -12.5 -16.175
    endloop
  endfacet
  facet normal 0 0 -1
    outer loop
      vertex -19.65 -19.65 -16.175
      vertex -12.5 -16.65 -16.175
      vertex 19.65 -19.65 -16.175
    endloop
  endfacet
  facet normal 0 0 -1
    outer loop
      vertex 16.65 12.5 -16.175
      vertex 19.65 19.65 -16.175
      vertex 16.65 -12.5 -16.175
    endloop
  endfacet
  facet normal 0 0 -1
    outer loop
      vertex 12.5 16.65 -16.175
      vertex 16.65 12.5 -16.175
      vertex 12.5 12.5 -16.175
    endloop
  endfacet
  facet normal 0 0 -1
    outer loop
      vertex 16.65 12.5 -16.175
      vertex 12.5 16.65 -16.175
      vertex 19.65 19.65 -16.175
    endloop
  endfacet
  facet normal 0 0 -1
    outer loop
      vertex -12.5 16.65 -16.175
      vertex 19.65 19.65 -16.175
      vertex 12.5 16.65 -16.175
    endloop
  endfacet
  facet normal 0 0 -1
    outer loop
      vertex -12.5 16.65 -16.175
      vertex -19.65 19.65 -16.175
      vertex 19.65 19.65 -16.175
    endloop
  endfacet
  facet normal 0 0 -1
    outer loop
      vertex -16.65 12.5 -16.175
      vertex -19.65 19.65 -16.175
      vertex -12.5 16.65 -16.175
    endloop
  endfacet
  facet normal 0 0 -1
    outer loop
      vertex -19.65 19.65 -16.175
      vertex -16.65 12.5 -16.175
      vertex -19.65 -19.65 -16.175
    endloop
  endfacet
  facet normal -0 0 -1
    outer loop
      vertex 16.65 -12.5 -16.175
      vertex 12.5 -16.65 -16.175
      vertex 12.5 -12.5 -16.175
    endloop
  endfacet
  facet normal 0 -1 0
    outer loop
      vertex -19.65 -19.65 -16.175
      vertex 19.65 -19.65 16.175
      vertex -19.65 -19.65 16.175
    endloop
  endfacet
  facet normal 0 -1 -0
    outer loop
      vertex 19.65 -19.65 16.175
      vertex -19.65 -19.65 -16.175
      vertex 19.65 -19.65 -16.175
    endloop
  endfacet
  facet normal 1 -0 0
    outer loop
      vertex -18.15 -18.15 16.175
      vertex -18.15 18.15 7.825
      vertex -18.15 18.15 16.175
    endloop
  endfacet
  facet normal 1 0 0
    outer loop
      vertex -18.15 18.15 7.825
      vertex -18.15 -18.15 16.175
      vertex -18.15 -18.15 7.825
    endloop
  endfacet
  facet normal -1 0 0
    outer loop
      vertex 18.15 -18.15 7.825
      vertex 18.15 18.15 16.175
      vertex 18.15 18.15 7.825
    endloop
  endfacet
  facet normal -1 -0 0
    outer loop
      vertex 18.15 18.15 16.175
      vertex 18.15 -18.15 7.825
      vertex 18.15 -18.15 16.175
    endloop
  endfacet
  facet normal 0 -1 0
    outer loop
      vertex -18.15 18.15 7.825
      vertex 18.15 18.15 16.175
      vertex -18.15 18.15 16.175
    endloop
  endfacet
  facet normal 0 -1 -0
    outer loop
      vertex 18.15 18.15 16.175
      vertex -18.15 18.15 7.825
      vertex 18.15 18.15 7.825
    endloop
  endfacet
  facet normal 0 0 1
    outer loop
      vertex -12.5 -12.5 7.825
      vertex -16.65 -12.5 7.825
      vertex -12.5 -16.65 7.825
    endloop
  endfacet
  facet normal 0 0 1
    outer loop
      vertex 18.15 18.15 7.825
      vertex 16.65 12.5 7.825
      vertex 18.15 -18.15 7.825
    endloop
  endfacet
  facet normal 0 0 1
    outer loop
      vertex 18.15 18.15 7.825
      vertex 12.5 16.65 7.825
      vertex 16.65 12.5 7.825
    endloop
  endfacet
  facet normal 0 0 1
    outer loop
      vertex 18.15 18.15 7.825
      vertex -12.5 16.65 7.825
      vertex 12.5 16.65 7.825
    endloop
  endfacet
  facet normal 0 0 1
    outer loop
      vertex -12.5 16.65 7.825
      vertex -16.65 12.5 7.825
      vertex -12.5 12.5 7.825
    endloop
  endfacet
  facet normal 0 0 1
    outer loop
      vertex -16.65 12.5 7.825
      vertex -18.15 18.15 7.825
      vertex -16.65 -12.5 7.825
    endloop
  endfacet
  facet normal 0 0 1
    outer loop
      vertex -12.5 16.65 7.825
      vertex -18.15 18.15 7.825
      vertex -16.65 12.5 7.825
    endloop
  endfacet
  facet normal -0 0 1
    outer loop
      vertex -18.15 18.15 7.825
      vertex -12.5 16.65 7.825
      vertex 18.15 18.15 7.825
    endloop
  endfacet
  facet normal -0 0 1
    outer loop
      vertex 16.65 -12.5 7.825
      vertex 18.15 -18.15 7.825
      vertex 16.65 12.5 7.825
    endloop
  endfacet
  facet normal 0 0 1
    outer loop
      vertex 12.5 -16.65 7.825
      vertex 16.65 -12.5 7.825
      vertex 12.5 -12.5 7.825
    endloop
  endfacet
  facet normal 0 0 1
    outer loop
      vertex 16.65 -12.5 7.825
      vertex 12.5 -16.65 7.825
      vertex 18.15 -18.15 7.825
    endloop
  endfacet
  facet normal -0 0 1
    outer loop
      vertex -12.5 -16.65 7.825
      vertex 18.15 -18.15 7.825
      vertex 12.5 -16.65 7.825
    endloop
  endfacet
  facet normal 0 0 1
    outer loop
      vertex -12.5 -16.65 7.825
      vertex -18.15 -18.15 7.825
      vertex 18.15 -18.15 7.825
    endloop
  endfacet
  facet normal 0 0 1
    outer loop
      vertex -16.65 -12.5 7.825
      vertex -18.15 -18.15 7.825
      vertex -12.5 -16.65 7.825
    endloop
  endfacet
  facet normal 0 0 1
    outer loop
      vertex -18.15 -18.15 7.825
      vertex -16.65 -12.5 7.825
      vertex -18.15 18.15 7.825
    endloop
  endfacet
  facet normal 0 0 1
    outer loop
      vertex 16.65 12.5 7.825
      vertex 12.5 16.65 7.825
      vertex 12.5 12.5 7.825
    endloop
  endfacet
  facet normal 0 1 -0
    outer loop
      vertex 18.15 -18.15 7.825
      vertex -18.15 -18.15 16.175
      vertex 18.15 -18.15 16.175
    endloop
  endfacet
  facet normal 0 1 0
    outer loop
      vertex -18.15 -18.15 16.175
      vertex 18.15 -18.15 7.825
      vertex -18.15 -18.15 7.825
    endloop
  endfacet
  facet normal 0 1 -0
    outer loop
      vertex -12.5 -12.5 -16.175
      vertex -16.65 -12.5 7.825
      vertex -12.5 -12.5 7.825
    endloop
  endfacet
  facet normal 0 1 0
    outer loop
      vertex -16.65 -12.5 7.825
      vertex -12.5 -12.5 -16.175
      vertex -16.65 -12.5 -16.175
    endloop
  endfacet
  facet normal 0 1 -0
    outer loop
      vertex 16.65 -12.5 -16.175
      vertex 12.5 -12.5 7.825
      vertex 16.65 -12.5 7.825
    endloop
  endfacet
  facet normal 0 1 0
    outer loop
      vertex 12.5 -12.5 7.825
      vertex 16.65 -12.5 -16.175
      vertex 12.5 -12.5 -16.175
    endloop
  endfacet
  facet normal 0 -1 0
    outer loop
      vertex -16.65 12.5 -16.175
      vertex -12.5 12.5 7.825
      vertex -16.65 12.5 7.825
    endloop
  endfacet
  facet normal 0 -1 -0
    outer loop
      vertex -12.5 12.5 7.825
      vertex -16.65 12.5 -16.175
      vertex -12.5 12.5 -16.175
    endloop
  endfacet
  facet normal 0 -1 0
    outer loop
      vertex 12.5 12.5 -16.175
      vertex 16.65 12.5 7.825
      vertex 12.5 12.5 7.825
    endloop
  endfacet
  facet normal 0 -1 -0
    outer loop
      vertex 16.65 12.5 7.825
      vertex 12.5 12.5 -16.175
      vertex 16.65 12.5 -16.175
    endloop
  endfacet
  facet normal 1 -0 0
    outer loop
      vertex -16.65 -12.5 7.825
      vertex -16.65 12.5 -16.175
      vertex -16.65 12.5 7.825
    endloop
  endfacet
  facet normal 1 0 0
    outer loop
      vertex -16.65 12.5 -16.175
      vertex -16.65 -12.5 7.825
      vertex -16.65 -12.5 -16.175
    endloop
  endfacet
  facet normal -1 0 0
    outer loop
      vertex 16.65 -12.5 -16.175
      vertex 16.65 12.5 7.825
      vertex 16.65 12.5 -16.175
    endloop
  endfacet
  facet normal -1 -0 0
    outer loop
      vertex 16.65 12.5 7.825
      vertex 16.65 -12.5 -16.175
      vertex 16.65 -12.5 7.825
    endloop
  endfacet
  facet normal 0 -1 0
    outer loop
      vertex -12.5 16.65 -16.175
      vertex 12.5 16.65 7.825
      vertex -12.5 16.65 7.825
    endloop
  endfacet
  facet normal 0 -1 -0
    outer loop
      vertex 12.5 16.65 7.825
      vertex -12.5 16.65 -16.175
      vertex 12.5 16.65 -16.175
    endloop
  endfacet
  facet normal 0 1 -0
    outer loop
      vertex 12.5 -16.65 -16.175
      vertex -12.5 -16.65 7.825
      vertex 12.5 -16.65 7.825
    endloop
  endfacet
  facet normal 0 1 0
    outer loop
      vertex -12.5 -16.65 7.825
      vertex 12.5 -16.65 -16.175
      vertex -12.5 -16.65 -16.175
    endloop
  endfacet
  facet normal -1 0 0
    outer loop
      vertex 12.5 -16.65 -16.175
      vertex 12.5 -12.5 7.825
      vertex 12.5 -12.5 -16.175
    endloop
  endfacet
  facet normal -1 -0 0
    outer loop
      vertex 12.5 -12.5 7.825
      vertex 12.5 -16.65 -16.175
      vertex 12.5 -16.65 7.825
    endloop
  endfacet
  facet normal -1 0 0
    outer loop
      vertex 12.5 12.5 -16.175
      vertex 12.5 16.65 7.825
      vertex 12.5 16.65 -16.175
    endloop
  endfacet
  facet normal -1 -0 0
    outer loop
      vertex 12.5 16.65 7.825
      vertex 12.5 12.5 -16.175
      vertex 12.5 12.5 7.825
    endloop
  endfacet
  facet normal 1 -0 0
    outer loop
      vertex -12.5 -16.65 7.825
      vertex -12.5 -12.5 -16.175
      vertex -12.5 -12.5 7.825
    endloop
  endfacet
  facet normal 1 0 0
    outer loop
      vertex -12.5 -12.5 -16.175
      vertex -12.5 -16.65 7.825
      vertex -12.5 -16.65 -16.175
    endloop
  endfacet
  facet normal 1 -0 0
    outer loop
      vertex -12.5 12.5 7.825
      vertex -12.5 16.65 -16.175
      vertex -12.5 16.65 7.825
    endloop
  endfacet
  facet normal 1 0 0
    outer loop
      vertex -12.5 16.65 -16.175
      vertex -12.5 12.5 7.825
      vertex -12.5 12.5 -16.175
    endloop
  endfacet
  facet normal -1 0 0
    outer loop
      vertex 19.65 8 13.175
      vertex 19.65 18 16.175
      vertex 19.65 18 13.175
    endloop
  endfacet
  facet normal -1 -0 0
    outer loop
      vertex 19.65 18 16.175
      vertex 19.65 8 13.175
      vertex 19.65 8 16.175
    endloop
  endfacet
  facet normal 0 0 -1
    outer loop
      vertex 19.65 8 13.175
      vertex 29.65 18 13.175
      vertex 29.65 8 13.175
    endloop
  endfacet
  facet normal -0 0 -1
    outer loop
      vertex 29.65 18 13.175
      vertex 19.65 8 13.175
      vertex 19.65 18 13.175
    endloop
  endfacet
  facet normal 1 -0 0
    outer loop
      vertex 29.65 8 19.175
      vertex 29.65 18 13.175
      vertex 29.65 18 19.175
    endloop
  endfacet
  facet normal 1 0 0
    outer loop
      vertex 29.65 18 13.175
      vertex 29.65 8 19.175
      vertex 29.65 8 13.175
    endloop
  endfacet
  facet normal 0 -1 0
    outer loop
      vertex 19.65 8 16.175
      vertex 19.65 8 13.175
      vertex 19.85 8 16.175
    endloop
  endfacet
  facet normal 0 -1 0
    outer loop
      vertex 19.85 8 16.175
      vertex 29.65 8 19.175
      vertex 19.85 8 19.175
    endloop
  endfacet
  facet normal 0 -1 0
    outer loop
      vertex 29.65 8 13.175
      vertex 19.85 8 16.175
      vertex 19.65 8 13.175
    endloop
  endfacet
  facet normal 0 -1 0
    outer loop
      vertex 19.85 8 16.175
      vertex 29.65 8 13.175
      vertex 29.65 8 19.175
    endloop
  endfacet
  facet normal -0 0 1
    outer loop
      vertex 19.85 18 19.175
      vertex 29.65 8 19.175
      vertex 29.65 18 19.175
    endloop
  endfacet
  facet normal 0 0 1
    outer loop
      vertex 29.65 8 19.175
      vertex 19.85 18 19.175
      vertex 19.85 8 19.175
    endloop
  endfacet
  facet normal 0 1 0
    outer loop
      vertex 29.65 18 19.175
      vertex 19.85 18 16.175
      vertex 19.85 18 19.175
    endloop
  endfacet
  facet normal 0 1 -0
    outer loop
      vertex 29.65 18 13.175
      vertex 19.85 18 16.175
      vertex 29.65 18 19.175
    endloop
  endfacet
  facet normal 0 1 0
    outer loop
      vertex 19.65 18 13.175
      vertex 19.85 18 16.175
      vertex 29.65 18 13.175
    endloop
  endfacet
  facet normal 0 1 0
    outer loop
      vertex 19.85 18 16.175
      vertex 19.65 18 13.175
      vertex 19.65 18 16.175
    endloop
  endfacet
  facet normal -0 0 1
    outer loop
      vertex 19.65 18 16.175
      vertex 19.85 8 16.175
      vertex 19.85 18 16.175
    endloop
  endfacet
  facet normal 0 0 1
    outer loop
      vertex 19.85 8 16.175
      vertex 19.65 18 16.175
      vertex 19.65 8 16.175
    endloop
  endfacet
  facet normal -1 0 0
    outer loop
      vertex 19.85 8 16.175
      vertex 19.85 18 19.175
      vertex 19.85 18 16.175
    endloop
  endfacet
  facet normal -1 -0 0
    outer loop
      vertex 19.85 18 19.175
      vertex 19.85 8 16.175
      vertex 19.85 8 19.175
    endloop
  endfacet
  facet normal -1 0 0
    outer loop
      vertex 19.65 -18 13.175
      vertex 19.65 -8 16.175
      vertex 19.65 -8 13.175
    endloop
  endfacet
  facet normal -1 -0 0
    outer loop
      vertex 19.65 -8 16.175
      vertex 19.65 -18 13.175
      vertex 19.65 -18 16.175
    endloop
  endfacet
  facet normal 0 0 -1
    outer loop
      vertex 19.65 -18 13.175
      vertex 29.65 -8 13.175
      vertex 29.65 -18 13.175
    endloop
  endfacet
  facet normal -0 0 -1
    outer loop
      vertex 29.65 -8 13.175
      vertex 19.65 -18 13.175
      vertex 19.65 -8 13.175
    endloop
  endfacet
  facet normal 1 -0 0
    outer loop
      vertex 29.65 -18 19.175
      vertex 29.65 -8 13.175
      vertex 29.65 -8 19.175
    endloop
  endfacet
  facet normal 1 0 0
    outer loop
      vertex 29.65 -8 13.175
      vertex 29.65 -18 19.175
      vertex 29.65 -18 13.175
    endloop
  endfacet
  facet normal 0 -1 0
    outer loop
      vertex 19.65 -18 16.175
      vertex 19.65 -18 13.175
      vertex 19.85 -18 16.175
    endloop
  endfacet
  facet normal 0 -1 0
    outer loop
      vertex 19.85 -18 16.175
      vertex 29.65 -18 19.175
      vertex 19.85 -18 19.175
    endloop
  endfacet
  facet normal 0 -1 0
    outer loop
      vertex 29.65 -18 13.175
      vertex 19.85 -18 16.175
      vertex 19.65 -18 13.175
    endloop
  endfacet
  facet normal 0 -1 0
    outer loop
      vertex 19.85 -18 16.175
      vertex 29.65 -18 13.175
      vertex 29.65 -18 19.175
    endloop
  endfacet
  facet normal -0 0 1
    outer loop
      vertex 19.85 -8 19.175
      vertex 29.65 -18 19.175
      vertex 29.65 -8 19.175
    endloop
  endfacet
  facet normal 0 0 1
    outer loop
      vertex 29.65 -18 19.175
      vertex 19.85 -8 19.175
      vertex 19.85 -18 19.175
    endloop
  endfacet
  facet normal 0 1 0
    outer loop
      vertex 29.65 -8 19.175
      vertex 19.85 -8 16.175
      vertex 19.85 -8 19.175
    endloop
  endfacet
  facet normal 0 1 -0
    outer loop
      vertex 29.65 -8 13.175
      vertex 19.85 -8 16.175
      vertex 29.65 -8 19.175
    endloop
  endfacet
  facet normal 0 1 0
    outer loop
      vertex 19.65 -8 13.175
      vertex 19.85 -8 16.175
      vertex 29.65 -8 13.175
    endloop
  endfacet
  facet normal 0 1 0
    outer loop
      vertex 19.85 -8 16.175
      vertex 19.65 -8 13.175
      vertex 19.65 -8 16.175
    endloop
  endfacet
  facet normal -0 0 1
    outer loop
      vertex 19.65 -8 16.175
      vertex 19.85 -18 16.175
      vertex 19.85 -8 16.175
    endloop
  endfacet
  facet normal 0 0 1
    outer loop
      vertex 19.85 -18 16.175
      vertex 19.65 -8 16.175
      vertex 19.65 -18 16.175
    endloop
  endfacet
  facet normal -1 0 0
    outer loop
      vertex 19.85 -18 16.175
      vertex 19.85 -8 19.175
      vertex 19.85 -8 16.175
    endloop
  endfacet
  facet normal -1 -0 0
    outer loop
      vertex 19.85 -8 19.175
      vertex 19.85 -18 16.175
      vertex 19.85 -18 19.175
    endloop
  endfacet
  facet normal 1 -0 0
    outer loop
      vertex -19.65 8 16.175
      vertex -19.65 18 13.175
      vertex -19.65 18 16.175
    endloop
  endfacet
  facet normal 1 0 0
    outer loop
      vertex -19.65 18 13.175
      vertex -19.65 8 16.175
      vertex -19.65 8 13.175
    endloop
  endfacet
  facet normal 0 0 -1
    outer loop
      vertex -29.65 8 13.175
      vertex -19.65 18 13.175
      vertex -19.65 8 13.175
    endloop
  endfacet
  facet normal -0 0 -1
    outer loop
      vertex -19.65 18 13.175
      vertex -29.65 8 13.175
      vertex -29.65 18 13.175
    endloop
  endfacet
  facet normal -1 0 0
    outer loop
      vertex -29.65 8 13.175
      vertex -29.65 18 19.175
      vertex -29.65 18 13.175
    endloop
  endfacet
  facet normal -1 -0 0
    outer loop
      vertex -29.65 18 19.175
      vertex -29.65 8 13.175
      vertex -29.65 8 19.175
    endloop
  endfacet
  facet normal 0 -1 0
    outer loop
      vertex -29.65 8 19.175
      vertex -19.85 8 16.175
      vertex -19.85 8 19.175
    endloop
  endfacet
  facet normal 0 -1 0
    outer loop
      vertex -29.65 8 13.175
      vertex -19.85 8 16.175
      vertex -29.65 8 19.175
    endloop
  endfacet
  facet normal 0 -1 0
    outer loop
      vertex -19.65 8 13.175
      vertex -19.85 8 16.175
      vertex -29.65 8 13.175
    endloop
  endfacet
  facet normal 0 -1 0
    outer loop
      vertex -19.85 8 16.175
      vertex -19.65 8 13.175
      vertex -19.65 8 16.175
    endloop
  endfacet
  facet normal -0 0 1
    outer loop
      vertex -29.65 18 19.175
      vertex -19.85 8 19.175
      vertex -19.85 18 19.175
    endloop
  endfacet
  facet normal 0 0 1
    outer loop
      vertex -19.85 8 19.175
      vertex -29.65 18 19.175
      vertex -29.65 8 19.175
    endloop
  endfacet
  facet normal 0 1 0
    outer loop
      vertex -19.65 18 16.175
      vertex -19.65 18 13.175
      vertex -19.85 18 16.175
    endloop
  endfacet
  facet normal 0 1 -0
    outer loop
      vertex -19.85 18 16.175
      vertex -29.65 18 19.175
      vertex -19.85 18 19.175
    endloop
  endfacet
  facet normal 0 1 0
    outer loop
      vertex -29.65 18 13.175
      vertex -19.85 18 16.175
      vertex -19.65 18 13.175
    endloop
  endfacet
  facet normal 0 1 0
    outer loop
      vertex -19.85 18 16.175
      vertex -29.65 18 13.175
      vertex -29.65 18 19.175
    endloop
  endfacet
  facet normal -0 0 1
    outer loop
      vertex -19.85 18 16.175
      vertex -19.65 8 16.175
      vertex -19.65 18 16.175
    endloop
  endfacet
  facet normal 0 0 1
    outer loop
      vertex -19.65 8 16.175
      vertex -19.85 18 16.175
      vertex -19.85 8 16.175
    endloop
  endfacet
  facet normal 1 -0 0
    outer loop
      vertex -19.85 8 19.175
      vertex -19.85 18 16.175
      vertex -19.85 18 19.175
    endloop
  endfacet
  facet normal 1 0 0
    outer loop
      vertex -19.85 18 16.175
      vertex -19.85 8 19.175
      vertex -19.85 8 16.175
    endloop
  endfacet
  facet normal 1 -0 0
    outer loop
      vertex -19.65 -18 16.175
      vertex -19.65 -8 13.175
      vertex -19.65 -8 16.175
    endloop
  endfacet
  facet normal 1 0 0
    outer loop
      vertex -19.65 -8 13.175
      vertex -19.65 -18 16.175
      vertex -19.65 -18 13.175
    endloop
  endfacet
  facet normal 0 0 -1
    outer loop
      vertex -29.65 -18 13.175
      vertex -19.65 -8 13.175
      vertex -19.65 -18 13.175
    endloop
  endfacet
  facet normal -0 0 -1
    outer loop
      vertex -19.65 -8 13.175
      vertex -29.65 -18 13.175
      vertex -29.65 -8 13.175
    endloop
  endfacet
  facet normal -1 0 0
    outer loop
      vertex -29.65 -18 13.175
      vertex -29.65 -8 19.175
      vertex -29.65 -8 13.175
    endloop
  endfacet
  facet normal -1 -0 0
    outer loop
      vertex -29.65 -8 19.175
      vertex -29.65 -18 13.175
      vertex -29.65 -18 19.175
    endloop
  endfacet
  facet normal 0 -1 0
    outer loop
      vertex -29.65 -18 19.175
      vertex -19.85 -18 16.175
      vertex -19.85 -18 19.175
    endloop
  endfacet
  facet normal 0 -1 0
    outer loop
      vertex -29.65 -18 13.175
      vertex -19.85 -18 16.175
      vertex -29.65 -18 19.175
    endloop
  endfacet
  facet normal 0 -1 0
    outer loop
      vertex -19.65 -18 13.175
      vertex -19.85 -18 16.175
      vertex -29.65 -18 13.175
    endloop
  endfacet
  facet normal 0 -1 0
    outer loop
      vertex -19.85 -18 16.175
      vertex -19.65 -18 13.175
      vertex -19.65 -18 16.175
    endloop
  endfacet
  facet normal -0 0 1
    outer loop
      vertex -29.65 -8 19.175
      vertex -19.85 -18 19.175
      vertex -19.85 -8 19.175
    endloop
  endfacet
  facet normal 0 0 1
    outer loop
      vertex -19.85 -18 19.175
      vertex -29.65 -8 19.175
      vertex -29.65 -18 19.175
    endloop
  endfacet
  facet normal 0 1 0
    outer loop
      vertex -19.65 -8 16.175
      vertex -19.65 -8 13.175
      vertex -19.85 -8 16.175
    endloop
  endfacet
  facet normal 0 1 -0
    outer loop
      vertex -19.85 -8 16.175
      vertex -29.65 -8 19.175
      vertex -19.85 -8 19.175
    endloop
  endfacet
  facet normal 0 1 0
    outer loop
      vertex -29.65 -8 13.175
      vertex -19.85 -8 16.175
      vertex -19.65 -8 13.175
    endloop
  endfacet
  facet normal 0 1 0
    outer loop
      vertex -19.85 -8 16.175
      vertex -29.65 -8 13.175
      vertex -29.65 -8 19.175
    endloop
  endfacet
  facet normal -0 0 1
    outer loop
      vertex -19.85 -8 16.175
      vertex -19.65 -18 16.175
      vertex -19.65 -8 16.175
    endloop
  endfacet
  facet normal 0 0 1
    outer loop
      vertex -19.65 -18 16.175
      vertex -19.85 -8 16.175
      vertex -19.85 -18 16.175
    endloop
  endfacet
  facet normal 1 -0 0
    outer loop
      vertex -19.85 -18 19.175
      vertex -19.85 -8 16.175
      vertex -19.85 -8 19.175
    endloop
  endfacet
  facet normal 1 0 0
    outer loop
      vertex -19.85 -8 16.175
      vertex -19.85 -18 19.175
      vertex -19.85 -18 16.175
    endloop
  endfacet
endsolid OpenSCAD_Model
