solid OpenSCAD_Model
  facet normal 0 0 -1
    outer loop
      vertex -12.5 -19.65 -11
      vertex 12.5 -12.5 -11
      vertex 12.5 -19.65 -11
    endloop
  endfacet
  facet normal -0 0 -1
    outer loop
      vertex 12.5 -12.5 -11
      vertex -12.5 -19.65 -11
      vertex -12.5 -12.5 -11
    endloop
  endfacet
  facet normal 0 0 -1
    outer loop
      vertex -12.5 12.5 -11
      vertex 12.5 19.65 -11
      vertex 12.5 12.5 -11
    endloop
  endfacet
  facet normal -0 0 -1
    outer loop
      vertex 12.5 19.65 -11
      vertex -12.5 12.5 -11
      vertex -12.5 19.65 -11
    endloop
  endfacet
  facet normal 0 0 -1
    outer loop
      vertex -19.65 -12.5 -11
      vertex -12.5 12.5 -11
      vertex -12.5 -12.5 -11
    endloop
  endfacet
  facet normal -0 0 -1
    outer loop
      vertex -12.5 12.5 -11
      vertex -19.65 -12.5 -11
      vertex -19.65 12.5 -11
    endloop
  endfacet
  facet normal 0 0 -1
    outer loop
      vertex 12.5 -12.5 -11
      vertex 19.65 12.5 -11
      vertex 19.65 -12.5 -11
    endloop
  endfacet
  facet normal -0 0 -1
    outer loop
      vertex 19.65 12.5 -11
      vertex 12.5 -12.5 -11
      vertex 12.5 12.5 -11
    endloop
  endfacet
  facet normal 0 -1 0
    outer loop
      vertex 12.5 12.5 -24
      vertex 19.65 12.5 -11
      vertex 12.5 12.5 -11
    endloop
  endfacet
  facet normal 0 -1 -0
    outer loop
      vertex 19.65 12.5 -11
      vertex 12.5 12.5 -24
      vertex 19.65 12.5 -24
    endloop
  endfacet
  facet normal 0 -1 0
    outer loop
      vertex -12.5 12.5 0
      vertex -12.5 12.5 -11
      vertex 12.5 12.5 0
    endloop
  endfacet
  facet normal 0 -1 -0
    outer loop
      vertex 12.5 12.5 0
      vertex -12.5 12.5 -11
      vertex 12.5 12.5 -11
    endloop
  endfacet
  facet normal 0 -1 0
    outer loop
      vertex -19.65 12.5 -24
      vertex -12.5 12.5 -11
      vertex -19.65 12.5 -11
    endloop
  endfacet
  facet normal 0 -1 0
    outer loop
      vertex -12.5 12.5 -24
      vertex -12.5 12.5 -11
      vertex -19.65 12.5 -24
    endloop
  endfacet
  facet normal 0 1 -0
    outer loop
      vertex -12.5 -12.5 -24
      vertex -19.65 -12.5 -11
      vertex -12.5 -12.5 -11
    endloop
  endfacet
  facet normal 0 1 0
    outer loop
      vertex -19.65 -12.5 -11
      vertex -12.5 -12.5 -24
      vertex -19.65 -12.5 -24
    endloop
  endfacet
  facet normal 0 1 0
    outer loop
      vertex 12.5 -12.5 0
      vertex 12.5 -12.5 -11
      vertex -12.5 -12.5 0
    endloop
  endfacet
  facet normal 0 1 0
    outer loop
      vertex -12.5 -12.5 0
      vertex 12.5 -12.5 -11
      vertex -12.5 -12.5 -11
    endloop
  endfacet
  facet normal 0 1 -0
    outer loop
      vertex 19.65 -12.5 -24
      vertex 12.5 -12.5 -11
      vertex 19.65 -12.5 -11
    endloop
  endfacet
  facet normal 0 1 0
    outer loop
      vertex 12.5 -12.5 -24
      vertex 12.5 -12.5 -11
      vertex 19.65 -12.5 -24
    endloop
  endfacet
  facet normal 1 -0 0
    outer loop
      vertex -12.5 12.5 -11
      vertex -12.5 19.65 -24
      vertex -12.5 19.65 -11
    endloop
  endfacet
  facet normal 1 0 0
    outer loop
      vertex -12.5 19.65 -24
      vertex -12.5 12.5 -11
      vertex -12.5 12.5 -24
    endloop
  endfacet
  facet normal 1 -0 0
    outer loop
      vertex -12.5 -19.65 -11
      vertex -12.5 -12.5 -24
      vertex -12.5 -12.5 -11
    endloop
  endfacet
  facet normal 1 0 0
    outer loop
      vertex -12.5 -12.5 -24
      vertex -12.5 -19.65 -11
      vertex -12.5 -19.65 -24
    endloop
  endfacet
  facet normal -1 0 0
    outer loop
      vertex 12.5 -19.65 -24
      vertex 12.5 -12.5 -11
      vertex 12.5 -12.5 -24
    endloop
  endfacet
  facet normal -1 -0 0
    outer loop
      vertex 12.5 -12.5 -11
      vertex 12.5 -19.65 -24
      vertex 12.5 -19.65 -11
    endloop
  endfacet
  facet normal -1 0 0
    outer loop
      vertex 12.5 12.5 -24
      vertex 12.5 19.65 -11
      vertex 12.5 19.65 -24
    endloop
  endfacet
  facet normal -1 -0 0
    outer loop
      vertex 12.5 19.65 -11
      vertex 12.5 12.5 -24
      vertex 12.5 12.5 -11
    endloop
  endfacet
  facet normal 1 -0 0
    outer loop
      vertex -19.65 -16 27
      vertex -19.65 -6 24
      vertex -19.65 -6 27
    endloop
  endfacet
  facet normal 1 0 0
    outer loop
      vertex -19.65 -6 24
      vertex -19.65 -16 27
      vertex -19.65 -16 24
    endloop
  endfacet
  facet normal -1 0 0
    outer loop
      vertex -19.65 -19.65 -24
      vertex -19.65 -12.5 -11
      vertex -19.65 -12.5 -24
    endloop
  endfacet
  facet normal -1 0 0
    outer loop
      vertex -19.65 -19.65 24
      vertex -19.65 -12.5 -11
      vertex -19.65 -19.65 -24
    endloop
  endfacet
  facet normal -1 0 0
    outer loop
      vertex -19.65 -12.5 -11
      vertex -19.65 -19.65 24
      vertex -19.65 -16 21
    endloop
  endfacet
  facet normal -1 0 0
    outer loop
      vertex -19.65 -16 21
      vertex -19.65 -19.65 24
      vertex -19.65 -16 24
    endloop
  endfacet
  facet normal -1 0 0
    outer loop
      vertex -19.65 12.5 -11
      vertex -19.65 19.65 24
      vertex -19.65 19.65 -24
    endloop
  endfacet
  facet normal -1 0 0
    outer loop
      vertex -19.65 12.5 -11
      vertex -19.65 19.65 -24
      vertex -19.65 12.5 -24
    endloop
  endfacet
  facet normal -1 0 0
    outer loop
      vertex -19.65 19.65 24
      vertex -19.65 12.5 -11
      vertex -19.65 16 21
    endloop
  endfacet
  facet normal -1 0 0
    outer loop
      vertex -19.65 12.5 -11
      vertex -19.65 6 21
      vertex -19.65 16 21
    endloop
  endfacet
  facet normal -1 0 0
    outer loop
      vertex -19.65 6 21
      vertex -19.65 -6 21
      vertex -19.65 6 24
    endloop
  endfacet
  facet normal -1 0 0
    outer loop
      vertex -19.65 12.5 -11
      vertex -19.65 -6 21
      vertex -19.65 6 21
    endloop
  endfacet
  facet normal -1 0 0
    outer loop
      vertex -19.65 -12.5 -11
      vertex -19.65 -6 21
      vertex -19.65 12.5 -11
    endloop
  endfacet
  facet normal -1 -0 0
    outer loop
      vertex -19.65 -6 21
      vertex -19.65 -12.5 -11
      vertex -19.65 -16 21
    endloop
  endfacet
  facet normal -1 -0 0
    outer loop
      vertex -19.65 19.65 24
      vertex -19.65 16 21
      vertex -19.65 16 24
    endloop
  endfacet
  facet normal -1 -0 0
    outer loop
      vertex -19.65 6 24
      vertex -19.65 -6 21
      vertex -19.65 -6 24
    endloop
  endfacet
  facet normal 1 -0 0
    outer loop
      vertex -19.65 6 27
      vertex -19.65 16 24
      vertex -19.65 16 27
    endloop
  endfacet
  facet normal 1 0 0
    outer loop
      vertex -19.65 16 24
      vertex -19.65 6 27
      vertex -19.65 6 24
    endloop
  endfacet
  facet normal -0 0 1
    outer loop
      vertex 18.15 18.15 24
      vertex 19.65 16 24
      vertex 19.65 19.65 24
    endloop
  endfacet
  facet normal 0 0 1
    outer loop
      vertex 19.65 16 24
      vertex 18.15 18.15 24
      vertex 19.65 6 24
    endloop
  endfacet
  facet normal 0 0 1
    outer loop
      vertex 19.65 6 24
      vertex 18.15 18.15 24
      vertex 19.65 -6 24
    endloop
  endfacet
  facet normal 0 0 1
    outer loop
      vertex 18.15 -18.15 24
      vertex 19.65 -6 24
      vertex 18.15 18.15 24
    endloop
  endfacet
  facet normal 0 0 1
    outer loop
      vertex 19.65 -6 24
      vertex 18.15 -18.15 24
      vertex 19.65 -16 24
    endloop
  endfacet
  facet normal 0 0 1
    outer loop
      vertex 19.65 19.65 24
      vertex -18.15 18.15 24
      vertex 18.15 18.15 24
    endloop
  endfacet
  facet normal 0 0 1
    outer loop
      vertex -19.65 16 24
      vertex -18.15 18.15 24
      vertex -19.65 19.65 24
    endloop
  endfacet
  facet normal -0 0 1
    outer loop
      vertex -19.65 19.65 24
      vertex -18.15 18.15 24
      vertex 19.65 19.65 24
    endloop
  endfacet
  facet normal 0 0 1
    outer loop
      vertex 19.65 -16 24
      vertex 18.15 -18.15 24
      vertex 19.65 -19.65 24
    endloop
  endfacet
  facet normal -0 0 1
    outer loop
      vertex -18.15 -18.15 24
      vertex 19.65 -19.65 24
      vertex 18.15 -18.15 24
    endloop
  endfacet
  facet normal 0 0 1
    outer loop
      vertex -19.65 6 24
      vertex -18.15 18.15 24
      vertex -19.65 16 24
    endloop
  endfacet
  facet normal 0 0 1
    outer loop
      vertex -18.15 18.15 24
      vertex -19.65 6 24
      vertex -18.15 -18.15 24
    endloop
  endfacet
  facet normal -0 0 1
    outer loop
      vertex -19.65 -6 24
      vertex -18.15 -18.15 24
      vertex -19.65 6 24
    endloop
  endfacet
  facet normal -0 0 1
    outer loop
      vertex -19.65 -16 24
      vertex -18.15 -18.15 24
      vertex -19.65 -6 24
    endloop
  endfacet
  facet normal 0 0 1
    outer loop
      vertex -18.15 -18.15 24
      vertex -19.65 -19.65 24
      vertex 19.65 -19.65 24
    endloop
  endfacet
  facet normal 0 0 1
    outer loop
      vertex -19.65 -19.65 24
      vertex -18.15 -18.15 24
      vertex -19.65 -16 24
    endloop
  endfacet
  facet normal -1 0 0
    outer loop
      vertex 19.65 -16 24
      vertex 19.65 -6 27
      vertex 19.65 -6 24
    endloop
  endfacet
  facet normal -1 -0 0
    outer loop
      vertex 19.65 -6 27
      vertex 19.65 -16 24
      vertex 19.65 -16 27
    endloop
  endfacet
  facet normal 1 0 0
    outer loop
      vertex 19.65 -16 24
      vertex 19.65 -19.65 24
      vertex 19.65 -16 21
    endloop
  endfacet
  facet normal 1 0 0
    outer loop
      vertex 19.65 6 24
      vertex 19.65 -6 24
      vertex 19.65 6 21
    endloop
  endfacet
  facet normal 1 -0 0
    outer loop
      vertex 19.65 6 21
      vertex 19.65 12.5 -11
      vertex 19.65 16 21
    endloop
  endfacet
  facet normal 1 0 0
    outer loop
      vertex 19.65 -6 21
      vertex 19.65 6 21
      vertex 19.65 -6 24
    endloop
  endfacet
  facet normal 1 0 0
    outer loop
      vertex 19.65 6 21
      vertex 19.65 -6 21
      vertex 19.65 12.5 -11
    endloop
  endfacet
  facet normal 1 0 0
    outer loop
      vertex 19.65 -6 21
      vertex 19.65 -12.5 -11
      vertex 19.65 12.5 -11
    endloop
  endfacet
  facet normal 1 -0 0
    outer loop
      vertex 19.65 -16 21
      vertex 19.65 -12.5 -11
      vertex 19.65 -6 21
    endloop
  endfacet
  facet normal 1 0 0
    outer loop
      vertex 19.65 -19.65 24
      vertex 19.65 -12.5 -11
      vertex 19.65 -16 21
    endloop
  endfacet
  facet normal 1 0 0
    outer loop
      vertex 19.65 -12.5 -11
      vertex 19.65 -19.65 24
      vertex 19.65 -19.65 -24
    endloop
  endfacet
  facet normal 1 0 0
    outer loop
      vertex 19.65 -12.5 -11
      vertex 19.65 -19.65 -24
      vertex 19.65 -12.5 -24
    endloop
  endfacet
  facet normal 1 0 0
    outer loop
      vertex 19.65 16 21
      vertex 19.65 19.65 24
      vertex 19.65 16 24
    endloop
  endfacet
  facet normal 1 0 0
    outer loop
      vertex 19.65 12.5 -11
      vertex 19.65 19.65 24
      vertex 19.65 16 21
    endloop
  endfacet
  facet normal 1 0 0
    outer loop
      vertex 19.65 19.65 24
      vertex 19.65 12.5 -11
      vertex 19.65 19.65 -24
    endloop
  endfacet
  facet normal 1 0 0
    outer loop
      vertex 19.65 19.65 -24
      vertex 19.65 12.5 -11
      vertex 19.65 12.5 -24
    endloop
  endfacet
  facet normal -1 0 0
    outer loop
      vertex 19.65 6 24
      vertex 19.65 16 27
      vertex 19.65 16 24
    endloop
  endfacet
  facet normal -1 -0 0
    outer loop
      vertex 19.65 16 27
      vertex 19.65 6 24
      vertex 19.65 6 27
    endloop
  endfacet
  facet normal 0 1 0
    outer loop
      vertex 19.65 19.65 24
      vertex 12.5 19.65 -11
      vertex -19.65 19.65 24
    endloop
  endfacet
  facet normal 0 1 -0
    outer loop
      vertex 19.65 19.65 -24
      vertex 12.5 19.65 -11
      vertex 19.65 19.65 24
    endloop
  endfacet
  facet normal 0 1 0
    outer loop
      vertex 12.5 19.65 -11
      vertex 19.65 19.65 -24
      vertex 12.5 19.65 -24
    endloop
  endfacet
  facet normal 0 1 -0
    outer loop
      vertex -12.5 19.65 -11
      vertex -19.65 19.65 24
      vertex 12.5 19.65 -11
    endloop
  endfacet
  facet normal 0 1 0
    outer loop
      vertex -19.65 19.65 -24
      vertex -12.5 19.65 -11
      vertex -12.5 19.65 -24
    endloop
  endfacet
  facet normal 0 1 0
    outer loop
      vertex -12.5 19.65 -11
      vertex -19.65 19.65 -24
      vertex -19.65 19.65 24
    endloop
  endfacet
  facet normal 0 0 -1
    outer loop
      vertex -19.65 12.5 -24
      vertex -12.5 19.65 -24
      vertex -12.5 12.5 -24
    endloop
  endfacet
  facet normal -0 0 -1
    outer loop
      vertex -12.5 19.65 -24
      vertex -19.65 12.5 -24
      vertex -19.65 19.65 -24
    endloop
  endfacet
  facet normal 0 0 -1
    outer loop
      vertex -19.65 -19.65 -24
      vertex -12.5 -12.5 -24
      vertex -12.5 -19.65 -24
    endloop
  endfacet
  facet normal -0 0 -1
    outer loop
      vertex -12.5 -12.5 -24
      vertex -19.65 -19.65 -24
      vertex -19.65 -12.5 -24
    endloop
  endfacet
  facet normal 0 0 -1
    outer loop
      vertex 12.5 -19.65 -24
      vertex 19.65 -12.5 -24
      vertex 19.65 -19.65 -24
    endloop
  endfacet
  facet normal -0 0 -1
    outer loop
      vertex 19.65 -12.5 -24
      vertex 12.5 -19.65 -24
      vertex 12.5 -12.5 -24
    endloop
  endfacet
  facet normal 0 0 -1
    outer loop
      vertex 12.5 12.5 -24
      vertex 19.65 19.65 -24
      vertex 19.65 12.5 -24
    endloop
  endfacet
  facet normal -0 0 -1
    outer loop
      vertex 19.65 19.65 -24
      vertex 12.5 12.5 -24
      vertex 12.5 19.65 -24
    endloop
  endfacet
  facet normal 0 -1 0
    outer loop
      vertex -19.65 -19.65 24
      vertex -12.5 -19.65 -11
      vertex 19.65 -19.65 24
    endloop
  endfacet
  facet normal 0 -1 0
    outer loop
      vertex -19.65 -19.65 -24
      vertex -12.5 -19.65 -11
      vertex -19.65 -19.65 24
    endloop
  endfacet
  facet normal 0 -1 -0
    outer loop
      vertex -12.5 -19.65 -11
      vertex -19.65 -19.65 -24
      vertex -12.5 -19.65 -24
    endloop
  endfacet
  facet normal 0 -1 0
    outer loop
      vertex 12.5 -19.65 -11
      vertex 19.65 -19.65 24
      vertex -12.5 -19.65 -11
    endloop
  endfacet
  facet normal 0 -1 0
    outer loop
      vertex 19.65 -19.65 -24
      vertex 12.5 -19.65 -11
      vertex 12.5 -19.65 -24
    endloop
  endfacet
  facet normal 0 -1 0
    outer loop
      vertex 12.5 -19.65 -11
      vertex 19.65 -19.65 -24
      vertex 19.65 -19.65 24
    endloop
  endfacet
  facet normal 1 -0 0
    outer loop
      vertex -18.15 -18.15 24
      vertex -18.15 18.15 0
      vertex -18.15 18.15 24
    endloop
  endfacet
  facet normal 1 0 0
    outer loop
      vertex -18.15 18.15 0
      vertex -18.15 -18.15 24
      vertex -18.15 -18.15 0
    endloop
  endfacet
  facet normal -1 0 0
    outer loop
      vertex 18.15 -18.15 0
      vertex 18.15 18.15 24
      vertex 18.15 18.15 0
    endloop
  endfacet
  facet normal -1 -0 0
    outer loop
      vertex 18.15 18.15 24
      vertex 18.15 -18.15 0
      vertex 18.15 -18.15 24
    endloop
  endfacet
  facet normal 0 0 1
    outer loop
      vertex 18.15 18.15 0
      vertex 12.5 12.5 0
      vertex 18.15 -18.15 0
    endloop
  endfacet
  facet normal 0 0 1
    outer loop
      vertex 18.15 18.15 0
      vertex -12.5 12.5 0
      vertex 12.5 12.5 0
    endloop
  endfacet
  facet normal 0 0 1
    outer loop
      vertex -12.5 12.5 0
      vertex -18.15 18.15 0
      vertex -12.5 -12.5 0
    endloop
  endfacet
  facet normal -0 0 1
    outer loop
      vertex -18.15 18.15 0
      vertex -12.5 12.5 0
      vertex 18.15 18.15 0
    endloop
  endfacet
  facet normal -0 0 1
    outer loop
      vertex 12.5 -12.5 0
      vertex 18.15 -18.15 0
      vertex 12.5 12.5 0
    endloop
  endfacet
  facet normal -0 0 1
    outer loop
      vertex -12.5 -12.5 0
      vertex 18.15 -18.15 0
      vertex 12.5 -12.5 0
    endloop
  endfacet
  facet normal 0 0 1
    outer loop
      vertex -12.5 -12.5 0
      vertex -18.15 -18.15 0
      vertex 18.15 -18.15 0
    endloop
  endfacet
  facet normal 0 0 1
    outer loop
      vertex -18.15 -18.15 0
      vertex -12.5 -12.5 0
      vertex -18.15 18.15 0
    endloop
  endfacet
  facet normal 0 1 -0
    outer loop
      vertex 18.15 -18.15 0
      vertex -18.15 -18.15 24
      vertex 18.15 -18.15 24
    endloop
  endfacet
  facet normal 0 1 0
    outer loop
      vertex -18.15 -18.15 24
      vertex 18.15 -18.15 0
      vertex -18.15 -18.15 0
    endloop
  endfacet
  facet normal 0 -1 0
    outer loop
      vertex -18.15 18.15 0
      vertex 18.15 18.15 24
      vertex -18.15 18.15 24
    endloop
  endfacet
  facet normal 0 -1 -0
    outer loop
      vertex 18.15 18.15 24
      vertex -18.15 18.15 0
      vertex 18.15 18.15 0
    endloop
  endfacet
  facet normal 1 -0 0
    outer loop
      vertex -12.5 -12.5 0
      vertex -12.5 12.5 -11
      vertex -12.5 12.5 0
    endloop
  endfacet
  facet normal 1 0 0
    outer loop
      vertex -12.5 12.5 -11
      vertex -12.5 -12.5 0
      vertex -12.5 -12.5 -11
    endloop
  endfacet
  facet normal -1 0 0
    outer loop
      vertex 12.5 -12.5 -11
      vertex 12.5 12.5 0
      vertex 12.5 12.5 -11
    endloop
  endfacet
  facet normal -1 -0 0
    outer loop
      vertex 12.5 12.5 0
      vertex 12.5 -12.5 -11
      vertex 12.5 -12.5 0
    endloop
  endfacet
  facet normal -0 0 1
    outer loop
      vertex 19.65 16 27
      vertex 29.65 6 27
      vertex 29.65 16 27
    endloop
  endfacet
  facet normal 0 0 1
    outer loop
      vertex 29.65 6 27
      vertex 19.65 16 27
      vertex 19.65 6 27
    endloop
  endfacet
  facet normal 1 -0 0
    outer loop
      vertex 29.65 6 27
      vertex 29.65 16 21
      vertex 29.65 16 27
    endloop
  endfacet
  facet normal 1 0 0
    outer loop
      vertex 29.65 16 21
      vertex 29.65 6 27
      vertex 29.65 6 21
    endloop
  endfacet
  facet normal 0 0 -1
    outer loop
      vertex 19.65 6 21
      vertex 29.65 16 21
      vertex 29.65 6 21
    endloop
  endfacet
  facet normal -0 0 -1
    outer loop
      vertex 29.65 16 21
      vertex 19.65 6 21
      vertex 19.65 16 21
    endloop
  endfacet
  facet normal 0 -1 0
    outer loop
      vertex 19.65 6 24
      vertex 29.65 6 27
      vertex 19.65 6 27
    endloop
  endfacet
  facet normal 0 -1 0
    outer loop
      vertex 29.65 6 21
      vertex 19.65 6 24
      vertex 19.65 6 21
    endloop
  endfacet
  facet normal 0 -1 0
    outer loop
      vertex 19.65 6 24
      vertex 29.65 6 21
      vertex 29.65 6 27
    endloop
  endfacet
  facet normal 0 1 0
    outer loop
      vertex 29.65 16 27
      vertex 19.65 16 24
      vertex 19.65 16 27
    endloop
  endfacet
  facet normal 0 1 -0
    outer loop
      vertex 29.65 16 21
      vertex 19.65 16 24
      vertex 29.65 16 27
    endloop
  endfacet
  facet normal 0 1 0
    outer loop
      vertex 19.65 16 24
      vertex 29.65 16 21
      vertex 19.65 16 21
    endloop
  endfacet
  facet normal -0 0 1
    outer loop
      vertex 19.65 -6 27
      vertex 29.65 -16 27
      vertex 29.65 -6 27
    endloop
  endfacet
  facet normal 0 0 1
    outer loop
      vertex 29.65 -16 27
      vertex 19.65 -6 27
      vertex 19.65 -16 27
    endloop
  endfacet
  facet normal 1 -0 0
    outer loop
      vertex 29.65 -16 27
      vertex 29.65 -6 21
      vertex 29.65 -6 27
    endloop
  endfacet
  facet normal 1 0 0
    outer loop
      vertex 29.65 -6 21
      vertex 29.65 -16 27
      vertex 29.65 -16 21
    endloop
  endfacet
  facet normal 0 1 0
    outer loop
      vertex 29.65 -6 27
      vertex 19.65 -6 24
      vertex 19.65 -6 27
    endloop
  endfacet
  facet normal 0 1 -0
    outer loop
      vertex 29.65 -6 21
      vertex 19.65 -6 24
      vertex 29.65 -6 27
    endloop
  endfacet
  facet normal 0 1 0
    outer loop
      vertex 19.65 -6 24
      vertex 29.65 -6 21
      vertex 19.65 -6 21
    endloop
  endfacet
  facet normal 0 0 -1
    outer loop
      vertex 19.65 -16 21
      vertex 29.65 -6 21
      vertex 29.65 -16 21
    endloop
  endfacet
  facet normal -0 0 -1
    outer loop
      vertex 29.65 -6 21
      vertex 19.65 -16 21
      vertex 19.65 -6 21
    endloop
  endfacet
  facet normal 0 -1 0
    outer loop
      vertex 19.65 -16 24
      vertex 29.65 -16 27
      vertex 19.65 -16 27
    endloop
  endfacet
  facet normal 0 -1 0
    outer loop
      vertex 29.65 -16 21
      vertex 19.65 -16 24
      vertex 19.65 -16 21
    endloop
  endfacet
  facet normal 0 -1 0
    outer loop
      vertex 19.65 -16 24
      vertex 29.65 -16 21
      vertex 29.65 -16 27
    endloop
  endfacet
  facet normal -0 0 1
    outer loop
      vertex -29.65 16 27
      vertex -19.65 6 27
      vertex -19.65 16 27
    endloop
  endfacet
  facet normal 0 0 1
    outer loop
      vertex -19.65 6 27
      vertex -29.65 16 27
      vertex -29.65 6 27
    endloop
  endfacet
  facet normal -1 0 0
    outer loop
      vertex -29.65 6 21
      vertex -29.65 16 27
      vertex -29.65 16 21
    endloop
  endfacet
  facet normal -1 -0 0
    outer loop
      vertex -29.65 16 27
      vertex -29.65 6 21
      vertex -29.65 6 27
    endloop
  endfacet
  facet normal 0 1 -0
    outer loop
      vertex -19.65 16 24
      vertex -29.65 16 27
      vertex -19.65 16 27
    endloop
  endfacet
  facet normal 0 1 0
    outer loop
      vertex -29.65 16 21
      vertex -19.65 16 24
      vertex -19.65 16 21
    endloop
  endfacet
  facet normal 0 1 0
    outer loop
      vertex -19.65 16 24
      vertex -29.65 16 21
      vertex -29.65 16 27
    endloop
  endfacet
  facet normal 0 0 -1
    outer loop
      vertex -29.65 6 21
      vertex -19.65 16 21
      vertex -19.65 6 21
    endloop
  endfacet
  facet normal -0 0 -1
    outer loop
      vertex -19.65 16 21
      vertex -29.65 6 21
      vertex -29.65 16 21
    endloop
  endfacet
  facet normal 0 -1 0
    outer loop
      vertex -29.65 6 27
      vertex -19.65 6 24
      vertex -19.65 6 27
    endloop
  endfacet
  facet normal 0 -1 0
    outer loop
      vertex -29.65 6 21
      vertex -19.65 6 24
      vertex -29.65 6 27
    endloop
  endfacet
  facet normal 0 -1 -0
    outer loop
      vertex -19.65 6 24
      vertex -29.65 6 21
      vertex -19.65 6 21
    endloop
  endfacet
  facet normal -0 0 1
    outer loop
      vertex -29.65 -6 27
      vertex -19.65 -16 27
      vertex -19.65 -6 27
    endloop
  endfacet
  facet normal 0 0 1
    outer loop
      vertex -19.65 -16 27
      vertex -29.65 -6 27
      vertex -29.65 -16 27
    endloop
  endfacet
  facet normal -1 0 0
    outer loop
      vertex -29.65 -16 21
      vertex -29.65 -6 27
      vertex -29.65 -6 21
    endloop
  endfacet
  facet normal -1 -0 0
    outer loop
      vertex -29.65 -6 27
      vertex -29.65 -16 21
      vertex -29.65 -16 27
    endloop
  endfacet
  facet normal 0 1 -0
    outer loop
      vertex -19.65 -6 24
      vertex -29.65 -6 27
      vertex -19.65 -6 27
    endloop
  endfacet
  facet normal 0 1 0
    outer loop
      vertex -29.65 -6 21
      vertex -19.65 -6 24
      vertex -19.65 -6 21
    endloop
  endfacet
  facet normal 0 1 0
    outer loop
      vertex -19.65 -6 24
      vertex -29.65 -6 21
      vertex -29.65 -6 27
    endloop
  endfacet
  facet normal 0 0 -1
    outer loop
      vertex -29.65 -16 21
      vertex -19.65 -6 21
      vertex -19.65 -16 21
    endloop
  endfacet
  facet normal -0 0 -1
    outer loop
      vertex -19.65 -6 21
      vertex -29.65 -16 21
      vertex -29.65 -6 21
    endloop
  endfacet
  facet normal 0 -1 0
    outer loop
      vertex -29.65 -16 27
      vertex -19.65 -16 24
      vertex -19.65 -16 27
    endloop
  endfacet
  facet normal 0 -1 0
    outer loop
      vertex -29.65 -16 21
      vertex -19.65 -16 24
      vertex -29.65 -16 27
    endloop
  endfacet
  facet normal 0 -1 -0
    outer loop
      vertex -19.65 -16 24
      vertex -29.65 -16 21
      vertex -19.65 -16 21
    endloop
  endfacet
endsolid OpenSCAD_Model
