solid OpenSCAD_Model
  facet normal -1 0 0
    outer loop
      vertex -20 -12.5 -21.5
      vertex -20 -20 -21.5
      vertex -20 -12.5 -8.5
    endloop
  endfacet
  facet normal -1 0 0
    outer loop
      vertex -20 12.5 -8.5
      vertex -20 20 -21.5
      vertex -20 12.5 -21.5
    endloop
  endfacet
  facet normal -1 0 0
    outer loop
      vertex -20 20 -21.5
      vertex -20 12.5 -8.5
      vertex -20 20 21.5
    endloop
  endfacet
  facet normal -1 0 0
    outer loop
      vertex -20 -12.5 -8.5
      vertex -20 20 21.5
      vertex -20 12.5 -8.5
    endloop
  endfacet
  facet normal -1 0 0
    outer loop
      vertex -20 -12.5 -8.5
      vertex -20 -20 21.5
      vertex -20 20 21.5
    endloop
  endfacet
  facet normal -1 0 0
    outer loop
      vertex -20 -20 21.5
      vertex -20 -12.5 -8.5
      vertex -20 -20 -21.5
    endloop
  endfacet
  facet normal 0 0 1
    outer loop
      vertex 20 20 21.5
      vertex 18.5 18.5 21.5
      vertex 20 -20 21.5
    endloop
  endfacet
  facet normal 0 0 1
    outer loop
      vertex 20 20 21.5
      vertex -18.5 18.5 21.5
      vertex 18.5 18.5 21.5
    endloop
  endfacet
  facet normal 0 0 1
    outer loop
      vertex -18.5 18.5 21.5
      vertex -20 20 21.5
      vertex -18.5 -18.5 21.5
    endloop
  endfacet
  facet normal -0 0 1
    outer loop
      vertex -20 20 21.5
      vertex -18.5 18.5 21.5
      vertex 20 20 21.5
    endloop
  endfacet
  facet normal -0 0 1
    outer loop
      vertex 18.5 -18.5 21.5
      vertex 20 -20 21.5
      vertex 18.5 18.5 21.5
    endloop
  endfacet
  facet normal -0 0 1
    outer loop
      vertex -18.5 -18.5 21.5
      vertex 20 -20 21.5
      vertex 18.5 -18.5 21.5
    endloop
  endfacet
  facet normal 0 0 1
    outer loop
      vertex -18.5 -18.5 21.5
      vertex -20 -20 21.5
      vertex 20 -20 21.5
    endloop
  endfacet
  facet normal 0 0 1
    outer loop
      vertex -20 -20 21.5
      vertex -18.5 -18.5 21.5
      vertex -20 20 21.5
    endloop
  endfacet
  facet normal 1 0 0
    outer loop
      vertex 20 20 21.5
      vertex 20 12.5 -8.5
      vertex 20 20 -21.5
    endloop
  endfacet
  facet normal 1 0 0
    outer loop
      vertex 20 20 21.5
      vertex 20 -12.5 -8.5
      vertex 20 12.5 -8.5
    endloop
  endfacet
  facet normal 1 -0 0
    outer loop
      vertex 20 -20 21.5
      vertex 20 -12.5 -8.5
      vertex 20 20 21.5
    endloop
  endfacet
  facet normal 1 0 0
    outer loop
      vertex 20 -20 -21.5
      vertex 20 -12.5 -8.5
      vertex 20 -20 21.5
    endloop
  endfacet
  facet normal 1 0 0
    outer loop
      vertex 20 -12.5 -8.5
      vertex 20 -20 -21.5
      vertex 20 -12.5 -21.5
    endloop
  endfacet
  facet normal 1 0 0
    outer loop
      vertex 20 20 -21.5
      vertex 20 12.5 -8.5
      vertex 20 12.5 -21.5
    endloop
  endfacet
  facet normal 0 1 -0
    outer loop
      vertex 20 20 -21.5
      vertex -20 20 21.5
      vertex 20 20 21.5
    endloop
  endfacet
  facet normal 0 1 0
    outer loop
      vertex -20 20 21.5
      vertex 20 20 -21.5
      vertex -20 20 -21.5
    endloop
  endfacet
  facet normal 0 0 -1
    outer loop
      vertex -17 12.5 -21.5
      vertex -20 12.5 -21.5
      vertex -17 17 -21.5
    endloop
  endfacet
  facet normal 0 0 -1
    outer loop
      vertex 17 17 -21.5
      vertex 20 12.5 -21.5
      vertex 17 12.5 -21.5
    endloop
  endfacet
  facet normal 0 0 -1
    outer loop
      vertex 20 12.5 -21.5
      vertex 17 17 -21.5
      vertex 20 20 -21.5
    endloop
  endfacet
  facet normal 0 0 -1
    outer loop
      vertex -17 17 -21.5
      vertex 20 20 -21.5
      vertex 17 17 -21.5
    endloop
  endfacet
  facet normal 0 0 -1
    outer loop
      vertex -17 17 -21.5
      vertex -20 20 -21.5
      vertex 20 20 -21.5
    endloop
  endfacet
  facet normal 0 0 -1
    outer loop
      vertex -20 20 -21.5
      vertex -17 17 -21.5
      vertex -20 12.5 -21.5
    endloop
  endfacet
  facet normal 0 0 -1
    outer loop
      vertex 20 -20 -21.5
      vertex 17 -17 -21.5
      vertex 20 -12.5 -21.5
    endloop
  endfacet
  facet normal 0 0 -1
    outer loop
      vertex 20 -20 -21.5
      vertex -17 -17 -21.5
      vertex 17 -17 -21.5
    endloop
  endfacet
  facet normal 0 0 -1
    outer loop
      vertex -20 -20 -21.5
      vertex -17 -17 -21.5
      vertex 20 -20 -21.5
    endloop
  endfacet
  facet normal 0 0 -1
    outer loop
      vertex -20 -12.5 -21.5
      vertex -17 -17 -21.5
      vertex -20 -20 -21.5
    endloop
  endfacet
  facet normal 0 0 -1
    outer loop
      vertex -17 -17 -21.5
      vertex -20 -12.5 -21.5
      vertex -17 -12.5 -21.5
    endloop
  endfacet
  facet normal -0 0 -1
    outer loop
      vertex 20 -12.5 -21.5
      vertex 17 -17 -21.5
      vertex 17 -12.5 -21.5
    endloop
  endfacet
  facet normal 0 -1 0
    outer loop
      vertex -20 -20 -21.5
      vertex 20 -20 21.5
      vertex -20 -20 21.5
    endloop
  endfacet
  facet normal 0 -1 -0
    outer loop
      vertex 20 -20 21.5
      vertex -20 -20 -21.5
      vertex 20 -20 -21.5
    endloop
  endfacet
  facet normal 1 -0 0
    outer loop
      vertex -18.5 -18.5 21.5
      vertex -18.5 18.5 -1.5
      vertex -18.5 18.5 21.5
    endloop
  endfacet
  facet normal 1 0 0
    outer loop
      vertex -18.5 18.5 -1.5
      vertex -18.5 -18.5 21.5
      vertex -18.5 -18.5 -1.5
    endloop
  endfacet
  facet normal -1 0 0
    outer loop
      vertex 18.5 -18.5 -1.5
      vertex 18.5 18.5 21.5
      vertex 18.5 18.5 -1.5
    endloop
  endfacet
  facet normal -1 -0 0
    outer loop
      vertex 18.5 18.5 21.5
      vertex 18.5 -18.5 -1.5
      vertex 18.5 -18.5 21.5
    endloop
  endfacet
  facet normal 0 -1 0
    outer loop
      vertex -18.5 18.5 -1.5
      vertex 18.5 18.5 21.5
      vertex -18.5 18.5 21.5
    endloop
  endfacet
  facet normal 0 -1 -0
    outer loop
      vertex 18.5 18.5 21.5
      vertex -18.5 18.5 -1.5
      vertex 18.5 18.5 -1.5
    endloop
  endfacet
  facet normal 0 0 1
    outer loop
      vertex 18.5 18.5 -1.5
      vertex 17 17 -1.5
      vertex 18.5 -18.5 -1.5
    endloop
  endfacet
  facet normal 0 0 1
    outer loop
      vertex 18.5 18.5 -1.5
      vertex -17 17 -1.5
      vertex 17 17 -1.5
    endloop
  endfacet
  facet normal 0 0 1
    outer loop
      vertex -17 17 -1.5
      vertex -18.5 18.5 -1.5
      vertex -17 -17 -1.5
    endloop
  endfacet
  facet normal -0 0 1
    outer loop
      vertex -18.5 18.5 -1.5
      vertex -17 17 -1.5
      vertex 18.5 18.5 -1.5
    endloop
  endfacet
  facet normal -0 0 1
    outer loop
      vertex 17 -17 -1.5
      vertex 18.5 -18.5 -1.5
      vertex 17 17 -1.5
    endloop
  endfacet
  facet normal -0 0 1
    outer loop
      vertex -17 -17 -1.5
      vertex 18.5 -18.5 -1.5
      vertex 17 -17 -1.5
    endloop
  endfacet
  facet normal 0 0 1
    outer loop
      vertex -17 -17 -1.5
      vertex -18.5 -18.5 -1.5
      vertex 18.5 -18.5 -1.5
    endloop
  endfacet
  facet normal 0 0 1
    outer loop
      vertex -18.5 -18.5 -1.5
      vertex -17 -17 -1.5
      vertex -18.5 18.5 -1.5
    endloop
  endfacet
  facet normal 0 1 -0
    outer loop
      vertex 18.5 -18.5 -1.5
      vertex -18.5 -18.5 21.5
      vertex 18.5 -18.5 21.5
    endloop
  endfacet
  facet normal 0 1 0
    outer loop
      vertex -18.5 -18.5 21.5
      vertex 18.5 -18.5 -1.5
      vertex -18.5 -18.5 -1.5
    endloop
  endfacet
  facet normal 1 0 0
    outer loop
      vertex -17 17 -1.5
      vertex -17 12.5 -8.5
      vertex -17 17 -21.5
    endloop
  endfacet
  facet normal 1 0 0
    outer loop
      vertex -17 17 -1.5
      vertex -17 -12.5 -8.5
      vertex -17 12.5 -8.5
    endloop
  endfacet
  facet normal 1 -0 0
    outer loop
      vertex -17 -17 -1.5
      vertex -17 -12.5 -8.5
      vertex -17 17 -1.5
    endloop
  endfacet
  facet normal 1 0 0
    outer loop
      vertex -17 -17 -21.5
      vertex -17 -12.5 -8.5
      vertex -17 -17 -1.5
    endloop
  endfacet
  facet normal 1 0 0
    outer loop
      vertex -17 -12.5 -8.5
      vertex -17 -17 -21.5
      vertex -17 -12.5 -21.5
    endloop
  endfacet
  facet normal 1 0 0
    outer loop
      vertex -17 17 -21.5
      vertex -17 12.5 -8.5
      vertex -17 12.5 -21.5
    endloop
  endfacet
  facet normal -1 0 0
    outer loop
      vertex 17 -12.5 -21.5
      vertex 17 -17 -21.5
      vertex 17 -12.5 -8.5
    endloop
  endfacet
  facet normal -1 0 0
    outer loop
      vertex 17 12.5 -8.5
      vertex 17 17 -21.5
      vertex 17 12.5 -21.5
    endloop
  endfacet
  facet normal -1 0 0
    outer loop
      vertex 17 17 -21.5
      vertex 17 12.5 -8.5
      vertex 17 17 -1.5
    endloop
  endfacet
  facet normal -1 0 0
    outer loop
      vertex 17 -12.5 -8.5
      vertex 17 17 -1.5
      vertex 17 12.5 -8.5
    endloop
  endfacet
  facet normal -1 0 0
    outer loop
      vertex 17 -12.5 -8.5
      vertex 17 -17 -1.5
      vertex 17 17 -1.5
    endloop
  endfacet
  facet normal -1 0 0
    outer loop
      vertex 17 -17 -1.5
      vertex 17 -12.5 -8.5
      vertex 17 -17 -21.5
    endloop
  endfacet
  facet normal 0 1 -0
    outer loop
      vertex 17 -17 -21.5
      vertex -17 -17 -1.5
      vertex 17 -17 -1.5
    endloop
  endfacet
  facet normal 0 1 0
    outer loop
      vertex -17 -17 -1.5
      vertex 17 -17 -21.5
      vertex -17 -17 -21.5
    endloop
  endfacet
  facet normal 0 -1 0
    outer loop
      vertex -17 17 -21.5
      vertex 17 17 -1.5
      vertex -17 17 -1.5
    endloop
  endfacet
  facet normal 0 -1 -0
    outer loop
      vertex 17 17 -1.5
      vertex -17 17 -21.5
      vertex 17 17 -21.5
    endloop
  endfacet
  facet normal 0 0 -1
    outer loop
      vertex -20 -12.5 -8.5
      vertex -17 12.5 -8.5
      vertex -17 -12.5 -8.5
    endloop
  endfacet
  facet normal -0 0 -1
    outer loop
      vertex -17 12.5 -8.5
      vertex -20 -12.5 -8.5
      vertex -20 12.5 -8.5
    endloop
  endfacet
  facet normal 0 0 -1
    outer loop
      vertex 17 -12.5 -8.5
      vertex 20 12.5 -8.5
      vertex 20 -12.5 -8.5
    endloop
  endfacet
  facet normal -0 0 -1
    outer loop
      vertex 20 12.5 -8.5
      vertex 17 -12.5 -8.5
      vertex 17 12.5 -8.5
    endloop
  endfacet
  facet normal 0 -1 0
    outer loop
      vertex 17 12.5 -21.5
      vertex 20 12.5 -8.5
      vertex 17 12.5 -8.5
    endloop
  endfacet
  facet normal 0 -1 -0
    outer loop
      vertex 20 12.5 -8.5
      vertex 17 12.5 -21.5
      vertex 20 12.5 -21.5
    endloop
  endfacet
  facet normal 0 -1 0
    outer loop
      vertex -20 12.5 -21.5
      vertex -17 12.5 -8.5
      vertex -20 12.5 -8.5
    endloop
  endfacet
  facet normal 0 -1 -0
    outer loop
      vertex -17 12.5 -8.5
      vertex -20 12.5 -21.5
      vertex -17 12.5 -21.5
    endloop
  endfacet
  facet normal 0 1 -0
    outer loop
      vertex -17 -12.5 -21.5
      vertex -20 -12.5 -8.5
      vertex -17 -12.5 -8.5
    endloop
  endfacet
  facet normal 0 1 0
    outer loop
      vertex -20 -12.5 -8.5
      vertex -17 -12.5 -21.5
      vertex -20 -12.5 -21.5
    endloop
  endfacet
  facet normal 0 1 -0
    outer loop
      vertex 20 -12.5 -21.5
      vertex 17 -12.5 -8.5
      vertex 20 -12.5 -8.5
    endloop
  endfacet
  facet normal 0 1 0
    outer loop
      vertex 17 -12.5 -8.5
      vertex 20 -12.5 -21.5
      vertex 17 -12.5 -21.5
    endloop
  endfacet
endsolid OpenSCAD_Model
