solid OpenSCAD_Model
  facet normal 0 0 -1
    outer loop
      vertex -20 -12.5 -11
      vertex -17 12.5 -11
      vertex -17 -12.5 -11
    endloop
  endfacet
  facet normal -0 0 -1
    outer loop
      vertex -17 12.5 -11
      vertex -20 -12.5 -11
      vertex -20 12.5 -11
    endloop
  endfacet
  facet normal 0 0 -1
    outer loop
      vertex -12.5 -20 -11
      vertex 12.5 -17 -11
      vertex 12.5 -20 -11
    endloop
  endfacet
  facet normal -0 0 -1
    outer loop
      vertex 12.5 -17 -11
      vertex -12.5 -20 -11
      vertex -12.5 -17 -11
    endloop
  endfacet
  facet normal 0 0 -1
    outer loop
      vertex -12.5 17 -11
      vertex 12.5 20 -11
      vertex 12.5 17 -11
    endloop
  endfacet
  facet normal -0 0 -1
    outer loop
      vertex 12.5 20 -11
      vertex -12.5 17 -11
      vertex -12.5 20 -11
    endloop
  endfacet
  facet normal 0 0 -1
    outer loop
      vertex 17 -12.5 -11
      vertex 20 12.5 -11
      vertex 20 -12.5 -11
    endloop
  endfacet
  facet normal -0 0 -1
    outer loop
      vertex 20 12.5 -11
      vertex 17 -12.5 -11
      vertex 17 12.5 -11
    endloop
  endfacet
  facet normal 0 -1 0
    outer loop
      vertex 17 12.5 -24
      vertex 20 12.5 -11
      vertex 17 12.5 -11
    endloop
  endfacet
  facet normal 0 -1 -0
    outer loop
      vertex 20 12.5 -11
      vertex 17 12.5 -24
      vertex 20 12.5 -24
    endloop
  endfacet
  facet normal 0 -1 0
    outer loop
      vertex -20 12.5 -24
      vertex -17 12.5 -11
      vertex -20 12.5 -11
    endloop
  endfacet
  facet normal 0 -1 -0
    outer loop
      vertex -17 12.5 -11
      vertex -20 12.5 -24
      vertex -17 12.5 -24
    endloop
  endfacet
  facet normal 0 1 -0
    outer loop
      vertex -17 -12.5 -24
      vertex -20 -12.5 -11
      vertex -17 -12.5 -11
    endloop
  endfacet
  facet normal 0 1 0
    outer loop
      vertex -20 -12.5 -11
      vertex -17 -12.5 -24
      vertex -20 -12.5 -24
    endloop
  endfacet
  facet normal 0 1 -0
    outer loop
      vertex 20 -12.5 -24
      vertex 17 -12.5 -11
      vertex 20 -12.5 -11
    endloop
  endfacet
  facet normal 0 1 0
    outer loop
      vertex 17 -12.5 -11
      vertex 20 -12.5 -24
      vertex 17 -12.5 -24
    endloop
  endfacet
  facet normal 1 -0 0
    outer loop
      vertex -12.5 17 -11
      vertex -12.5 20 -24
      vertex -12.5 20 -11
    endloop
  endfacet
  facet normal 1 0 0
    outer loop
      vertex -12.5 20 -24
      vertex -12.5 17 -11
      vertex -12.5 17 -24
    endloop
  endfacet
  facet normal 1 -0 0
    outer loop
      vertex -12.5 -20 -11
      vertex -12.5 -17 -24
      vertex -12.5 -17 -11
    endloop
  endfacet
  facet normal 1 0 0
    outer loop
      vertex -12.5 -17 -24
      vertex -12.5 -20 -11
      vertex -12.5 -20 -24
    endloop
  endfacet
  facet normal -1 0 0
    outer loop
      vertex 12.5 -20 -24
      vertex 12.5 -17 -11
      vertex 12.5 -17 -24
    endloop
  endfacet
  facet normal -1 -0 0
    outer loop
      vertex 12.5 -17 -11
      vertex 12.5 -20 -24
      vertex 12.5 -20 -11
    endloop
  endfacet
  facet normal -1 0 0
    outer loop
      vertex 12.5 17 -24
      vertex 12.5 20 -11
      vertex 12.5 20 -24
    endloop
  endfacet
  facet normal -1 -0 0
    outer loop
      vertex 12.5 20 -11
      vertex 12.5 17 -24
      vertex 12.5 17 -11
    endloop
  endfacet
  facet normal -1 0 0
    outer loop
      vertex -20 -12.5 -24
      vertex -20 -20 -24
      vertex -20 -12.5 -11
    endloop
  endfacet
  facet normal -1 0 0
    outer loop
      vertex -20 12.5 -11
      vertex -20 20 -24
      vertex -20 12.5 -24
    endloop
  endfacet
  facet normal -1 0 0
    outer loop
      vertex -20 20 -24
      vertex -20 12.5 -11
      vertex -20 20 24
    endloop
  endfacet
  facet normal -1 0 0
    outer loop
      vertex -20 -12.5 -11
      vertex -20 20 24
      vertex -20 12.5 -11
    endloop
  endfacet
  facet normal -1 0 0
    outer loop
      vertex -20 -12.5 -11
      vertex -20 -20 24
      vertex -20 20 24
    endloop
  endfacet
  facet normal -1 0 0
    outer loop
      vertex -20 -20 24
      vertex -20 -12.5 -11
      vertex -20 -20 -24
    endloop
  endfacet
  facet normal 0 0 1
    outer loop
      vertex 20 20 24
      vertex 18.5 18.5 24
      vertex 20 -20 24
    endloop
  endfacet
  facet normal 0 0 1
    outer loop
      vertex 20 20 24
      vertex -18.5 18.5 24
      vertex 18.5 18.5 24
    endloop
  endfacet
  facet normal 0 0 1
    outer loop
      vertex -18.5 18.5 24
      vertex -20 20 24
      vertex -18.5 -18.5 24
    endloop
  endfacet
  facet normal -0 0 1
    outer loop
      vertex -20 20 24
      vertex -18.5 18.5 24
      vertex 20 20 24
    endloop
  endfacet
  facet normal -0 0 1
    outer loop
      vertex 18.5 -18.5 24
      vertex 20 -20 24
      vertex 18.5 18.5 24
    endloop
  endfacet
  facet normal -0 0 1
    outer loop
      vertex -18.5 -18.5 24
      vertex 20 -20 24
      vertex 18.5 -18.5 24
    endloop
  endfacet
  facet normal 0 0 1
    outer loop
      vertex -18.5 -18.5 24
      vertex -20 -20 24
      vertex 20 -20 24
    endloop
  endfacet
  facet normal 0 0 1
    outer loop
      vertex -20 -20 24
      vertex -18.5 -18.5 24
      vertex -20 20 24
    endloop
  endfacet
  facet normal 1 0 0
    outer loop
      vertex 20 20 24
      vertex 20 12.5 -11
      vertex 20 20 -24
    endloop
  endfacet
  facet normal 1 0 0
    outer loop
      vertex 20 20 24
      vertex 20 -12.5 -11
      vertex 20 12.5 -11
    endloop
  endfacet
  facet normal 1 -0 0
    outer loop
      vertex 20 -20 24
      vertex 20 -12.5 -11
      vertex 20 20 24
    endloop
  endfacet
  facet normal 1 0 0
    outer loop
      vertex 20 -20 -24
      vertex 20 -12.5 -11
      vertex 20 -20 24
    endloop
  endfacet
  facet normal 1 0 0
    outer loop
      vertex 20 -12.5 -11
      vertex 20 -20 -24
      vertex 20 -12.5 -24
    endloop
  endfacet
  facet normal 1 0 0
    outer loop
      vertex 20 20 -24
      vertex 20 12.5 -11
      vertex 20 12.5 -24
    endloop
  endfacet
  facet normal 0 0 -1
    outer loop
      vertex -17 12.5 -24
      vertex -20 12.5 -24
      vertex -17 17 -24
    endloop
  endfacet
  facet normal 0 0 -1
    outer loop
      vertex -17 17 -24
      vertex -12.5 20 -24
      vertex -12.5 17 -24
    endloop
  endfacet
  facet normal 0 0 -1
    outer loop
      vertex -17 17 -24
      vertex -20 20 -24
      vertex -12.5 20 -24
    endloop
  endfacet
  facet normal 0 0 -1
    outer loop
      vertex -20 20 -24
      vertex -17 17 -24
      vertex -20 12.5 -24
    endloop
  endfacet
  facet normal 0 0 -1
    outer loop
      vertex -12.5 -20 -24
      vertex -17 -17 -24
      vertex -12.5 -17 -24
    endloop
  endfacet
  facet normal 0 0 -1
    outer loop
      vertex -20 -20 -24
      vertex -17 -17 -24
      vertex -12.5 -20 -24
    endloop
  endfacet
  facet normal 0 0 -1
    outer loop
      vertex -20 -12.5 -24
      vertex -17 -17 -24
      vertex -20 -20 -24
    endloop
  endfacet
  facet normal 0 0 -1
    outer loop
      vertex -17 -17 -24
      vertex -20 -12.5 -24
      vertex -17 -12.5 -24
    endloop
  endfacet
  facet normal 0 0 -1
    outer loop
      vertex 20 -20 -24
      vertex 17 -17 -24
      vertex 20 -12.5 -24
    endloop
  endfacet
  facet normal 0 0 -1
    outer loop
      vertex 12.5 -20 -24
      vertex 17 -17 -24
      vertex 20 -20 -24
    endloop
  endfacet
  facet normal -0 0 -1
    outer loop
      vertex 17 -17 -24
      vertex 12.5 -20 -24
      vertex 12.5 -17 -24
    endloop
  endfacet
  facet normal -0 0 -1
    outer loop
      vertex 20 -12.5 -24
      vertex 17 -17 -24
      vertex 17 -12.5 -24
    endloop
  endfacet
  facet normal 0 0 -1
    outer loop
      vertex 17 17 -24
      vertex 20 12.5 -24
      vertex 17 12.5 -24
    endloop
  endfacet
  facet normal 0 0 -1
    outer loop
      vertex 20 12.5 -24
      vertex 17 17 -24
      vertex 20 20 -24
    endloop
  endfacet
  facet normal 0 0 -1
    outer loop
      vertex 12.5 20 -24
      vertex 17 17 -24
      vertex 12.5 17 -24
    endloop
  endfacet
  facet normal 0 0 -1
    outer loop
      vertex 17 17 -24
      vertex 12.5 20 -24
      vertex 20 20 -24
    endloop
  endfacet
  facet normal 0 -1 0
    outer loop
      vertex -20 -20 24
      vertex -12.5 -20 -11
      vertex 20 -20 24
    endloop
  endfacet
  facet normal 0 -1 0
    outer loop
      vertex -20 -20 -24
      vertex -12.5 -20 -11
      vertex -20 -20 24
    endloop
  endfacet
  facet normal 0 -1 -0
    outer loop
      vertex -12.5 -20 -11
      vertex -20 -20 -24
      vertex -12.5 -20 -24
    endloop
  endfacet
  facet normal 0 -1 0
    outer loop
      vertex 12.5 -20 -11
      vertex 20 -20 24
      vertex -12.5 -20 -11
    endloop
  endfacet
  facet normal 0 -1 0
    outer loop
      vertex 20 -20 -24
      vertex 12.5 -20 -11
      vertex 12.5 -20 -24
    endloop
  endfacet
  facet normal 0 -1 0
    outer loop
      vertex 12.5 -20 -11
      vertex 20 -20 -24
      vertex 20 -20 24
    endloop
  endfacet
  facet normal 0 1 0
    outer loop
      vertex 20 20 24
      vertex 12.5 20 -11
      vertex -20 20 24
    endloop
  endfacet
  facet normal 0 1 -0
    outer loop
      vertex 20 20 -24
      vertex 12.5 20 -11
      vertex 20 20 24
    endloop
  endfacet
  facet normal 0 1 0
    outer loop
      vertex 12.5 20 -11
      vertex 20 20 -24
      vertex 12.5 20 -24
    endloop
  endfacet
  facet normal 0 1 -0
    outer loop
      vertex -12.5 20 -11
      vertex -20 20 24
      vertex 12.5 20 -11
    endloop
  endfacet
  facet normal 0 1 0
    outer loop
      vertex -20 20 -24
      vertex -12.5 20 -11
      vertex -12.5 20 -24
    endloop
  endfacet
  facet normal 0 1 0
    outer loop
      vertex -12.5 20 -11
      vertex -20 20 -24
      vertex -20 20 24
    endloop
  endfacet
  facet normal 1 -0 0
    outer loop
      vertex -18.5 -18.5 24
      vertex -18.5 18.5 1
      vertex -18.5 18.5 24
    endloop
  endfacet
  facet normal 1 0 0
    outer loop
      vertex -18.5 18.5 1
      vertex -18.5 -18.5 24
      vertex -18.5 -18.5 1
    endloop
  endfacet
  facet normal -1 0 0
    outer loop
      vertex 18.5 -18.5 1
      vertex 18.5 18.5 24
      vertex 18.5 18.5 1
    endloop
  endfacet
  facet normal -1 -0 0
    outer loop
      vertex 18.5 18.5 24
      vertex 18.5 -18.5 1
      vertex 18.5 -18.5 24
    endloop
  endfacet
  facet normal 0 -1 0
    outer loop
      vertex -18.5 18.5 1
      vertex 18.5 18.5 24
      vertex -18.5 18.5 24
    endloop
  endfacet
  facet normal 0 -1 -0
    outer loop
      vertex 18.5 18.5 24
      vertex -18.5 18.5 1
      vertex 18.5 18.5 1
    endloop
  endfacet
  facet normal 0 0 1
    outer loop
      vertex 18.5 18.5 1
      vertex 17 17 1
      vertex 18.5 -18.5 1
    endloop
  endfacet
  facet normal 0 0 1
    outer loop
      vertex 18.5 18.5 1
      vertex -17 17 1
      vertex 17 17 1
    endloop
  endfacet
  facet normal 0 0 1
    outer loop
      vertex -17 17 1
      vertex -18.5 18.5 1
      vertex -17 -17 1
    endloop
  endfacet
  facet normal -0 0 1
    outer loop
      vertex -18.5 18.5 1
      vertex -17 17 1
      vertex 18.5 18.5 1
    endloop
  endfacet
  facet normal -0 0 1
    outer loop
      vertex 17 -17 1
      vertex 18.5 -18.5 1
      vertex 17 17 1
    endloop
  endfacet
  facet normal -0 0 1
    outer loop
      vertex -17 -17 1
      vertex 18.5 -18.5 1
      vertex 17 -17 1
    endloop
  endfacet
  facet normal 0 0 1
    outer loop
      vertex -17 -17 1
      vertex -18.5 -18.5 1
      vertex 18.5 -18.5 1
    endloop
  endfacet
  facet normal 0 0 1
    outer loop
      vertex -18.5 -18.5 1
      vertex -17 -17 1
      vertex -18.5 18.5 1
    endloop
  endfacet
  facet normal 0 1 -0
    outer loop
      vertex 18.5 -18.5 1
      vertex -18.5 -18.5 24
      vertex 18.5 -18.5 24
    endloop
  endfacet
  facet normal 0 1 0
    outer loop
      vertex -18.5 -18.5 24
      vertex 18.5 -18.5 1
      vertex -18.5 -18.5 1
    endloop
  endfacet
  facet normal 1 0 0
    outer loop
      vertex -17 17 1
      vertex -17 12.5 -11
      vertex -17 17 -24
    endloop
  endfacet
  facet normal 1 0 0
    outer loop
      vertex -17 17 1
      vertex -17 -12.5 -11
      vertex -17 12.5 -11
    endloop
  endfacet
  facet normal 1 -0 0
    outer loop
      vertex -17 -17 1
      vertex -17 -12.5 -11
      vertex -17 17 1
    endloop
  endfacet
  facet normal 1 0 0
    outer loop
      vertex -17 -17 -24
      vertex -17 -12.5 -11
      vertex -17 -17 1
    endloop
  endfacet
  facet normal 1 0 0
    outer loop
      vertex -17 -12.5 -11
      vertex -17 -17 -24
      vertex -17 -12.5 -24
    endloop
  endfacet
  facet normal 1 0 0
    outer loop
      vertex -17 17 -24
      vertex -17 12.5 -11
      vertex -17 12.5 -24
    endloop
  endfacet
  facet normal -1 0 0
    outer loop
      vertex 17 -12.5 -24
      vertex 17 -17 -24
      vertex 17 -12.5 -11
    endloop
  endfacet
  facet normal -1 0 0
    outer loop
      vertex 17 12.5 -11
      vertex 17 17 -24
      vertex 17 12.5 -24
    endloop
  endfacet
  facet normal -1 0 0
    outer loop
      vertex 17 17 -24
      vertex 17 12.5 -11
      vertex 17 17 1
    endloop
  endfacet
  facet normal -1 0 0
    outer loop
      vertex 17 -12.5 -11
      vertex 17 17 1
      vertex 17 12.5 -11
    endloop
  endfacet
  facet normal -1 0 0
    outer loop
      vertex 17 -12.5 -11
      vertex 17 -17 1
      vertex 17 17 1
    endloop
  endfacet
  facet normal -1 0 0
    outer loop
      vertex 17 -17 1
      vertex 17 -12.5 -11
      vertex 17 -17 -24
    endloop
  endfacet
  facet normal 0 -1 0
    outer loop
      vertex -17 17 1
      vertex -12.5 17 -11
      vertex 17 17 1
    endloop
  endfacet
  facet normal 0 -1 0
    outer loop
      vertex -17 17 -24
      vertex -12.5 17 -11
      vertex -17 17 1
    endloop
  endfacet
  facet normal 0 -1 -0
    outer loop
      vertex -12.5 17 -11
      vertex -17 17 -24
      vertex -12.5 17 -24
    endloop
  endfacet
  facet normal 0 -1 0
    outer loop
      vertex 12.5 17 -11
      vertex 17 17 1
      vertex -12.5 17 -11
    endloop
  endfacet
  facet normal 0 -1 0
    outer loop
      vertex 17 17 -24
      vertex 12.5 17 -11
      vertex 12.5 17 -24
    endloop
  endfacet
  facet normal 0 -1 0
    outer loop
      vertex 12.5 17 -11
      vertex 17 17 -24
      vertex 17 17 1
    endloop
  endfacet
  facet normal 0 1 0
    outer loop
      vertex 17 -17 1
      vertex 12.5 -17 -11
      vertex -17 -17 1
    endloop
  endfacet
  facet normal 0 1 -0
    outer loop
      vertex 17 -17 -24
      vertex 12.5 -17 -11
      vertex 17 -17 1
    endloop
  endfacet
  facet normal 0 1 0
    outer loop
      vertex 12.5 -17 -11
      vertex 17 -17 -24
      vertex 12.5 -17 -24
    endloop
  endfacet
  facet normal 0 1 -0
    outer loop
      vertex -12.5 -17 -11
      vertex -17 -17 1
      vertex 12.5 -17 -11
    endloop
  endfacet
  facet normal 0 1 0
    outer loop
      vertex -17 -17 -24
      vertex -12.5 -17 -11
      vertex -12.5 -17 -24
    endloop
  endfacet
  facet normal 0 1 0
    outer loop
      vertex -12.5 -17 -11
      vertex -17 -17 -24
      vertex -17 -17 1
    endloop
  endfacet
endsolid OpenSCAD_Model
