  0
SECTION
  2
HEADER
  9
$ACADVER
  1
AC1009
  9
$INSBASE
 10
0.0
 20
0.0
 30
0.0
  9
$EXTMIN
 10
0.0
 20
0.0
 30
0.0
  9
$EXTMAX
 10
0.0
 20
0.0
 30
0.0
  0
ENDSEC
  0
SECTION
  2
TABLES
  0
TABLE
  2
VPORT
 70
0
  0
ENDTAB
  0
TABLE
  2
LTYPE
 70
1
  0
LTYPE
  2
CONTINUOUS
 70
0
  3
Solid line
 72
65
 73
0
 40
0.0
  0
ENDTAB
  0
TABLE
  2
LAYER
 70
1
  0
LAYER
  2
0
 70
64
 62
7
  6
continuous
  0
ENDTAB
  0
TABLE
  2
STYLE
 70
1
  0
STYLE
  2
STANDARD
 70
0
 40
0
 41
1.0
 50
0.0
 71
0
 42
1
 3
ARIAL.TTF
 4

  0
ENDTAB
  0
TABLE
  2
VIEW
 70
0
  0
ENDTAB
  0
ENDSEC
  0
SECTION
  2
BLOCKS
  0
BLOCK
  8
0
  2
PART__FEATURE_CS001
 70
0
 10
0.0
 20
0.0
 30
0.0
  3
PART__FEATURE_CS001
  0
POLYLINE
  8
0
 62
0
 70
1
 66
1
 10
0.0
 20
0.0
 30
0.0
  0
VERTEX
  8
0
 10
-31.4280860265
 20
14.7093646603
 30
4.5
 42
-0.198544435811
  0
VERTEX
  8
0
 10
-11.8680989734
 20
32.6073339413
 30
4.5
  0
VERTEX
  8
0
 10
-13.167775518
 20
36.1781659003
 30
4.5
  0
VERTEX
  8
0
 10
-14.5650373186
 20
36.1781659003
 30
4.5
 42
0.181890190997
  0
VERTEX
  8
0
 10
-34.8
 20
17.6056809013
 30
4.5
  0
VERTEX
  8
0
 10
-34.8
 20
14.7093646603
 30
4.5
  0
SEQEND
  8
0
  0
POLYLINE
  8
0
 62
0
 70
1
 66
1
 10
0.0
 20
0.0
 30
0.0
  0
VERTEX
  8
0
 10
2.0
 20
36.1781659003
 30
4.5
  0
VERTEX
  8
0
 10
2.0
 20
27.6674447682
 30
4.5
 42
0.330748643184
  0
VERTEX
  8
0
 10
6.51531141869
 20
21.5882657274
 30
4.5
 42
-0.25124063988
  0
VERTEX
  8
0
 10
21.5882657274
 20
6.51531141869
 30
4.5
 42
0.330748643184
  0
VERTEX
  8
0
 10
27.6674447682
 20
2.0
 30
4.5
  0
VERTEX
  8
0
 10
38.9486841883
 20
2.0
 30
4.5
 42
-0.0256579058496
  0
VERTEX
  8
0
 10
38.9486841883
 20
-2.0
 30
4.5
  0
VERTEX
  8
0
 10
26.8830801807
 20
-2.0
 30
4.5
 42
0.296580045718
  0
VERTEX
  8
0
 10
21.6001280176
 20
-6.47587597341
 30
4.5
 42
-0.234237805197
  0
VERTEX
  8
0
 10
7.9260155016
 20
-21.1111529356
 30
4.5
 42
0.784151292904
  0
VERTEX
  8
0
 10
16.4563055062
 20
-30.5496318977
 30
4.5
 42
0.196349759891
  0
VERTEX
  8
0
 10
33.1382906668
 20
-10.2928952043
 30
4.5
 42
0.0116268093158
  0
VERTEX
  8
0
 10
33.2218497774
 20
-10.0
 30
4.5
  0
VERTEX
  8
0
 10
37.17862289
 20
-10.0
 30
4.5
  0
VERTEX
  8
0
 10
19.6975570189
 20
-83.4387437185
 30
4.5
 42
-0.789903625821
  0
VERTEX
  8
0
 10
-19.6975571491
 20
-83.4387431716
 30
4.5
  0
VERTEX
  8
0
 10
-34.8
 20
-19.9927017101
 30
4.5
  0
VERTEX
  8
0
 10
-34.8
 20
-17.3552471075
 30
4.5
  0
VERTEX
  8
0
 10
-30.0336155336
 20
-17.3802168566
 30
4.5
 42
0.138904498072
  0
VERTEX
  8
0
 10
-16.4563055062
 20
-30.5496318977
 30
4.5
 42
0.784151292904
  0
VERTEX
  8
0
 10
-7.9260155016
 20
-21.1111529356
 30
4.5
 42
-0.233756255605
  0
VERTEX
  8
0
 10
-21.5882657274
 20
-6.51531141869
 30
4.5
 42
0.330748643184
  0
VERTEX
  8
0
 10
-27.6674447682
 20
-2.0
 30
4.5
  0
VERTEX
  8
0
 10
-34.8
 20
-2.0
 30
4.5
  0
VERTEX
  8
0
 10
-34.8
 20
2.0
 30
4.5
  0
VERTEX
  8
0
 10
-26.8830801807
 20
2.0
 30
4.5
 42
0.296580045718
  0
VERTEX
  8
0
 10
-21.6001280176
 20
6.47587597341
 30
4.5
 42
-0.251726065257
  0
VERTEX
  8
0
 10
-6.51531141869
 20
21.5882657274
 30
4.5
 42
0.330748643184
  0
VERTEX
  8
0
 10
-2.0
 20
27.6674447682
 30
4.5
  0
VERTEX
  8
0
 10
-2.0
 20
36.1781659003
 30
4.5
  0
SEQEND
  8
0
  0
POLYLINE
  8
0
 62
0
 70
1
 66
1
 10
0.0
 20
0.0
 30
0.0
  0
VERTEX
  8
0
 10
3.375
 20
-20.2709613734
 30
4.5
 42
12.0950996662
  0
VERTEX
  8
0
 10
-3.375
 20
-20.2709613734
 30
4.5
  0
VERTEX
  8
0
 10
-3.375
 20
-63.7170546904
 30
4.5
 42
9.01928556216
  0
VERTEX
  8
0
 10
3.375
 20
-63.7170546904
 30
4.5
  0
SEQEND
  8
0
  0
POLYLINE
  8
0
 62
0
 70
1
 66
1
 10
0.0
 20
0.0
 30
0.0
  0
VERTEX
  8
0
 10
37.6961536499
 20
10.0
 30
4.5
  0
VERTEX
  8
0
 10
33.2239760657
 20
10.0
 30
4.5
 42
0.00934188384465
  0
VERTEX
  8
0
 10
33.1561698
 20
10.2351553088
 30
4.5
 42
0.234754059687
  0
VERTEX
  8
0
 10
11.8680989734
 20
32.6073339413
 30
4.5
  0
VERTEX
  8
0
 10
13.167775518
 20
36.1781659003
 30
4.5
  0
VERTEX
  8
0
 10
14.5650373186
 20
36.1781659003
 30
4.5
 42
-0.236452258469
  0
SEQEND
  8
0
  0
ENDBLK
  0
ENDSEC
  0
SECTION
  2
ENTITIES
  0
INSERT
  2
PART__FEATURE_CS001
  8
0
 62
0
 10
0.0
 20
0.0
 30
0.0
  0
ENDSEC
  0
EOF
