  0
SECTION
  2
HEADER
  9
$ACADVER
  1
AC1009
  9
$INSBASE
 10
0.0
 20
0.0
 30
0.0
  9
$EXTMIN
 10
0.0
 20
0.0
 30
0.0
  9
$EXTMAX
 10
0.0
 20
0.0
 30
0.0
  0
ENDSEC
  0
SECTION
  2
TABLES
  0
TABLE
  2
VPORT
 70
0
  0
ENDTAB
  0
TABLE
  2
LTYPE
 70
1
  0
LTYPE
  2
CONTINUOUS
 70
0
  3
Solid line
 72
65
 73
0
 40
0.0
  0
ENDTAB
  0
TABLE
  2
LAYER
 70
1
  0
LAYER
  2
0
 70
64
 62
7
  6
continuous
  0
ENDTAB
  0
TABLE
  2
STYLE
 70
1
  0
STYLE
  2
STANDARD
 70
0
 40
0
 41
1.0
 50
0.0
 71
0
 42
1
 3
ARIAL.TTF
 4

  0
ENDTAB
  0
TABLE
  2
VIEW
 70
0
  0
ENDTAB
  0
ENDSEC
  0
SECTION
  2
BLOCKS
  0
BLOCK
  8
0
  2
PART__FEATURE_CS002
 70
0
 10
0.0
 20
0.0
 30
0.0
  3
PART__FEATURE_CS002
  0
POLYLINE
  8
0
 62
0
 70
1
 66
1
 10
0.0
 20
0.0
 30
0.0
  0
VERTEX
  8
0
 10
-31.4280860265
 20
14.7093646603
 30
9.5
 42
-0.198544435811
  0
VERTEX
  8
0
 10
-11.8680989734
 20
32.6073339413
 30
9.5
  0
VERTEX
  8
0
 10
-13.3387855897
 20
36.6480122107
 30
9.5
 42
0.190600478821
  0
VERTEX
  8
0
 10
-34.8
 20
17.6056809013
 30
9.5
  0
VERTEX
  8
0
 10
-34.8
 20
14.7093646603
 30
9.5
  0
SEQEND
  8
0
  0
POLYLINE
  8
0
 62
0
 70
1
 66
1
 10
0.0
 20
0.0
 30
0.0
  0
VERTEX
  8
0
 10
3.375
 20
-34.5354799445
 30
9.5
 42
0.301743751079
  0
VERTEX
  8
0
 10
33.1382906668
 20
-10.2928952043
 30
9.5
 42
0.0116268093158
  0
VERTEX
  8
0
 10
33.2218497774
 20
-10.0
 30
9.5
  0
VERTEX
  8
0
 10
37.17862289
 20
-10.0
 30
9.5
  0
VERTEX
  8
0
 10
30.5782732757
 20
-37.7283654984
 30
9.5
  0
VERTEX
  8
0
 10
21.4285085038
 20
-37.7283654984
 30
9.5
 42
0.414213562373
  0
VERTEX
  8
0
 10
15.0785085038
 20
-44.0783654984
 30
9.5
  0
VERTEX
  8
0
 10
15.0785085038
 20
-50.2640608467
 30
9.5
 42
0.414213562373
  0
VERTEX
  8
0
 10
21.4285085038
 20
-56.6140608467
 30
9.5
  0
VERTEX
  8
0
 10
26.0827976223
 20
-56.6140608467
 30
9.5
  0
VERTEX
  8
0
 10
19.6975570189
 20
-83.4387437185
 30
9.5
 42
-0.789903625821
  0
VERTEX
  8
0
 10
-19.6975571491
 20
-83.4387431716
 30
9.5
  0
VERTEX
  8
0
 10
-26.0827976223
 20
-56.6140608467
 30
9.5
  0
VERTEX
  8
0
 10
-21.2714914962
 20
-56.6140608467
 30
9.5
 42
0.414213562373
  0
VERTEX
  8
0
 10
-14.9214914962
 20
-50.2640608467
 30
9.5
  0
VERTEX
  8
0
 10
-14.9214914962
 20
-44.0783654984
 30
9.5
 42
0.414213562373
  0
VERTEX
  8
0
 10
-21.2714914962
 20
-37.7283654984
 30
9.5
  0
VERTEX
  8
0
 10
-30.5782732757
 20
-37.7283654984
 30
9.5
  0
VERTEX
  8
0
 10
-34.8
 20
-19.9927017101
 30
9.5
  0
VERTEX
  8
0
 10
-34.8
 20
-17.3552471075
 30
9.5
  0
VERTEX
  8
0
 10
-30.0336155336
 20
-17.3802168566
 30
9.5
 42
0.241744559632
  0
VERTEX
  8
0
 10
-3.375
 20
-34.5354799445
 30
9.5
  0
VERTEX
  8
0
 10
-3.375
 20
-63.5381551336
 30
9.5
 42
9.12402731156
  0
VERTEX
  8
0
 10
3.375
 20
-63.5381551336
 30
9.5
  0
SEQEND
  8
0
  0
POLYLINE
  8
0
 62
0
 70
1
 66
1
 10
0.0
 20
0.0
 30
0.0
  0
VERTEX
  8
0
 10
33.2239760657
 20
10.0
 30
9.5
 42
0.00934188384465
  0
VERTEX
  8
0
 10
33.1561698
 20
10.2351553088
 30
9.5
 42
0.234754059687
  0
VERTEX
  8
0
 10
11.8680989734
 20
32.6073339413
 30
9.5
  0
VERTEX
  8
0
 10
13.3387855897
 20
36.6480122107
 30
9.5
 42
-0.245359094468
  0
VERTEX
  8
0
 10
37.6961536499
 20
10.0
 30
9.5
  0
SEQEND
  8
0
  0
ENDBLK
  0
ENDSEC
  0
SECTION
  2
ENTITIES
  0
INSERT
  2
PART__FEATURE_CS002
  8
0
 62
0
 10
0.0
 20
0.0
 30
0.0
  0
ENDSEC
  0
EOF
