solid OpenSCAD_Model
  facet normal -1 0 0
    outer loop
      vertex 0 0 0
      vertex 0 30.5 12
      vertex 0 30.5 0
    endloop
  endfacet
  facet normal -1 -0 0
    outer loop
      vertex 0 30.5 12
      vertex 0 0 0
      vertex 0 0 12
    endloop
  endfacet
  facet normal 0 0 1
    outer loop
      vertex 30.5 30.5 12
      vertex 29.5 29.5 12
      vertex 30.5 0 12
    endloop
  endfacet
  facet normal 0 0 1
    outer loop
      vertex 30.5 30.5 12
      vertex 1 29.5 12
      vertex 29.5 29.5 12
    endloop
  endfacet
  facet normal 0 0 1
    outer loop
      vertex 1 29.5 12
      vertex 0 30.5 12
      vertex 1 1 12
    endloop
  endfacet
  facet normal -0 0 1
    outer loop
      vertex 0 30.5 12
      vertex 1 29.5 12
      vertex 30.5 30.5 12
    endloop
  endfacet
  facet normal -0 0 1
    outer loop
      vertex 29.5 1 12
      vertex 30.5 0 12
      vertex 29.5 29.5 12
    endloop
  endfacet
  facet normal -0 0 1
    outer loop
      vertex 1 1 12
      vertex 30.5 0 12
      vertex 29.5 1 12
    endloop
  endfacet
  facet normal 0 0 1
    outer loop
      vertex 1 1 12
      vertex 0 0 12
      vertex 30.5 0 12
    endloop
  endfacet
  facet normal 0 0 1
    outer loop
      vertex 0 0 12
      vertex 1 1 12
      vertex 0 30.5 12
    endloop
  endfacet
  facet normal 1 -0 0
    outer loop
      vertex 30.5 0 12
      vertex 30.5 30.5 0
      vertex 30.5 30.5 12
    endloop
  endfacet
  facet normal 1 0 0
    outer loop
      vertex 30.5 30.5 0
      vertex 30.5 0 12
      vertex 30.5 0 0
    endloop
  endfacet
  facet normal 0 0 -1
    outer loop
      vertex 0 0 0
      vertex 30.5 30.5 0
      vertex 30.5 0 0
    endloop
  endfacet
  facet normal -0 0 -1
    outer loop
      vertex 30.5 30.5 0
      vertex 0 0 0
      vertex 0 30.5 0
    endloop
  endfacet
  facet normal 0 -1 0
    outer loop
      vertex 0 0 0
      vertex 30.5 0 12
      vertex 0 0 12
    endloop
  endfacet
  facet normal 0 -1 -0
    outer loop
      vertex 30.5 0 12
      vertex 0 0 0
      vertex 30.5 0 0
    endloop
  endfacet
  facet normal 0 1 -0
    outer loop
      vertex 30.5 30.5 0
      vertex 0 30.5 12
      vertex 30.5 30.5 12
    endloop
  endfacet
  facet normal 0 1 0
    outer loop
      vertex 0 30.5 12
      vertex 30.5 30.5 0
      vertex 0 30.5 0
    endloop
  endfacet
  facet normal 1 -0 0
    outer loop
      vertex 1 1 12
      vertex 1 29.5 11.1
      vertex 1 29.5 12
    endloop
  endfacet
  facet normal 1 0 0
    outer loop
      vertex 1 29.5 11.1
      vertex 1 1 12
      vertex 1 1 11.1
    endloop
  endfacet
  facet normal -1 0 0
    outer loop
      vertex 29.5 1 11.1
      vertex 29.5 29.5 12
      vertex 29.5 29.5 11.1
    endloop
  endfacet
  facet normal -1 -0 0
    outer loop
      vertex 29.5 29.5 12
      vertex 29.5 1 11.1
      vertex 29.5 1 12
    endloop
  endfacet
  facet normal 0 -1 0
    outer loop
      vertex 1 29.5 11.1
      vertex 29.5 29.5 12
      vertex 1 29.5 12
    endloop
  endfacet
  facet normal 0 -1 -0
    outer loop
      vertex 29.5 29.5 12
      vertex 1 29.5 11.1
      vertex 29.5 29.5 11.1
    endloop
  endfacet
  facet normal 0 0 1
    outer loop
      vertex 29.5 29.5 11.1
      vertex 27.25 27.25 11.1
      vertex 29.5 1 11.1
    endloop
  endfacet
  facet normal 0 0 1
    outer loop
      vertex 29.5 29.5 11.1
      vertex 3.25 27.25 11.1
      vertex 27.25 27.25 11.1
    endloop
  endfacet
  facet normal 0 0 1
    outer loop
      vertex 3.25 27.25 11.1
      vertex 1 29.5 11.1
      vertex 3.25 3.25 11.1
    endloop
  endfacet
  facet normal -0 0 1
    outer loop
      vertex 1 29.5 11.1
      vertex 3.25 27.25 11.1
      vertex 29.5 29.5 11.1
    endloop
  endfacet
  facet normal -0 0 1
    outer loop
      vertex 27.25 3.25 11.1
      vertex 29.5 1 11.1
      vertex 27.25 27.25 11.1
    endloop
  endfacet
  facet normal -0 0 1
    outer loop
      vertex 3.25 3.25 11.1
      vertex 29.5 1 11.1
      vertex 27.25 3.25 11.1
    endloop
  endfacet
  facet normal 0 0 1
    outer loop
      vertex 3.25 3.25 11.1
      vertex 1 1 11.1
      vertex 29.5 1 11.1
    endloop
  endfacet
  facet normal 0 0 1
    outer loop
      vertex 1 1 11.1
      vertex 3.25 3.25 11.1
      vertex 1 29.5 11.1
    endloop
  endfacet
  facet normal 0 1 -0
    outer loop
      vertex 29.5 1 11.1
      vertex 1 1 12
      vertex 29.5 1 12
    endloop
  endfacet
  facet normal 0 1 0
    outer loop
      vertex 1 1 12
      vertex 29.5 1 11.1
      vertex 1 1 11.1
    endloop
  endfacet
  facet normal 1 -0 0
    outer loop
      vertex 3.25 3.25 11.1
      vertex 3.25 27.25 10
      vertex 3.25 27.25 11.1
    endloop
  endfacet
  facet normal 1 0 0
    outer loop
      vertex 3.25 27.25 10
      vertex 3.25 3.25 11.1
      vertex 3.25 3.25 10
    endloop
  endfacet
  facet normal -1 0 0
    outer loop
      vertex 27.25 3.25 10
      vertex 27.25 27.25 11.1
      vertex 27.25 27.25 10
    endloop
  endfacet
  facet normal -1 -0 0
    outer loop
      vertex 27.25 27.25 11.1
      vertex 27.25 3.25 10
      vertex 27.25 3.25 11.1
    endloop
  endfacet
  facet normal 0 -1 0
    outer loop
      vertex 3.25 27.25 10
      vertex 27.25 27.25 11.1
      vertex 3.25 27.25 11.1
    endloop
  endfacet
  facet normal 0 -1 -0
    outer loop
      vertex 27.25 27.25 11.1
      vertex 3.25 27.25 10
      vertex 27.25 27.25 10
    endloop
  endfacet
  facet normal -0 0 1
    outer loop
      vertex 3.25 27.25 10
      vertex 27.25 3.25 10
      vertex 27.25 27.25 10
    endloop
  endfacet
  facet normal 0 0 1
    outer loop
      vertex 27.25 3.25 10
      vertex 3.25 27.25 10
      vertex 3.25 3.25 10
    endloop
  endfacet
  facet normal 0 1 -0
    outer loop
      vertex 27.25 3.25 10
      vertex 3.25 3.25 11.1
      vertex 27.25 3.25 11.1
    endloop
  endfacet
  facet normal 0 1 0
    outer loop
      vertex 3.25 3.25 11.1
      vertex 27.25 3.25 10
      vertex 3.25 3.25 10
    endloop
  endfacet
endsolid OpenSCAD_Model
