  0
SECTION
  2
HEADER
  9
$ANGBASE
  50
0.0
  9
$ANGDIR
  70
  1
  9
$MEASUREMENT
  70
0
  0
ENDSEC
  0
SECTION
  2
TABLES
  0
TABLE
  2
LTYPE
  70
1
  0
LTYPE
  2
CONTINUOUS
  70
0
  3
Solid line
  72
65
  73
0
  40
0.0
  0
ENDTAB
  0
TABLE
  2
STYLE
  70
4
  0
STYLE
  2
KICAD
  70
0
  40
0
  41
1
  42
1
  50
0
  71
0
  3
isocp.shx
  0
STYLE
  2
KICADB
  70
0
  40
0
  41
1
  42
1
  50
0
  71
0
  3
isocp.shx
  0
STYLE
  2
KICADI
  70
0
  40
0
  41
1
  42
1
  50
15
  71
0
  3
isocp.shx
  0
STYLE
  2
KICADBI
  70
0
  40
0
  41
1
  42
1
  50
15
  71
0
  3
isocp.shx
  0
ENDTAB
  0
TABLE
  2
LAYER
  70
30
  0
LAYER
  2
BLACK
  70
0
  62
7
  6
CONTINUOUS
  0
LAYER
  2
GRAY1
  70
0
  62
251
  6
CONTINUOUS
  0
LAYER
  2
GRAY2
  70
0
  62
8
  6
CONTINUOUS
  0
LAYER
  2
GRAY3
  70
0
  62
9
  6
CONTINUOUS
  0
LAYER
  2
WHITE
  70
0
  62
7
  6
CONTINUOUS
  0
LAYER
  2
LYELLOW
  70
0
  62
51
  6
CONTINUOUS
  0
LAYER
  2
BLUE1
  70
0
  62
178
  6
CONTINUOUS
  0
LAYER
  2
GREEN1
  70
0
  62
98
  6
CONTINUOUS
  0
LAYER
  2
CYAN1
  70
0
  62
138
  6
CONTINUOUS
  0
LAYER
  2
RED1
  70
0
  62
18
  6
CONTINUOUS
  0
LAYER
  2
MAGENTA1
  70
0
  62
228
  6
CONTINUOUS
  0
LAYER
  2
BROWN1
  70
0
  62
58
  6
CONTINUOUS
  0
LAYER
  2
BLUE2
  70
0
  62
5
  6
CONTINUOUS
  0
LAYER
  2
GREEN2
  70
0
  62
3
  6
CONTINUOUS
  0
LAYER
  2
CYAN2
  70
0
  62
4
  6
CONTINUOUS
  0
LAYER
  2
RED2
  70
0
  62
1
  6
CONTINUOUS
  0
LAYER
  2
MAGENTA2
  70
0
  62
6
  6
CONTINUOUS
  0
LAYER
  2
BROWN2
  70
0
  62
54
  6
CONTINUOUS
  0
LAYER
  2
BLUE3
  70
0
  62
171
  6
CONTINUOUS
  0
LAYER
  2
GREEN3
  70
0
  62
91
  6
CONTINUOUS
  0
LAYER
  2
CYAN3
  70
0
  62
131
  6
CONTINUOUS
  0
LAYER
  2
RED3
  70
0
  62
11
  6
CONTINUOUS
  0
LAYER
  2
MAGENTA3
  70
0
  62
221
  6
CONTINUOUS
  0
LAYER
  2
YELLOW3
  70
0
  62
2
  6
CONTINUOUS
  0
LAYER
  2
BLUE4
  70
0
  62
5
  6
CONTINUOUS
  0
LAYER
  2
GREEN4
  70
0
  62
3
  6
CONTINUOUS
  0
LAYER
  2
CYAN4
  70
0
  62
4
  6
CONTINUOUS
  0
LAYER
  2
RED4
  70
0
  62
1
  6
CONTINUOUS
  0
LAYER
  2
MAGENTA4
  70
0
  62
6
  6
CONTINUOUS
  0
LAYER
  2
YELLOW4
  70
0
  62
2
  6
CONTINUOUS
  0
ENDTAB
  0
ENDSEC
  0
SECTION
  2
ENTITIES
0
LINE
8
Black
10
26.8839
20
26.9981
11
26.8951
21
26.9981
0
LINE
8
Black
10
26.8951
20
26.9981
11
26.9055
21
26.9943
0
LINE
8
Black
10
26.9055
20
26.9943
11
26.9164
21
26.9923
0
LINE
8
Black
10
26.9164
20
26.9923
11
26.9261
21
26.9868
0
LINE
8
Black
10
26.9261
20
26.9868
11
26.9365
21
26.983
0
LINE
8
Black
10
26.9365
20
26.983
11
26.945
21
26.9758
0
LINE
8
Black
10
26.945
20
26.9758
11
26.9546
21
26.9703
0
LINE
8
Black
10
26.9546
20
26.9703
11
26.9618
21
26.9618
0
LINE
8
Black
10
26.9618
20
26.9618
11
26.9703
21
26.9546
0
LINE
8
Black
10
26.9703
20
26.9546
11
26.9758
21
26.945
0
LINE
8
Black
10
26.9758
20
26.945
11
26.983
21
26.9365
0
LINE
8
Black
10
26.983
20
26.9365
11
26.9868
21
26.9261
0
LINE
8
Black
10
26.9868
20
26.9261
11
26.9923
21
26.9164
0
LINE
8
Black
10
26.9923
20
26.9164
11
26.9943
21
26.9055
0
LINE
8
Black
10
26.9943
20
26.9055
11
26.9981
21
26.8951
0
LINE
8
Black
10
26.9981
20
26.8951
11
26.9981
21
26.8839
0
LINE
8
Black
10
26.9981
20
26.8839
11
27
21
26.873
0
LINE
8
Black
10
27
20
26.873
11
27
21
1.127
0
LINE
8
Black
10
27
20
1.127
11
26.9981
21
1.11606
0
LINE
8
Black
10
26.9981
20
1.11606
11
26.9981
21
1.10495
0
LINE
8
Black
10
26.9981
20
1.10495
11
26.9943
21
1.09451
0
LINE
8
Black
10
26.9943
20
1.09451
11
26.9923
21
1.08356
0
LINE
8
Black
10
26.9923
20
1.08356
11
26.9868
21
1.07394
0
LINE
8
Black
10
26.9868
20
1.07394
11
26.983
21
1.0635
0
LINE
8
Black
10
26.983
20
1.0635
11
26.9758
21
1.05499
0
LINE
8
Black
10
26.9758
20
1.05499
11
26.9703
21
1.04537
0
LINE
8
Black
10
26.9703
20
1.04537
11
26.9618
21
1.03822
0
LINE
8
Black
10
26.9618
20
1.03822
11
26.9546
21
1.02971
0
LINE
8
Black
10
26.9546
20
1.02971
11
26.945
21
1.02416
0
LINE
8
Black
10
26.945
20
1.02416
11
26.9365
21
1.01702
0
LINE
8
Black
10
26.9365
20
1.01702
11
26.9261
21
1.01321
0
LINE
8
Black
10
26.9261
20
1.01321
11
26.9164
21
1.00766
0
LINE
8
Black
10
26.9164
20
1.00766
11
26.9055
21
1.00573
0
LINE
8
Black
10
26.9055
20
1.00573
11
26.8951
21
1.00193
0
LINE
8
Black
10
26.8951
20
1.00193
11
26.8839
21
1.00193
0
LINE
8
Black
10
26.8839
20
1.00193
11
26.873
21
1
0
LINE
8
Black
10
26.873
20
1
11
1.127
21
1
0
LINE
8
Black
10
1.127
20
1
11
1.11606
21
1.00193
0
LINE
8
Black
10
1.11606
20
1.00193
11
1.10495
21
1.00193
0
LINE
8
Black
10
1.10495
20
1.00193
11
1.09451
21
1.00573
0
LINE
8
Black
10
1.09451
20
1.00573
11
1.08356
21
1.00766
0
LINE
8
Black
10
1.08356
20
1.00766
11
1.07394
21
1.01321
0
LINE
8
Black
10
1.07394
20
1.01321
11
1.0635
21
1.01702
0
LINE
8
Black
10
1.0635
20
1.01702
11
1.05499
21
1.02416
0
LINE
8
Black
10
1.05499
20
1.02416
11
1.04537
21
1.02971
0
LINE
8
Black
10
1.04537
20
1.02971
11
1.03822
21
1.03822
0
LINE
8
Black
10
1.03822
20
1.03822
11
1.02971
21
1.04537
0
LINE
8
Black
10
1.02971
20
1.04537
11
1.02416
21
1.05499
0
LINE
8
Black
10
1.02416
20
1.05499
11
1.01702
21
1.0635
0
LINE
8
Black
10
1.01702
20
1.0635
11
1.01321
21
1.07394
0
LINE
8
Black
10
1.01321
20
1.07394
11
1.00766
21
1.08356
0
LINE
8
Black
10
1.00766
20
1.08356
11
1.00573
21
1.09451
0
LINE
8
Black
10
1.00573
20
1.09451
11
1.00193
21
1.10495
0
LINE
8
Black
10
1.00193
20
1.10495
11
1.00193
21
1.11606
0
LINE
8
Black
10
1.00193
20
1.11606
11
1
21
1.127
0
LINE
8
Black
10
1
20
1.127
11
1
21
4.68103
0
LINE
8
Black
10
1
20
4.68103
11
1
21
9.19725
0
LINE
8
Black
10
1
20
9.19725
11
1
21
10.8553
0
LINE
8
Black
10
1
20
10.8553
11
1
21
12.4323
0
LINE
8
Black
10
1
20
12.4323
11
1
21
16.1743
0
LINE
8
Black
10
1
20
16.1743
11
1
21
17.8323
0
LINE
8
Black
10
1
20
17.8323
11
1
21
19.3833
0
LINE
8
Black
10
1
20
19.3833
11
1
21
21.818
0
LINE
8
Black
10
1
20
21.818
11
1
21
26.873
0
LINE
8
Black
10
1
20
26.873
11
1.00193
21
26.8839
0
LINE
8
Black
10
1.00193
20
26.8839
11
1.00193
21
26.8951
0
LINE
8
Black
10
1.00193
20
26.8951
11
1.00573
21
26.9055
0
LINE
8
Black
10
1.00573
20
26.9055
11
1.00766
21
26.9164
0
LINE
8
Black
10
1.00766
20
26.9164
11
1.01321
21
26.9261
0
LINE
8
Black
10
1.01321
20
26.9261
11
1.01702
21
26.9365
0
LINE
8
Black
10
1.01702
20
26.9365
11
1.02416
21
26.945
0
LINE
8
Black
10
1.02416
20
26.945
11
1.02971
21
26.9546
0
LINE
8
Black
10
1.02971
20
26.9546
11
1.03822
21
26.9618
0
LINE
8
Black
10
1.03822
20
26.9618
11
1.04537
21
26.9703
0
LINE
8
Black
10
1.04537
20
26.9703
11
1.05499
21
26.9758
0
LINE
8
Black
10
1.05499
20
26.9758
11
1.0635
21
26.983
0
LINE
8
Black
10
1.0635
20
26.983
11
1.07394
21
26.9868
0
LINE
8
Black
10
1.07394
20
26.9868
11
1.08356
21
26.9923
0
LINE
8
Black
10
1.08356
20
26.9923
11
1.09451
21
26.9943
0
LINE
8
Black
10
1.09451
20
26.9943
11
1.10495
21
26.9981
0
LINE
8
Black
10
1.10495
20
26.9981
11
1.11606
21
26.9981
0
LINE
8
Black
10
1.11606
20
26.9981
11
1.127
21
27
0
LINE
8
Black
10
1.127
20
27
11
26.873
21
27
0
LINE
8
Black
10
26.873
20
27
11
26.8839
21
26.9981
0
LINE
8
Black
10
6.40187
20
6.07194
11
5.91344
21
5.74559
0
LINE
8
Black
10
5.91344
20
5.74559
11
5.58709
21
5.25717
0
LINE
8
Black
10
5.58709
20
5.25717
11
5.47
21
4.66852
0
LINE
8
Black
10
5.47
20
4.66852
11
5.47
21
4.62948
0
LINE
8
Black
10
5.47
20
4.62948
11
5.58709
21
4.04083
0
LINE
8
Black
10
5.58709
20
4.04083
11
5.91344
21
3.55241
0
LINE
8
Black
10
5.91344
20
3.55241
11
6.40187
21
3.22606
0
LINE
8
Black
10
6.40187
20
3.22606
11
6.978
21
3.11146
0
LINE
8
Black
10
6.978
20
3.11146
11
7.55413
21
3.22606
0
LINE
8
Black
10
7.55413
20
3.22606
11
8.04256
21
3.55241
0
LINE
8
Black
10
8.04256
20
3.55241
11
8.36891
21
4.04083
0
LINE
8
Black
10
8.36891
20
4.04083
11
8.486
21
4.62948
0
LINE
8
Black
10
8.486
20
4.62948
11
8.486
21
4.66852
0
LINE
8
Black
10
8.486
20
4.66852
11
8.36891
21
5.25717
0
LINE
8
Black
10
8.36891
20
5.25717
11
8.04256
21
5.74559
0
LINE
8
Black
10
8.04256
20
5.74559
11
7.55413
21
6.07194
0
LINE
8
Black
10
7.55413
20
6.07194
11
7.24481
21
6.13347
0
LINE
8
Black
10
7.24481
20
6.13347
11
6.978
21
6.18654
0
LINE
8
Black
10
6.978
20
6.18654
11
6.40187
21
6.07194
0
LINE
8
Black
10
15.7729
20
6.08594
11
15.2844
21
5.75959
0
LINE
8
Black
10
15.2844
20
5.75959
11
14.9581
21
5.27117
0
LINE
8
Black
10
14.9581
20
5.27117
11
14.841
21
4.68252
0
LINE
8
Black
10
14.841
20
4.68252
11
14.841
21
4.64348
0
LINE
8
Black
10
14.841
20
4.64348
11
14.9581
21
4.05483
0
LINE
8
Black
10
14.9581
20
4.05483
11
15.2844
21
3.56641
0
LINE
8
Black
10
15.2844
20
3.56641
11
15.7729
21
3.24006
0
LINE
8
Black
10
15.7729
20
3.24006
11
16.349
21
3.12546
0
LINE
8
Black
10
16.349
20
3.12546
11
16.9251
21
3.24006
0
LINE
8
Black
10
16.9251
20
3.24006
11
17.4136
21
3.56641
0
LINE
8
Black
10
17.4136
20
3.56641
11
17.7399
21
4.05483
0
LINE
8
Black
10
17.7399
20
4.05483
11
17.857
21
4.64348
0
LINE
8
Black
10
17.857
20
4.64348
11
17.857
21
4.68252
0
LINE
8
Black
10
17.857
20
4.68252
11
17.7399
21
5.27117
0
LINE
8
Black
10
17.7399
20
5.27117
11
17.4136
21
5.75959
0
LINE
8
Black
10
17.4136
20
5.75959
11
16.9251
21
6.08594
0
LINE
8
Black
10
16.9251
20
6.08594
11
16.7465
21
6.12147
0
LINE
8
Black
10
16.7465
20
6.12147
11
16.349
21
6.20054
0
LINE
8
Black
10
16.349
20
6.20054
11
15.7729
21
6.08594
0
LINE
8
Black
10
20.4509
20
7.63694
11
19.9624
21
7.31059
0
LINE
8
Black
10
19.9624
20
7.31059
11
19.6361
21
6.82217
0
LINE
8
Black
10
19.6361
20
6.82217
11
19.519
21
6.23352
0
LINE
8
Black
10
19.519
20
6.23352
11
19.519
21
6.19448
0
LINE
8
Black
10
19.519
20
6.19448
11
19.6361
21
5.60583
0
LINE
8
Black
10
19.6361
20
5.60583
11
19.9624
21
5.11741
0
LINE
8
Black
10
19.9624
20
5.11741
11
20.4509
21
4.79106
0
LINE
8
Black
10
20.4509
20
4.79106
11
21.027
21
4.67646
0
LINE
8
Black
10
21.027
20
4.67646
11
21.6031
21
4.79106
0
LINE
8
Black
10
21.6031
20
4.79106
11
22.0916
21
5.11741
0
LINE
8
Black
10
22.0916
20
5.11741
11
22.4179
21
5.60583
0
LINE
8
Black
10
22.4179
20
5.60583
11
22.535
21
6.19448
0
LINE
8
Black
10
22.535
20
6.19448
11
22.535
21
6.23352
0
LINE
8
Black
10
22.535
20
6.23352
11
22.4179
21
6.82217
0
LINE
8
Black
10
22.4179
20
6.82217
11
22.0916
21
7.31059
0
LINE
8
Black
10
22.0916
20
7.31059
11
21.6031
21
7.63694
0
LINE
8
Black
10
21.6031
20
7.63694
11
21.027
21
7.75154
0
LINE
8
Black
10
21.027
20
7.75154
11
20.4509
21
7.63694
0
LINE
8
Black
10
11.0769
20
7.64894
11
10.5884
21
7.32259
0
LINE
8
Black
10
10.5884
20
7.32259
11
10.2621
21
6.83417
0
LINE
8
Black
10
10.2621
20
6.83417
11
10.145
21
6.24552
0
LINE
8
Black
10
10.145
20
6.24552
11
10.145
21
6.20648
0
LINE
8
Black
10
10.145
20
6.20648
11
10.2621
21
5.61783
0
LINE
8
Black
10
10.2621
20
5.61783
11
10.5884
21
5.12941
0
LINE
8
Black
10
10.5884
20
5.12941
11
11.0769
21
4.80306
0
LINE
8
Black
10
11.0769
20
4.80306
11
11.653
21
4.68846
0
LINE
8
Black
10
11.653
20
4.68846
11
12.2291
21
4.80306
0
LINE
8
Black
10
12.2291
20
4.80306
11
12.7176
21
5.12941
0
LINE
8
Black
10
12.7176
20
5.12941
11
13.0439
21
5.61783
0
LINE
8
Black
10
13.0439
20
5.61783
11
13.161
21
6.20648
0
LINE
8
Black
10
13.161
20
6.20648
11
13.161
21
6.24552
0
LINE
8
Black
10
13.161
20
6.24552
11
13.0439
21
6.83417
0
LINE
8
Black
10
13.0439
20
6.83417
11
12.7176
21
7.32259
0
LINE
8
Black
10
12.7176
20
7.32259
11
12.2291
21
7.64894
0
LINE
8
Black
10
12.2291
20
7.64894
11
11.653
21
7.76354
0
LINE
8
Black
10
11.653
20
7.76354
11
11.0769
21
7.64894
0
LINE
8
Black
10
7.978
20
9.229
11
7.978
21
8.729
0
LINE
8
Black
10
7.978
20
8.729
11
7.478
21
8.729
0
LINE
8
Black
10
7.478
20
8.729
11
7.478
21
8.30536
0
LINE
8
Black
10
7.478
20
8.30536
11
7.56235
21
8.221
0
LINE
8
Black
10
7.56235
20
8.221
11
8.07905
21
8.221
0
LINE
8
Black
10
8.07905
20
8.221
11
8.26576
21
8.29834
0
LINE
8
Black
10
8.26576
20
8.29834
11
8.40866
21
8.44124
0
LINE
8
Black
10
8.40866
20
8.44124
11
8.486
21
8.62795
0
LINE
8
Black
10
8.486
20
8.62795
11
8.486
21
9.14464
0
LINE
8
Black
10
8.486
20
9.14464
11
8.40164
21
9.229
0
LINE
8
Black
10
8.40164
20
9.229
11
7.978
21
9.229
0
LINE
8
Black
10
5.55436
20
9.229
11
5.47
21
9.14464
0
LINE
8
Black
10
5.47
20
9.14464
11
5.47
21
8.62795
0
LINE
8
Black
10
5.47
20
8.62795
11
5.54734
21
8.44124
0
LINE
8
Black
10
5.54734
20
8.44124
11
5.69024
21
8.29834
0
LINE
8
Black
10
5.69024
20
8.29834
11
5.87695
21
8.221
0
LINE
8
Black
10
5.87695
20
8.221
11
6.39364
21
8.221
0
LINE
8
Black
10
6.39364
20
8.221
11
6.478
21
8.30536
0
LINE
8
Black
10
6.478
20
8.30536
11
6.478
21
8.729
0
LINE
8
Black
10
6.478
20
8.729
11
5.978
21
8.729
0
LINE
8
Black
10
5.978
20
8.729
11
5.978
21
9.229
0
LINE
8
Black
10
5.978
20
9.229
11
5.55436
21
9.229
0
LINE
8
Black
10
17.349
20
9.243
11
17.349
21
8.743
0
LINE
8
Black
10
17.349
20
8.743
11
16.849
21
8.743
0
LINE
8
Black
10
16.849
20
8.743
11
16.849
21
8.31936
0
LINE
8
Black
10
16.849
20
8.31936
11
16.9334
21
8.235
0
LINE
8
Black
10
16.9334
20
8.235
11
17.45
21
8.235
0
LINE
8
Black
10
17.45
20
8.235
11
17.6368
21
8.31234
0
LINE
8
Black
10
17.6368
20
8.31234
11
17.7797
21
8.45524
0
LINE
8
Black
10
17.7797
20
8.45524
11
17.857
21
8.64195
0
LINE
8
Black
10
17.857
20
8.64195
11
17.857
21
9.15864
0
LINE
8
Black
10
17.857
20
9.15864
11
17.7726
21
9.243
0
LINE
8
Black
10
17.7726
20
9.243
11
17.349
21
9.243
0
LINE
8
Black
10
14.9254
20
9.243
11
14.841
21
9.15864
0
LINE
8
Black
10
14.841
20
9.15864
11
14.841
21
8.64195
0
LINE
8
Black
10
14.841
20
8.64195
11
14.9183
21
8.45524
0
LINE
8
Black
10
14.9183
20
8.45524
11
15.0612
21
8.31234
0
LINE
8
Black
10
15.0612
20
8.31234
11
15.248
21
8.235
0
LINE
8
Black
10
15.248
20
8.235
11
15.7646
21
8.235
0
LINE
8
Black
10
15.7646
20
8.235
11
15.849
21
8.31935
0
LINE
8
Black
10
15.849
20
8.31935
11
15.849
21
8.743
0
LINE
8
Black
10
15.849
20
8.743
11
15.349
21
8.743
0
LINE
8
Black
10
15.349
20
8.743
11
15.349
21
9.243
0
LINE
8
Black
10
15.349
20
9.243
11
14.9254
21
9.243
0
LINE
8
Black
10
22.027
20
10.794
11
22.027
21
10.294
0
LINE
8
Black
10
22.027
20
10.294
11
21.527
21
10.294
0
LINE
8
Black
10
21.527
20
10.294
11
21.527
21
9.87036
0
LINE
8
Black
10
21.527
20
9.87036
11
21.6114
21
9.786
0
LINE
8
Black
10
21.6114
20
9.786
11
22.128
21
9.786
0
LINE
8
Black
10
22.128
20
9.786
11
22.3148
21
9.86334
0
LINE
8
Black
10
22.3148
20
9.86334
11
22.4577
21
10.0062
0
LINE
8
Black
10
22.4577
20
10.0062
11
22.535
21
10.193
0
LINE
8
Black
10
22.535
20
10.193
11
22.535
21
10.7096
0
LINE
8
Black
10
22.535
20
10.7096
11
22.4506
21
10.794
0
LINE
8
Black
10
22.4506
20
10.794
11
22.027
21
10.794
0
LINE
8
Black
10
19.6034
20
10.794
11
19.519
21
10.7096
0
LINE
8
Black
10
19.519
20
10.7096
11
19.519
21
10.193
0
LINE
8
Black
10
19.519
20
10.193
11
19.5963
21
10.0062
0
LINE
8
Black
10
19.5963
20
10.0062
11
19.7392
21
9.86334
0
LINE
8
Black
10
19.7392
20
9.86334
11
19.926
21
9.786
0
LINE
8
Black
10
19.926
20
9.786
11
20.4426
21
9.786
0
LINE
8
Black
10
20.4426
20
9.786
11
20.527
21
9.87035
0
LINE
8
Black
10
20.527
20
9.87035
11
20.527
21
10.294
0
LINE
8
Black
10
20.527
20
10.294
11
20.027
21
10.294
0
LINE
8
Black
10
20.027
20
10.294
11
20.027
21
10.794
0
LINE
8
Black
10
20.027
20
10.794
11
19.6034
21
10.794
0
LINE
8
Black
10
12.653
20
10.806
11
12.653
21
10.306
0
LINE
8
Black
10
12.653
20
10.306
11
12.153
21
10.306
0
LINE
8
Black
10
12.153
20
10.306
11
12.153
21
9.88236
0
LINE
8
Black
10
12.153
20
9.88236
11
12.2374
21
9.798
0
LINE
8
Black
10
12.2374
20
9.798
11
12.754
21
9.798
0
LINE
8
Black
10
12.754
20
9.798
11
12.9408
21
9.87534
0
LINE
8
Black
10
12.9408
20
9.87534
11
13.0837
21
10.0182
0
LINE
8
Black
10
13.0837
20
10.0182
11
13.161
21
10.205
0
LINE
8
Black
10
13.161
20
10.205
11
13.161
21
10.7216
0
LINE
8
Black
10
13.161
20
10.7216
11
13.1031
21
10.7795
0
LINE
8
Black
10
13.1031
20
10.7795
11
13.1031
21
10.7795
0
LINE
8
Black
10
13.1031
20
10.7795
11
13.0766
21
10.806
0
LINE
8
Black
10
13.0766
20
10.806
11
12.653
21
10.806
0
LINE
8
Black
10
10.2294
20
10.806
11
10.145
21
10.7216
0
LINE
8
Black
10
10.145
20
10.7216
11
10.145
21
10.205
0
LINE
8
Black
10
10.145
20
10.205
11
10.2223
21
10.0182
0
LINE
8
Black
10
10.2223
20
10.0182
11
10.3652
21
9.87534
0
LINE
8
Black
10
10.3652
20
9.87534
11
10.552
21
9.798
0
LINE
8
Black
10
10.552
20
9.798
11
11.0686
21
9.798
0
LINE
8
Black
10
11.0686
20
9.798
11
11.153
21
9.88235
0
LINE
8
Black
10
11.153
20
9.88235
11
11.153
21
10.306
0
LINE
8
Black
10
11.153
20
10.306
11
10.653
21
10.306
0
LINE
8
Black
10
10.653
20
10.306
11
10.653
21
10.806
0
LINE
8
Black
10
10.653
20
10.806
11
10.2294
21
10.806
0
LINE
8
Black
10
7.56235
20
11.237
11
7.478
21
11.1526
0
LINE
8
Black
10
7.478
20
11.1526
11
7.478
21
10.729
0
LINE
8
Black
10
7.478
20
10.729
11
7.978
21
10.729
0
LINE
8
Black
10
7.978
20
10.729
11
7.978
21
10.229
0
LINE
8
Black
10
7.978
20
10.229
11
8.40164
21
10.229
0
LINE
8
Black
10
8.40164
20
10.229
11
8.486
21
10.3134
0
LINE
8
Black
10
8.486
20
10.3134
11
8.486
21
10.7743
0
LINE
8
Black
10
8.486
20
10.7743
11
8.486
21
10.83
0
LINE
8
Black
10
8.486
20
10.83
11
8.40866
21
11.0168
0
LINE
8
Black
10
8.40866
20
11.0168
11
8.26576
21
11.1597
0
LINE
8
Black
10
8.26576
20
11.1597
11
8.07905
21
11.237
0
LINE
8
Black
10
8.07905
20
11.237
11
7.56235
21
11.237
0
LINE
8
Black
10
5.87695
20
11.237
11
5.69024
21
11.1597
0
LINE
8
Black
10
5.69024
20
11.1597
11
5.54734
21
11.0168
0
LINE
8
Black
10
5.54734
20
11.0168
11
5.47
21
10.83
0
LINE
8
Black
10
5.47
20
10.83
11
5.47
21
10.3134
0
LINE
8
Black
10
5.47
20
10.3134
11
5.55436
21
10.229
0
LINE
8
Black
10
5.55436
20
10.229
11
5.978
21
10.229
0
LINE
8
Black
10
5.978
20
10.229
11
5.978
21
10.729
0
LINE
8
Black
10
5.978
20
10.729
11
6.478
21
10.729
0
LINE
8
Black
10
6.478
20
10.729
11
6.478
21
11.1526
0
LINE
8
Black
10
6.478
20
11.1526
11
6.39364
21
11.237
0
LINE
8
Black
10
6.39364
20
11.237
11
5.87695
21
11.237
0
LINE
8
Black
10
16.9334
20
11.251
11
16.849
21
11.1666
0
LINE
8
Black
10
16.849
20
11.1666
11
16.849
21
10.743
0
LINE
8
Black
10
16.849
20
10.743
11
17.349
21
10.743
0
LINE
8
Black
10
17.349
20
10.743
11
17.349
21
10.243
0
LINE
8
Black
10
17.349
20
10.243
11
17.7726
21
10.243
0
LINE
8
Black
10
17.7726
20
10.243
11
17.857
21
10.3274
0
LINE
8
Black
10
17.857
20
10.3274
11
17.857
21
10.7622
0
LINE
8
Black
10
17.857
20
10.7622
11
17.857
21
10.844
0
LINE
8
Black
10
17.857
20
10.844
11
17.7797
21
11.0308
0
LINE
8
Black
10
17.7797
20
11.0308
11
17.6368
21
11.1737
0
LINE
8
Black
10
17.6368
20
11.1737
11
17.45
21
11.251
0
LINE
8
Black
10
17.45
20
11.251
11
16.9334
21
11.251
0
LINE
8
Black
10
15.248
20
11.251
11
15.0612
21
11.1737
0
LINE
8
Black
10
15.0612
20
11.1737
11
14.9183
21
11.0308
0
LINE
8
Black
10
14.9183
20
11.0308
11
14.841
21
10.844
0
LINE
8
Black
10
14.841
20
10.844
11
14.841
21
10.3274
0
LINE
8
Black
10
14.841
20
10.3274
11
14.9254
21
10.243
0
LINE
8
Black
10
14.9254
20
10.243
11
15.349
21
10.243
0
LINE
8
Black
10
15.349
20
10.243
11
15.349
21
10.743
0
LINE
8
Black
10
15.349
20
10.743
11
15.849
21
10.743
0
LINE
8
Black
10
15.849
20
10.743
11
15.849
21
11.1666
0
LINE
8
Black
10
15.849
20
11.1666
11
15.7646
21
11.251
0
LINE
8
Black
10
15.7646
20
11.251
11
15.248
21
11.251
0
LINE
8
Black
10
21.6114
20
12.802
11
21.527
21
12.7176
0
LINE
8
Black
10
21.527
20
12.7176
11
21.527
21
12.294
0
LINE
8
Black
10
21.527
20
12.294
11
22.027
21
12.294
0
LINE
8
Black
10
22.027
20
12.294
11
22.027
21
11.794
0
LINE
8
Black
10
22.027
20
11.794
11
22.4506
21
11.794
0
LINE
8
Black
10
22.4506
20
11.794
11
22.535
21
11.8784
0
LINE
8
Black
10
22.535
20
11.8784
11
22.535
21
12.395
0
LINE
8
Black
10
22.535
20
12.395
11
22.4577
21
12.5818
0
LINE
8
Black
10
22.4577
20
12.5818
11
22.3148
21
12.7247
0
LINE
8
Black
10
22.3148
20
12.7247
11
22.128
21
12.802
0
LINE
8
Black
10
22.128
20
12.802
11
21.6114
21
12.802
0
LINE
8
Black
10
19.926
20
12.802
11
19.7392
21
12.7247
0
LINE
8
Black
10
19.7392
20
12.7247
11
19.5963
21
12.5818
0
LINE
8
Black
10
19.5963
20
12.5818
11
19.519
21
12.395
0
LINE
8
Black
10
19.519
20
12.395
11
19.519
21
11.8784
0
LINE
8
Black
10
19.519
20
11.8784
11
19.6034
21
11.794
0
LINE
8
Black
10
19.6034
20
11.794
11
20.027
21
11.794
0
LINE
8
Black
10
20.027
20
11.794
11
20.027
21
12.294
0
LINE
8
Black
10
20.027
20
12.294
11
20.527
21
12.294
0
LINE
8
Black
10
20.527
20
12.294
11
20.527
21
12.7176
0
LINE
8
Black
10
20.527
20
12.7176
11
20.4426
21
12.802
0
LINE
8
Black
10
20.4426
20
12.802
11
19.926
21
12.802
0
LINE
8
Black
10
12.2374
20
12.814
11
12.153
21
12.7296
0
LINE
8
Black
10
12.153
20
12.7296
11
12.153
21
12.306
0
LINE
8
Black
10
12.153
20
12.306
11
12.653
21
12.306
0
LINE
8
Black
10
12.653
20
12.306
11
12.653
21
11.806
0
LINE
8
Black
10
12.653
20
11.806
11
13.0766
21
11.806
0
LINE
8
Black
10
13.0766
20
11.806
11
13.161
21
11.8904
0
LINE
8
Black
10
13.161
20
11.8904
11
13.161
21
12.407
0
LINE
8
Black
10
13.161
20
12.407
11
13.0837
21
12.5938
0
LINE
8
Black
10
13.0837
20
12.5938
11
12.9408
21
12.7367
0
LINE
8
Black
10
12.9408
20
12.7367
11
12.754
21
12.814
0
LINE
8
Black
10
12.754
20
12.814
11
12.2374
21
12.814
0
LINE
8
Black
10
10.552
20
12.814
11
10.3652
21
12.7367
0
LINE
8
Black
10
10.3652
20
12.7367
11
10.2223
21
12.5938
0
LINE
8
Black
10
10.2223
20
12.5938
11
10.145
21
12.407
0
LINE
8
Black
10
10.145
20
12.407
11
10.145
21
11.8904
0
LINE
8
Black
10
10.145
20
11.8904
11
10.2294
21
11.806
0
LINE
8
Black
10
10.2294
20
11.806
11
10.653
21
11.806
0
LINE
8
Black
10
10.653
20
11.806
11
10.653
21
12.306
0
LINE
8
Black
10
10.653
20
12.306
11
11.153
21
12.306
0
LINE
8
Black
10
11.153
20
12.306
11
11.153
21
12.7296
0
LINE
8
Black
10
11.153
20
12.7296
11
11.0686
21
12.814
0
LINE
8
Black
10
11.0686
20
12.814
11
10.552
21
12.814
0
LINE
8
Black
10
17.347
20
16.194
11
17.347
21
15.694
0
LINE
8
Black
10
17.347
20
15.694
11
16.847
21
15.694
0
LINE
8
Black
10
16.847
20
15.694
11
16.847
21
15.2704
0
LINE
8
Black
10
16.847
20
15.2704
11
16.9314
21
15.186
0
LINE
8
Black
10
16.9314
20
15.186
11
17.448
21
15.186
0
LINE
8
Black
10
17.448
20
15.186
11
17.6348
21
15.2633
0
LINE
8
Black
10
17.6348
20
15.2633
11
17.7777
21
15.4062
0
LINE
8
Black
10
17.7777
20
15.4062
11
17.855
21
15.593
0
LINE
8
Black
10
17.855
20
15.593
11
17.855
21
16.1096
0
LINE
8
Black
10
17.855
20
16.1096
11
17.7706
21
16.194
0
LINE
8
Black
10
17.7706
20
16.194
11
17.347
21
16.194
0
LINE
8
Black
10
14.9234
20
16.194
11
14.839
21
16.1096
0
LINE
8
Black
10
14.839
20
16.1096
11
14.839
21
15.593
0
LINE
8
Black
10
14.839
20
15.593
11
14.9163
21
15.4062
0
LINE
8
Black
10
14.9163
20
15.4062
11
15.0592
21
15.2633
0
LINE
8
Black
10
15.0592
20
15.2633
11
15.246
21
15.186
0
LINE
8
Black
10
15.246
20
15.186
11
15.7626
21
15.186
0
LINE
8
Black
10
15.7626
20
15.186
11
15.847
21
15.2704
0
LINE
8
Black
10
15.847
20
15.2704
11
15.847
21
15.694
0
LINE
8
Black
10
15.847
20
15.694
11
15.347
21
15.694
0
LINE
8
Black
10
15.347
20
15.694
11
15.347
21
16.194
0
LINE
8
Black
10
15.347
20
16.194
11
14.9234
21
16.194
0
LINE
8
Black
10
7.973
20
16.206
11
7.973
21
15.706
0
LINE
8
Black
10
7.973
20
15.706
11
7.473
21
15.706
0
LINE
8
Black
10
7.473
20
15.706
11
7.473
21
15.2824
0
LINE
8
Black
10
7.473
20
15.2824
11
7.55735
21
15.198
0
LINE
8
Black
10
7.55735
20
15.198
11
8.07405
21
15.198
0
LINE
8
Black
10
8.07405
20
15.198
11
8.26076
21
15.2753
0
LINE
8
Black
10
8.26076
20
15.2753
11
8.40366
21
15.4182
0
LINE
8
Black
10
8.40366
20
15.4182
11
8.481
21
15.605
0
LINE
8
Black
10
8.481
20
15.605
11
8.481
21
16.1216
0
LINE
8
Black
10
8.481
20
16.1216
11
8.39664
21
16.206
0
LINE
8
Black
10
8.39664
20
16.206
11
7.973
21
16.206
0
LINE
8
Black
10
5.54935
20
16.206
11
5.465
21
16.1216
0
LINE
8
Black
10
5.465
20
16.1216
11
5.465
21
15.605
0
LINE
8
Black
10
5.465
20
15.605
11
5.54234
21
15.4182
0
LINE
8
Black
10
5.54234
20
15.4182
11
5.68524
21
15.2753
0
LINE
8
Black
10
5.68524
20
15.2753
11
5.87195
21
15.198
0
LINE
8
Black
10
5.87195
20
15.198
11
6.38864
21
15.198
0
LINE
8
Black
10
6.38864
20
15.198
11
6.473
21
15.2824
0
LINE
8
Black
10
6.473
20
15.2824
11
6.473
21
15.706
0
LINE
8
Black
10
6.473
20
15.706
11
5.973
21
15.706
0
LINE
8
Black
10
5.973
20
15.706
11
5.973
21
16.206
0
LINE
8
Black
10
5.973
20
16.206
11
5.54935
21
16.206
0
LINE
8
Black
10
12.651
20
17.757
11
12.651
21
17.257
0
LINE
8
Black
10
12.651
20
17.257
11
12.151
21
17.257
0
LINE
8
Black
10
12.151
20
17.257
11
12.151
21
16.8334
0
LINE
8
Black
10
12.151
20
16.8334
11
12.2354
21
16.749
0
LINE
8
Black
10
12.2354
20
16.749
11
12.752
21
16.749
0
LINE
8
Black
10
12.752
20
16.749
11
12.9388
21
16.8263
0
LINE
8
Black
10
12.9388
20
16.8263
11
13.0817
21
16.9692
0
LINE
8
Black
10
13.0817
20
16.9692
11
13.159
21
17.156
0
LINE
8
Black
10
13.159
20
17.156
11
13.159
21
17.6726
0
LINE
8
Black
10
13.159
20
17.6726
11
13.1011
21
17.7305
0
LINE
8
Black
10
13.1011
20
17.7305
11
13.1011
21
17.7305
0
LINE
8
Black
10
13.1011
20
17.7305
11
13.0746
21
17.757
0
LINE
8
Black
10
13.0746
20
17.757
11
12.651
21
17.757
0
LINE
8
Black
10
10.2274
20
17.757
11
10.143
21
17.6726
0
LINE
8
Black
10
10.143
20
17.6726
11
10.143
21
17.156
0
LINE
8
Black
10
10.143
20
17.156
11
10.2203
21
16.9692
0
LINE
8
Black
10
10.2203
20
16.9692
11
10.3632
21
16.8263
0
LINE
8
Black
10
10.3632
20
16.8263
11
10.55
21
16.749
0
LINE
8
Black
10
10.55
20
16.749
11
11.0666
21
16.749
0
LINE
8
Black
10
11.0666
20
16.749
11
11.151
21
16.8334
0
LINE
8
Black
10
11.151
20
16.8334
11
11.151
21
17.257
0
LINE
8
Black
10
11.151
20
17.257
11
10.651
21
17.257
0
LINE
8
Black
10
10.651
20
17.257
11
10.651
21
17.757
0
LINE
8
Black
10
10.651
20
17.757
11
10.2274
21
17.757
0
LINE
8
Black
10
22.022
20
17.771
11
22.022
21
17.271
0
LINE
8
Black
10
22.022
20
17.271
11
21.522
21
17.271
0
LINE
8
Black
10
21.522
20
17.271
11
21.522
21
16.8474
0
LINE
8
Black
10
21.522
20
16.8474
11
21.6064
21
16.763
0
LINE
8
Black
10
21.6064
20
16.763
11
22.123
21
16.763
0
LINE
8
Black
10
22.123
20
16.763
11
22.3098
21
16.8403
0
LINE
8
Black
10
22.3098
20
16.8403
11
22.4527
21
16.9832
0
LINE
8
Black
10
22.4527
20
16.9832
11
22.53
21
17.17
0
LINE
8
Black
10
22.53
20
17.17
11
22.53
21
17.6866
0
LINE
8
Black
10
22.53
20
17.6866
11
22.4456
21
17.771
0
LINE
8
Black
10
22.4456
20
17.771
11
22.022
21
17.771
0
LINE
8
Black
10
19.5984
20
17.771
11
19.514
21
17.6866
0
LINE
8
Black
10
19.514
20
17.6866
11
19.514
21
17.17
0
LINE
8
Black
10
19.514
20
17.17
11
19.5913
21
16.9832
0
LINE
8
Black
10
19.5913
20
16.9832
11
19.7342
21
16.8403
0
LINE
8
Black
10
19.7342
20
16.8403
11
19.921
21
16.763
0
LINE
8
Black
10
19.921
20
16.763
11
20.4376
21
16.763
0
LINE
8
Black
10
20.4376
20
16.763
11
20.522
21
16.8474
0
LINE
8
Black
10
20.522
20
16.8474
11
20.522
21
17.271
0
LINE
8
Black
10
20.522
20
17.271
11
20.022
21
17.271
0
LINE
8
Black
10
20.022
20
17.271
11
20.022
21
17.771
0
LINE
8
Black
10
20.022
20
17.771
11
19.5984
21
17.771
0
LINE
8
Black
10
16.9314
20
18.202
11
16.847
21
18.1176
0
LINE
8
Black
10
16.847
20
18.1176
11
16.847
21
17.694
0
LINE
8
Black
10
16.847
20
17.694
11
17.347
21
17.694
0
LINE
8
Black
10
17.347
20
17.694
11
17.347
21
17.194
0
LINE
8
Black
10
17.347
20
17.194
11
17.7706
21
17.194
0
LINE
8
Black
10
17.7706
20
17.194
11
17.855
21
17.2784
0
LINE
8
Black
10
17.855
20
17.2784
11
17.855
21
17.7392
0
LINE
8
Black
10
17.855
20
17.7392
11
17.855
21
17.795
0
LINE
8
Black
10
17.855
20
17.795
11
17.7777
21
17.9818
0
LINE
8
Black
10
17.7777
20
17.9818
11
17.6348
21
18.1247
0
LINE
8
Black
10
17.6348
20
18.1247
11
17.448
21
18.202
0
LINE
8
Black
10
17.448
20
18.202
11
16.9314
21
18.202
0
LINE
8
Black
10
15.246
20
18.202
11
15.0592
21
18.1247
0
LINE
8
Black
10
15.0592
20
18.1247
11
14.9163
21
17.9818
0
LINE
8
Black
10
14.9163
20
17.9818
11
14.839
21
17.795
0
LINE
8
Black
10
14.839
20
17.795
11
14.839
21
17.2784
0
LINE
8
Black
10
14.839
20
17.2784
11
14.9234
21
17.194
0
LINE
8
Black
10
14.9234
20
17.194
11
15.347
21
17.194
0
LINE
8
Black
10
15.347
20
17.194
11
15.347
21
17.694
0
LINE
8
Black
10
15.347
20
17.694
11
15.847
21
17.694
0
LINE
8
Black
10
15.847
20
17.694
11
15.847
21
18.1176
0
LINE
8
Black
10
15.847
20
18.1176
11
15.7626
21
18.202
0
LINE
8
Black
10
15.7626
20
18.202
11
15.246
21
18.202
0
LINE
8
Black
10
7.55735
20
18.214
11
7.473
21
18.1296
0
LINE
8
Black
10
7.473
20
18.1296
11
7.473
21
17.706
0
LINE
8
Black
10
7.473
20
17.706
11
7.973
21
17.706
0
LINE
8
Black
10
7.973
20
17.706
11
7.973
21
17.206
0
LINE
8
Black
10
7.973
20
17.206
11
8.39664
21
17.206
0
LINE
8
Black
10
8.39664
20
17.206
11
8.481
21
17.2904
0
LINE
8
Black
10
8.481
20
17.2904
11
8.481
21
17.7252
0
LINE
8
Black
10
8.481
20
17.7252
11
8.481
21
17.807
0
LINE
8
Black
10
8.481
20
17.807
11
8.40366
21
17.9938
0
LINE
8
Black
10
8.40366
20
17.9938
11
8.26076
21
18.1367
0
LINE
8
Black
10
8.26076
20
18.1367
11
8.07405
21
18.214
0
LINE
8
Black
10
8.07405
20
18.214
11
7.55735
21
18.214
0
LINE
8
Black
10
5.87195
20
18.214
11
5.68524
21
18.1367
0
LINE
8
Black
10
5.68524
20
18.1367
11
5.54234
21
17.9938
0
LINE
8
Black
10
5.54234
20
17.9938
11
5.465
21
17.807
0
LINE
8
Black
10
5.465
20
17.807
11
5.465
21
17.2904
0
LINE
8
Black
10
5.465
20
17.2904
11
5.54935
21
17.206
0
LINE
8
Black
10
5.54935
20
17.206
11
5.973
21
17.206
0
LINE
8
Black
10
5.973
20
17.206
11
5.973
21
17.706
0
LINE
8
Black
10
5.973
20
17.706
11
6.473
21
17.706
0
LINE
8
Black
10
6.473
20
17.706
11
6.473
21
18.1296
0
LINE
8
Black
10
6.473
20
18.1296
11
6.38864
21
18.214
0
LINE
8
Black
10
6.38864
20
18.214
11
5.87195
21
18.214
0
LINE
8
Black
10
12.2354
20
19.765
11
12.151
21
19.6806
0
LINE
8
Black
10
12.151
20
19.6806
11
12.151
21
19.257
0
LINE
8
Black
10
12.151
20
19.257
11
12.651
21
19.257
0
LINE
8
Black
10
12.651
20
19.257
11
12.651
21
18.757
0
LINE
8
Black
10
12.651
20
18.757
11
13.0746
21
18.757
0
LINE
8
Black
10
13.0746
20
18.757
11
13.159
21
18.8414
0
LINE
8
Black
10
13.159
20
18.8414
11
13.159
21
19.358
0
LINE
8
Black
10
13.159
20
19.358
11
13.0817
21
19.5448
0
LINE
8
Black
10
13.0817
20
19.5448
11
12.9388
21
19.6877
0
LINE
8
Black
10
12.9388
20
19.6877
11
12.752
21
19.765
0
LINE
8
Black
10
12.752
20
19.765
11
12.2354
21
19.765
0
LINE
8
Black
10
10.55
20
19.765
11
10.3632
21
19.6877
0
LINE
8
Black
10
10.3632
20
19.6877
11
10.2203
21
19.5448
0
LINE
8
Black
10
10.2203
20
19.5448
11
10.143
21
19.358
0
LINE
8
Black
10
10.143
20
19.358
11
10.143
21
18.8414
0
LINE
8
Black
10
10.143
20
18.8414
11
10.2274
21
18.757
0
LINE
8
Black
10
10.2274
20
18.757
11
10.651
21
18.757
0
LINE
8
Black
10
10.651
20
18.757
11
10.651
21
19.257
0
LINE
8
Black
10
10.651
20
19.257
11
11.151
21
19.257
0
LINE
8
Black
10
11.151
20
19.257
11
11.151
21
19.6806
0
LINE
8
Black
10
11.151
20
19.6806
11
11.0666
21
19.765
0
LINE
8
Black
10
11.0666
20
19.765
11
10.55
21
19.765
0
LINE
8
Black
10
21.6064
20
19.779
11
21.522
21
19.6946
0
LINE
8
Black
10
21.522
20
19.6946
11
21.522
21
19.271
0
LINE
8
Black
10
21.522
20
19.271
11
22.022
21
19.271
0
LINE
8
Black
10
22.022
20
19.271
11
22.022
21
18.771
0
LINE
8
Black
10
22.022
20
18.771
11
22.4456
21
18.771
0
LINE
8
Black
10
22.4456
20
18.771
11
22.53
21
18.8554
0
LINE
8
Black
10
22.53
20
18.8554
11
22.53
21
19.372
0
LINE
8
Black
10
22.53
20
19.372
11
22.4527
21
19.5588
0
LINE
8
Black
10
22.4527
20
19.5588
11
22.3098
21
19.7017
0
LINE
8
Black
10
22.3098
20
19.7017
11
22.123
21
19.779
0
LINE
8
Black
10
22.123
20
19.779
11
21.6064
21
19.779
0
LINE
8
Black
10
19.921
20
19.779
11
19.7342
21
19.7017
0
LINE
8
Black
10
19.7342
20
19.7017
11
19.5913
21
19.5588
0
LINE
8
Black
10
19.5913
20
19.5588
11
19.514
21
19.372
0
LINE
8
Black
10
19.514
20
19.372
11
19.514
21
18.8554
0
LINE
8
Black
10
19.514
20
18.8554
11
19.5984
21
18.771
0
LINE
8
Black
10
19.5984
20
18.771
11
20.022
21
18.771
0
LINE
8
Black
10
20.022
20
18.771
11
20.022
21
19.271
0
LINE
8
Black
10
20.022
20
19.271
11
20.522
21
19.271
0
LINE
8
Black
10
20.522
20
19.271
11
20.522
21
19.6946
0
LINE
8
Black
10
20.522
20
19.6946
11
20.4376
21
19.779
0
LINE
8
Black
10
20.4376
20
19.779
11
19.921
21
19.779
0
LINE
8
Black
10
15.7709
20
23.1969
11
15.2824
21
22.8706
0
LINE
8
Black
10
15.2824
20
22.8706
11
14.9561
21
22.3822
0
LINE
8
Black
10
14.9561
20
22.3822
11
14.839
21
21.7935
0
LINE
8
Black
10
14.839
20
21.7935
11
14.839
21
21.7545
0
LINE
8
Black
10
14.839
20
21.7545
11
14.9561
21
21.1658
0
LINE
8
Black
10
14.9561
20
21.1658
11
15.2824
21
20.6774
0
LINE
8
Black
10
15.2824
20
20.6774
11
15.7709
21
20.3511
0
LINE
8
Black
10
15.7709
20
20.3511
11
16.347
21
20.2365
0
LINE
8
Black
10
16.347
20
20.2365
11
16.9231
21
20.3511
0
LINE
8
Black
10
16.9231
20
20.3511
11
17.4116
21
20.6774
0
LINE
8
Black
10
17.4116
20
20.6774
11
17.7379
21
21.1658
0
LINE
8
Black
10
17.7379
20
21.1658
11
17.855
21
21.7545
0
LINE
8
Black
10
17.855
20
21.7545
11
17.855
21
21.7935
0
LINE
8
Black
10
17.855
20
21.7935
11
17.7379
21
22.3822
0
LINE
8
Black
10
17.7379
20
22.3822
11
17.4116
21
22.8706
0
LINE
8
Black
10
17.4116
20
22.8706
11
16.9231
21
23.1969
0
LINE
8
Black
10
16.9231
20
23.1969
11
16.6138
21
23.2585
0
LINE
8
Black
10
16.6138
20
23.2585
11
16.347
21
23.3115
0
LINE
8
Black
10
16.347
20
23.3115
11
15.7709
21
23.1969
0
LINE
8
Black
10
6.39687
20
23.2089
11
5.90844
21
22.8826
0
LINE
8
Black
10
5.90844
20
22.8826
11
5.58209
21
22.3942
0
LINE
8
Black
10
5.58209
20
22.3942
11
5.465
21
21.8055
0
LINE
8
Black
10
5.465
20
21.8055
11
5.465
21
21.7665
0
LINE
8
Black
10
5.465
20
21.7665
11
5.58209
21
21.1778
0
LINE
8
Black
10
5.58209
20
21.1778
11
5.90844
21
20.6894
0
LINE
8
Black
10
5.90844
20
20.6894
11
6.39687
21
20.3631
0
LINE
8
Black
10
6.39687
20
20.3631
11
6.973
21
20.2485
0
LINE
8
Black
10
6.973
20
20.2485
11
7.54913
21
20.3631
0
LINE
8
Black
10
7.54913
20
20.3631
11
8.03756
21
20.6894
0
LINE
8
Black
10
8.03756
20
20.6894
11
8.36391
21
21.1778
0
LINE
8
Black
10
8.36391
20
21.1778
11
8.481
21
21.7665
0
LINE
8
Black
10
8.481
20
21.7665
11
8.481
21
21.8055
0
LINE
8
Black
10
8.481
20
21.8055
11
8.36391
21
22.3942
0
LINE
8
Black
10
8.36391
20
22.3942
11
8.03756
21
22.8826
0
LINE
8
Black
10
8.03756
20
22.8826
11
7.54913
21
23.2089
0
LINE
8
Black
10
7.54913
20
23.2089
11
7.37052
21
23.2445
0
LINE
8
Black
10
7.37052
20
23.2445
11
6.973
21
23.3235
0
LINE
8
Black
10
6.973
20
23.3235
11
6.39687
21
23.2089
0
LINE
8
Black
10
11.0749
20
24.7599
11
10.5864
21
24.4336
0
LINE
8
Black
10
10.5864
20
24.4336
11
10.2601
21
23.9452
0
LINE
8
Black
10
10.2601
20
23.9452
11
10.143
21
23.3565
0
LINE
8
Black
10
10.143
20
23.3565
11
10.143
21
23.3175
0
LINE
8
Black
10
10.143
20
23.3175
11
10.2601
21
22.7288
0
LINE
8
Black
10
10.2601
20
22.7288
11
10.5864
21
22.2404
0
LINE
8
Black
10
10.5864
20
22.2404
11
11.0749
21
21.9141
0
LINE
8
Black
10
11.0749
20
21.9141
11
11.651
21
21.7995
0
LINE
8
Black
10
11.651
20
21.7995
11
12.2271
21
21.9141
0
LINE
8
Black
10
12.2271
20
21.9141
11
12.7156
21
22.2404
0
LINE
8
Black
10
12.7156
20
22.2404
11
13.0419
21
22.7288
0
LINE
8
Black
10
13.0419
20
22.7288
11
13.159
21
23.3175
0
LINE
8
Black
10
13.159
20
23.3175
11
13.159
21
23.3565
0
LINE
8
Black
10
13.159
20
23.3565
11
13.0419
21
23.9452
0
LINE
8
Black
10
13.0419
20
23.9452
11
12.7156
21
24.4336
0
LINE
8
Black
10
12.7156
20
24.4336
11
12.2271
21
24.7599
0
LINE
8
Black
10
12.2271
20
24.7599
11
11.651
21
24.8745
0
LINE
8
Black
10
11.651
20
24.8745
11
11.0749
21
24.7599
0
LINE
8
Black
10
20.4459
20
24.7739
11
19.9574
21
24.4476
0
LINE
8
Black
10
19.9574
20
24.4476
11
19.6311
21
23.9592
0
LINE
8
Black
10
19.6311
20
23.9592
11
19.514
21
23.3705
0
LINE
8
Black
10
19.514
20
23.3705
11
19.514
21
23.3315
0
LINE
8
Black
10
19.514
20
23.3315
11
19.6311
21
22.7428
0
LINE
8
Black
10
19.6311
20
22.7428
11
19.9574
21
22.2544
0
LINE
8
Black
10
19.9574
20
22.2544
11
20.4459
21
21.9281
0
LINE
8
Black
10
20.4459
20
21.9281
11
21.022
21
21.8135
0
LINE
8
Black
10
21.022
20
21.8135
11
21.5981
21
21.9281
0
LINE
8
Black
10
21.5981
20
21.9281
11
22.0866
21
22.2544
0
LINE
8
Black
10
22.0866
20
22.2544
11
22.4129
21
22.7428
0
LINE
8
Black
10
22.4129
20
22.7428
11
22.53
21
23.3315
0
LINE
8
Black
10
22.53
20
23.3315
11
22.53
21
23.3705
0
LINE
8
Black
10
22.53
20
23.3705
11
22.4129
21
23.9592
0
LINE
8
Black
10
22.4129
20
23.9592
11
22.0866
21
24.4476
0
LINE
8
Black
10
22.0866
20
24.4476
11
21.5981
21
24.7739
0
LINE
8
Black
10
21.5981
20
24.7739
11
21.022
21
24.8885
0
LINE
8
Black
10
21.022
20
24.8885
11
20.4459
21
24.7739
0
LINE
8
Black
10
7.478
20
5.51884
11
7.74404
21
5.29561
0
LINE
8
Black
10
7.74404
20
5.29561
11
7.91769
21
4.99484
0
LINE
8
Black
10
7.91769
20
4.99484
11
7.978
21
4.65282
0
LINE
8
Black
10
7.978
20
4.65282
11
7.978
21
4.64518
0
LINE
8
Black
10
7.978
20
4.64518
11
7.91769
21
4.30316
0
LINE
8
Black
10
7.91769
20
4.30316
11
7.74404
21
4.00239
0
LINE
8
Black
10
7.74404
20
4.00239
11
7.478
21
3.77915
0
LINE
8
Black
10
7.478
20
3.77915
11
7.15165
21
3.66037
0
LINE
8
Black
10
7.15165
20
3.66037
11
6.80435
21
3.66037
0
LINE
8
Black
10
6.80435
20
3.66037
11
6.478
21
3.77915
0
LINE
8
Black
10
6.478
20
3.77915
11
6.21196
21
4.00239
0
LINE
8
Black
10
6.21196
20
4.00239
11
6.03831
21
4.30316
0
LINE
8
Black
10
6.03831
20
4.30316
11
5.978
21
4.64518
0
LINE
8
Black
10
5.978
20
4.64518
11
5.978
21
4.65282
0
LINE
8
Black
10
5.978
20
4.65282
11
6.03831
21
4.99484
0
LINE
8
Black
10
6.03831
20
4.99484
11
6.21196
21
5.29561
0
LINE
8
Black
10
6.21196
20
5.29561
11
6.478
21
5.51884
0
LINE
8
Black
10
6.478
20
5.51884
11
6.80435
21
5.63763
0
LINE
8
Black
10
6.80435
20
5.63763
11
7.15165
21
5.63763
0
LINE
8
Black
10
7.15165
20
5.63763
11
7.478
21
5.51884
0
LINE
8
Black
10
16.849
20
5.53285
11
17.115
21
5.30961
0
LINE
8
Black
10
17.115
20
5.30961
11
17.2887
21
5.00884
0
LINE
8
Black
10
17.2887
20
5.00884
11
17.349
21
4.66682
0
LINE
8
Black
10
17.349
20
4.66682
11
17.349
21
4.65918
0
LINE
8
Black
10
17.349
20
4.65918
11
17.2887
21
4.31716
0
LINE
8
Black
10
17.2887
20
4.31716
11
17.115
21
4.01639
0
LINE
8
Black
10
17.115
20
4.01639
11
16.849
21
3.79315
0
LINE
8
Black
10
16.849
20
3.79315
11
16.5226
21
3.67437
0
LINE
8
Black
10
16.5226
20
3.67437
11
16.1754
21
3.67437
0
LINE
8
Black
10
16.1754
20
3.67437
11
15.849
21
3.79315
0
LINE
8
Black
10
15.849
20
3.79315
11
15.583
21
4.01639
0
LINE
8
Black
10
15.583
20
4.01639
11
15.4093
21
4.31716
0
LINE
8
Black
10
15.4093
20
4.31716
11
15.349
21
4.65918
0
LINE
8
Black
10
15.349
20
4.65918
11
15.349
21
4.66682
0
LINE
8
Black
10
15.349
20
4.66682
11
15.4093
21
5.00884
0
LINE
8
Black
10
15.4093
20
5.00884
11
15.583
21
5.30961
0
LINE
8
Black
10
15.583
20
5.30961
11
15.849
21
5.53285
0
LINE
8
Black
10
15.849
20
5.53285
11
16.1754
21
5.65163
0
LINE
8
Black
10
16.1754
20
5.65163
11
16.5226
21
5.65163
0
LINE
8
Black
10
16.5226
20
5.65163
11
16.849
21
5.53285
0
LINE
8
Black
10
21.527
20
7.08384
11
21.793
21
6.86061
0
LINE
8
Black
10
21.793
20
6.86061
11
21.9667
21
6.55984
0
LINE
8
Black
10
21.9667
20
6.55984
11
22.027
21
6.21782
0
LINE
8
Black
10
22.027
20
6.21782
11
22.027
21
6.21018
0
LINE
8
Black
10
22.027
20
6.21018
11
21.9667
21
5.86816
0
LINE
8
Black
10
21.9667
20
5.86816
11
21.793
21
5.56739
0
LINE
8
Black
10
21.793
20
5.56739
11
21.527
21
5.34415
0
LINE
8
Black
10
21.527
20
5.34415
11
21.2006
21
5.22537
0
LINE
8
Black
10
21.2006
20
5.22537
11
20.8534
21
5.22537
0
LINE
8
Black
10
20.8534
20
5.22537
11
20.527
21
5.34415
0
LINE
8
Black
10
20.527
20
5.34415
11
20.261
21
5.56739
0
LINE
8
Black
10
20.261
20
5.56739
11
20.0873
21
5.86816
0
LINE
8
Black
10
20.0873
20
5.86816
11
20.027
21
6.21018
0
LINE
8
Black
10
20.027
20
6.21018
11
20.027
21
6.21782
0
LINE
8
Black
10
20.027
20
6.21782
11
20.0873
21
6.55984
0
LINE
8
Black
10
20.0873
20
6.55984
11
20.261
21
6.86061
0
LINE
8
Black
10
20.261
20
6.86061
11
20.527
21
7.08384
0
LINE
8
Black
10
20.527
20
7.08384
11
20.8534
21
7.20263
0
LINE
8
Black
10
20.8534
20
7.20263
11
21.2006
21
7.20263
0
LINE
8
Black
10
21.2006
20
7.20263
11
21.527
21
7.08384
0
LINE
8
Black
10
12.153
20
7.09584
11
12.419
21
6.87261
0
LINE
8
Black
10
12.419
20
6.87261
11
12.5927
21
6.57184
0
LINE
8
Black
10
12.5927
20
6.57184
11
12.653
21
6.22982
0
LINE
8
Black
10
12.653
20
6.22982
11
12.653
21
6.22218
0
LINE
8
Black
10
12.653
20
6.22218
11
12.5927
21
5.88016
0
LINE
8
Black
10
12.5927
20
5.88016
11
12.419
21
5.57939
0
LINE
8
Black
10
12.419
20
5.57939
11
12.153
21
5.35615
0
LINE
8
Black
10
12.153
20
5.35615
11
11.8266
21
5.23737
0
LINE
8
Black
10
11.8266
20
5.23737
11
11.4794
21
5.23737
0
LINE
8
Black
10
11.4794
20
5.23737
11
11.153
21
5.35615
0
LINE
8
Black
10
11.153
20
5.35615
11
10.887
21
5.57939
0
LINE
8
Black
10
10.887
20
5.57939
11
10.7133
21
5.88016
0
LINE
8
Black
10
10.7133
20
5.88016
11
10.653
21
6.22218
0
LINE
8
Black
10
10.653
20
6.22218
11
10.653
21
6.22982
0
LINE
8
Black
10
10.653
20
6.22982
11
10.7133
21
6.57184
0
LINE
8
Black
10
10.7133
20
6.57184
11
10.887
21
6.87261
0
LINE
8
Black
10
10.887
20
6.87261
11
11.153
21
7.09584
0
LINE
8
Black
10
11.153
20
7.09584
11
11.4794
21
7.21463
0
LINE
8
Black
10
11.4794
20
7.21463
11
11.8266
21
7.21463
0
LINE
8
Black
10
11.8266
20
7.21463
11
12.153
21
7.09584
0
LINE
8
Black
10
16.847
20
22.6438
11
17.113
21
22.4206
0
LINE
8
Black
10
17.113
20
22.4206
11
17.2867
21
22.1198
0
LINE
8
Black
10
17.2867
20
22.1198
11
17.347
21
21.7778
0
LINE
8
Black
10
17.347
20
21.7778
11
17.347
21
21.7702
0
LINE
8
Black
10
17.347
20
21.7702
11
17.2867
21
21.4282
0
LINE
8
Black
10
17.2867
20
21.4282
11
17.113
21
21.1274
0
LINE
8
Black
10
17.113
20
21.1274
11
16.847
21
20.9042
0
LINE
8
Black
10
16.847
20
20.9042
11
16.5206
21
20.7854
0
LINE
8
Black
10
16.5206
20
20.7854
11
16.1734
21
20.7854
0
LINE
8
Black
10
16.1734
20
20.7854
11
15.847
21
20.9042
0
LINE
8
Black
10
15.847
20
20.9042
11
15.581
21
21.1274
0
LINE
8
Black
10
15.581
20
21.1274
11
15.4073
21
21.4282
0
LINE
8
Black
10
15.4073
20
21.4282
11
15.347
21
21.7702
0
LINE
8
Black
10
15.347
20
21.7702
11
15.347
21
21.7778
0
LINE
8
Black
10
15.347
20
21.7778
11
15.4073
21
22.1198
0
LINE
8
Black
10
15.4073
20
22.1198
11
15.581
21
22.4206
0
LINE
8
Black
10
15.581
20
22.4206
11
15.847
21
22.6438
0
LINE
8
Black
10
15.847
20
22.6438
11
16.1734
21
22.7626
0
LINE
8
Black
10
16.1734
20
22.7626
11
16.5206
21
22.7626
0
LINE
8
Black
10
16.5206
20
22.7626
11
16.847
21
22.6438
0
LINE
8
Black
10
7.473
20
22.6558
11
7.73904
21
22.4326
0
LINE
8
Black
10
7.73904
20
22.4326
11
7.91269
21
22.1318
0
LINE
8
Black
10
7.91269
20
22.1318
11
7.973
21
21.7898
0
LINE
8
Black
10
7.973
20
21.7898
11
7.973
21
21.7822
0
LINE
8
Black
10
7.973
20
21.7822
11
7.91269
21
21.4402
0
LINE
8
Black
10
7.91269
20
21.4402
11
7.73904
21
21.1394
0
LINE
8
Black
10
7.73904
20
21.1394
11
7.473
21
20.9162
0
LINE
8
Black
10
7.473
20
20.9162
11
7.14665
21
20.7974
0
LINE
8
Black
10
7.14665
20
20.7974
11
6.79935
21
20.7974
0
LINE
8
Black
10
6.79935
20
20.7974
11
6.473
21
20.9162
0
LINE
8
Black
10
6.473
20
20.9162
11
6.20696
21
21.1394
0
LINE
8
Black
10
6.20696
20
21.1394
11
6.03331
21
21.4402
0
LINE
8
Black
10
6.03331
20
21.4402
11
5.973
21
21.7822
0
LINE
8
Black
10
5.973
20
21.7822
11
5.973
21
21.7898
0
LINE
8
Black
10
5.973
20
21.7898
11
6.03331
21
22.1318
0
LINE
8
Black
10
6.03331
20
22.1318
11
6.20696
21
22.4326
0
LINE
8
Black
10
6.20696
20
22.4326
11
6.473
21
22.6558
0
LINE
8
Black
10
6.473
20
22.6558
11
6.79935
21
22.7746
0
LINE
8
Black
10
6.79935
20
22.7746
11
7.14665
21
22.7746
0
LINE
8
Black
10
7.14665
20
22.7746
11
7.473
21
22.6558
0
LINE
8
Black
10
12.151
20
24.2068
11
12.417
21
23.9836
0
LINE
8
Black
10
12.417
20
23.9836
11
12.5907
21
23.6828
0
LINE
8
Black
10
12.5907
20
23.6828
11
12.651
21
23.3408
0
LINE
8
Black
10
12.651
20
23.3408
11
12.651
21
23.3332
0
LINE
8
Black
10
12.651
20
23.3332
11
12.5907
21
22.9912
0
LINE
8
Black
10
12.5907
20
22.9912
11
12.417
21
22.6904
0
LINE
8
Black
10
12.417
20
22.6904
11
12.151
21
22.4672
0
LINE
8
Black
10
12.151
20
22.4672
11
11.8246
21
22.3484
0
LINE
8
Black
10
11.8246
20
22.3484
11
11.4774
21
22.3484
0
LINE
8
Black
10
11.4774
20
22.3484
11
11.151
21
22.4672
0
LINE
8
Black
10
11.151
20
22.4672
11
10.885
21
22.6904
0
LINE
8
Black
10
10.885
20
22.6904
11
10.7113
21
22.9912
0
LINE
8
Black
10
10.7113
20
22.9912
11
10.651
21
23.3332
0
LINE
8
Black
10
10.651
20
23.3332
11
10.651
21
23.3408
0
LINE
8
Black
10
10.651
20
23.3408
11
10.7113
21
23.6828
0
LINE
8
Black
10
10.7113
20
23.6828
11
10.885
21
23.9836
0
LINE
8
Black
10
10.885
20
23.9836
11
11.151
21
24.2068
0
LINE
8
Black
10
11.151
20
24.2068
11
11.4774
21
24.3256
0
LINE
8
Black
10
11.4774
20
24.3256
11
11.8246
21
24.3256
0
LINE
8
Black
10
11.8246
20
24.3256
11
12.151
21
24.2068
0
LINE
8
Black
10
21.522
20
24.2208
11
21.788
21
23.9976
0
LINE
8
Black
10
21.788
20
23.9976
11
21.9617
21
23.6968
0
LINE
8
Black
10
21.9617
20
23.6968
11
22.022
21
23.3548
0
LINE
8
Black
10
22.022
20
23.3548
11
22.022
21
23.3472
0
LINE
8
Black
10
22.022
20
23.3472
11
21.9617
21
23.0052
0
LINE
8
Black
10
21.9617
20
23.0052
11
21.788
21
22.7044
0
LINE
8
Black
10
21.788
20
22.7044
11
21.522
21
22.4812
0
LINE
8
Black
10
21.522
20
22.4812
11
21.1956
21
22.3624
0
LINE
8
Black
10
21.1956
20
22.3624
11
20.8484
21
22.3624
0
LINE
8
Black
10
20.8484
20
22.3624
11
20.522
21
22.4812
0
LINE
8
Black
10
20.522
20
22.4812
11
20.256
21
22.7044
0
LINE
8
Black
10
20.256
20
22.7044
11
20.0823
21
23.0052
0
LINE
8
Black
10
20.0823
20
23.0052
11
20.022
21
23.3472
0
LINE
8
Black
10
20.022
20
23.3472
11
20.022
21
23.3548
0
LINE
8
Black
10
20.022
20
23.3548
11
20.0823
21
23.6968
0
LINE
8
Black
10
20.0823
20
23.6968
11
20.256
21
23.9976
0
LINE
8
Black
10
20.256
20
23.9976
11
20.522
21
24.2208
0
LINE
8
Black
10
20.522
20
24.2208
11
20.8484
21
24.3396
0
LINE
8
Black
10
20.8484
20
24.3396
11
21.1956
21
24.3396
0
LINE
8
Black
10
21.1956
20
24.3396
11
21.522
21
24.2208
  0
ENDSEC
  0
EOF
