  0
SECTION
  2
HEADER
  9
$ANGBASE
  50
0.0
  9
$ANGDIR
  70
  1
  9
$MEASUREMENT
  70
0
  0
ENDSEC
  0
SECTION
  2
TABLES
  0
TABLE
  2
LTYPE
  70
1
  0
LTYPE
  2
CONTINUOUS
  70
0
  3
Solid line
  72
65
  73
0
  40
0.0
  0
ENDTAB
  0
TABLE
  2
STYLE
  70
4
  0
STYLE
  2
KICAD
  70
0
  40
0
  41
1
  42
1
  50
0
  71
0
  3
isocp.shx
  0
STYLE
  2
KICADB
  70
0
  40
0
  41
1
  42
1
  50
0
  71
0
  3
isocp.shx
  0
STYLE
  2
KICADI
  70
0
  40
0
  41
1
  42
1
  50
15
  71
0
  3
isocp.shx
  0
STYLE
  2
KICADBI
  70
0
  40
0
  41
1
  42
1
  50
15
  71
0
  3
isocp.shx
  0
ENDTAB
  0
TABLE
  2
LAYER
  70
30
  0
LAYER
  2
BLACK
  70
0
  62
7
  6
CONTINUOUS
  0
LAYER
  2
GRAY1
  70
0
  62
251
  6
CONTINUOUS
  0
LAYER
  2
GRAY2
  70
0
  62
8
  6
CONTINUOUS
  0
LAYER
  2
GRAY3
  70
0
  62
9
  6
CONTINUOUS
  0
LAYER
  2
WHITE
  70
0
  62
7
  6
CONTINUOUS
  0
LAYER
  2
LYELLOW
  70
0
  62
51
  6
CONTINUOUS
  0
LAYER
  2
BLUE1
  70
0
  62
178
  6
CONTINUOUS
  0
LAYER
  2
GREEN1
  70
0
  62
98
  6
CONTINUOUS
  0
LAYER
  2
CYAN1
  70
0
  62
138
  6
CONTINUOUS
  0
LAYER
  2
RED1
  70
0
  62
18
  6
CONTINUOUS
  0
LAYER
  2
MAGENTA1
  70
0
  62
228
  6
CONTINUOUS
  0
LAYER
  2
BROWN1
  70
0
  62
58
  6
CONTINUOUS
  0
LAYER
  2
BLUE2
  70
0
  62
5
  6
CONTINUOUS
  0
LAYER
  2
GREEN2
  70
0
  62
3
  6
CONTINUOUS
  0
LAYER
  2
CYAN2
  70
0
  62
4
  6
CONTINUOUS
  0
LAYER
  2
RED2
  70
0
  62
1
  6
CONTINUOUS
  0
LAYER
  2
MAGENTA2
  70
0
  62
6
  6
CONTINUOUS
  0
LAYER
  2
BROWN2
  70
0
  62
54
  6
CONTINUOUS
  0
LAYER
  2
BLUE3
  70
0
  62
171
  6
CONTINUOUS
  0
LAYER
  2
GREEN3
  70
0
  62
91
  6
CONTINUOUS
  0
LAYER
  2
CYAN3
  70
0
  62
131
  6
CONTINUOUS
  0
LAYER
  2
RED3
  70
0
  62
11
  6
CONTINUOUS
  0
LAYER
  2
MAGENTA3
  70
0
  62
221
  6
CONTINUOUS
  0
LAYER
  2
YELLOW3
  70
0
  62
2
  6
CONTINUOUS
  0
LAYER
  2
BLUE4
  70
0
  62
5
  6
CONTINUOUS
  0
LAYER
  2
GREEN4
  70
0
  62
3
  6
CONTINUOUS
  0
LAYER
  2
CYAN4
  70
0
  62
4
  6
CONTINUOUS
  0
LAYER
  2
RED4
  70
0
  62
1
  6
CONTINUOUS
  0
LAYER
  2
MAGENTA4
  70
0
  62
6
  6
CONTINUOUS
  0
LAYER
  2
YELLOW4
  70
0
  62
2
  6
CONTINUOUS
  0
ENDTAB
  0
ENDSEC
  0
SECTION
  2
ENTITIES
0
LINE
8
Black
10
6.97734
20
5.63763
11
7.15165
21
5.63763
0
LINE
8
Black
10
7.15165
20
5.63763
11
7.20681
21
5.61755
0
LINE
8
Black
10
7.20681
20
5.61755
11
7.23682
21
5.61493
0
LINE
8
Black
10
7.23682
20
5.61493
11
7.3179
21
5.57712
0
LINE
8
Black
10
7.3179
20
5.57712
11
7.478
21
5.51884
0
LINE
8
Black
10
7.478
20
5.51884
11
7.52195
21
5.48197
0
LINE
8
Black
10
7.52195
20
5.48197
11
7.55158
21
5.46815
0
LINE
8
Black
10
7.55158
20
5.46815
11
7.62022
21
5.39951
0
LINE
8
Black
10
7.62022
20
5.39951
11
7.74404
21
5.29561
0
LINE
8
Black
10
7.74404
20
5.29561
11
7.77126
21
5.24847
0
LINE
8
Black
10
7.77126
20
5.24847
11
7.79715
21
5.22258
0
LINE
8
Black
10
7.79715
20
5.22258
11
7.84311
21
5.12403
0
LINE
8
Black
10
7.84311
20
5.12403
11
7.91769
21
4.99484
0
LINE
8
Black
10
7.91769
20
4.99484
11
7.92642
21
4.94537
0
LINE
8
Black
10
7.92642
20
4.94537
11
7.94393
21
4.90782
0
LINE
8
Black
10
7.94393
20
4.90782
11
7.95465
21
4.78525
0
LINE
8
Black
10
7.95465
20
4.78525
11
7.978
21
4.65282
0
LINE
8
Black
10
7.978
20
4.65282
11
7.978
21
4.64518
0
LINE
8
Black
10
7.978
20
4.64518
11
7.97058
21
4.60312
0
LINE
8
Black
10
7.97058
20
4.60312
11
7.97419
21
4.56184
0
LINE
8
Black
10
7.97419
20
4.56184
11
7.94235
21
4.443
0
LINE
8
Black
10
7.94235
20
4.443
11
7.91769
21
4.30316
0
LINE
8
Black
10
7.91769
20
4.30316
11
7.89378
21
4.26175
0
LINE
8
Black
10
7.89378
20
4.26175
11
7.88431
21
4.22638
0
LINE
8
Black
10
7.88431
20
4.22638
11
7.82194
21
4.13731
0
LINE
8
Black
10
7.82194
20
4.13731
11
7.74404
21
4.00239
0
LINE
8
Black
10
7.74404
20
4.00239
11
7.70386
21
3.96867
0
LINE
8
Black
10
7.70386
20
3.96867
11
7.68511
21
3.94189
0
LINE
8
Black
10
7.68511
20
3.94189
11
6.39321
21
2.65
0
LINE
8
Black
10
6.39321
20
2.65
11
6.5
21
2.65
0
LINE
8
Black
10
6.5
20
2.65
11
6.5
21
0.35
0
LINE
8
Black
10
6.5
20
0.35
11
1.5
21
0.35
0
LINE
8
Black
10
1.5
20
0.35
11
1.5
21
2.65
0
LINE
8
Black
10
1.5
20
2.65
11
3.56479
21
2.65
0
LINE
8
Black
10
3.56479
20
2.65
11
6.27089
21
5.35611
0
LINE
8
Black
10
6.27089
20
5.35611
11
6.35042
21
5.41179
0
LINE
8
Black
10
6.35042
20
5.41179
11
6.478
21
5.51884
0
LINE
8
Black
10
6.478
20
5.51884
11
6.5307
21
5.53803
0
LINE
8
Black
10
6.5307
20
5.53803
11
6.55538
21
5.55531
0
LINE
8
Black
10
6.55538
20
5.55531
11
6.6418
21
5.57846
0
LINE
8
Black
10
6.6418
20
5.57846
11
6.80435
21
5.63763
0
LINE
8
Black
10
6.80435
20
5.63763
11
6.8626
21
5.63763
0
LINE
8
Black
10
6.8626
20
5.63763
11
6.89084
21
5.6452
0
LINE
8
Black
10
6.89084
20
5.6452
11
6.97734
21
5.63763
0
LINE
8
Black
10
11.6523
20
7.21463
11
11.8266
21
7.21463
0
LINE
8
Black
10
11.8266
20
7.21463
11
11.8818
21
7.19455
0
LINE
8
Black
10
11.8818
20
7.19455
11
11.9118
21
7.19192
0
LINE
8
Black
10
11.9118
20
7.19192
11
11.9929
21
7.15412
0
LINE
8
Black
10
11.9929
20
7.15412
11
12.153
21
7.09584
0
LINE
8
Black
10
12.153
20
7.09584
11
12.1969
21
7.05897
0
LINE
8
Black
10
12.1969
20
7.05897
11
12.2266
21
7.04515
0
LINE
8
Black
10
12.2266
20
7.04515
11
12.2952
21
6.97651
0
LINE
8
Black
10
12.2952
20
6.97651
11
12.419
21
6.87261
0
LINE
8
Black
10
12.419
20
6.87261
11
12.4463
21
6.82547
0
LINE
8
Black
10
12.4463
20
6.82547
11
12.4722
21
6.79958
0
LINE
8
Black
10
12.4722
20
6.79958
11
12.5181
21
6.70103
0
LINE
8
Black
10
12.5181
20
6.70103
11
12.5927
21
6.57184
0
LINE
8
Black
10
12.5927
20
6.57184
11
12.6014
21
6.52237
0
LINE
8
Black
10
12.6014
20
6.52237
11
12.6189
21
6.48482
0
LINE
8
Black
10
12.6189
20
6.48482
11
12.6296
21
6.36226
0
LINE
8
Black
10
12.6296
20
6.36226
11
12.653
21
6.22982
0
LINE
8
Black
10
12.653
20
6.22982
11
12.653
21
6.22218
0
LINE
8
Black
10
12.653
20
6.22218
11
12.6456
21
6.18012
0
LINE
8
Black
10
12.6456
20
6.18012
11
12.6492
21
6.13884
0
LINE
8
Black
10
12.6492
20
6.13884
11
12.6174
21
6.02
0
LINE
8
Black
10
12.6174
20
6.02
11
12.5927
21
5.88016
0
LINE
8
Black
10
12.5927
20
5.88016
11
12.5688
21
5.83875
0
LINE
8
Black
10
12.5688
20
5.83875
11
12.5593
21
5.80338
0
LINE
8
Black
10
12.5593
20
5.80338
11
12.4969
21
5.71431
0
LINE
8
Black
10
12.4969
20
5.71431
11
12.419
21
5.57939
0
LINE
8
Black
10
12.419
20
5.57939
11
12.3789
21
5.54567
0
LINE
8
Black
10
12.3789
20
5.54567
11
12.3601
21
5.51889
0
LINE
8
Black
10
12.3601
20
5.51889
11
11.5
21
4.65879
0
LINE
8
Black
10
11.5
20
4.65879
11
11.5
21
2.65
0
LINE
8
Black
10
11.5
20
2.65
11
13
21
2.65
0
LINE
8
Black
10
13
20
2.65
11
13
21
0.35
0
LINE
8
Black
10
13
20
0.35
11
8
21
0.35
0
LINE
8
Black
10
8
20
0.35
11
8
21
2.65
0
LINE
8
Black
10
8
20
2.65
11
9.5
21
2.65
0
LINE
8
Black
10
9.5
20
2.65
11
9.5
21
5.073
0
LINE
8
Black
10
9.5
20
5.073
11
9.50764
21
5.11633
0
LINE
8
Black
10
9.50764
20
5.11633
11
9.5038
21
5.16015
0
LINE
8
Black
10
9.5038
20
5.16015
11
9.53762
21
5.28635
0
LINE
8
Black
10
9.53762
20
5.28635
11
9.56031
21
5.41502
0
LINE
8
Black
10
9.56031
20
5.41502
11
9.5823
21
5.45312
0
LINE
8
Black
10
9.5823
20
5.45312
11
9.59369
21
5.49562
0
LINE
8
Black
10
9.59369
20
5.49562
11
9.66863
21
5.60265
0
LINE
8
Black
10
9.66863
20
5.60265
11
9.73396
21
5.71579
0
LINE
8
Black
10
9.73396
20
5.71579
11
9.76766
21
5.74407
0
LINE
8
Black
10
9.76766
20
5.74407
11
9.79289
21
5.78011
0
LINE
8
Black
10
9.79289
20
5.78011
11
10.9459
21
6.93311
0
LINE
8
Black
10
10.9459
20
6.93311
11
11.0254
21
6.98879
0
LINE
8
Black
10
11.0254
20
6.98879
11
11.153
21
7.09584
0
LINE
8
Black
10
11.153
20
7.09584
11
11.2057
21
7.11503
0
LINE
8
Black
10
11.2057
20
7.11503
11
11.2304
21
7.13231
0
LINE
8
Black
10
11.2304
20
7.13231
11
11.3168
21
7.15546
0
LINE
8
Black
10
11.3168
20
7.15546
11
11.4794
21
7.21463
0
LINE
8
Black
10
11.4794
20
7.21463
11
11.5376
21
7.21463
0
LINE
8
Black
10
11.5376
20
7.21463
11
11.5658
21
7.22219
0
LINE
8
Black
10
11.5658
20
7.22219
11
11.6523
21
7.21463
0
LINE
8
Black
10
16.849
20
5.53285
11
17.115
21
5.30961
0
LINE
8
Black
10
17.115
20
5.30961
11
17.2887
21
5.00884
0
LINE
8
Black
10
17.2887
20
5.00884
11
17.349
21
4.66682
0
LINE
8
Black
10
17.349
20
4.66682
11
17.349
21
4.663
0
LINE
8
Black
10
17.349
20
4.663
11
17.349
21
3.06521
0
LINE
8
Black
10
17.349
20
3.06521
11
17.7642
21
2.65
0
LINE
8
Black
10
17.7642
20
2.65
11
20
21
2.65
0
LINE
8
Black
10
20
20
2.65
11
20
21
0.35
0
LINE
8
Black
10
20
20
0.35
11
15
21
0.35
0
LINE
8
Black
10
15
20
0.35
11
15
21
2.65
0
LINE
8
Black
10
15
20
2.65
11
15.3492
21
2.65
0
LINE
8
Black
10
15.3492
20
2.65
11
15.349
21
2.651
0
LINE
8
Black
10
15.349
20
2.651
11
15.349
21
4.663
0
LINE
8
Black
10
15.349
20
4.663
11
15.349
21
4.66682
0
LINE
8
Black
10
15.349
20
4.66682
11
15.4093
21
5.00884
0
LINE
8
Black
10
15.4093
20
5.00884
11
15.583
21
5.30961
0
LINE
8
Black
10
15.583
20
5.30961
11
15.849
21
5.53285
0
LINE
8
Black
10
15.849
20
5.53285
11
16.1754
21
5.65163
0
LINE
8
Black
10
16.1754
20
5.65163
11
16.5226
21
5.65163
0
LINE
8
Black
10
16.5226
20
5.65163
11
16.849
21
5.53285
0
LINE
8
Black
10
21.527
20
7.08384
11
21.793
21
6.86061
0
LINE
8
Black
10
21.793
20
6.86061
11
21.9667
21
6.55984
0
LINE
8
Black
10
21.9667
20
6.55984
11
22.027
21
6.21782
0
LINE
8
Black
10
22.027
20
6.21782
11
22.027
21
6.214
0
LINE
8
Black
10
22.027
20
6.214
11
22.027
21
4.88721
0
LINE
8
Black
10
22.027
20
4.88721
11
24.2642
21
2.65
0
LINE
8
Black
10
24.2642
20
2.65
11
26.5
21
2.65
0
LINE
8
Black
10
26.5
20
2.65
11
26.5
21
0.35
0
LINE
8
Black
10
26.5
20
0.35
11
21.5
21
0.35
0
LINE
8
Black
10
21.5
20
0.35
11
21.5
21
2.58579
0
LINE
8
Black
10
21.5
20
2.58579
11
20.3199
21
3.76589
0
LINE
8
Black
10
20.3199
20
3.76589
11
20.2947
21
3.80193
0
LINE
8
Black
10
20.2947
20
3.80193
11
20.261
21
3.83021
0
LINE
8
Black
10
20.261
20
3.83021
11
20.1956
21
3.94335
0
LINE
8
Black
10
20.1956
20
3.94335
11
20.1207
21
4.05038
0
LINE
8
Black
10
20.1207
20
4.05038
11
20.1093
21
4.09288
0
LINE
8
Black
10
20.1093
20
4.09288
11
20.0873
21
4.13098
0
LINE
8
Black
10
20.0873
20
4.13098
11
20.0646
21
4.25965
0
LINE
8
Black
10
20.0646
20
4.25965
11
20.0308
21
4.38584
0
LINE
8
Black
10
20.0308
20
4.38584
11
20.0346
21
4.42967
0
LINE
8
Black
10
20.0346
20
4.42967
11
20.027
21
4.473
0
LINE
8
Black
10
20.027
20
4.473
11
20.027
21
6.214
0
LINE
8
Black
10
20.027
20
6.214
11
20.027
21
6.21782
0
LINE
8
Black
10
20.027
20
6.21782
11
20.0873
21
6.55984
0
LINE
8
Black
10
20.0873
20
6.55984
11
20.261
21
6.86061
0
LINE
8
Black
10
20.261
20
6.86061
11
20.527
21
7.08384
0
LINE
8
Black
10
20.527
20
7.08384
11
20.8534
21
7.20263
0
LINE
8
Black
10
20.8534
20
7.20263
11
21.2006
21
7.20263
0
LINE
8
Black
10
21.2006
20
7.20263
11
21.527
21
7.08384
0
LINE
8
Black
10
5.57926
20
20.999
11
5.58483
21
20.9995
0
LINE
8
Black
10
5.58483
20
20.9995
11
5.60086
21
20.9952
0
LINE
8
Black
10
5.60086
20
20.9952
11
5.6172
21
20.9923
0
LINE
8
Black
10
5.6172
20
20.9923
11
5.62204
21
20.9895
0
LINE
8
Black
10
5.62204
20
20.9895
11
5.62743
21
20.9881
0
LINE
8
Black
10
5.62743
20
20.9881
11
5.64102
21
20.9786
0
LINE
8
Black
10
5.64102
20
20.9786
11
5.65539
21
20.9703
0
LINE
8
Black
10
5.65539
20
20.9703
11
5.65898
21
20.966
0
LINE
8
Black
10
5.65898
20
20.966
11
5.66356
21
20.9628
0
LINE
8
Black
10
5.66356
20
20.9628
11
5.84218
21
20.7842
0
LINE
8
Black
10
5.84218
20
20.7842
11
5.84934
21
20.774
0
LINE
8
Black
10
5.84934
20
20.774
11
5.85798
21
20.7649
0
LINE
8
Black
10
5.85798
20
20.7649
11
5.90844
21
20.6894
0
LINE
8
Black
10
5.90844
20
20.6894
11
6.39687
21
20.3631
0
LINE
8
Black
10
6.39687
20
20.3631
11
6.973
21
20.2485
0
LINE
8
Black
10
6.973
20
20.2485
11
7.54913
21
20.3631
0
LINE
8
Black
10
7.54913
20
20.3631
11
8.03756
21
20.6894
0
LINE
8
Black
10
8.03756
20
20.6894
11
8.20737
21
20.9436
0
LINE
8
Black
10
8.20737
20
20.9436
11
8.21979
21
20.9565
0
LINE
8
Black
10
8.21979
20
20.9565
11
8.23134
21
20.9703
0
LINE
8
Black
10
8.23134
20
20.9703
11
8.23497
21
20.9724
0
LINE
8
Black
10
8.23497
20
20.9724
11
8.23787
21
20.9754
0
LINE
8
Black
10
8.23787
20
20.9754
11
8.25398
21
20.9834
0
LINE
8
Black
10
8.25398
20
20.9834
11
8.26953
21
20.9923
0
LINE
8
Black
10
8.26953
20
20.9923
11
8.27367
21
20.9931
0
LINE
8
Black
10
8.27367
20
20.9931
11
8.27743
21
20.9949
0
LINE
8
Black
10
8.27743
20
20.9949
11
8.29528
21
20.9969
0
LINE
8
Black
10
8.29528
20
20.9969
11
8.31297
21
21
0
LINE
8
Black
10
8.31297
20
21
11
14.999
21
21
0
LINE
8
Black
10
14.999
20
21
11
15.0167
21
20.9969
0
LINE
8
Black
10
15.0167
20
20.9969
11
15.0346
21
20.9949
0
LINE
8
Black
10
15.0346
20
20.9949
11
15.0383
21
20.9931
0
LINE
8
Black
10
15.0383
20
20.9931
11
15.0424
21
20.9923
0
LINE
8
Black
10
15.0424
20
20.9923
11
15.058
21
20.9834
0
LINE
8
Black
10
15.058
20
20.9834
11
15.0741
21
20.9754
0
LINE
8
Black
10
15.0741
20
20.9754
11
15.077
21
20.9724
0
LINE
8
Black
10
15.077
20
20.9724
11
15.0806
21
20.9703
0
LINE
8
Black
10
15.0806
20
20.9703
11
15.0922
21
20.9565
0
LINE
8
Black
10
15.0922
20
20.9565
11
15.1046
21
20.9436
0
LINE
8
Black
10
15.1046
20
20.9436
11
15.2824
21
20.6774
0
LINE
8
Black
10
15.2824
20
20.6774
11
15.7709
21
20.3511
0
LINE
8
Black
10
15.7709
20
20.3511
11
16.347
21
20.2365
0
LINE
8
Black
10
16.347
20
20.2365
11
16.9231
21
20.3511
0
LINE
8
Black
10
16.9231
20
20.3511
11
17.4116
21
20.6774
0
LINE
8
Black
10
17.4116
20
20.6774
11
17.462
21
20.7529
0
LINE
8
Black
10
17.462
20
20.7529
11
17.4707
21
20.762
0
LINE
8
Black
10
17.4707
20
20.762
11
17.4778
21
20.7722
0
LINE
8
Black
10
17.4778
20
20.7722
11
17.6684
21
20.9628
0
LINE
8
Black
10
17.6684
20
20.9628
11
17.673
21
20.966
0
LINE
8
Black
10
17.673
20
20.966
11
17.6766
21
20.9703
0
LINE
8
Black
10
17.6766
20
20.9703
11
17.691
21
20.9786
0
LINE
8
Black
10
17.691
20
20.9786
11
17.7046
21
20.9881
0
LINE
8
Black
10
17.7046
20
20.9881
11
17.71
21
20.9895
0
LINE
8
Black
10
17.71
20
20.9895
11
17.7148
21
20.9923
0
LINE
8
Black
10
17.7148
20
20.9923
11
17.7311
21
20.9952
0
LINE
8
Black
10
17.7311
20
20.9952
11
17.7472
21
20.9995
0
LINE
8
Black
10
17.7472
20
20.9995
11
17.7527
21
20.999
0
LINE
8
Black
10
17.7527
20
20.999
11
17.7582
21
21
0
LINE
8
Black
10
17.7582
20
21
11
27.29
21
21
0
LINE
8
Black
10
27.29
20
21
11
27.3009
21
20.9981
0
LINE
8
Black
10
27.3009
20
20.9981
11
27.3121
21
20.9981
0
LINE
8
Black
10
27.3121
20
20.9981
11
27.3225
21
20.9943
0
LINE
8
Black
10
27.3225
20
20.9943
11
27.3334
21
20.9923
0
LINE
8
Black
10
27.3334
20
20.9923
11
27.3431
21
20.9868
0
LINE
8
Black
10
27.3431
20
20.9868
11
27.3535
21
20.983
0
LINE
8
Black
10
27.3535
20
20.983
11
27.362
21
20.9758
0
LINE
8
Black
10
27.362
20
20.9758
11
27.3716
21
20.9703
0
LINE
8
Black
10
27.3716
20
20.9703
11
27.3788
21
20.9618
0
LINE
8
Black
10
27.3788
20
20.9618
11
27.3873
21
20.9546
0
LINE
8
Black
10
27.3873
20
20.9546
11
27.3928
21
20.945
0
LINE
8
Black
10
27.3928
20
20.945
11
27.4
21
20.9365
0
LINE
8
Black
10
27.4
20
20.9365
11
27.4038
21
20.9261
0
LINE
8
Black
10
27.4038
20
20.9261
11
27.4093
21
20.9164
0
LINE
8
Black
10
27.4093
20
20.9164
11
27.4113
21
20.9055
0
LINE
8
Black
10
27.4113
20
20.9055
11
27.4151
21
20.8951
0
LINE
8
Black
10
27.4151
20
20.8951
11
27.4151
21
20.8839
0
LINE
8
Black
10
27.4151
20
20.8839
11
27.417
21
20.873
0
LINE
8
Black
10
27.417
20
20.873
11
27.417
21
16.5
0
LINE
8
Black
10
27.417
20
16.5
11
27.65
21
16.5
0
LINE
8
Black
10
27.65
20
16.5
11
27.65
21
11.5
0
LINE
8
Black
10
27.65
20
11.5
11
27.417
21
11.5
0
LINE
8
Black
10
27.417
20
11.5
11
27.417
21
7.127
0
LINE
8
Black
10
27.417
20
7.127
11
27.4151
21
7.11606
0
LINE
8
Black
10
27.4151
20
7.11606
11
27.4151
21
7.10495
0
LINE
8
Black
10
27.4151
20
7.10495
11
27.4113
21
7.0945
0
LINE
8
Black
10
27.4113
20
7.0945
11
27.4093
21
7.08356
0
LINE
8
Black
10
27.4093
20
7.08356
11
27.4038
21
7.07394
0
LINE
8
Black
10
27.4038
20
7.07394
11
27.4
21
7.0635
0
LINE
8
Black
10
27.4
20
7.0635
11
27.3928
21
7.05499
0
LINE
8
Black
10
27.3928
20
7.05499
11
27.3873
21
7.04537
0
LINE
8
Black
10
27.3873
20
7.04537
11
27.3788
21
7.03822
0
LINE
8
Black
10
27.3788
20
7.03822
11
27.3716
21
7.02971
0
LINE
8
Black
10
27.3716
20
7.02971
11
27.362
21
7.02416
0
LINE
8
Black
10
27.362
20
7.02416
11
27.3535
21
7.01701
0
LINE
8
Black
10
27.3535
20
7.01701
11
27.3431
21
7.01321
0
LINE
8
Black
10
27.3431
20
7.01321
11
27.3334
21
7.00766
0
LINE
8
Black
10
27.3334
20
7.00766
11
27.3225
21
7.00573
0
LINE
8
Black
10
27.3225
20
7.00573
11
27.3121
21
7.00193
0
LINE
8
Black
10
27.3121
20
7.00193
11
27.3009
21
7.00193
0
LINE
8
Black
10
27.3009
20
7.00193
11
27.29
21
7
0
LINE
8
Black
10
27.29
20
7
11
22.367
21
7
0
LINE
8
Black
10
22.367
20
7
11
22.3493
21
7.00312
0
LINE
8
Black
10
22.3493
20
7.00312
11
22.3314
21
7.00507
0
LINE
8
Black
10
22.3314
20
7.00507
11
22.3277
21
7.00693
0
LINE
8
Black
10
22.3277
20
7.00693
11
22.3235
21
7.00766
0
LINE
8
Black
10
22.3235
20
7.00766
11
22.308
21
7.01664
0
LINE
8
Black
10
22.308
20
7.01664
11
22.2919
21
7.02458
0
LINE
8
Black
10
22.2919
20
7.02458
11
22.289
21
7.02761
0
LINE
8
Black
10
22.289
20
7.02761
11
22.2853
21
7.02971
0
LINE
8
Black
10
22.2853
20
7.02971
11
22.2738
21
7.04347
0
LINE
8
Black
10
22.2738
20
7.04347
11
22.2614
21
7.05644
0
LINE
8
Black
10
22.2614
20
7.05644
11
22.0916
21
7.31059
0
LINE
8
Black
10
22.0916
20
7.31059
11
21.6031
21
7.63694
0
LINE
8
Black
10
21.6031
20
7.63694
11
21.027
21
7.75154
0
LINE
8
Black
10
21.027
20
7.75154
11
20.4509
21
7.63694
0
LINE
8
Black
10
20.4509
20
7.63694
11
19.9624
21
7.31059
0
LINE
8
Black
10
19.9624
20
7.31059
11
19.7926
21
7.05644
0
LINE
8
Black
10
19.7926
20
7.05644
11
19.7802
21
7.04347
0
LINE
8
Black
10
19.7802
20
7.04347
11
19.7687
21
7.02971
0
LINE
8
Black
10
19.7687
20
7.02971
11
19.765
21
7.02761
0
LINE
8
Black
10
19.765
20
7.02761
11
19.7621
21
7.02458
0
LINE
8
Black
10
19.7621
20
7.02458
11
19.746
21
7.01664
0
LINE
8
Black
10
19.746
20
7.01664
11
19.7305
21
7.00766
0
LINE
8
Black
10
19.7305
20
7.00766
11
19.7263
21
7.00693
0
LINE
8
Black
10
19.7263
20
7.00693
11
19.7226
21
7.00507
0
LINE
8
Black
10
19.7226
20
7.00507
11
19.7047
21
7.00312
0
LINE
8
Black
10
19.7047
20
7.00312
11
19.687
21
7
0
LINE
8
Black
10
19.687
20
7
11
13.001
21
7
0
LINE
8
Black
10
13.001
20
7
11
12.9833
21
7.00312
0
LINE
8
Black
10
12.9833
20
7.00312
11
12.9654
21
7.00507
0
LINE
8
Black
10
12.9654
20
7.00507
11
12.9617
21
7.00693
0
LINE
8
Black
10
12.9617
20
7.00693
11
12.9576
21
7.00766
0
LINE
8
Black
10
12.9576
20
7.00766
11
12.942
21
7.01664
0
LINE
8
Black
10
12.942
20
7.01664
11
12.9259
21
7.02458
0
LINE
8
Black
10
12.9259
20
7.02458
11
12.923
21
7.02761
0
LINE
8
Black
10
12.923
20
7.02761
11
12.9194
21
7.02971
0
LINE
8
Black
10
12.9194
20
7.02971
11
12.9078
21
7.04347
0
LINE
8
Black
10
12.9078
20
7.04347
11
12.8954
21
7.05644
0
LINE
8
Black
10
12.8954
20
7.05644
11
12.7176
21
7.32259
0
LINE
8
Black
10
12.7176
20
7.32259
11
12.2291
21
7.64894
0
LINE
8
Black
10
12.2291
20
7.64894
11
11.653
21
7.76354
0
LINE
8
Black
10
11.653
20
7.76354
11
11.0769
21
7.64894
0
LINE
8
Black
10
11.0769
20
7.64894
11
10.5884
21
7.32259
0
LINE
8
Black
10
10.5884
20
7.32259
11
10.538
21
7.24706
0
LINE
8
Black
10
10.538
20
7.24706
11
10.5293
21
7.23804
0
LINE
8
Black
10
10.5293
20
7.23804
11
10.5222
21
7.22781
0
LINE
8
Black
10
10.5222
20
7.22781
11
10.3316
21
7.0372
0
LINE
8
Black
10
10.3316
20
7.0372
11
10.327
21
7.03399
0
LINE
8
Black
10
10.327
20
7.03399
11
10.3234
21
7.02971
0
LINE
8
Black
10
10.3234
20
7.02971
11
10.309
21
7.02141
0
LINE
8
Black
10
10.309
20
7.02141
11
10.2954
21
7.0119
0
LINE
8
Black
10
10.2954
20
7.0119
11
10.29
21
7.01045
0
LINE
8
Black
10
10.29
20
7.01045
11
10.2852
21
7.00766
0
LINE
8
Black
10
10.2852
20
7.00766
11
10.2689
21
7.00478
0
LINE
8
Black
10
10.2689
20
7.00478
11
10.2528
21
7.00048
0
LINE
8
Black
10
10.2528
20
7.00048
11
10.2473
21
7.00097
0
LINE
8
Black
10
10.2473
20
7.00097
11
10.2418
21
7
0
LINE
8
Black
10
10.2418
20
7
11
0.71
21
7
0
LINE
8
Black
10
0.71
20
7
11
0.69906
21
7.00193
0
LINE
8
Black
10
0.69906
20
7.00193
11
0.687947
21
7.00193
0
LINE
8
Black
10
0.687947
20
7.00193
11
0.677505
21
7.00573
0
LINE
8
Black
10
0.677505
20
7.00573
11
0.666563
21
7.00766
0
LINE
8
Black
10
0.666563
20
7.00766
11
0.656939
21
7.01321
0
LINE
8
Black
10
0.656939
20
7.01321
11
0.6465
21
7.01701
0
LINE
8
Black
10
0.6465
20
7.01701
11
0.63799
21
7.02416
0
LINE
8
Black
10
0.63799
20
7.02416
11
0.628366
21
7.02971
0
LINE
8
Black
10
0.628366
20
7.02971
11
0.621224
21
7.03822
0
LINE
8
Black
10
0.621224
20
7.03822
11
0.612712
21
7.04537
0
LINE
8
Black
10
0.612712
20
7.04537
11
0.607156
21
7.05499
0
LINE
8
Black
10
0.607156
20
7.05499
11
0.600015
21
7.0635
0
LINE
8
Black
10
0.600015
20
7.0635
11
0.596215
21
7.07394
0
LINE
8
Black
10
0.596215
20
7.07394
11
0.590659
21
7.08356
0
LINE
8
Black
10
0.590659
20
7.08356
11
0.58873
21
7.0945
0
LINE
8
Black
10
0.58873
20
7.0945
11
0.584929
21
7.10495
0
LINE
8
Black
10
0.584929
20
7.10495
11
0.584929
21
7.11606
0
LINE
8
Black
10
0.584929
20
7.11606
11
0.583
21
7.127
0
LINE
8
Black
10
0.583
20
7.127
11
0.583
21
9.19725
0
LINE
8
Black
10
0.583
20
9.19725
11
0.583
21
10.8553
0
LINE
8
Black
10
0.583
20
10.8553
11
0.583
21
11.5
0
LINE
8
Black
10
0.583
20
11.5
11
0.35
21
11.5
0
LINE
8
Black
10
0.35
20
11.5
11
0.35
21
16.5
0
LINE
8
Black
10
0.35
20
16.5
11
0.583
21
16.5
0
LINE
8
Black
10
0.583
20
16.5
11
0.583
21
17.8323
0
LINE
8
Black
10
0.583
20
17.8323
11
0.583
21
19.3833
0
LINE
8
Black
10
0.583
20
19.3833
11
0.583
21
20.873
0
LINE
8
Black
10
0.583
20
20.873
11
0.584929
21
20.8839
0
LINE
8
Black
10
0.584929
20
20.8839
11
0.584929
21
20.8951
0
LINE
8
Black
10
0.584929
20
20.8951
11
0.58873
21
20.9055
0
LINE
8
Black
10
0.58873
20
20.9055
11
0.590659
21
20.9164
0
LINE
8
Black
10
0.590659
20
20.9164
11
0.596215
21
20.9261
0
LINE
8
Black
10
0.596215
20
20.9261
11
0.600015
21
20.9365
0
LINE
8
Black
10
0.600015
20
20.9365
11
0.607156
21
20.945
0
LINE
8
Black
10
0.607156
20
20.945
11
0.612712
21
20.9546
0
LINE
8
Black
10
0.612712
20
20.9546
11
0.621224
21
20.9618
0
LINE
8
Black
10
0.621224
20
20.9618
11
0.628366
21
20.9703
0
LINE
8
Black
10
0.628366
20
20.9703
11
0.63799
21
20.9758
0
LINE
8
Black
10
0.63799
20
20.9758
11
0.6465
21
20.983
0
LINE
8
Black
10
0.6465
20
20.983
11
0.656939
21
20.9868
0
LINE
8
Black
10
0.656939
20
20.9868
11
0.666563
21
20.9923
0
LINE
8
Black
10
0.666563
20
20.9923
11
0.677505
21
20.9943
0
LINE
8
Black
10
0.677505
20
20.9943
11
0.687947
21
20.9981
0
LINE
8
Black
10
0.687947
20
20.9981
11
0.69906
21
20.9981
0
LINE
8
Black
10
0.69906
20
20.9981
11
0.71
21
21
0
LINE
8
Black
10
0.71
20
21
11
5.57376
21
21
0
LINE
8
Black
10
5.57376
20
21
11
5.57926
21
20.999
0
LINE
8
Black
10
7.978
20
9.229
11
7.978
21
8.729
0
LINE
8
Black
10
7.978
20
8.729
11
7.478
21
8.729
0
LINE
8
Black
10
7.478
20
8.729
11
7.478
21
8.30536
0
LINE
8
Black
10
7.478
20
8.30536
11
7.56235
21
8.221
0
LINE
8
Black
10
7.56235
20
8.221
11
8.07905
21
8.221
0
LINE
8
Black
10
8.07905
20
8.221
11
8.26576
21
8.29834
0
LINE
8
Black
10
8.26576
20
8.29834
11
8.40866
21
8.44124
0
LINE
8
Black
10
8.40866
20
8.44124
11
8.486
21
8.62795
0
LINE
8
Black
10
8.486
20
8.62795
11
8.486
21
9.14464
0
LINE
8
Black
10
8.486
20
9.14464
11
8.40164
21
9.229
0
LINE
8
Black
10
8.40164
20
9.229
11
7.978
21
9.229
0
LINE
8
Black
10
5.55436
20
9.229
11
5.47
21
9.14464
0
LINE
8
Black
10
5.47
20
9.14464
11
5.47
21
8.62795
0
LINE
8
Black
10
5.47
20
8.62795
11
5.54734
21
8.44124
0
LINE
8
Black
10
5.54734
20
8.44124
11
5.69024
21
8.29834
0
LINE
8
Black
10
5.69024
20
8.29834
11
5.87695
21
8.221
0
LINE
8
Black
10
5.87695
20
8.221
11
6.39364
21
8.221
0
LINE
8
Black
10
6.39364
20
8.221
11
6.478
21
8.30536
0
LINE
8
Black
10
6.478
20
8.30536
11
6.478
21
8.729
0
LINE
8
Black
10
6.478
20
8.729
11
5.978
21
8.729
0
LINE
8
Black
10
5.978
20
8.729
11
5.978
21
9.229
0
LINE
8
Black
10
5.978
20
9.229
11
5.55436
21
9.229
0
LINE
8
Black
10
17.349
20
9.243
11
17.349
21
8.743
0
LINE
8
Black
10
17.349
20
8.743
11
16.849
21
8.743
0
LINE
8
Black
10
16.849
20
8.743
11
16.849
21
8.31936
0
LINE
8
Black
10
16.849
20
8.31936
11
16.9334
21
8.235
0
LINE
8
Black
10
16.9334
20
8.235
11
17.45
21
8.235
0
LINE
8
Black
10
17.45
20
8.235
11
17.6368
21
8.31234
0
LINE
8
Black
10
17.6368
20
8.31234
11
17.7797
21
8.45524
0
LINE
8
Black
10
17.7797
20
8.45524
11
17.857
21
8.64195
0
LINE
8
Black
10
17.857
20
8.64195
11
17.857
21
9.15864
0
LINE
8
Black
10
17.857
20
9.15864
11
17.7726
21
9.243
0
LINE
8
Black
10
17.7726
20
9.243
11
17.349
21
9.243
0
LINE
8
Black
10
14.9254
20
9.243
11
14.841
21
9.15864
0
LINE
8
Black
10
14.841
20
9.15864
11
14.841
21
8.64195
0
LINE
8
Black
10
14.841
20
8.64195
11
14.9183
21
8.45524
0
LINE
8
Black
10
14.9183
20
8.45524
11
15.0612
21
8.31234
0
LINE
8
Black
10
15.0612
20
8.31234
11
15.248
21
8.235
0
LINE
8
Black
10
15.248
20
8.235
11
15.7646
21
8.235
0
LINE
8
Black
10
15.7646
20
8.235
11
15.849
21
8.31935
0
LINE
8
Black
10
15.849
20
8.31935
11
15.849
21
8.743
0
LINE
8
Black
10
15.849
20
8.743
11
15.349
21
8.743
0
LINE
8
Black
10
15.349
20
8.743
11
15.349
21
9.243
0
LINE
8
Black
10
15.349
20
9.243
11
14.9254
21
9.243
0
LINE
8
Black
10
22.027
20
10.794
11
22.027
21
10.294
0
LINE
8
Black
10
22.027
20
10.294
11
21.527
21
10.294
0
LINE
8
Black
10
21.527
20
10.294
11
21.527
21
9.87036
0
LINE
8
Black
10
21.527
20
9.87036
11
21.6114
21
9.786
0
LINE
8
Black
10
21.6114
20
9.786
11
22.128
21
9.786
0
LINE
8
Black
10
22.128
20
9.786
11
22.3148
21
9.86334
0
LINE
8
Black
10
22.3148
20
9.86334
11
22.4577
21
10.0062
0
LINE
8
Black
10
22.4577
20
10.0062
11
22.535
21
10.193
0
LINE
8
Black
10
22.535
20
10.193
11
22.535
21
10.7096
0
LINE
8
Black
10
22.535
20
10.7096
11
22.4506
21
10.794
0
LINE
8
Black
10
22.4506
20
10.794
11
22.027
21
10.794
0
LINE
8
Black
10
19.6034
20
10.794
11
19.519
21
10.7096
0
LINE
8
Black
10
19.519
20
10.7096
11
19.519
21
10.193
0
LINE
8
Black
10
19.519
20
10.193
11
19.5963
21
10.0062
0
LINE
8
Black
10
19.5963
20
10.0062
11
19.7392
21
9.86334
0
LINE
8
Black
10
19.7392
20
9.86334
11
19.926
21
9.786
0
LINE
8
Black
10
19.926
20
9.786
11
20.4426
21
9.786
0
LINE
8
Black
10
20.4426
20
9.786
11
20.527
21
9.87035
0
LINE
8
Black
10
20.527
20
9.87035
11
20.527
21
10.294
0
LINE
8
Black
10
20.527
20
10.294
11
20.027
21
10.294
0
LINE
8
Black
10
20.027
20
10.294
11
20.027
21
10.794
0
LINE
8
Black
10
20.027
20
10.794
11
19.6034
21
10.794
0
LINE
8
Black
10
12.653
20
10.806
11
12.653
21
10.306
0
LINE
8
Black
10
12.653
20
10.306
11
12.153
21
10.306
0
LINE
8
Black
10
12.153
20
10.306
11
12.153
21
9.88236
0
LINE
8
Black
10
12.153
20
9.88236
11
12.2374
21
9.798
0
LINE
8
Black
10
12.2374
20
9.798
11
12.754
21
9.798
0
LINE
8
Black
10
12.754
20
9.798
11
12.9408
21
9.87534
0
LINE
8
Black
10
12.9408
20
9.87534
11
13.0837
21
10.0182
0
LINE
8
Black
10
13.0837
20
10.0182
11
13.161
21
10.205
0
LINE
8
Black
10
13.161
20
10.205
11
13.161
21
10.7216
0
LINE
8
Black
10
13.161
20
10.7216
11
13.1031
21
10.7795
0
LINE
8
Black
10
13.1031
20
10.7795
11
13.1031
21
10.7795
0
LINE
8
Black
10
13.1031
20
10.7795
11
13.0766
21
10.806
0
LINE
8
Black
10
13.0766
20
10.806
11
12.653
21
10.806
0
LINE
8
Black
10
10.2294
20
10.806
11
10.145
21
10.7216
0
LINE
8
Black
10
10.145
20
10.7216
11
10.145
21
10.205
0
LINE
8
Black
10
10.145
20
10.205
11
10.2223
21
10.0182
0
LINE
8
Black
10
10.2223
20
10.0182
11
10.3652
21
9.87534
0
LINE
8
Black
10
10.3652
20
9.87534
11
10.552
21
9.798
0
LINE
8
Black
10
10.552
20
9.798
11
11.0686
21
9.798
0
LINE
8
Black
10
11.0686
20
9.798
11
11.153
21
9.88235
0
LINE
8
Black
10
11.153
20
9.88235
11
11.153
21
10.306
0
LINE
8
Black
10
11.153
20
10.306
11
10.653
21
10.306
0
LINE
8
Black
10
10.653
20
10.306
11
10.653
21
10.806
0
LINE
8
Black
10
10.653
20
10.806
11
10.2294
21
10.806
0
LINE
8
Black
10
7.56235
20
11.237
11
7.478
21
11.1526
0
LINE
8
Black
10
7.478
20
11.1526
11
7.478
21
10.729
0
LINE
8
Black
10
7.478
20
10.729
11
7.978
21
10.729
0
LINE
8
Black
10
7.978
20
10.729
11
7.978
21
10.229
0
LINE
8
Black
10
7.978
20
10.229
11
8.40164
21
10.229
0
LINE
8
Black
10
8.40164
20
10.229
11
8.486
21
10.3134
0
LINE
8
Black
10
8.486
20
10.3134
11
8.486
21
10.7743
0
LINE
8
Black
10
8.486
20
10.7743
11
8.486
21
10.83
0
LINE
8
Black
10
8.486
20
10.83
11
8.40866
21
11.0168
0
LINE
8
Black
10
8.40866
20
11.0168
11
8.26576
21
11.1597
0
LINE
8
Black
10
8.26576
20
11.1597
11
8.07905
21
11.237
0
LINE
8
Black
10
8.07905
20
11.237
11
7.56235
21
11.237
0
LINE
8
Black
10
5.87695
20
11.237
11
5.69024
21
11.1597
0
LINE
8
Black
10
5.69024
20
11.1597
11
5.54734
21
11.0168
0
LINE
8
Black
10
5.54734
20
11.0168
11
5.47
21
10.83
0
LINE
8
Black
10
5.47
20
10.83
11
5.47
21
10.3134
0
LINE
8
Black
10
5.47
20
10.3134
11
5.55436
21
10.229
0
LINE
8
Black
10
5.55436
20
10.229
11
5.978
21
10.229
0
LINE
8
Black
10
5.978
20
10.229
11
5.978
21
10.729
0
LINE
8
Black
10
5.978
20
10.729
11
6.478
21
10.729
0
LINE
8
Black
10
6.478
20
10.729
11
6.478
21
11.1526
0
LINE
8
Black
10
6.478
20
11.1526
11
6.39364
21
11.237
0
LINE
8
Black
10
6.39364
20
11.237
11
5.87695
21
11.237
0
LINE
8
Black
10
16.9334
20
11.251
11
16.849
21
11.1666
0
LINE
8
Black
10
16.849
20
11.1666
11
16.849
21
10.743
0
LINE
8
Black
10
16.849
20
10.743
11
17.349
21
10.743
0
LINE
8
Black
10
17.349
20
10.743
11
17.349
21
10.243
0
LINE
8
Black
10
17.349
20
10.243
11
17.7726
21
10.243
0
LINE
8
Black
10
17.7726
20
10.243
11
17.857
21
10.3274
0
LINE
8
Black
10
17.857
20
10.3274
11
17.857
21
10.7622
0
LINE
8
Black
10
17.857
20
10.7622
11
17.857
21
10.844
0
LINE
8
Black
10
17.857
20
10.844
11
17.7797
21
11.0308
0
LINE
8
Black
10
17.7797
20
11.0308
11
17.6368
21
11.1737
0
LINE
8
Black
10
17.6368
20
11.1737
11
17.45
21
11.251
0
LINE
8
Black
10
17.45
20
11.251
11
16.9334
21
11.251
0
LINE
8
Black
10
15.248
20
11.251
11
15.0612
21
11.1737
0
LINE
8
Black
10
15.0612
20
11.1737
11
14.9183
21
11.0308
0
LINE
8
Black
10
14.9183
20
11.0308
11
14.841
21
10.844
0
LINE
8
Black
10
14.841
20
10.844
11
14.841
21
10.3274
0
LINE
8
Black
10
14.841
20
10.3274
11
14.9254
21
10.243
0
LINE
8
Black
10
14.9254
20
10.243
11
15.349
21
10.243
0
LINE
8
Black
10
15.349
20
10.243
11
15.349
21
10.743
0
LINE
8
Black
10
15.349
20
10.743
11
15.849
21
10.743
0
LINE
8
Black
10
15.849
20
10.743
11
15.849
21
11.1666
0
LINE
8
Black
10
15.849
20
11.1666
11
15.7646
21
11.251
0
LINE
8
Black
10
15.7646
20
11.251
11
15.248
21
11.251
0
LINE
8
Black
10
21.6114
20
12.802
11
21.527
21
12.7176
0
LINE
8
Black
10
21.527
20
12.7176
11
21.527
21
12.294
0
LINE
8
Black
10
21.527
20
12.294
11
22.027
21
12.294
0
LINE
8
Black
10
22.027
20
12.294
11
22.027
21
11.794
0
LINE
8
Black
10
22.027
20
11.794
11
22.4506
21
11.794
0
LINE
8
Black
10
22.4506
20
11.794
11
22.535
21
11.8784
0
LINE
8
Black
10
22.535
20
11.8784
11
22.535
21
12.395
0
LINE
8
Black
10
22.535
20
12.395
11
22.4577
21
12.5818
0
LINE
8
Black
10
22.4577
20
12.5818
11
22.3148
21
12.7247
0
LINE
8
Black
10
22.3148
20
12.7247
11
22.128
21
12.802
0
LINE
8
Black
10
22.128
20
12.802
11
21.6114
21
12.802
0
LINE
8
Black
10
19.926
20
12.802
11
19.7392
21
12.7247
0
LINE
8
Black
10
19.7392
20
12.7247
11
19.5963
21
12.5818
0
LINE
8
Black
10
19.5963
20
12.5818
11
19.519
21
12.395
0
LINE
8
Black
10
19.519
20
12.395
11
19.519
21
11.8784
0
LINE
8
Black
10
19.519
20
11.8784
11
19.6034
21
11.794
0
LINE
8
Black
10
19.6034
20
11.794
11
20.027
21
11.794
0
LINE
8
Black
10
20.027
20
11.794
11
20.027
21
12.294
0
LINE
8
Black
10
20.027
20
12.294
11
20.527
21
12.294
0
LINE
8
Black
10
20.527
20
12.294
11
20.527
21
12.7176
0
LINE
8
Black
10
20.527
20
12.7176
11
20.4426
21
12.802
0
LINE
8
Black
10
20.4426
20
12.802
11
19.926
21
12.802
0
LINE
8
Black
10
12.2374
20
12.814
11
12.153
21
12.7296
0
LINE
8
Black
10
12.153
20
12.7296
11
12.153
21
12.306
0
LINE
8
Black
10
12.153
20
12.306
11
12.653
21
12.306
0
LINE
8
Black
10
12.653
20
12.306
11
12.653
21
11.806
0
LINE
8
Black
10
12.653
20
11.806
11
13.0766
21
11.806
0
LINE
8
Black
10
13.0766
20
11.806
11
13.161
21
11.8904
0
LINE
8
Black
10
13.161
20
11.8904
11
13.161
21
12.407
0
LINE
8
Black
10
13.161
20
12.407
11
13.0837
21
12.5938
0
LINE
8
Black
10
13.0837
20
12.5938
11
12.9408
21
12.7367
0
LINE
8
Black
10
12.9408
20
12.7367
11
12.754
21
12.814
0
LINE
8
Black
10
12.754
20
12.814
11
12.2374
21
12.814
0
LINE
8
Black
10
10.552
20
12.814
11
10.3652
21
12.7367
0
LINE
8
Black
10
10.3652
20
12.7367
11
10.2223
21
12.5938
0
LINE
8
Black
10
10.2223
20
12.5938
11
10.145
21
12.407
0
LINE
8
Black
10
10.145
20
12.407
11
10.145
21
11.8904
0
LINE
8
Black
10
10.145
20
11.8904
11
10.2294
21
11.806
0
LINE
8
Black
10
10.2294
20
11.806
11
10.653
21
11.806
0
LINE
8
Black
10
10.653
20
11.806
11
10.653
21
12.306
0
LINE
8
Black
10
10.653
20
12.306
11
11.153
21
12.306
0
LINE
8
Black
10
11.153
20
12.306
11
11.153
21
12.7296
0
LINE
8
Black
10
11.153
20
12.7296
11
11.0686
21
12.814
0
LINE
8
Black
10
11.0686
20
12.814
11
10.552
21
12.814
0
LINE
8
Black
10
17.347
20
16.194
11
17.347
21
15.694
0
LINE
8
Black
10
17.347
20
15.694
11
16.847
21
15.694
0
LINE
8
Black
10
16.847
20
15.694
11
16.847
21
15.2704
0
LINE
8
Black
10
16.847
20
15.2704
11
16.9314
21
15.186
0
LINE
8
Black
10
16.9314
20
15.186
11
17.448
21
15.186
0
LINE
8
Black
10
17.448
20
15.186
11
17.6348
21
15.2633
0
LINE
8
Black
10
17.6348
20
15.2633
11
17.7777
21
15.4062
0
LINE
8
Black
10
17.7777
20
15.4062
11
17.855
21
15.593
0
LINE
8
Black
10
17.855
20
15.593
11
17.855
21
16.1096
0
LINE
8
Black
10
17.855
20
16.1096
11
17.7706
21
16.194
0
LINE
8
Black
10
17.7706
20
16.194
11
17.347
21
16.194
0
LINE
8
Black
10
14.9234
20
16.194
11
14.839
21
16.1096
0
LINE
8
Black
10
14.839
20
16.1096
11
14.839
21
15.593
0
LINE
8
Black
10
14.839
20
15.593
11
14.9163
21
15.4062
0
LINE
8
Black
10
14.9163
20
15.4062
11
15.0592
21
15.2633
0
LINE
8
Black
10
15.0592
20
15.2633
11
15.246
21
15.186
0
LINE
8
Black
10
15.246
20
15.186
11
15.7626
21
15.186
0
LINE
8
Black
10
15.7626
20
15.186
11
15.847
21
15.2704
0
LINE
8
Black
10
15.847
20
15.2704
11
15.847
21
15.694
0
LINE
8
Black
10
15.847
20
15.694
11
15.347
21
15.694
0
LINE
8
Black
10
15.347
20
15.694
11
15.347
21
16.194
0
LINE
8
Black
10
15.347
20
16.194
11
14.9234
21
16.194
0
LINE
8
Black
10
7.973
20
16.206
11
7.973
21
15.706
0
LINE
8
Black
10
7.973
20
15.706
11
7.473
21
15.706
0
LINE
8
Black
10
7.473
20
15.706
11
7.473
21
15.2824
0
LINE
8
Black
10
7.473
20
15.2824
11
7.55735
21
15.198
0
LINE
8
Black
10
7.55735
20
15.198
11
8.07405
21
15.198
0
LINE
8
Black
10
8.07405
20
15.198
11
8.26076
21
15.2753
0
LINE
8
Black
10
8.26076
20
15.2753
11
8.40366
21
15.4182
0
LINE
8
Black
10
8.40366
20
15.4182
11
8.481
21
15.605
0
LINE
8
Black
10
8.481
20
15.605
11
8.481
21
16.1216
0
LINE
8
Black
10
8.481
20
16.1216
11
8.39664
21
16.206
0
LINE
8
Black
10
8.39664
20
16.206
11
7.973
21
16.206
0
LINE
8
Black
10
5.54935
20
16.206
11
5.465
21
16.1216
0
LINE
8
Black
10
5.465
20
16.1216
11
5.465
21
15.605
0
LINE
8
Black
10
5.465
20
15.605
11
5.54234
21
15.4182
0
LINE
8
Black
10
5.54234
20
15.4182
11
5.68524
21
15.2753
0
LINE
8
Black
10
5.68524
20
15.2753
11
5.87195
21
15.198
0
LINE
8
Black
10
5.87195
20
15.198
11
6.38864
21
15.198
0
LINE
8
Black
10
6.38864
20
15.198
11
6.473
21
15.2824
0
LINE
8
Black
10
6.473
20
15.2824
11
6.473
21
15.706
0
LINE
8
Black
10
6.473
20
15.706
11
5.973
21
15.706
0
LINE
8
Black
10
5.973
20
15.706
11
5.973
21
16.206
0
LINE
8
Black
10
5.973
20
16.206
11
5.54935
21
16.206
0
LINE
8
Black
10
12.651
20
17.757
11
12.651
21
17.257
0
LINE
8
Black
10
12.651
20
17.257
11
12.151
21
17.257
0
LINE
8
Black
10
12.151
20
17.257
11
12.151
21
16.8334
0
LINE
8
Black
10
12.151
20
16.8334
11
12.2354
21
16.749
0
LINE
8
Black
10
12.2354
20
16.749
11
12.752
21
16.749
0
LINE
8
Black
10
12.752
20
16.749
11
12.9388
21
16.8263
0
LINE
8
Black
10
12.9388
20
16.8263
11
13.0817
21
16.9692
0
LINE
8
Black
10
13.0817
20
16.9692
11
13.159
21
17.156
0
LINE
8
Black
10
13.159
20
17.156
11
13.159
21
17.6726
0
LINE
8
Black
10
13.159
20
17.6726
11
13.1011
21
17.7305
0
LINE
8
Black
10
13.1011
20
17.7305
11
13.1011
21
17.7305
0
LINE
8
Black
10
13.1011
20
17.7305
11
13.0746
21
17.757
0
LINE
8
Black
10
13.0746
20
17.757
11
12.651
21
17.757
0
LINE
8
Black
10
10.2274
20
17.757
11
10.143
21
17.6726
0
LINE
8
Black
10
10.143
20
17.6726
11
10.143
21
17.156
0
LINE
8
Black
10
10.143
20
17.156
11
10.2203
21
16.9692
0
LINE
8
Black
10
10.2203
20
16.9692
11
10.3632
21
16.8263
0
LINE
8
Black
10
10.3632
20
16.8263
11
10.55
21
16.749
0
LINE
8
Black
10
10.55
20
16.749
11
11.0666
21
16.749
0
LINE
8
Black
10
11.0666
20
16.749
11
11.151
21
16.8334
0
LINE
8
Black
10
11.151
20
16.8334
11
11.151
21
17.257
0
LINE
8
Black
10
11.151
20
17.257
11
10.651
21
17.257
0
LINE
8
Black
10
10.651
20
17.257
11
10.651
21
17.757
0
LINE
8
Black
10
10.651
20
17.757
11
10.2274
21
17.757
0
LINE
8
Black
10
22.022
20
17.771
11
22.022
21
17.271
0
LINE
8
Black
10
22.022
20
17.271
11
21.522
21
17.271
0
LINE
8
Black
10
21.522
20
17.271
11
21.522
21
16.8474
0
LINE
8
Black
10
21.522
20
16.8474
11
21.6064
21
16.763
0
LINE
8
Black
10
21.6064
20
16.763
11
22.123
21
16.763
0
LINE
8
Black
10
22.123
20
16.763
11
22.3098
21
16.8403
0
LINE
8
Black
10
22.3098
20
16.8403
11
22.4527
21
16.9832
0
LINE
8
Black
10
22.4527
20
16.9832
11
22.53
21
17.17
0
LINE
8
Black
10
22.53
20
17.17
11
22.53
21
17.6866
0
LINE
8
Black
10
22.53
20
17.6866
11
22.4456
21
17.771
0
LINE
8
Black
10
22.4456
20
17.771
11
22.022
21
17.771
0
LINE
8
Black
10
19.5984
20
17.771
11
19.514
21
17.6866
0
LINE
8
Black
10
19.514
20
17.6866
11
19.514
21
17.17
0
LINE
8
Black
10
19.514
20
17.17
11
19.5913
21
16.9832
0
LINE
8
Black
10
19.5913
20
16.9832
11
19.7342
21
16.8403
0
LINE
8
Black
10
19.7342
20
16.8403
11
19.921
21
16.763
0
LINE
8
Black
10
19.921
20
16.763
11
20.4376
21
16.763
0
LINE
8
Black
10
20.4376
20
16.763
11
20.522
21
16.8474
0
LINE
8
Black
10
20.522
20
16.8474
11
20.522
21
17.271
0
LINE
8
Black
10
20.522
20
17.271
11
20.022
21
17.271
0
LINE
8
Black
10
20.022
20
17.271
11
20.022
21
17.771
0
LINE
8
Black
10
20.022
20
17.771
11
19.5984
21
17.771
0
LINE
8
Black
10
16.9314
20
18.202
11
16.847
21
18.1176
0
LINE
8
Black
10
16.847
20
18.1176
11
16.847
21
17.694
0
LINE
8
Black
10
16.847
20
17.694
11
17.347
21
17.694
0
LINE
8
Black
10
17.347
20
17.694
11
17.347
21
17.194
0
LINE
8
Black
10
17.347
20
17.194
11
17.7706
21
17.194
0
LINE
8
Black
10
17.7706
20
17.194
11
17.855
21
17.2784
0
LINE
8
Black
10
17.855
20
17.2784
11
17.855
21
17.7392
0
LINE
8
Black
10
17.855
20
17.7392
11
17.855
21
17.795
0
LINE
8
Black
10
17.855
20
17.795
11
17.7777
21
17.9818
0
LINE
8
Black
10
17.7777
20
17.9818
11
17.6348
21
18.1247
0
LINE
8
Black
10
17.6348
20
18.1247
11
17.448
21
18.202
0
LINE
8
Black
10
17.448
20
18.202
11
16.9314
21
18.202
0
LINE
8
Black
10
15.246
20
18.202
11
15.0592
21
18.1247
0
LINE
8
Black
10
15.0592
20
18.1247
11
14.9163
21
17.9818
0
LINE
8
Black
10
14.9163
20
17.9818
11
14.839
21
17.795
0
LINE
8
Black
10
14.839
20
17.795
11
14.839
21
17.2784
0
LINE
8
Black
10
14.839
20
17.2784
11
14.9234
21
17.194
0
LINE
8
Black
10
14.9234
20
17.194
11
15.347
21
17.194
0
LINE
8
Black
10
15.347
20
17.194
11
15.347
21
17.694
0
LINE
8
Black
10
15.347
20
17.694
11
15.847
21
17.694
0
LINE
8
Black
10
15.847
20
17.694
11
15.847
21
18.1176
0
LINE
8
Black
10
15.847
20
18.1176
11
15.7626
21
18.202
0
LINE
8
Black
10
15.7626
20
18.202
11
15.246
21
18.202
0
LINE
8
Black
10
7.55735
20
18.214
11
7.473
21
18.1296
0
LINE
8
Black
10
7.473
20
18.1296
11
7.473
21
17.706
0
LINE
8
Black
10
7.473
20
17.706
11
7.973
21
17.706
0
LINE
8
Black
10
7.973
20
17.706
11
7.973
21
17.206
0
LINE
8
Black
10
7.973
20
17.206
11
8.39664
21
17.206
0
LINE
8
Black
10
8.39664
20
17.206
11
8.481
21
17.2904
0
LINE
8
Black
10
8.481
20
17.2904
11
8.481
21
17.7252
0
LINE
8
Black
10
8.481
20
17.7252
11
8.481
21
17.807
0
LINE
8
Black
10
8.481
20
17.807
11
8.40366
21
17.9938
0
LINE
8
Black
10
8.40366
20
17.9938
11
8.26076
21
18.1367
0
LINE
8
Black
10
8.26076
20
18.1367
11
8.07405
21
18.214
0
LINE
8
Black
10
8.07405
20
18.214
11
7.55735
21
18.214
0
LINE
8
Black
10
5.87195
20
18.214
11
5.68524
21
18.1367
0
LINE
8
Black
10
5.68524
20
18.1367
11
5.54234
21
17.9938
0
LINE
8
Black
10
5.54234
20
17.9938
11
5.465
21
17.807
0
LINE
8
Black
10
5.465
20
17.807
11
5.465
21
17.2904
0
LINE
8
Black
10
5.465
20
17.2904
11
5.54935
21
17.206
0
LINE
8
Black
10
5.54935
20
17.206
11
5.973
21
17.206
0
LINE
8
Black
10
5.973
20
17.206
11
5.973
21
17.706
0
LINE
8
Black
10
5.973
20
17.706
11
6.473
21
17.706
0
LINE
8
Black
10
6.473
20
17.706
11
6.473
21
18.1296
0
LINE
8
Black
10
6.473
20
18.1296
11
6.38864
21
18.214
0
LINE
8
Black
10
6.38864
20
18.214
11
5.87195
21
18.214
0
LINE
8
Black
10
12.2354
20
19.765
11
12.151
21
19.6806
0
LINE
8
Black
10
12.151
20
19.6806
11
12.151
21
19.257
0
LINE
8
Black
10
12.151
20
19.257
11
12.651
21
19.257
0
LINE
8
Black
10
12.651
20
19.257
11
12.651
21
18.757
0
LINE
8
Black
10
12.651
20
18.757
11
13.0746
21
18.757
0
LINE
8
Black
10
13.0746
20
18.757
11
13.159
21
18.8414
0
LINE
8
Black
10
13.159
20
18.8414
11
13.159
21
19.358
0
LINE
8
Black
10
13.159
20
19.358
11
13.0817
21
19.5448
0
LINE
8
Black
10
13.0817
20
19.5448
11
12.9388
21
19.6877
0
LINE
8
Black
10
12.9388
20
19.6877
11
12.752
21
19.765
0
LINE
8
Black
10
12.752
20
19.765
11
12.2354
21
19.765
0
LINE
8
Black
10
10.55
20
19.765
11
10.3632
21
19.6877
0
LINE
8
Black
10
10.3632
20
19.6877
11
10.2203
21
19.5448
0
LINE
8
Black
10
10.2203
20
19.5448
11
10.143
21
19.358
0
LINE
8
Black
10
10.143
20
19.358
11
10.143
21
18.8414
0
LINE
8
Black
10
10.143
20
18.8414
11
10.2274
21
18.757
0
LINE
8
Black
10
10.2274
20
18.757
11
10.651
21
18.757
0
LINE
8
Black
10
10.651
20
18.757
11
10.651
21
19.257
0
LINE
8
Black
10
10.651
20
19.257
11
11.151
21
19.257
0
LINE
8
Black
10
11.151
20
19.257
11
11.151
21
19.6806
0
LINE
8
Black
10
11.151
20
19.6806
11
11.0666
21
19.765
0
LINE
8
Black
10
11.0666
20
19.765
11
10.55
21
19.765
0
LINE
8
Black
10
21.6064
20
19.779
11
21.522
21
19.6946
0
LINE
8
Black
10
21.522
20
19.6946
11
21.522
21
19.271
0
LINE
8
Black
10
21.522
20
19.271
11
22.022
21
19.271
0
LINE
8
Black
10
22.022
20
19.271
11
22.022
21
18.771
0
LINE
8
Black
10
22.022
20
18.771
11
22.4456
21
18.771
0
LINE
8
Black
10
22.4456
20
18.771
11
22.53
21
18.8554
0
LINE
8
Black
10
22.53
20
18.8554
11
22.53
21
19.372
0
LINE
8
Black
10
22.53
20
19.372
11
22.4527
21
19.5588
0
LINE
8
Black
10
22.4527
20
19.5588
11
22.3098
21
19.7017
0
LINE
8
Black
10
22.3098
20
19.7017
11
22.123
21
19.779
0
LINE
8
Black
10
22.123
20
19.779
11
21.6064
21
19.779
0
LINE
8
Black
10
19.921
20
19.779
11
19.7342
21
19.7017
0
LINE
8
Black
10
19.7342
20
19.7017
11
19.5913
21
19.5588
0
LINE
8
Black
10
19.5913
20
19.5588
11
19.514
21
19.372
0
LINE
8
Black
10
19.514
20
19.372
11
19.514
21
18.8554
0
LINE
8
Black
10
19.514
20
18.8554
11
19.5984
21
18.771
0
LINE
8
Black
10
19.5984
20
18.771
11
20.022
21
18.771
0
LINE
8
Black
10
20.022
20
18.771
11
20.022
21
19.271
0
LINE
8
Black
10
20.022
20
19.271
11
20.522
21
19.271
0
LINE
8
Black
10
20.522
20
19.271
11
20.522
21
19.6946
0
LINE
8
Black
10
20.522
20
19.6946
11
20.4376
21
19.779
0
LINE
8
Black
10
20.4376
20
19.779
11
19.921
21
19.779
0
LINE
8
Black
10
20
20
25.35
11
18.5
21
25.35
0
LINE
8
Black
10
18.5
20
25.35
11
18.5
21
22.927
0
LINE
8
Black
10
18.5
20
22.927
11
18.4924
21
22.8837
0
LINE
8
Black
10
18.4924
20
22.8837
11
18.4962
21
22.8398
0
LINE
8
Black
10
18.4962
20
22.8398
11
18.4624
21
22.7137
0
LINE
8
Black
10
18.4624
20
22.7137
11
18.4397
21
22.585
0
LINE
8
Black
10
18.4397
20
22.585
11
18.4177
21
22.5469
0
LINE
8
Black
10
18.4177
20
22.5469
11
18.4063
21
22.5044
0
LINE
8
Black
10
18.4063
20
22.5044
11
18.3314
21
22.3974
0
LINE
8
Black
10
18.3314
20
22.3974
11
18.266
21
22.2842
0
LINE
8
Black
10
18.266
20
22.2842
11
18.2323
21
22.2559
0
LINE
8
Black
10
18.2323
20
22.2559
11
18.2071
21
22.2199
0
LINE
8
Black
10
18.2071
20
22.2199
11
17.0541
21
21.0669
0
LINE
8
Black
10
17.0541
20
21.0669
11
16.9746
21
21.0112
0
LINE
8
Black
10
16.9746
20
21.0112
11
16.847
21
20.9042
0
LINE
8
Black
10
16.847
20
20.9042
11
16.7943
21
20.885
0
LINE
8
Black
10
16.7943
20
20.885
11
16.7696
21
20.8677
0
LINE
8
Black
10
16.7696
20
20.8677
11
16.6832
21
20.8445
0
LINE
8
Black
10
16.6832
20
20.8445
11
16.5206
21
20.7854
0
LINE
8
Black
10
16.5206
20
20.7854
11
16.4624
21
20.7854
0
LINE
8
Black
10
16.4624
20
20.7854
11
16.4342
21
20.7778
0
LINE
8
Black
10
16.4342
20
20.7778
11
16.3477
21
20.7854
0
LINE
8
Black
10
16.3477
20
20.7854
11
16.1734
21
20.7854
0
LINE
8
Black
10
16.1734
20
20.7854
11
16.1182
21
20.8054
0
LINE
8
Black
10
16.1182
20
20.8054
11
16.0882
21
20.8081
0
LINE
8
Black
10
16.0882
20
20.8081
11
16.0071
21
20.8459
0
LINE
8
Black
10
16.0071
20
20.8459
11
15.847
21
20.9042
0
LINE
8
Black
10
15.847
20
20.9042
11
15.8031
21
20.941
0
LINE
8
Black
10
15.8031
20
20.941
11
15.7734
21
20.9548
0
LINE
8
Black
10
15.7734
20
20.9548
11
15.7048
21
21.0235
0
LINE
8
Black
10
15.7048
20
21.0235
11
15.581
21
21.1274
0
LINE
8
Black
10
15.581
20
21.1274
11
15.5537
21
21.1745
0
LINE
8
Black
10
15.5537
20
21.1745
11
15.5278
21
21.2004
0
LINE
8
Black
10
15.5278
20
21.2004
11
15.4819
21
21.299
0
LINE
8
Black
10
15.4819
20
21.299
11
15.4073
21
21.4282
0
LINE
8
Black
10
15.4073
20
21.4282
11
15.3986
21
21.4776
0
LINE
8
Black
10
15.3986
20
21.4776
11
15.3811
21
21.5152
0
LINE
8
Black
10
15.3811
20
21.5152
11
15.3704
21
21.6378
0
LINE
8
Black
10
15.3704
20
21.6378
11
15.347
21
21.7702
0
LINE
8
Black
10
15.347
20
21.7702
11
15.347
21
21.7778
0
LINE
8
Black
10
15.347
20
21.7778
11
15.3544
21
21.8199
0
LINE
8
Black
10
15.3544
20
21.8199
11
15.3508
21
21.8612
0
LINE
8
Black
10
15.3508
20
21.8612
11
15.3826
21
21.98
0
LINE
8
Black
10
15.3826
20
21.98
11
15.4073
21
22.1198
0
LINE
8
Black
10
15.4073
20
22.1198
11
15.4312
21
22.1612
0
LINE
8
Black
10
15.4312
20
22.1612
11
15.4407
21
22.1966
0
LINE
8
Black
10
15.4407
20
22.1966
11
15.5031
21
22.2857
0
LINE
8
Black
10
15.5031
20
22.2857
11
15.581
21
22.4206
0
LINE
8
Black
10
15.581
20
22.4206
11
15.6211
21
22.4543
0
LINE
8
Black
10
15.6211
20
22.4543
11
15.6399
21
22.4811
0
LINE
8
Black
10
15.6399
20
22.4811
11
16.5
21
23.3412
0
LINE
8
Black
10
16.5
20
23.3412
11
16.5
21
25.35
0
LINE
8
Black
10
16.5
20
25.35
11
15
21
25.35
0
LINE
8
Black
10
15
20
25.35
11
15
21
27.65
0
LINE
8
Black
10
15
20
27.65
11
20
21
27.65
0
LINE
8
Black
10
20
20
27.65
11
20
21
25.35
0
LINE
8
Black
10
6.5
20
25.35
11
5
21
25.35
0
LINE
8
Black
10
5
20
25.35
11
5
21
25.1732
0
LINE
8
Black
10
5
20
25.1732
11
7.68011
21
22.4931
0
LINE
8
Black
10
7.68011
20
22.4931
11
7.69886
21
22.4663
0
LINE
8
Black
10
7.69886
20
22.4663
11
7.73904
21
22.4326
0
LINE
8
Black
10
7.73904
20
22.4326
11
7.81694
21
22.2977
0
LINE
8
Black
10
7.81694
20
22.2977
11
7.87931
21
22.2086
0
LINE
8
Black
10
7.87931
20
22.2086
11
7.88878
21
22.1732
0
LINE
8
Black
10
7.88878
20
22.1732
11
7.91269
21
22.1318
0
LINE
8
Black
10
7.91269
20
22.1318
11
7.93735
21
21.992
0
LINE
8
Black
10
7.93735
20
21.992
11
7.9692
21
21.8732
0
LINE
8
Black
10
7.9692
20
21.8732
11
7.96558
21
21.8319
0
LINE
8
Black
10
7.96558
20
21.8319
11
7.973
21
21.7898
0
LINE
8
Black
10
7.973
20
21.7898
11
7.973
21
21.7822
0
LINE
8
Black
10
7.973
20
21.7822
11
7.94965
21
21.6498
0
LINE
8
Black
10
7.94965
20
21.6498
11
7.93893
21
21.5272
0
LINE
8
Black
10
7.93893
20
21.5272
11
7.92142
21
21.4896
0
LINE
8
Black
10
7.92142
20
21.4896
11
7.91269
21
21.4402
0
LINE
8
Black
10
7.91269
20
21.4402
11
7.83811
21
21.311
0
LINE
8
Black
10
7.83811
20
21.311
11
7.79215
21
21.2124
0
LINE
8
Black
10
7.79215
20
21.2124
11
7.76626
21
21.1865
0
LINE
8
Black
10
7.76626
20
21.1865
11
7.73904
21
21.1394
0
LINE
8
Black
10
7.73904
20
21.1394
11
7.61522
21
21.0355
0
LINE
8
Black
10
7.61522
20
21.0355
11
7.54658
21
20.9668
0
LINE
8
Black
10
7.54658
20
20.9668
11
7.51695
21
20.953
0
LINE
8
Black
10
7.51695
20
20.953
11
7.473
21
20.9162
0
LINE
8
Black
10
7.473
20
20.9162
11
7.3129
21
20.8579
0
LINE
8
Black
10
7.3129
20
20.8579
11
7.23182
21
20.8201
0
LINE
8
Black
10
7.23182
20
20.8201
11
7.20181
21
20.8174
0
LINE
8
Black
10
7.20181
20
20.8174
11
7.14665
21
20.7974
0
LINE
8
Black
10
7.14665
20
20.7974
11
6.97234
21
20.7974
0
LINE
8
Black
10
6.97234
20
20.7974
11
6.88584
21
20.7898
0
LINE
8
Black
10
6.88584
20
20.7898
11
6.8576
21
20.7974
0
LINE
8
Black
10
6.8576
20
20.7974
11
6.79935
21
20.7974
0
LINE
8
Black
10
6.79935
20
20.7974
11
6.6368
21
20.8565
0
LINE
8
Black
10
6.6368
20
20.8565
11
6.55038
21
20.8797
0
LINE
8
Black
10
6.55038
20
20.8797
11
6.5257
21
20.897
0
LINE
8
Black
10
6.5257
20
20.897
11
6.473
21
20.9162
0
LINE
8
Black
10
6.473
20
20.9162
11
6.34542
21
21.0232
0
LINE
8
Black
10
6.34542
20
21.0232
11
6.26589
21
21.0789
0
LINE
8
Black
10
6.26589
20
21.0789
11
3.29289
21
24.0519
0
LINE
8
Black
10
3.29289
20
24.0519
11
3.26766
21
24.0879
0
LINE
8
Black
10
3.26766
20
24.0879
11
3.23396
21
24.1162
0
LINE
8
Black
10
3.23396
20
24.1162
11
3.16863
21
24.2294
0
LINE
8
Black
10
3.16863
20
24.2294
11
3.09369
21
24.3364
0
LINE
8
Black
10
3.09369
20
24.3364
11
3.0823
21
24.3789
0
LINE
8
Black
10
3.0823
20
24.3789
11
3.06031
21
24.417
0
LINE
8
Black
10
3.06031
20
24.417
11
3.03762
21
24.5456
0
LINE
8
Black
10
3.03762
20
24.5456
11
3.0038
21
24.6718
0
LINE
8
Black
10
3.0038
20
24.6718
11
3.00764
21
24.7157
0
LINE
8
Black
10
3.00764
20
24.7157
11
3
21
24.759
0
LINE
8
Black
10
3
20
24.759
11
3
21
25.35
0
LINE
8
Black
10
3
20
25.35
11
1.5
21
25.35
0
LINE
8
Black
10
1.5
20
25.35
11
1.5
21
27.65
0
LINE
8
Black
10
1.5
20
27.65
11
6.5
21
27.65
0
LINE
8
Black
10
6.5
20
27.65
11
6.5
21
25.35
0
LINE
8
Black
10
13
20
25.35
11
11.5
21
25.35
0
LINE
8
Black
10
11.5
20
25.35
11
11.5
21
24.9022
0
LINE
8
Black
10
11.5
20
24.9022
11
12.3581
21
24.0441
0
LINE
8
Black
10
12.3581
20
24.0441
11
12.3769
21
24.0173
0
LINE
8
Black
10
12.3769
20
24.0173
11
12.417
21
23.9836
0
LINE
8
Black
10
12.417
20
23.9836
11
12.4949
21
23.8487
0
LINE
8
Black
10
12.4949
20
23.8487
11
12.5573
21
23.7596
0
LINE
8
Black
10
12.5573
20
23.7596
11
12.5668
21
23.7242
0
LINE
8
Black
10
12.5668
20
23.7242
11
12.5907
21
23.6828
0
LINE
8
Black
10
12.5907
20
23.6828
11
12.6153
21
23.543
0
LINE
8
Black
10
12.6153
20
23.543
11
12.6472
21
23.4242
0
LINE
8
Black
10
12.6472
20
23.4242
11
12.6436
21
23.3829
0
LINE
8
Black
10
12.6436
20
23.3829
11
12.651
21
23.3408
0
LINE
8
Black
10
12.651
20
23.3408
11
12.651
21
23.3332
0
LINE
8
Black
10
12.651
20
23.3332
11
12.6276
21
23.2008
0
LINE
8
Black
10
12.6276
20
23.2008
11
12.6169
21
23.0782
0
LINE
8
Black
10
12.6169
20
23.0782
11
12.5994
21
23.0406
0
LINE
8
Black
10
12.5994
20
23.0406
11
12.5907
21
22.9912
0
LINE
8
Black
10
12.5907
20
22.9912
11
12.5161
21
22.862
0
LINE
8
Black
10
12.5161
20
22.862
11
12.4702
21
22.7634
0
LINE
8
Black
10
12.4702
20
22.7634
11
12.4443
21
22.7375
0
LINE
8
Black
10
12.4443
20
22.7375
11
12.417
21
22.6904
0
LINE
8
Black
10
12.417
20
22.6904
11
12.2932
21
22.5865
0
LINE
8
Black
10
12.2932
20
22.5865
11
12.2246
21
22.5178
0
LINE
8
Black
10
12.2246
20
22.5178
11
12.1949
21
22.504
0
LINE
8
Black
10
12.1949
20
22.504
11
12.151
21
22.4672
0
LINE
8
Black
10
12.151
20
22.4672
11
11.9909
21
22.4089
0
LINE
8
Black
10
11.9909
20
22.4089
11
11.9098
21
22.3711
0
LINE
8
Black
10
11.9098
20
22.3711
11
11.8798
21
22.3684
0
LINE
8
Black
10
11.8798
20
22.3684
11
11.8246
21
22.3484
0
LINE
8
Black
10
11.8246
20
22.3484
11
11.6503
21
22.3484
0
LINE
8
Black
10
11.6503
20
22.3484
11
11.5638
21
22.3408
0
LINE
8
Black
10
11.5638
20
22.3408
11
11.5356
21
22.3484
0
LINE
8
Black
10
11.5356
20
22.3484
11
11.4774
21
22.3484
0
LINE
8
Black
10
11.4774
20
22.3484
11
11.3148
21
22.4075
0
LINE
8
Black
10
11.3148
20
22.4075
11
11.2284
21
22.4307
0
LINE
8
Black
10
11.2284
20
22.4307
11
11.2037
21
22.448
0
LINE
8
Black
10
11.2037
20
22.448
11
11.151
21
22.4672
0
LINE
8
Black
10
11.151
20
22.4672
11
11.0234
21
22.5742
0
LINE
8
Black
10
11.0234
20
22.5742
11
10.9439
21
22.6299
0
LINE
8
Black
10
10.9439
20
22.6299
11
9.79289
21
23.7809
0
LINE
8
Black
10
9.79289
20
23.7809
11
9.76766
21
23.8169
0
LINE
8
Black
10
9.76766
20
23.8169
11
9.73396
21
23.8452
0
LINE
8
Black
10
9.73396
20
23.8452
11
9.66863
21
23.9584
0
LINE
8
Black
10
9.66863
20
23.9584
11
9.59369
21
24.0654
0
LINE
8
Black
10
9.59369
20
24.0654
11
9.5823
21
24.1079
0
LINE
8
Black
10
9.5823
20
24.1079
11
9.56031
21
24.146
0
LINE
8
Black
10
9.56031
20
24.146
11
9.53762
21
24.2746
0
LINE
8
Black
10
9.53762
20
24.2746
11
9.5038
21
24.4008
0
LINE
8
Black
10
9.5038
20
24.4008
11
9.50764
21
24.4447
0
LINE
8
Black
10
9.50764
20
24.4447
11
9.5
21
24.488
0
LINE
8
Black
10
9.5
20
24.488
11
9.5
21
25.35
0
LINE
8
Black
10
9.5
20
25.35
11
8
21
25.35
0
LINE
8
Black
10
8
20
25.35
11
8
21
27.65
0
LINE
8
Black
10
8
20
27.65
11
13
21
27.65
0
LINE
8
Black
10
13
20
27.65
11
13
21
25.35
0
LINE
8
Black
10
26.5
20
25.35
11
24.4352
21
25.35
0
LINE
8
Black
10
24.4352
20
25.35
11
21.7291
21
22.6439
0
LINE
8
Black
10
21.7291
20
22.6439
11
21.6496
21
22.5882
0
LINE
8
Black
10
21.6496
20
22.5882
11
21.522
21
22.4812
0
LINE
8
Black
10
21.522
20
22.4812
11
21.4693
21
22.462
0
LINE
8
Black
10
21.4693
20
22.462
11
21.4446
21
22.4447
0
LINE
8
Black
10
21.4446
20
22.4447
11
21.3582
21
22.4215
0
LINE
8
Black
10
21.3582
20
22.4215
11
21.1956
21
22.3624
0
LINE
8
Black
10
21.1956
20
22.3624
11
21.1374
21
22.3624
0
LINE
8
Black
10
21.1374
20
22.3624
11
21.1092
21
22.3548
0
LINE
8
Black
10
21.1092
20
22.3548
11
21.0227
21
22.3624
0
LINE
8
Black
10
21.0227
20
22.3624
11
20.8484
21
22.3624
0
LINE
8
Black
10
20.8484
20
22.3624
11
20.7932
21
22.3824
0
LINE
8
Black
10
20.7932
20
22.3824
11
20.7632
21
22.3851
0
LINE
8
Black
10
20.7632
20
22.3851
11
20.6821
21
22.4229
0
LINE
8
Black
10
20.6821
20
22.4229
11
20.522
21
22.4812
0
LINE
8
Black
10
20.522
20
22.4812
11
20.4781
21
22.518
0
LINE
8
Black
10
20.4781
20
22.518
11
20.4484
21
22.5318
0
LINE
8
Black
10
20.4484
20
22.5318
11
20.3798
21
22.6005
0
LINE
8
Black
10
20.3798
20
22.6005
11
20.256
21
22.7044
0
LINE
8
Black
10
20.256
20
22.7044
11
20.2287
21
22.7515
0
LINE
8
Black
10
20.2287
20
22.7515
11
20.2028
21
22.7774
0
LINE
8
Black
10
20.2028
20
22.7774
11
20.1569
21
22.876
0
LINE
8
Black
10
20.1569
20
22.876
11
20.0823
21
23.0052
0
LINE
8
Black
10
20.0823
20
23.0052
11
20.0736
21
23.0546
0
LINE
8
Black
10
20.0736
20
23.0546
11
20.0561
21
23.0922
0
LINE
8
Black
10
20.0561
20
23.0922
11
20.0453
21
23.2148
0
LINE
8
Black
10
20.0453
20
23.2148
11
20.022
21
23.3472
0
LINE
8
Black
10
20.022
20
23.3472
11
20.022
21
23.3548
0
LINE
8
Black
10
20.022
20
23.3548
11
20.0294
21
23.3969
0
LINE
8
Black
10
20.0294
20
23.3969
11
20.0258
21
23.4382
0
LINE
8
Black
10
20.0258
20
23.4382
11
20.0576
21
23.557
0
LINE
8
Black
10
20.0576
20
23.557
11
20.0823
21
23.6968
0
LINE
8
Black
10
20.0823
20
23.6968
11
20.1062
21
23.7382
0
LINE
8
Black
10
20.1062
20
23.7382
11
20.1157
21
23.7736
0
LINE
8
Black
10
20.1157
20
23.7736
11
20.1781
21
23.8627
0
LINE
8
Black
10
20.1781
20
23.8627
11
20.256
21
23.9976
0
LINE
8
Black
10
20.256
20
23.9976
11
20.2961
21
24.0313
0
LINE
8
Black
10
20.2961
20
24.0313
11
20.3149
21
24.0581
0
LINE
8
Black
10
20.3149
20
24.0581
11
21.6068
21
25.35
0
LINE
8
Black
10
21.6068
20
25.35
11
21.5
21
25.35
0
LINE
8
Black
10
21.5
20
25.35
11
21.5
21
27.65
0
LINE
8
Black
10
21.5
20
27.65
11
26.5
21
27.65
0
LINE
8
Black
10
26.5
20
27.65
11
26.5
21
25.35
  0
ENDSEC
  0
EOF
