  0
SECTION
  2
HEADER
  9
$ANGBASE
  50
0.0
  9
$ANGDIR
  70
  1
  9
$MEASUREMENT
  70
0
  0
ENDSEC
  0
SECTION
  2
TABLES
  0
TABLE
  2
LTYPE
  70
1
  0
LTYPE
  2
CONTINUOUS
  70
0
  3
Solid line
  72
65
  73
0
  40
0.0
  0
ENDTAB
  0
TABLE
  2
STYLE
  70
4
  0
STYLE
  2
KICAD
  70
0
  40
0
  41
1
  42
1
  50
0
  71
0
  3
isocp.shx
  0
STYLE
  2
KICADB
  70
0
  40
0
  41
1
  42
1
  50
0
  71
0
  3
isocp.shx
  0
STYLE
  2
KICADI
  70
0
  40
0
  41
1
  42
1
  50
15
  71
0
  3
isocp.shx
  0
STYLE
  2
KICADBI
  70
0
  40
0
  41
1
  42
1
  50
15
  71
0
  3
isocp.shx
  0
ENDTAB
  0
TABLE
  2
LAYER
  70
30
  0
LAYER
  2
BLACK
  70
0
  62
7
  6
CONTINUOUS
  0
LAYER
  2
GRAY1
  70
0
  62
251
  6
CONTINUOUS
  0
LAYER
  2
GRAY2
  70
0
  62
8
  6
CONTINUOUS
  0
LAYER
  2
GRAY3
  70
0
  62
9
  6
CONTINUOUS
  0
LAYER
  2
WHITE
  70
0
  62
7
  6
CONTINUOUS
  0
LAYER
  2
LYELLOW
  70
0
  62
51
  6
CONTINUOUS
  0
LAYER
  2
BLUE1
  70
0
  62
178
  6
CONTINUOUS
  0
LAYER
  2
GREEN1
  70
0
  62
98
  6
CONTINUOUS
  0
LAYER
  2
CYAN1
  70
0
  62
138
  6
CONTINUOUS
  0
LAYER
  2
RED1
  70
0
  62
18
  6
CONTINUOUS
  0
LAYER
  2
MAGENTA1
  70
0
  62
228
  6
CONTINUOUS
  0
LAYER
  2
BROWN1
  70
0
  62
58
  6
CONTINUOUS
  0
LAYER
  2
BLUE2
  70
0
  62
5
  6
CONTINUOUS
  0
LAYER
  2
GREEN2
  70
0
  62
3
  6
CONTINUOUS
  0
LAYER
  2
CYAN2
  70
0
  62
4
  6
CONTINUOUS
  0
LAYER
  2
RED2
  70
0
  62
1
  6
CONTINUOUS
  0
LAYER
  2
MAGENTA2
  70
0
  62
6
  6
CONTINUOUS
  0
LAYER
  2
BROWN2
  70
0
  62
54
  6
CONTINUOUS
  0
LAYER
  2
BLUE3
  70
0
  62
171
  6
CONTINUOUS
  0
LAYER
  2
GREEN3
  70
0
  62
91
  6
CONTINUOUS
  0
LAYER
  2
CYAN3
  70
0
  62
131
  6
CONTINUOUS
  0
LAYER
  2
RED3
  70
0
  62
11
  6
CONTINUOUS
  0
LAYER
  2
MAGENTA3
  70
0
  62
221
  6
CONTINUOUS
  0
LAYER
  2
YELLOW3
  70
0
  62
2
  6
CONTINUOUS
  0
LAYER
  2
BLUE4
  70
0
  62
5
  6
CONTINUOUS
  0
LAYER
  2
GREEN4
  70
0
  62
3
  6
CONTINUOUS
  0
LAYER
  2
CYAN4
  70
0
  62
4
  6
CONTINUOUS
  0
LAYER
  2
RED4
  70
0
  62
1
  6
CONTINUOUS
  0
LAYER
  2
MAGENTA4
  70
0
  62
6
  6
CONTINUOUS
  0
LAYER
  2
YELLOW4
  70
0
  62
2
  6
CONTINUOUS
  0
ENDTAB
  0
ENDSEC
  0
SECTION
  2
ENTITIES
0
LINE
8
Black
10
7.578
20
5.69281
11
7.89725
21
5.42493
0
LINE
8
Black
10
7.89725
20
5.42493
11
8.10563
21
5.06401
0
LINE
8
Black
10
8.10563
20
5.06401
11
8.178
21
4.65358
0
LINE
8
Black
10
8.178
20
4.65358
11
8.178
21
4.64442
0
LINE
8
Black
10
8.178
20
4.64442
11
8.10563
21
4.23399
0
LINE
8
Black
10
8.10563
20
4.23399
11
7.89725
21
3.87307
0
LINE
8
Black
10
7.89725
20
3.87307
11
7.578
21
3.60519
0
LINE
8
Black
10
7.578
20
3.60519
11
7.18638
21
3.46265
0
LINE
8
Black
10
7.18638
20
3.46265
11
6.76962
21
3.46265
0
LINE
8
Black
10
6.76962
20
3.46265
11
6.378
21
3.60519
0
LINE
8
Black
10
6.378
20
3.60519
11
6.05875
21
3.87307
0
LINE
8
Black
10
6.05875
20
3.87307
11
5.85037
21
4.23399
0
LINE
8
Black
10
5.85037
20
4.23399
11
5.778
21
4.64442
0
LINE
8
Black
10
5.778
20
4.64442
11
5.778
21
4.65358
0
LINE
8
Black
10
5.778
20
4.65358
11
5.85037
21
5.06401
0
LINE
8
Black
10
5.85037
20
5.06401
11
6.05875
21
5.42493
0
LINE
8
Black
10
6.05875
20
5.42493
11
6.378
21
5.69281
0
LINE
8
Black
10
6.378
20
5.69281
11
6.76962
21
5.83535
0
LINE
8
Black
10
6.76962
20
5.83535
11
7.18638
21
5.83535
0
LINE
8
Black
10
7.18638
20
5.83535
11
7.578
21
5.69281
0
LINE
8
Black
10
16.949
20
5.70681
11
17.2683
21
5.43893
0
LINE
8
Black
10
17.2683
20
5.43893
11
17.4766
21
5.07801
0
LINE
8
Black
10
17.4766
20
5.07801
11
17.549
21
4.66758
0
LINE
8
Black
10
17.549
20
4.66758
11
17.549
21
4.65842
0
LINE
8
Black
10
17.549
20
4.65842
11
17.4766
21
4.24799
0
LINE
8
Black
10
17.4766
20
4.24799
11
17.2683
21
3.88707
0
LINE
8
Black
10
17.2683
20
3.88707
11
16.949
21
3.61919
0
LINE
8
Black
10
16.949
20
3.61919
11
16.5574
21
3.47665
0
LINE
8
Black
10
16.5574
20
3.47665
11
16.1406
21
3.47665
0
LINE
8
Black
10
16.1406
20
3.47665
11
15.749
21
3.61919
0
LINE
8
Black
10
15.749
20
3.61919
11
15.4297
21
3.88707
0
LINE
8
Black
10
15.4297
20
3.88707
11
15.2214
21
4.24799
0
LINE
8
Black
10
15.2214
20
4.24799
11
15.149
21
4.65842
0
LINE
8
Black
10
15.149
20
4.65842
11
15.149
21
4.66758
0
LINE
8
Black
10
15.149
20
4.66758
11
15.2214
21
5.07801
0
LINE
8
Black
10
15.2214
20
5.07801
11
15.4297
21
5.43893
0
LINE
8
Black
10
15.4297
20
5.43893
11
15.749
21
5.70681
0
LINE
8
Black
10
15.749
20
5.70681
11
16.1406
21
5.84935
0
LINE
8
Black
10
16.1406
20
5.84935
11
16.5574
21
5.84935
0
LINE
8
Black
10
16.5574
20
5.84935
11
16.949
21
5.70681
0
LINE
8
Black
10
21.627
20
7.25781
11
21.9463
21
6.98993
0
LINE
8
Black
10
21.9463
20
6.98993
11
22.1546
21
6.62901
0
LINE
8
Black
10
22.1546
20
6.62901
11
22.227
21
6.21858
0
LINE
8
Black
10
22.227
20
6.21858
11
22.227
21
6.20942
0
LINE
8
Black
10
22.227
20
6.20942
11
22.1546
21
5.79899
0
LINE
8
Black
10
22.1546
20
5.79899
11
21.9463
21
5.43807
0
LINE
8
Black
10
21.9463
20
5.43807
11
21.627
21
5.17019
0
LINE
8
Black
10
21.627
20
5.17019
11
21.2354
21
5.02765
0
LINE
8
Black
10
21.2354
20
5.02765
11
20.8186
21
5.02765
0
LINE
8
Black
10
20.8186
20
5.02765
11
20.427
21
5.17019
0
LINE
8
Black
10
20.427
20
5.17019
11
20.1077
21
5.43807
0
LINE
8
Black
10
20.1077
20
5.43807
11
19.8994
21
5.79899
0
LINE
8
Black
10
19.8994
20
5.79899
11
19.827
21
6.20942
0
LINE
8
Black
10
19.827
20
6.20942
11
19.827
21
6.21858
0
LINE
8
Black
10
19.827
20
6.21858
11
19.8994
21
6.62901
0
LINE
8
Black
10
19.8994
20
6.62901
11
20.1077
21
6.98993
0
LINE
8
Black
10
20.1077
20
6.98993
11
20.427
21
7.25781
0
LINE
8
Black
10
20.427
20
7.25781
11
20.8186
21
7.40035
0
LINE
8
Black
10
20.8186
20
7.40035
11
21.2354
21
7.40035
0
LINE
8
Black
10
21.2354
20
7.40035
11
21.627
21
7.25781
0
LINE
8
Black
10
12.253
20
7.26981
11
12.5723
21
7.00193
0
LINE
8
Black
10
12.5723
20
7.00193
11
12.7806
21
6.64101
0
LINE
8
Black
10
12.7806
20
6.64101
11
12.853
21
6.23058
0
LINE
8
Black
10
12.853
20
6.23058
11
12.853
21
6.22142
0
LINE
8
Black
10
12.853
20
6.22142
11
12.7806
21
5.81099
0
LINE
8
Black
10
12.7806
20
5.81099
11
12.5723
21
5.45007
0
LINE
8
Black
10
12.5723
20
5.45007
11
12.253
21
5.18219
0
LINE
8
Black
10
12.253
20
5.18219
11
11.8614
21
5.03965
0
LINE
8
Black
10
11.8614
20
5.03965
11
11.4446
21
5.03965
0
LINE
8
Black
10
11.4446
20
5.03965
11
11.053
21
5.18219
0
LINE
8
Black
10
11.053
20
5.18219
11
10.7337
21
5.45007
0
LINE
8
Black
10
10.7337
20
5.45007
11
10.5254
21
5.81099
0
LINE
8
Black
10
10.5254
20
5.81099
11
10.453
21
6.22142
0
LINE
8
Black
10
10.453
20
6.22142
11
10.453
21
6.23058
0
LINE
8
Black
10
10.453
20
6.23058
11
10.5254
21
6.64101
0
LINE
8
Black
10
10.5254
20
6.64101
11
10.7337
21
7.00193
0
LINE
8
Black
10
10.7337
20
7.00193
11
11.053
21
7.26981
0
LINE
8
Black
10
11.053
20
7.26981
11
11.4446
21
7.41235
0
LINE
8
Black
10
11.4446
20
7.41235
11
11.8614
21
7.41235
0
LINE
8
Black
10
11.8614
20
7.41235
11
12.253
21
7.26981
0
LINE
8
Black
10
8.178
20
8.529
11
5.778
21
8.529
0
LINE
8
Black
10
5.778
20
8.529
11
5.778
21
10.929
0
LINE
8
Black
10
5.778
20
10.929
11
8.178
21
10.929
0
LINE
8
Black
10
8.178
20
10.929
11
8.178
21
8.529
0
LINE
8
Black
10
17.549
20
8.543
11
15.149
21
8.543
0
LINE
8
Black
10
15.149
20
8.543
11
15.149
21
10.943
0
LINE
8
Black
10
15.149
20
10.943
11
17.549
21
10.943
0
LINE
8
Black
10
17.549
20
10.943
11
17.549
21
8.543
0
LINE
8
Black
10
22.227
20
10.094
11
19.827
21
10.094
0
LINE
8
Black
10
19.827
20
10.094
11
19.827
21
12.494
0
LINE
8
Black
10
19.827
20
12.494
11
22.227
21
12.494
0
LINE
8
Black
10
22.227
20
12.494
11
22.227
21
10.094
0
LINE
8
Black
10
12.853
20
10.106
11
10.453
21
10.106
0
LINE
8
Black
10
10.453
20
10.106
11
10.453
21
12.506
0
LINE
8
Black
10
10.453
20
12.506
11
12.853
21
12.506
0
LINE
8
Black
10
12.853
20
12.506
11
12.853
21
10.106
0
LINE
8
Black
10
17.547
20
15.494
11
15.147
21
15.494
0
LINE
8
Black
10
15.147
20
15.494
11
15.147
21
17.894
0
LINE
8
Black
10
15.147
20
17.894
11
17.547
21
17.894
0
LINE
8
Black
10
17.547
20
17.894
11
17.547
21
15.494
0
LINE
8
Black
10
8.173
20
15.506
11
5.773
21
15.506
0
LINE
8
Black
10
5.773
20
15.506
11
5.773
21
17.906
0
LINE
8
Black
10
5.773
20
17.906
11
8.173
21
17.906
0
LINE
8
Black
10
8.173
20
17.906
11
8.173
21
15.506
0
LINE
8
Black
10
12.851
20
17.057
11
10.451
21
17.057
0
LINE
8
Black
10
10.451
20
17.057
11
10.451
21
19.457
0
LINE
8
Black
10
10.451
20
19.457
11
12.851
21
19.457
0
LINE
8
Black
10
12.851
20
19.457
11
12.851
21
17.057
0
LINE
8
Black
10
22.222
20
17.071
11
19.822
21
17.071
0
LINE
8
Black
10
19.822
20
17.071
11
19.822
21
19.471
0
LINE
8
Black
10
19.822
20
19.471
11
22.222
21
19.471
0
LINE
8
Black
10
22.222
20
19.471
11
22.222
21
17.071
0
LINE
8
Black
10
16.947
20
22.8178
11
17.2663
21
22.5499
0
LINE
8
Black
10
17.2663
20
22.5499
11
17.4746
21
22.189
0
LINE
8
Black
10
17.4746
20
22.189
11
17.547
21
21.7786
0
LINE
8
Black
10
17.547
20
21.7786
11
17.547
21
21.7694
0
LINE
8
Black
10
17.547
20
21.7694
11
17.4746
21
21.359
0
LINE
8
Black
10
17.4746
20
21.359
11
17.2663
21
20.9981
0
LINE
8
Black
10
17.2663
20
20.9981
11
16.947
21
20.7302
0
LINE
8
Black
10
16.947
20
20.7302
11
16.5554
21
20.5876
0
LINE
8
Black
10
16.5554
20
20.5876
11
16.1386
21
20.5876
0
LINE
8
Black
10
16.1386
20
20.5876
11
15.747
21
20.7302
0
LINE
8
Black
10
15.747
20
20.7302
11
15.4277
21
20.9981
0
LINE
8
Black
10
15.4277
20
20.9981
11
15.2194
21
21.359
0
LINE
8
Black
10
15.2194
20
21.359
11
15.147
21
21.7694
0
LINE
8
Black
10
15.147
20
21.7694
11
15.147
21
21.7786
0
LINE
8
Black
10
15.147
20
21.7786
11
15.2194
21
22.189
0
LINE
8
Black
10
15.2194
20
22.189
11
15.4277
21
22.5499
0
LINE
8
Black
10
15.4277
20
22.5499
11
15.747
21
22.8178
0
LINE
8
Black
10
15.747
20
22.8178
11
16.1386
21
22.9604
0
LINE
8
Black
10
16.1386
20
22.9604
11
16.5554
21
22.9604
0
LINE
8
Black
10
16.5554
20
22.9604
11
16.947
21
22.8178
0
LINE
8
Black
10
7.573
20
22.8298
11
7.89225
21
22.5619
0
LINE
8
Black
10
7.89225
20
22.5619
11
8.10063
21
22.201
0
LINE
8
Black
10
8.10063
20
22.201
11
8.173
21
21.7906
0
LINE
8
Black
10
8.173
20
21.7906
11
8.173
21
21.7814
0
LINE
8
Black
10
8.173
20
21.7814
11
8.10063
21
21.371
0
LINE
8
Black
10
8.10063
20
21.371
11
7.89225
21
21.0101
0
LINE
8
Black
10
7.89225
20
21.0101
11
7.573
21
20.7422
0
LINE
8
Black
10
7.573
20
20.7422
11
7.18138
21
20.5996
0
LINE
8
Black
10
7.18138
20
20.5996
11
6.76462
21
20.5996
0
LINE
8
Black
10
6.76462
20
20.5996
11
6.373
21
20.7422
0
LINE
8
Black
10
6.373
20
20.7422
11
6.05375
21
21.0101
0
LINE
8
Black
10
6.05375
20
21.0101
11
5.84537
21
21.371
0
LINE
8
Black
10
5.84537
20
21.371
11
5.773
21
21.7814
0
LINE
8
Black
10
5.773
20
21.7814
11
5.773
21
21.7906
0
LINE
8
Black
10
5.773
20
21.7906
11
5.84537
21
22.201
0
LINE
8
Black
10
5.84537
20
22.201
11
6.05375
21
22.5619
0
LINE
8
Black
10
6.05375
20
22.5619
11
6.373
21
22.8298
0
LINE
8
Black
10
6.373
20
22.8298
11
6.76462
21
22.9724
0
LINE
8
Black
10
6.76462
20
22.9724
11
7.18138
21
22.9724
0
LINE
8
Black
10
7.18138
20
22.9724
11
7.573
21
22.8298
0
LINE
8
Black
10
12.251
20
24.3808
11
12.5703
21
24.1129
0
LINE
8
Black
10
12.5703
20
24.1129
11
12.7786
21
23.752
0
LINE
8
Black
10
12.7786
20
23.752
11
12.851
21
23.3416
0
LINE
8
Black
10
12.851
20
23.3416
11
12.851
21
23.3324
0
LINE
8
Black
10
12.851
20
23.3324
11
12.7786
21
22.922
0
LINE
8
Black
10
12.7786
20
22.922
11
12.5703
21
22.5611
0
LINE
8
Black
10
12.5703
20
22.5611
11
12.251
21
22.2932
0
LINE
8
Black
10
12.251
20
22.2932
11
11.8594
21
22.1506
0
LINE
8
Black
10
11.8594
20
22.1506
11
11.4426
21
22.1506
0
LINE
8
Black
10
11.4426
20
22.1506
11
11.051
21
22.2932
0
LINE
8
Black
10
11.051
20
22.2932
11
10.7317
21
22.5611
0
LINE
8
Black
10
10.7317
20
22.5611
11
10.5234
21
22.922
0
LINE
8
Black
10
10.5234
20
22.922
11
10.451
21
23.3324
0
LINE
8
Black
10
10.451
20
23.3324
11
10.451
21
23.3416
0
LINE
8
Black
10
10.451
20
23.3416
11
10.5234
21
23.752
0
LINE
8
Black
10
10.5234
20
23.752
11
10.7317
21
24.1129
0
LINE
8
Black
10
10.7317
20
24.1129
11
11.051
21
24.3808
0
LINE
8
Black
10
11.051
20
24.3808
11
11.4426
21
24.5234
0
LINE
8
Black
10
11.4426
20
24.5234
11
11.8594
21
24.5234
0
LINE
8
Black
10
11.8594
20
24.5234
11
12.251
21
24.3808
0
LINE
8
Black
10
21.622
20
24.3948
11
21.9413
21
24.1269
0
LINE
8
Black
10
21.9413
20
24.1269
11
22.1496
21
23.766
0
LINE
8
Black
10
22.1496
20
23.766
11
22.222
21
23.3556
0
LINE
8
Black
10
22.222
20
23.3556
11
22.222
21
23.3464
0
LINE
8
Black
10
22.222
20
23.3464
11
22.1496
21
22.936
0
LINE
8
Black
10
22.1496
20
22.936
11
21.9413
21
22.5751
0
LINE
8
Black
10
21.9413
20
22.5751
11
21.622
21
22.3072
0
LINE
8
Black
10
21.622
20
22.3072
11
21.2304
21
22.1646
0
LINE
8
Black
10
21.2304
20
22.1646
11
20.8136
21
22.1646
0
LINE
8
Black
10
20.8136
20
22.1646
11
20.422
21
22.3072
0
LINE
8
Black
10
20.422
20
22.3072
11
20.1027
21
22.5751
0
LINE
8
Black
10
20.1027
20
22.5751
11
19.8944
21
22.936
0
LINE
8
Black
10
19.8944
20
22.936
11
19.822
21
23.3464
0
LINE
8
Black
10
19.822
20
23.3464
11
19.822
21
23.3556
0
LINE
8
Black
10
19.822
20
23.3556
11
19.8944
21
23.766
0
LINE
8
Black
10
19.8944
20
23.766
11
20.1027
21
24.1269
0
LINE
8
Black
10
20.1027
20
24.1269
11
20.422
21
24.3948
0
LINE
8
Black
10
20.422
20
24.3948
11
20.8136
21
24.5374
0
LINE
8
Black
10
20.8136
20
24.5374
11
21.2304
21
24.5374
0
LINE
8
Black
10
21.2304
20
24.5374
11
21.622
21
24.3948
  0
ENDSEC
  0
EOF
