  0
SECTION
  2
HEADER
  9
$ANGBASE
  50
0.0
  9
$ANGDIR
  70
  1
  9
$MEASUREMENT
  70
0
  0
ENDSEC
  0
SECTION
  2
TABLES
  0
TABLE
  2
LTYPE
  70
1
  0
LTYPE
  2
CONTINUOUS
  70
0
  3
Solid line
  72
65
  73
0
  40
0.0
  0
ENDTAB
  0
TABLE
  2
STYLE
  70
4
  0
STYLE
  2
KICAD
  70
0
  40
0
  41
1
  42
1
  50
0
  71
0
  3
isocp.shx
  0
STYLE
  2
KICADB
  70
0
  40
0
  41
1
  42
1
  50
0
  71
0
  3
isocp.shx
  0
STYLE
  2
KICADI
  70
0
  40
0
  41
1
  42
1
  50
15
  71
0
  3
isocp.shx
  0
STYLE
  2
KICADBI
  70
0
  40
0
  41
1
  42
1
  50
15
  71
0
  3
isocp.shx
  0
ENDTAB
  0
TABLE
  2
LAYER
  70
30
  0
LAYER
  2
BLACK
  70
0
  62
7
  6
CONTINUOUS
  0
LAYER
  2
GRAY1
  70
0
  62
251
  6
CONTINUOUS
  0
LAYER
  2
GRAY2
  70
0
  62
8
  6
CONTINUOUS
  0
LAYER
  2
GRAY3
  70
0
  62
9
  6
CONTINUOUS
  0
LAYER
  2
WHITE
  70
0
  62
7
  6
CONTINUOUS
  0
LAYER
  2
LYELLOW
  70
0
  62
51
  6
CONTINUOUS
  0
LAYER
  2
BLUE1
  70
0
  62
178
  6
CONTINUOUS
  0
LAYER
  2
GREEN1
  70
0
  62
98
  6
CONTINUOUS
  0
LAYER
  2
CYAN1
  70
0
  62
138
  6
CONTINUOUS
  0
LAYER
  2
RED1
  70
0
  62
18
  6
CONTINUOUS
  0
LAYER
  2
MAGENTA1
  70
0
  62
228
  6
CONTINUOUS
  0
LAYER
  2
BROWN1
  70
0
  62
58
  6
CONTINUOUS
  0
LAYER
  2
BLUE2
  70
0
  62
5
  6
CONTINUOUS
  0
LAYER
  2
GREEN2
  70
0
  62
3
  6
CONTINUOUS
  0
LAYER
  2
CYAN2
  70
0
  62
4
  6
CONTINUOUS
  0
LAYER
  2
RED2
  70
0
  62
1
  6
CONTINUOUS
  0
LAYER
  2
MAGENTA2
  70
0
  62
6
  6
CONTINUOUS
  0
LAYER
  2
BROWN2
  70
0
  62
54
  6
CONTINUOUS
  0
LAYER
  2
BLUE3
  70
0
  62
171
  6
CONTINUOUS
  0
LAYER
  2
GREEN3
  70
0
  62
91
  6
CONTINUOUS
  0
LAYER
  2
CYAN3
  70
0
  62
131
  6
CONTINUOUS
  0
LAYER
  2
RED3
  70
0
  62
11
  6
CONTINUOUS
  0
LAYER
  2
MAGENTA3
  70
0
  62
221
  6
CONTINUOUS
  0
LAYER
  2
YELLOW3
  70
0
  62
2
  6
CONTINUOUS
  0
LAYER
  2
BLUE4
  70
0
  62
5
  6
CONTINUOUS
  0
LAYER
  2
GREEN4
  70
0
  62
3
  6
CONTINUOUS
  0
LAYER
  2
CYAN4
  70
0
  62
4
  6
CONTINUOUS
  0
LAYER
  2
RED4
  70
0
  62
1
  6
CONTINUOUS
  0
LAYER
  2
MAGENTA4
  70
0
  62
6
  6
CONTINUOUS
  0
LAYER
  2
YELLOW4
  70
0
  62
2
  6
CONTINUOUS
  0
ENDTAB
  0
ENDSEC
  0
SECTION
  2
ENTITIES
0
LINE
8
Black
10
26.0065
20
28.0739
11
26.013
21
28.0739
0
LINE
8
Black
10
26.013
20
28.0739
11
26.6971
21
27.9532
0
LINE
8
Black
10
26.6971
20
27.9532
11
26.7215
21
27.9443
0
LINE
8
Black
10
26.7215
20
27.9443
11
27.3231
21
27.597
0
LINE
8
Black
10
27.3231
20
27.597
11
27.343
21
27.5803
0
LINE
8
Black
10
27.343
20
27.5803
11
27.343
21
27.5803
0
LINE
8
Black
10
27.343
20
27.5803
11
27.7895
21
27.0482
0
LINE
8
Black
10
27.7895
20
27.0482
11
27.7895
21
27.0482
0
LINE
8
Black
10
27.7895
20
27.0482
11
27.8025
21
27.0257
0
LINE
8
Black
10
27.8025
20
27.0257
11
28.0401
21
26.3729
0
LINE
8
Black
10
28.0401
20
26.3729
11
28.0418
21
26.3633
0
LINE
8
Black
10
28.0418
20
26.3633
11
28.0443
21
26.3538
0
LINE
8
Black
10
28.0443
20
26.3538
11
28.0747
21
26.0065
0
LINE
8
Black
10
28.0747
20
26.0065
11
28.0744
21
26.0032
0
LINE
8
Black
10
28.0744
20
26.0032
11
28.075
21
26
0
LINE
8
Black
10
28.075
20
26
11
28.075
21
2
0
LINE
8
Black
10
28.075
20
2
11
28.0739
21
1.99354
0
LINE
8
Black
10
28.0739
20
1.99354
11
28.0739
21
1.98698
0
LINE
8
Black
10
28.0739
20
1.98698
11
27.9532
21
1.30294
0
LINE
8
Black
10
27.9532
20
1.30294
11
27.9443
21
1.27846
0
LINE
8
Black
10
27.9443
20
1.27846
11
27.9443
21
1.27846
0
LINE
8
Black
10
27.9443
20
1.27846
11
27.597
21
0.676925
0
LINE
8
Black
10
27.597
20
0.676925
11
27.5803
21
0.656971
0
LINE
8
Black
10
27.5803
20
0.656971
11
27.5803
21
0.656969
0
LINE
8
Black
10
27.5803
20
0.656969
11
27.0482
21
0.210496
0
LINE
8
Black
10
27.0482
20
0.210496
11
27.0257
21
0.197472
0
LINE
8
Black
10
27.0257
20
0.197472
11
26.3729
21
-0.040093
0
LINE
8
Black
10
26.3729
20
-0.040093
11
26.3633
21
-0.041794
0
LINE
8
Black
10
26.3633
20
-0.041794
11
26.3538
21
-0.044331
0
LINE
8
Black
10
26.3538
20
-0.044331
11
26.0065
21
-0.074715
0
LINE
8
Black
10
26.0065
20
-0.074715
11
26.0032
21
-0.074427
0
LINE
8
Black
10
26.0032
20
-0.074427
11
26
21
-0.075
0
LINE
8
Black
10
26
20
-0.075
11
2
21
-0.075
0
LINE
8
Black
10
2
20
-0.075
11
1.99354
21
-0.07386
0
LINE
8
Black
10
1.99354
20
-0.07386
11
1.98698
21
-0.07386
0
LINE
8
Black
10
1.98698
20
-0.07386
11
1.30294
21
0.046754
0
LINE
8
Black
10
1.30294
20
0.046754
11
1.27846
21
0.055663
0
LINE
8
Black
10
1.27846
20
0.055663
11
1.27846
21
0.055665
0
LINE
8
Black
10
1.27846
20
0.055665
11
0.676925
21
0.402959
0
LINE
8
Black
10
0.676925
20
0.402959
11
0.656971
21
0.419702
0
LINE
8
Black
10
0.656971
20
0.419702
11
0.656969
21
0.419706
0
LINE
8
Black
10
0.656969
20
0.419706
11
0.210496
21
0.951791
0
LINE
8
Black
10
0.210496
20
0.951791
11
0.197472
21
0.974349
0
LINE
8
Black
10
0.197472
20
0.974349
11
-0.040093
21
1.62705
0
LINE
8
Black
10
-0.040093
20
1.62705
11
-0.041794
21
1.6367
0
LINE
8
Black
10
-0.041794
20
1.6367
11
-0.044331
21
1.64617
0
LINE
8
Black
10
-0.044331
20
1.64617
11
-0.074715
21
1.99346
0
LINE
8
Black
10
-0.074715
20
1.99346
11
-0.074427
21
1.99675
0
LINE
8
Black
10
-0.074427
20
1.99675
11
-0.075
21
2
0
LINE
8
Black
10
-0.075
20
2
11
-0.075
21
26
0
LINE
8
Black
10
-0.075
20
26
11
-0.073861
21
26.0065
0
LINE
8
Black
10
-0.073861
20
26.0065
11
-0.073861
21
26.013
0
LINE
8
Black
10
-0.073861
20
26.013
11
0.046754
21
26.6971
0
LINE
8
Black
10
0.046754
20
26.6971
11
0.055663
21
26.7215
0
LINE
8
Black
10
0.055663
20
26.7215
11
0.402959
21
27.3231
0
LINE
8
Black
10
0.402959
20
27.3231
11
0.419702
21
27.343
0
LINE
8
Black
10
0.419702
20
27.343
11
0.419706
21
27.343
0
LINE
8
Black
10
0.419706
20
27.343
11
0.951788
21
27.7895
0
LINE
8
Black
10
0.951788
20
27.7895
11
0.95179
21
27.7895
0
LINE
8
Black
10
0.95179
20
27.7895
11
0.974348
21
27.8025
0
LINE
8
Black
10
0.974348
20
27.8025
11
1.62705
21
28.0401
0
LINE
8
Black
10
1.62705
20
28.0401
11
1.6367
21
28.0418
0
LINE
8
Black
10
1.6367
20
28.0418
11
1.64617
21
28.0443
0
LINE
8
Black
10
1.64617
20
28.0443
11
1.99346
21
28.0747
0
LINE
8
Black
10
1.99346
20
28.0747
11
1.99675
21
28.0744
0
LINE
8
Black
10
1.99675
20
28.0744
11
2
21
28.075
0
LINE
8
Black
10
2
20
28.075
11
26
21
28.075
0
LINE
8
Black
10
26
20
28.075
11
26.0065
21
28.0739
0
LINE
8
Black
10
2.00328
20
27.925
11
1.66907
21
27.8958
0
LINE
8
Black
10
1.66907
20
27.8958
11
1.03808
21
27.6661
0
LINE
8
Black
10
1.03808
20
27.6661
11
0.526251
21
27.2366
0
LINE
8
Black
10
0.526251
20
27.2366
11
0.192178
21
26.658
0
LINE
8
Black
10
0.192178
20
26.658
11
0.075
21
25.9934
0
LINE
8
Black
10
0.075
20
25.9934
11
0.075
21
2.00328
0
LINE
8
Black
10
0.075
20
2.00328
11
0.104238
21
1.66908
0
LINE
8
Black
10
0.104238
20
1.66908
11
0.333904
21
1.03808
0
LINE
8
Black
10
0.333904
20
1.03808
11
0.763377
21
0.526251
0
LINE
8
Black
10
0.763377
20
0.526251
11
1.34201
21
0.19218
0
LINE
8
Black
10
1.34201
20
0.19218
11
2.00656
21
0.075
0
LINE
8
Black
10
2.00656
20
0.075
11
25.9967
21
0.075
0
LINE
8
Black
10
25.9967
20
0.075
11
26.3309
21
0.104238
0
LINE
8
Black
10
26.3309
20
0.104238
11
26.9619
21
0.333904
0
LINE
8
Black
10
26.9619
20
0.333904
11
27.4737
21
0.763377
0
LINE
8
Black
10
27.4737
20
0.763377
11
27.8078
21
1.34201
0
LINE
8
Black
10
27.8078
20
1.34201
11
27.925
21
2.00656
0
LINE
8
Black
10
27.925
20
2.00656
11
27.925
21
25.9967
0
LINE
8
Black
10
27.925
20
25.9967
11
27.8958
21
26.3309
0
LINE
8
Black
10
27.8958
20
26.3309
11
27.6661
21
26.9619
0
LINE
8
Black
10
27.6661
20
26.9619
11
27.2366
21
27.4737
0
LINE
8
Black
10
27.2366
20
27.4737
11
26.658
21
27.8078
0
LINE
8
Black
10
26.658
20
27.8078
11
25.9934
21
27.925
0
LINE
8
Black
10
25.9934
20
27.925
11
2.00328
21
27.925
  0
ENDSEC
  0
EOF
