  0
SECTION
  2
HEADER
  9
$ANGBASE
  50
0.0
  9
$ANGDIR
  70
  1
  9
$MEASUREMENT
  70
0
  0
ENDSEC
  0
SECTION
  2
TABLES
  0
TABLE
  2
LTYPE
  70
1
  0
LTYPE
  2
CONTINUOUS
  70
0
  3
Solid line
  72
65
  73
0
  40
0.0
  0
ENDTAB
  0
TABLE
  2
STYLE
  70
4
  0
STYLE
  2
KICAD
  70
0
  40
0
  41
1
  42
1
  50
0
  71
0
  3
isocp.shx
  0
STYLE
  2
KICADB
  70
0
  40
0
  41
1
  42
1
  50
0
  71
0
  3
isocp.shx
  0
STYLE
  2
KICADI
  70
0
  40
0
  41
1
  42
1
  50
15
  71
0
  3
isocp.shx
  0
STYLE
  2
KICADBI
  70
0
  40
0
  41
1
  42
1
  50
15
  71
0
  3
isocp.shx
  0
ENDTAB
  0
TABLE
  2
LAYER
  70
30
  0
LAYER
  2
BLACK
  70
0
  62
7
  6
CONTINUOUS
  0
LAYER
  2
GRAY1
  70
0
  62
251
  6
CONTINUOUS
  0
LAYER
  2
GRAY2
  70
0
  62
8
  6
CONTINUOUS
  0
LAYER
  2
GRAY3
  70
0
  62
9
  6
CONTINUOUS
  0
LAYER
  2
WHITE
  70
0
  62
7
  6
CONTINUOUS
  0
LAYER
  2
LYELLOW
  70
0
  62
51
  6
CONTINUOUS
  0
LAYER
  2
BLUE1
  70
0
  62
178
  6
CONTINUOUS
  0
LAYER
  2
GREEN1
  70
0
  62
98
  6
CONTINUOUS
  0
LAYER
  2
CYAN1
  70
0
  62
138
  6
CONTINUOUS
  0
LAYER
  2
RED1
  70
0
  62
18
  6
CONTINUOUS
  0
LAYER
  2
MAGENTA1
  70
0
  62
228
  6
CONTINUOUS
  0
LAYER
  2
BROWN1
  70
0
  62
58
  6
CONTINUOUS
  0
LAYER
  2
BLUE2
  70
0
  62
5
  6
CONTINUOUS
  0
LAYER
  2
GREEN2
  70
0
  62
3
  6
CONTINUOUS
  0
LAYER
  2
CYAN2
  70
0
  62
4
  6
CONTINUOUS
  0
LAYER
  2
RED2
  70
0
  62
1
  6
CONTINUOUS
  0
LAYER
  2
MAGENTA2
  70
0
  62
6
  6
CONTINUOUS
  0
LAYER
  2
BROWN2
  70
0
  62
54
  6
CONTINUOUS
  0
LAYER
  2
BLUE3
  70
0
  62
171
  6
CONTINUOUS
  0
LAYER
  2
GREEN3
  70
0
  62
91
  6
CONTINUOUS
  0
LAYER
  2
CYAN3
  70
0
  62
131
  6
CONTINUOUS
  0
LAYER
  2
RED3
  70
0
  62
11
  6
CONTINUOUS
  0
LAYER
  2
MAGENTA3
  70
0
  62
221
  6
CONTINUOUS
  0
LAYER
  2
YELLOW3
  70
0
  62
2
  6
CONTINUOUS
  0
LAYER
  2
BLUE4
  70
0
  62
5
  6
CONTINUOUS
  0
LAYER
  2
GREEN4
  70
0
  62
3
  6
CONTINUOUS
  0
LAYER
  2
CYAN4
  70
0
  62
4
  6
CONTINUOUS
  0
LAYER
  2
RED4
  70
0
  62
1
  6
CONTINUOUS
  0
LAYER
  2
MAGENTA4
  70
0
  62
6
  6
CONTINUOUS
  0
LAYER
  2
YELLOW4
  70
0
  62
2
  6
CONTINUOUS
  0
ENDTAB
  0
ENDSEC
  0
SECTION
  2
ENTITIES
0
LINE
8
Black
10
6.5
20
0.35
11
1.5
21
0.35
0
LINE
8
Black
10
1.5
20
0.35
11
1.5
21
2.65
0
LINE
8
Black
10
1.5
20
2.65
11
6.5
21
2.65
0
LINE
8
Black
10
6.5
20
2.65
11
6.5
21
0.35
0
LINE
8
Black
10
13
20
0.35
11
8
21
0.35
0
LINE
8
Black
10
8
20
0.35
11
8
21
2.65
0
LINE
8
Black
10
8
20
2.65
11
13
21
2.65
0
LINE
8
Black
10
13
20
2.65
11
13
21
0.35
0
LINE
8
Black
10
20
20
0.35
11
15
21
0.35
0
LINE
8
Black
10
15
20
0.35
11
15
21
2.65
0
LINE
8
Black
10
15
20
2.65
11
20
21
2.65
0
LINE
8
Black
10
20
20
2.65
11
20
21
0.35
0
LINE
8
Black
10
26.5
20
0.35
11
21.5
21
0.35
0
LINE
8
Black
10
21.5
20
0.35
11
21.5
21
2.65
0
LINE
8
Black
10
21.5
20
2.65
11
26.5
21
2.65
0
LINE
8
Black
10
26.5
20
2.65
11
26.5
21
0.35
0
LINE
8
Black
10
2.65
20
11.5
11
0.35
21
11.5
0
LINE
8
Black
10
0.35
20
11.5
11
0.35
21
16.5
0
LINE
8
Black
10
0.35
20
16.5
11
2.65
21
16.5
0
LINE
8
Black
10
2.65
20
16.5
11
2.65
21
11.5
0
LINE
8
Black
10
27.65
20
11.5
11
25.35
21
11.5
0
LINE
8
Black
10
25.35
20
11.5
11
25.35
21
16.5
0
LINE
8
Black
10
25.35
20
16.5
11
27.65
21
16.5
0
LINE
8
Black
10
27.65
20
16.5
11
27.65
21
11.5
0
LINE
8
Black
10
6.5
20
25.35
11
1.5
21
25.35
0
LINE
8
Black
10
1.5
20
25.35
11
1.5
21
27.65
0
LINE
8
Black
10
1.5
20
27.65
11
6.5
21
27.65
0
LINE
8
Black
10
6.5
20
27.65
11
6.5
21
25.35
0
LINE
8
Black
10
13
20
25.35
11
8
21
25.35
0
LINE
8
Black
10
8
20
25.35
11
8
21
27.65
0
LINE
8
Black
10
8
20
27.65
11
13
21
27.65
0
LINE
8
Black
10
13
20
27.65
11
13
21
25.35
0
LINE
8
Black
10
20
20
25.35
11
15
21
25.35
0
LINE
8
Black
10
15
20
25.35
11
15
21
27.65
0
LINE
8
Black
10
15
20
27.65
11
20
21
27.65
0
LINE
8
Black
10
20
20
27.65
11
20
21
25.35
0
LINE
8
Black
10
26.5
20
25.35
11
21.5
21
25.35
0
LINE
8
Black
10
21.5
20
25.35
11
21.5
21
27.65
0
LINE
8
Black
10
21.5
20
27.65
11
26.5
21
27.65
0
LINE
8
Black
10
26.5
20
27.65
11
26.5
21
25.35
  0
ENDSEC
  0
EOF
