solid OpenSCAD_Model
  facet normal -1 0 0
    outer loop
      vertex -20 -16 -1.6
      vertex -20 16 1.8
      vertex -20 16 -1.6
    endloop
  endfacet
  facet normal -1 -0 0
    outer loop
      vertex -20 16 1.8
      vertex -20 -16 -1.6
      vertex -20 -16 1.8
    endloop
  endfacet
  facet normal -0 0 1
    outer loop
      vertex 14 -11 -5.72205e-07
      vertex 15 -15 -5.72205e-07
      vertex 15 -11 -5.72205e-07
    endloop
  endfacet
  facet normal 0 0 1
    outer loop
      vertex 15 -15 -5.72205e-07
      vertex 14 -11 -5.72205e-07
      vertex 14 -15 -5.72205e-07
    endloop
  endfacet
  facet normal -0 0 1
    outer loop
      vertex -15 -11 -5.72205e-07
      vertex -14 -15 -5.72205e-07
      vertex -14 -11 -5.72205e-07
    endloop
  endfacet
  facet normal 0 0 1
    outer loop
      vertex -14 -15 -5.72205e-07
      vertex -15 -11 -5.72205e-07
      vertex -15 -15 -5.72205e-07
    endloop
  endfacet
  facet normal -0 0 1
    outer loop
      vertex 14 15 -5.72205e-07
      vertex 15 11 -5.72205e-07
      vertex 15 15 -5.72205e-07
    endloop
  endfacet
  facet normal 0 0 1
    outer loop
      vertex 15 11 -5.72205e-07
      vertex 14 15 -5.72205e-07
      vertex 14 11 -5.72205e-07
    endloop
  endfacet
  facet normal -0 0 1
    outer loop
      vertex -15 15 -5.72205e-07
      vertex -14 11 -5.72205e-07
      vertex -14 15 -5.72205e-07
    endloop
  endfacet
  facet normal 0 0 1
    outer loop
      vertex -14 11 -5.72205e-07
      vertex -15 15 -5.72205e-07
      vertex -15 11 -5.72205e-07
    endloop
  endfacet
  facet normal 1 -0 0
    outer loop
      vertex 20 -16 1.8
      vertex 20 16 -1.6
      vertex 20 16 1.8
    endloop
  endfacet
  facet normal 1 0 0
    outer loop
      vertex 20 16 -1.6
      vertex 20 -16 1.8
      vertex 20 -16 -1.6
    endloop
  endfacet
  facet normal 0 0 -1
    outer loop
      vertex -14 11 -1.6
      vertex -15 11 -1.6
      vertex -14 15 -1.6
    endloop
  endfacet
  facet normal 0 0 -1
    outer loop
      vertex 20 -16 -1.6
      vertex 15 -11 -1.6
      vertex 20 16 -1.6
    endloop
  endfacet
  facet normal 0 0 -1
    outer loop
      vertex 20 -16 -1.6
      vertex 14 -15 -1.6
      vertex 15 -11 -1.6
    endloop
  endfacet
  facet normal 0 0 -1
    outer loop
      vertex 20 -16 -1.6
      vertex -14 -15 -1.6
      vertex 14 -15 -1.6
    endloop
  endfacet
  facet normal 0 0 -1
    outer loop
      vertex -14 -15 -1.6
      vertex -15 -11 -1.6
      vertex -14 -11 -1.6
    endloop
  endfacet
  facet normal -0 0 -1
    outer loop
      vertex -15 -11 -1.6
      vertex -20 -16 -1.6
      vertex -15 11 -1.6
    endloop
  endfacet
  facet normal -0 0 -1
    outer loop
      vertex -14 -15 -1.6
      vertex -20 -16 -1.6
      vertex -15 -11 -1.6
    endloop
  endfacet
  facet normal 0 0 -1
    outer loop
      vertex -20 -16 -1.6
      vertex -14 -15 -1.6
      vertex 20 -16 -1.6
    endloop
  endfacet
  facet normal 0 0 -1
    outer loop
      vertex 15 11 -1.6
      vertex 20 16 -1.6
      vertex 15 -11 -1.6
    endloop
  endfacet
  facet normal 0 0 -1
    outer loop
      vertex 14 15 -1.6
      vertex 15 11 -1.6
      vertex 14 11 -1.6
    endloop
  endfacet
  facet normal 0 0 -1
    outer loop
      vertex 15 11 -1.6
      vertex 14 15 -1.6
      vertex 20 16 -1.6
    endloop
  endfacet
  facet normal 0 0 -1
    outer loop
      vertex -14 15 -1.6
      vertex 20 16 -1.6
      vertex 14 15 -1.6
    endloop
  endfacet
  facet normal 0 0 -1
    outer loop
      vertex -14 15 -1.6
      vertex -20 16 -1.6
      vertex 20 16 -1.6
    endloop
  endfacet
  facet normal 0 0 -1
    outer loop
      vertex -15 11 -1.6
      vertex -20 16 -1.6
      vertex -14 15 -1.6
    endloop
  endfacet
  facet normal 0 0 -1
    outer loop
      vertex -20 16 -1.6
      vertex -15 11 -1.6
      vertex -20 -16 -1.6
    endloop
  endfacet
  facet normal -0 0 -1
    outer loop
      vertex 15 -11 -1.6
      vertex 14 -15 -1.6
      vertex 14 -11 -1.6
    endloop
  endfacet
  facet normal 0 1 -0
    outer loop
      vertex 14 -15 -1.6
      vertex -14 -15 -5.72205e-07
      vertex 14 -15 -5.72205e-07
    endloop
  endfacet
  facet normal 0 1 0
    outer loop
      vertex -14 -15 -5.72205e-07
      vertex 14 -15 -1.6
      vertex -14 -15 -1.6
    endloop
  endfacet
  facet normal 0 1 0
    outer loop
      vertex 14 -15 -5.72205e-07
      vertex 15 -15 1.8
      vertex 15 -15 -5.72205e-07
    endloop
  endfacet
  facet normal 0 1 0
    outer loop
      vertex 15 -15 1.8
      vertex 14 -15 -5.72205e-07
      vertex -15 -15 1.8
    endloop
  endfacet
  facet normal 0 1 -0
    outer loop
      vertex -14 -15 -5.72205e-07
      vertex -15 -15 1.8
      vertex 14 -15 -5.72205e-07
    endloop
  endfacet
  facet normal 0 1 0
    outer loop
      vertex -15 -15 1.8
      vertex -14 -15 -5.72205e-07
      vertex -15 -15 -5.72205e-07
    endloop
  endfacet
  facet normal 0 -1 0
    outer loop
      vertex -14 15 -1.6
      vertex 14 15 -5.72205e-07
      vertex -14 15 -5.72205e-07
    endloop
  endfacet
  facet normal 0 -1 -0
    outer loop
      vertex 14 15 -5.72205e-07
      vertex -14 15 -1.6
      vertex 14 15 -1.6
    endloop
  endfacet
  facet normal 0 -1 0
    outer loop
      vertex -14 15 -5.72205e-07
      vertex -15 15 1.8
      vertex -15 15 -5.72205e-07
    endloop
  endfacet
  facet normal 0 -1 0
    outer loop
      vertex -15 15 1.8
      vertex -14 15 -5.72205e-07
      vertex 15 15 1.8
    endloop
  endfacet
  facet normal 0 -1 0
    outer loop
      vertex 14 15 -5.72205e-07
      vertex 15 15 1.8
      vertex -14 15 -5.72205e-07
    endloop
  endfacet
  facet normal 0 -1 -0
    outer loop
      vertex 15 15 1.8
      vertex 14 15 -5.72205e-07
      vertex 15 15 -5.72205e-07
    endloop
  endfacet
  facet normal 0 -1 0
    outer loop
      vertex -15 11 -1.6
      vertex -14 11 -5.72205e-07
      vertex -15 11 -5.72205e-07
    endloop
  endfacet
  facet normal 0 -1 -0
    outer loop
      vertex -14 11 -5.72205e-07
      vertex -15 11 -1.6
      vertex -14 11 -1.6
    endloop
  endfacet
  facet normal 0 -1 0
    outer loop
      vertex 14 11 -1.6
      vertex 15 11 -5.72205e-07
      vertex 14 11 -5.72205e-07
    endloop
  endfacet
  facet normal 0 -1 -0
    outer loop
      vertex 15 11 -5.72205e-07
      vertex 14 11 -1.6
      vertex 15 11 -1.6
    endloop
  endfacet
  facet normal 0 1 -0
    outer loop
      vertex -14 -11 -1.6
      vertex -15 -11 -5.72205e-07
      vertex -14 -11 -5.72205e-07
    endloop
  endfacet
  facet normal 0 1 0
    outer loop
      vertex -15 -11 -5.72205e-07
      vertex -14 -11 -1.6
      vertex -15 -11 -1.6
    endloop
  endfacet
  facet normal 0 1 -0
    outer loop
      vertex 15 -11 -1.6
      vertex 14 -11 -5.72205e-07
      vertex 15 -11 -5.72205e-07
    endloop
  endfacet
  facet normal 0 1 0
    outer loop
      vertex 14 -11 -5.72205e-07
      vertex 15 -11 -1.6
      vertex 14 -11 -1.6
    endloop
  endfacet
  facet normal 1 -0 0
    outer loop
      vertex -14 -15 -5.72205e-07
      vertex -14 -11 -1.6
      vertex -14 -11 -5.72205e-07
    endloop
  endfacet
  facet normal 1 0 0
    outer loop
      vertex -14 -11 -1.6
      vertex -14 -15 -5.72205e-07
      vertex -14 -15 -1.6
    endloop
  endfacet
  facet normal 1 -0 0
    outer loop
      vertex -14 11 -5.72205e-07
      vertex -14 15 -1.6
      vertex -14 15 -5.72205e-07
    endloop
  endfacet
  facet normal 1 0 0
    outer loop
      vertex -14 15 -1.6
      vertex -14 11 -5.72205e-07
      vertex -14 11 -1.6
    endloop
  endfacet
  facet normal -1 0 0
    outer loop
      vertex 14 -15 -1.6
      vertex 14 -11 -5.72205e-07
      vertex 14 -11 -1.6
    endloop
  endfacet
  facet normal -1 -0 0
    outer loop
      vertex 14 -11 -5.72205e-07
      vertex 14 -15 -1.6
      vertex 14 -15 -5.72205e-07
    endloop
  endfacet
  facet normal -1 0 0
    outer loop
      vertex 14 11 -1.6
      vertex 14 15 -5.72205e-07
      vertex 14 15 -1.6
    endloop
  endfacet
  facet normal -1 -0 0
    outer loop
      vertex 14 15 -5.72205e-07
      vertex 14 11 -1.6
      vertex 14 11 -5.72205e-07
    endloop
  endfacet
  facet normal 0 1 -0
    outer loop
      vertex 20 16 -1.6
      vertex -20 16 1.8
      vertex 20 16 1.8
    endloop
  endfacet
  facet normal 0 1 0
    outer loop
      vertex -20 16 1.8
      vertex 20 16 -1.6
      vertex -20 16 -1.6
    endloop
  endfacet
  facet normal 0 -1 0
    outer loop
      vertex -20 -16 -1.6
      vertex 20 -16 1.8
      vertex -20 -16 1.8
    endloop
  endfacet
  facet normal 0 -1 -0
    outer loop
      vertex 20 -16 1.8
      vertex -20 -16 -1.6
      vertex 20 -16 -1.6
    endloop
  endfacet
  facet normal 0 0 1
    outer loop
      vertex 20 16 1.8
      vertex 15 15 1.8
      vertex 20 -16 1.8
    endloop
  endfacet
  facet normal 0 0 1
    outer loop
      vertex 20 16 1.8
      vertex -15 15 1.8
      vertex 15 15 1.8
    endloop
  endfacet
  facet normal 0 0 1
    outer loop
      vertex -15 15 1.8
      vertex -20 16 1.8
      vertex -15 -15 1.8
    endloop
  endfacet
  facet normal -0 0 1
    outer loop
      vertex -20 16 1.8
      vertex -15 15 1.8
      vertex 20 16 1.8
    endloop
  endfacet
  facet normal -0 0 1
    outer loop
      vertex 15 -15 1.8
      vertex 20 -16 1.8
      vertex 15 15 1.8
    endloop
  endfacet
  facet normal -0 0 1
    outer loop
      vertex -15 -15 1.8
      vertex 20 -16 1.8
      vertex 15 -15 1.8
    endloop
  endfacet
  facet normal 0 0 1
    outer loop
      vertex -15 -15 1.8
      vertex -20 -16 1.8
      vertex 20 -16 1.8
    endloop
  endfacet
  facet normal 0 0 1
    outer loop
      vertex -20 -16 1.8
      vertex -15 -15 1.8
      vertex -20 16 1.8
    endloop
  endfacet
  facet normal 1 0 0
    outer loop
      vertex -15 15 1.8
      vertex -15 11 -5.72205e-07
      vertex -15 15 -5.72205e-07
    endloop
  endfacet
  facet normal 1 0 0
    outer loop
      vertex -15 11 -5.72205e-07
      vertex -15 -11 -5.72205e-07
      vertex -15 11 -1.6
    endloop
  endfacet
  facet normal 1 0 0
    outer loop
      vertex -15 15 1.8
      vertex -15 -11 -5.72205e-07
      vertex -15 11 -5.72205e-07
    endloop
  endfacet
  facet normal 1 -0 0
    outer loop
      vertex -15 -15 1.8
      vertex -15 -11 -5.72205e-07
      vertex -15 15 1.8
    endloop
  endfacet
  facet normal 1 0 0
    outer loop
      vertex -15 -11 -5.72205e-07
      vertex -15 -15 1.8
      vertex -15 -15 -5.72205e-07
    endloop
  endfacet
  facet normal 1 0 0
    outer loop
      vertex -15 11 -1.6
      vertex -15 -11 -5.72205e-07
      vertex -15 -11 -1.6
    endloop
  endfacet
  facet normal -1 0 0
    outer loop
      vertex 15 11 -1.6
      vertex 15 -11 -1.6
      vertex 15 11 -5.72205e-07
    endloop
  endfacet
  facet normal -1 0 0
    outer loop
      vertex 15 11 -5.72205e-07
      vertex 15 15 1.8
      vertex 15 15 -5.72205e-07
    endloop
  endfacet
  facet normal -1 0 0
    outer loop
      vertex 15 -11 -5.72205e-07
      vertex 15 11 -5.72205e-07
      vertex 15 -11 -1.6
    endloop
  endfacet
  facet normal -1 0 0
    outer loop
      vertex 15 11 -5.72205e-07
      vertex 15 -11 -5.72205e-07
      vertex 15 15 1.8
    endloop
  endfacet
  facet normal -1 0 0
    outer loop
      vertex 15 -15 1.8
      vertex 15 -11 -5.72205e-07
      vertex 15 -15 -5.72205e-07
    endloop
  endfacet
  facet normal -1 0 0
    outer loop
      vertex 15 -11 -5.72205e-07
      vertex 15 -15 1.8
      vertex 15 15 1.8
    endloop
  endfacet
endsolid OpenSCAD_Model
